<svg width="2399" height="1175" viewBox="0 0 2399 1175" fill="none" xmlns="http://www.w3.org/2000/svg">
<path d="M871.31 218.023C871.31 218.023 948.354 -76.1809 1572.18 110.512C2196 297.204 2273.04 3 2273.04 3L2389.09 828.205C2389.09 828.205 2130.5 867 1924 887.5C1717.5 908 1599 916.5 1487 935.346C1375 954.191 1207.5 967.5 1162 984C1116.5 1000.5 979.935 1037.78 979.935 1037.78L984.883 935.346L953.706 760.16L903.476 511.237L893.578 476.843L852.256 456.553L763.18 472.389L738.682 486.741L604.571 605.264L590.467 627.286L655.049 1066.73L647.132 1080.34L524.649 1100.39L491.988 1070.94H484.316L466.501 1101.38L448.439 1162.99L409.592 1164.97L396.23 1121.42L382.868 1080.34L376.187 1067.97L374.95 1065.75L8 619.367L349.463 571.612L323.731 384.302L310.616 297.204L871.31 218.023Z" fill="black" stroke="#886E34" stroke-width="20" stroke-linejoin="bevel"/>
<path d="M1263.9 315.948H1251.49C1251.13 313.912 1250.48 312.108 1249.53 310.537C1248.58 308.943 1247.39 307.593 1245.98 306.487C1244.56 305.38 1242.94 304.55 1241.13 303.997C1239.34 303.421 1237.4 303.134 1235.32 303.134C1231.62 303.134 1228.35 304.063 1225.49 305.922C1222.64 307.759 1220.4 310.46 1218.79 314.023C1217.17 317.564 1216.36 321.891 1216.36 327.004C1216.36 332.205 1217.17 336.587 1218.79 340.151C1220.42 343.692 1222.66 346.37 1225.49 348.185C1228.35 349.978 1231.61 350.874 1235.29 350.874C1237.32 350.874 1239.23 350.609 1241 350.077C1242.79 349.524 1244.39 348.716 1245.81 347.654C1247.25 346.591 1248.46 345.286 1249.43 343.736C1250.43 342.187 1251.11 340.416 1251.49 338.424L1263.9 338.491C1263.44 341.722 1262.43 344.754 1260.88 347.587C1259.36 350.42 1257.35 352.921 1254.87 355.091C1252.4 357.237 1249.5 358.92 1246.18 360.137C1242.86 361.332 1239.17 361.93 1235.12 361.93C1229.15 361.93 1223.81 360.546 1219.12 357.78C1214.43 355.013 1210.73 351.018 1208.03 345.795C1205.33 340.571 1203.98 334.308 1203.98 327.004C1203.98 319.678 1205.34 313.414 1208.06 308.213C1210.79 302.99 1214.49 298.995 1219.19 296.228C1223.88 293.461 1229.19 292.078 1235.12 292.078C1238.91 292.078 1242.42 292.609 1245.68 293.672C1248.93 294.734 1251.83 296.294 1254.38 298.353C1256.92 300.389 1259.01 302.89 1260.65 305.856C1262.31 308.8 1263.4 312.164 1263.9 315.948ZM1286.67 331.121V361H1274.65V293.008H1286.41V318.671H1287C1288.2 315.794 1290.05 313.525 1292.55 311.865C1295.07 310.183 1298.28 309.342 1302.18 309.342C1305.72 309.342 1308.8 310.083 1311.44 311.566C1314.07 313.049 1316.11 315.218 1317.55 318.073C1319.01 320.928 1319.74 324.414 1319.74 328.531V361H1307.72V330.39C1307.72 326.96 1306.83 324.293 1305.06 322.389C1303.32 320.464 1300.86 319.501 1297.69 319.501C1295.57 319.501 1293.67 319.966 1291.98 320.895C1290.32 321.803 1289.02 323.12 1288.07 324.846C1287.14 326.572 1286.67 328.664 1286.67 331.121ZM1346.66 362.029C1343.43 362.029 1340.52 361.454 1337.93 360.303C1335.36 359.13 1333.33 357.403 1331.82 355.124C1330.34 352.844 1329.6 350.033 1329.6 346.691C1329.6 343.814 1330.13 341.435 1331.19 339.553C1332.25 337.672 1333.7 336.167 1335.54 335.038C1337.38 333.909 1339.45 333.057 1341.75 332.482C1344.07 331.884 1346.47 331.453 1348.95 331.187C1351.94 330.877 1354.36 330.6 1356.22 330.357C1358.08 330.091 1359.43 329.693 1360.27 329.162C1361.14 328.608 1361.57 327.756 1361.57 326.605V326.406C1361.57 323.905 1360.83 321.969 1359.34 320.596C1357.86 319.224 1355.73 318.538 1352.94 318.538C1349.99 318.538 1347.66 319.18 1345.93 320.464C1344.23 321.747 1343.08 323.263 1342.48 325.012L1331.26 323.418C1332.14 320.32 1333.6 317.73 1335.64 315.65C1337.68 313.547 1340.17 311.976 1343.11 310.935C1346.05 309.873 1349.31 309.342 1352.87 309.342C1355.33 309.342 1357.77 309.63 1360.21 310.205C1362.64 310.78 1364.87 311.732 1366.88 313.06C1368.89 314.366 1370.51 316.148 1371.73 318.405C1372.97 320.663 1373.59 323.485 1373.59 326.871V361H1362.03V353.995H1361.64C1360.9 355.411 1359.88 356.739 1358.55 357.979C1357.24 359.196 1355.59 360.181 1353.6 360.934C1351.63 361.664 1349.32 362.029 1346.66 362.029ZM1349.78 353.198C1352.2 353.198 1354.29 352.722 1356.06 351.771C1357.83 350.797 1359.19 349.513 1360.14 347.919C1361.12 346.326 1361.6 344.588 1361.6 342.707V336.698C1361.23 337.008 1360.58 337.296 1359.68 337.561C1358.79 337.827 1357.8 338.059 1356.69 338.258C1355.58 338.458 1354.49 338.635 1353.4 338.79C1352.32 338.945 1351.38 339.077 1350.58 339.188C1348.79 339.431 1347.18 339.83 1345.77 340.383C1344.35 340.937 1343.23 341.711 1342.41 342.707C1341.59 343.681 1341.18 344.943 1341.18 346.492C1341.18 348.705 1341.99 350.376 1343.61 351.505C1345.22 352.634 1347.28 353.198 1349.78 353.198ZM1385.67 361V310.006H1397.32V318.505H1397.86C1398.79 315.561 1400.38 313.293 1402.64 311.699C1404.92 310.083 1407.52 309.275 1410.44 309.275C1411.1 309.275 1411.84 309.309 1412.66 309.375C1413.5 309.419 1414.2 309.497 1414.75 309.607V320.663C1414.25 320.486 1413.44 320.331 1412.33 320.198C1411.25 320.043 1410.19 319.966 1409.18 319.966C1406.99 319.966 1405.02 320.441 1403.27 321.393C1401.54 322.323 1400.18 323.618 1399.18 325.277C1398.19 326.937 1397.69 328.852 1397.69 331.021V361H1385.67ZM1434.76 293.008V361H1422.74V293.008H1434.76ZM1469.36 361.996C1464.38 361.996 1460.06 360.9 1456.41 358.709C1452.76 356.518 1449.93 353.453 1447.91 349.513C1445.92 345.573 1444.92 340.97 1444.92 335.702C1444.92 330.434 1445.92 325.82 1447.91 321.858C1449.93 317.896 1452.76 314.82 1456.41 312.629C1460.06 310.437 1464.38 309.342 1469.36 309.342C1474.34 309.342 1478.65 310.437 1482.31 312.629C1485.96 314.82 1488.78 317.896 1490.77 321.858C1492.79 325.82 1493.79 330.434 1493.79 335.702C1493.79 340.97 1492.79 345.573 1490.77 349.513C1488.78 353.453 1485.96 356.518 1482.31 358.709C1478.65 360.9 1474.34 361.996 1469.36 361.996ZM1469.43 352.368C1472.13 352.368 1474.38 351.627 1476.2 350.144C1478.01 348.639 1479.36 346.625 1480.25 344.102C1481.16 341.578 1481.61 338.768 1481.61 335.669C1481.61 332.548 1481.16 329.726 1480.25 327.203C1479.36 324.658 1478.01 322.633 1476.2 321.128C1474.38 319.623 1472.13 318.87 1469.43 318.87C1466.66 318.87 1464.36 319.623 1462.52 321.128C1460.7 322.633 1459.34 324.658 1458.44 327.203C1457.55 329.726 1457.11 332.548 1457.11 335.669C1457.11 338.768 1457.55 341.578 1458.44 344.102C1459.34 346.625 1460.7 348.639 1462.52 350.144C1464.36 351.627 1466.66 352.368 1469.43 352.368ZM1529.46 310.006V319.302H1500.14V310.006H1529.46ZM1507.38 297.788H1519.4V345.662C1519.4 347.278 1519.64 348.517 1520.13 349.38C1520.64 350.221 1521.3 350.797 1522.12 351.107C1522.94 351.416 1523.85 351.571 1524.84 351.571C1525.6 351.571 1526.28 351.516 1526.9 351.405C1527.54 351.295 1528.03 351.195 1528.36 351.107L1530.39 360.502C1529.75 360.723 1528.83 360.967 1527.63 361.232C1526.46 361.498 1525.02 361.653 1523.32 361.697C1520.31 361.786 1517.59 361.332 1515.18 360.336C1512.77 359.318 1510.86 357.746 1509.44 355.622C1508.04 353.497 1507.36 350.841 1507.38 347.654V297.788ZM1564.97 310.006V319.302H1535.66V310.006H1564.97ZM1542.9 297.788H1554.91V345.662C1554.91 347.278 1555.16 348.517 1555.64 349.38C1556.15 350.221 1556.82 350.797 1557.64 351.107C1558.45 351.416 1559.36 351.571 1560.36 351.571C1561.11 351.571 1561.8 351.516 1562.42 351.405C1563.06 351.295 1563.55 351.195 1563.88 351.107L1565.9 360.502C1565.26 360.723 1564.34 360.967 1563.15 361.232C1561.97 361.498 1560.54 361.653 1558.83 361.697C1555.82 361.786 1553.11 361.332 1550.7 360.336C1548.28 359.318 1546.37 357.746 1544.95 355.622C1543.56 353.497 1542.87 350.841 1542.9 347.654V297.788ZM1597.05 361.996C1591.94 361.996 1587.52 360.934 1583.81 358.809C1580.11 356.662 1577.27 353.63 1575.27 349.712C1573.28 345.773 1572.29 341.136 1572.29 335.802C1572.29 330.556 1573.28 325.953 1575.27 321.991C1577.29 318.007 1580.1 314.908 1583.71 312.695C1587.31 310.46 1591.55 309.342 1596.42 309.342C1599.56 309.342 1602.53 309.851 1605.32 310.869C1608.13 311.865 1610.61 313.414 1612.76 315.517C1614.92 317.62 1616.63 320.298 1617.87 323.551C1619.11 326.783 1619.73 330.634 1619.73 335.105V338.79H1577.93V330.689H1608.21C1608.18 328.387 1607.69 326.34 1606.71 324.547C1605.74 322.732 1604.38 321.305 1602.63 320.264C1600.9 319.224 1598.89 318.704 1596.59 318.704C1594.13 318.704 1591.97 319.302 1590.11 320.497C1588.25 321.67 1586.8 323.219 1585.76 325.145C1584.75 327.048 1584.23 329.14 1584.2 331.419V338.491C1584.2 341.457 1584.75 344.002 1585.83 346.127C1586.92 348.229 1588.43 349.845 1590.38 350.974C1592.33 352.08 1594.61 352.634 1597.22 352.634C1598.97 352.634 1600.55 352.39 1601.97 351.903C1603.38 351.394 1604.61 350.653 1605.65 349.679C1606.69 348.705 1607.48 347.499 1608.01 346.06L1619.23 347.322C1618.52 350.288 1617.17 352.877 1615.18 355.091C1613.21 357.282 1610.69 358.986 1607.61 360.203C1604.53 361.398 1601.01 361.996 1597.05 361.996Z" fill="#886E34"/>
<path d="M1216.1 477.389C1214.36 477.389 1212.77 476.965 1211.33 476.115C1209.89 475.252 1208.74 474.1 1207.87 472.66C1207.03 471.221 1206.6 469.63 1206.6 467.888C1206.6 466.132 1207.03 464.541 1207.87 463.116C1208.74 461.676 1209.89 460.532 1211.33 459.683C1212.77 458.819 1214.36 458.387 1216.1 458.387C1217.86 458.387 1219.45 458.819 1220.87 459.683C1222.31 460.532 1223.46 461.676 1224.31 463.116C1225.17 464.541 1225.6 466.132 1225.6 467.888C1225.6 469.63 1225.17 471.221 1224.31 472.66C1223.46 474.1 1222.31 475.252 1220.87 476.115C1219.45 476.965 1217.86 477.389 1216.1 477.389ZM1272.76 490V445.776H1287.71C1291.18 445.776 1294.01 446.402 1296.21 447.655C1298.43 448.893 1300.07 450.57 1301.14 452.686C1302.2 454.802 1302.74 457.163 1302.74 459.769C1302.74 462.375 1302.2 464.743 1301.14 466.873C1300.09 469.004 1298.46 470.702 1296.26 471.969C1294.06 473.222 1291.23 473.848 1287.79 473.848H1277.08V469.097H1287.62C1290 469.097 1291.9 468.687 1293.34 467.867C1294.78 467.046 1295.83 465.937 1296.47 464.541C1297.14 463.13 1297.47 461.54 1297.47 459.769C1297.47 457.998 1297.14 456.415 1296.47 455.018C1295.83 453.622 1294.78 452.528 1293.32 451.736C1291.87 450.93 1289.94 450.527 1287.53 450.527H1278.12V490H1272.76ZM1323.79 490.691C1320.8 490.691 1318.17 489.978 1315.91 488.553C1313.66 487.128 1311.91 485.134 1310.64 482.572C1309.39 480.009 1308.76 477.015 1308.76 473.589C1308.76 470.134 1309.39 467.118 1310.64 464.541C1311.91 461.964 1313.66 459.963 1315.91 458.538C1318.17 457.113 1320.8 456.4 1323.79 456.4C1326.78 456.4 1329.4 457.113 1331.65 458.538C1333.91 459.963 1335.67 461.964 1336.92 464.541C1338.19 467.118 1338.82 470.134 1338.82 473.589C1338.82 477.015 1338.19 480.009 1336.92 482.572C1335.67 485.134 1333.91 487.128 1331.65 488.553C1329.4 489.978 1326.78 490.691 1323.79 490.691ZM1323.79 486.113C1326.06 486.113 1327.94 485.53 1329.4 484.364C1330.87 483.198 1331.96 481.665 1332.66 479.765C1333.37 477.864 1333.72 475.806 1333.72 473.589C1333.72 471.372 1333.37 469.306 1332.66 467.391C1331.96 465.477 1330.87 463.929 1329.4 462.749C1327.94 461.568 1326.06 460.978 1323.79 460.978C1321.52 460.978 1319.64 461.568 1318.18 462.749C1316.71 463.929 1315.62 465.477 1314.91 467.391C1314.21 469.306 1313.86 471.372 1313.86 473.589C1313.86 475.806 1314.21 477.864 1314.91 479.765C1315.62 481.665 1316.71 483.198 1318.18 484.364C1319.64 485.53 1321.52 486.113 1323.79 486.113ZM1346.6 490V456.832H1351.52V461.842H1351.87C1352.47 460.201 1353.57 458.869 1355.15 457.847C1356.73 456.825 1358.52 456.314 1360.5 456.314C1360.88 456.314 1361.35 456.321 1361.91 456.336C1362.47 456.35 1362.89 456.371 1363.18 456.4V461.583C1363.01 461.54 1362.61 461.475 1361.99 461.388C1361.39 461.288 1360.75 461.237 1360.07 461.237C1358.46 461.237 1357.02 461.576 1355.75 462.252C1354.5 462.914 1353.51 463.836 1352.77 465.016C1352.05 466.182 1351.69 467.514 1351.69 469.011V490H1346.6ZM1385.73 456.832V461.151H1368.54V456.832H1385.73ZM1373.55 448.886H1378.64V480.499C1378.64 481.938 1378.85 483.018 1379.27 483.738C1379.7 484.443 1380.25 484.918 1380.91 485.163C1381.59 485.393 1382.3 485.509 1383.05 485.509C1383.61 485.509 1384.07 485.48 1384.43 485.422C1384.79 485.35 1385.08 485.293 1385.29 485.249L1386.33 489.827C1385.98 489.957 1385.5 490.086 1384.88 490.216C1384.26 490.36 1383.48 490.432 1382.53 490.432C1381.09 490.432 1379.68 490.122 1378.3 489.503C1376.93 488.884 1375.79 487.941 1374.89 486.675C1373.99 485.408 1373.55 483.81 1373.55 481.881V448.886ZM1446.77 459.596H1441.42C1441.1 458.056 1440.54 456.703 1439.75 455.537C1438.98 454.37 1438.03 453.392 1436.9 452.6C1435.79 451.794 1434.56 451.189 1433.21 450.786C1431.86 450.383 1430.45 450.181 1428.98 450.181C1426.3 450.181 1423.87 450.858 1421.7 452.211C1419.54 453.564 1417.82 455.558 1416.54 458.193C1415.27 460.827 1414.64 464.059 1414.64 467.888C1414.64 471.717 1415.27 474.949 1416.54 477.584C1417.82 480.218 1419.54 482.212 1421.7 483.565C1423.87 484.918 1426.3 485.595 1428.98 485.595C1430.45 485.595 1431.86 485.393 1433.21 484.99C1434.56 484.587 1435.79 483.99 1436.9 483.198C1438.03 482.392 1438.98 481.406 1439.75 480.24C1440.54 479.059 1441.1 477.706 1441.42 476.18H1446.77C1446.37 478.44 1445.63 480.463 1444.57 482.248C1443.5 484.033 1442.18 485.552 1440.6 486.804C1439.01 488.042 1437.23 488.985 1435.26 489.633C1433.3 490.281 1431.21 490.605 1428.98 490.605C1425.21 490.605 1421.85 489.683 1418.92 487.841C1415.98 485.998 1413.67 483.378 1411.98 479.981C1410.3 476.583 1409.46 472.552 1409.46 467.888C1409.46 463.224 1410.3 459.193 1411.98 455.796C1413.67 452.398 1415.98 449.778 1418.92 447.936C1421.85 446.093 1425.21 445.172 1428.98 445.172C1431.21 445.172 1433.3 445.495 1435.26 446.143C1437.23 446.791 1439.01 447.741 1440.6 448.994C1442.18 450.232 1443.5 451.743 1444.57 453.528C1445.63 455.299 1446.37 457.322 1446.77 459.596ZM1459.83 470.047V490H1454.73V445.776H1459.83V462.015H1460.26C1461.04 460.302 1462.2 458.941 1463.76 457.933C1465.33 456.911 1467.42 456.4 1470.02 456.4C1472.28 456.4 1474.26 456.854 1475.96 457.761C1477.66 458.653 1478.98 460.028 1479.91 461.885C1480.86 463.728 1481.34 466.074 1481.34 468.925V490H1476.24V469.27C1476.24 466.636 1475.56 464.599 1474.19 463.159C1472.84 461.705 1470.96 460.978 1468.55 460.978C1466.88 460.978 1465.39 461.331 1464.06 462.036C1462.75 462.742 1461.72 463.771 1460.95 465.124C1460.2 466.477 1459.83 468.118 1459.83 470.047ZM1500.42 490.777C1498.32 490.777 1496.41 490.381 1494.7 489.59C1492.98 488.784 1491.62 487.625 1490.62 486.113C1489.61 484.587 1489.11 482.745 1489.11 480.585C1489.11 478.685 1489.48 477.145 1490.23 475.964C1490.98 474.769 1491.98 473.834 1493.23 473.157C1494.48 472.48 1495.86 471.977 1497.38 471.645C1498.9 471.3 1500.43 471.026 1501.98 470.825C1503.99 470.566 1505.62 470.371 1506.88 470.242C1508.14 470.098 1509.07 469.86 1509.64 469.529C1510.23 469.198 1510.53 468.622 1510.53 467.802V467.629C1510.53 465.498 1509.94 463.843 1508.78 462.662C1507.63 461.482 1505.88 460.892 1503.53 460.892C1501.1 460.892 1499.19 461.424 1497.81 462.49C1496.43 463.555 1495.45 464.692 1494.89 465.901L1490.06 464.174C1490.92 462.159 1492.07 460.589 1493.51 459.467C1494.96 458.329 1496.55 457.538 1498.26 457.091C1499.99 456.631 1501.69 456.4 1503.36 456.4C1504.42 456.4 1505.65 456.53 1507.03 456.789C1508.42 457.034 1509.77 457.545 1511.07 458.322C1512.38 459.099 1513.46 460.273 1514.33 461.842C1515.19 463.411 1515.62 465.513 1515.62 468.147V490H1510.53V485.509H1510.27C1509.92 486.228 1509.35 486.998 1508.54 487.819C1507.73 488.64 1506.66 489.338 1505.32 489.914C1503.98 490.489 1502.35 490.777 1500.42 490.777ZM1501.2 486.2C1503.21 486.2 1504.91 485.804 1506.29 485.012C1507.69 484.22 1508.74 483.198 1509.45 481.946C1510.17 480.693 1510.53 479.376 1510.53 477.994V473.33C1510.31 473.589 1509.84 473.826 1509.1 474.042C1508.38 474.244 1507.55 474.424 1506.6 474.582C1505.66 474.726 1504.75 474.856 1503.85 474.971C1502.98 475.072 1502.26 475.158 1501.72 475.23C1500.39 475.403 1499.15 475.683 1498 476.072C1496.86 476.446 1495.94 477.015 1495.24 477.778C1494.55 478.527 1494.2 479.549 1494.2 480.844C1494.2 482.615 1494.86 483.954 1496.17 484.861C1497.49 485.753 1499.17 486.2 1501.2 486.2ZM1524.92 490V456.832H1529.85V461.842H1530.19C1530.8 460.201 1531.89 458.869 1533.47 457.847C1535.06 456.825 1536.84 456.314 1538.83 456.314C1539.2 456.314 1539.67 456.321 1540.23 456.336C1540.8 456.35 1541.22 456.371 1541.51 456.4V461.583C1541.33 461.54 1540.94 461.475 1540.32 461.388C1539.72 461.288 1539.07 461.237 1538.4 461.237C1536.79 461.237 1535.35 461.576 1534.08 462.252C1532.83 462.914 1531.83 463.836 1531.1 465.016C1530.38 466.182 1530.02 467.514 1530.02 469.011V490H1524.92ZM1552.64 445.776V490H1547.55V445.776H1552.64ZM1575.45 490.691C1572.46 490.691 1569.83 489.978 1567.57 488.553C1565.33 487.128 1563.57 485.134 1562.3 482.572C1561.05 480.009 1560.42 477.015 1560.42 473.589C1560.42 470.134 1561.05 467.118 1562.3 464.541C1563.57 461.964 1565.33 459.963 1567.57 458.538C1569.83 457.113 1572.46 456.4 1575.45 456.4C1578.45 456.4 1581.07 457.113 1583.31 458.538C1585.57 459.963 1587.33 461.964 1588.58 464.541C1589.85 467.118 1590.48 470.134 1590.48 473.589C1590.48 477.015 1589.85 480.009 1588.58 482.572C1587.33 485.134 1585.57 487.128 1583.31 488.553C1581.07 489.978 1578.45 490.691 1575.45 490.691ZM1575.45 486.113C1577.73 486.113 1579.6 485.53 1581.07 484.364C1582.54 483.198 1583.62 481.665 1584.33 479.765C1585.03 477.864 1585.39 475.806 1585.39 473.589C1585.39 471.372 1585.03 469.306 1584.33 467.391C1583.62 465.477 1582.54 463.929 1581.07 462.749C1579.6 461.568 1577.73 460.978 1575.45 460.978C1573.18 460.978 1571.31 461.568 1569.84 462.749C1568.37 463.929 1567.28 465.477 1566.58 467.391C1565.87 469.306 1565.52 471.372 1565.52 473.589C1565.52 475.806 1565.87 477.864 1566.58 479.765C1567.28 481.665 1568.37 483.198 1569.84 484.364C1571.31 485.53 1573.18 486.113 1575.45 486.113ZM1612.69 456.832V461.151H1595.5V456.832H1612.69ZM1600.51 448.886H1605.6V480.499C1605.6 481.938 1605.81 483.018 1606.23 483.738C1606.66 484.443 1607.21 484.918 1607.87 485.163C1608.55 485.393 1609.26 485.509 1610.01 485.509C1610.57 485.509 1611.03 485.48 1611.39 485.422C1611.75 485.35 1612.04 485.293 1612.25 485.249L1613.29 489.827C1612.94 489.957 1612.46 490.086 1611.84 490.216C1611.22 490.36 1610.44 490.432 1609.49 490.432C1608.05 490.432 1606.64 490.122 1605.26 489.503C1603.89 488.884 1602.75 487.941 1601.85 486.675C1600.95 485.408 1600.51 483.81 1600.51 481.881V448.886ZM1634.78 456.832V461.151H1617.59V456.832H1634.78ZM1622.6 448.886H1627.69V480.499C1627.69 481.938 1627.9 483.018 1628.32 483.738C1628.75 484.443 1629.3 484.918 1629.96 485.163C1630.64 485.393 1631.35 485.509 1632.1 485.509C1632.66 485.509 1633.12 485.48 1633.48 485.422C1633.84 485.35 1634.13 485.293 1634.34 485.249L1635.38 489.827C1635.04 489.957 1634.55 490.086 1633.93 490.216C1633.31 490.36 1632.53 490.432 1631.58 490.432C1630.14 490.432 1628.73 490.122 1627.35 489.503C1625.98 488.884 1624.84 487.941 1623.94 486.675C1623.04 485.408 1622.6 483.81 1622.6 481.881V448.886ZM1655.99 490.691C1652.8 490.691 1650.04 489.986 1647.72 488.575C1645.42 487.15 1643.64 485.163 1642.39 482.615C1641.15 480.053 1640.53 477.073 1640.53 473.675C1640.53 470.278 1641.15 467.283 1642.39 464.692C1643.64 462.087 1645.38 460.057 1647.61 458.603C1649.86 457.134 1652.48 456.4 1655.47 456.4C1657.2 456.4 1658.91 456.688 1660.59 457.264C1662.28 457.84 1663.81 458.776 1665.19 460.071C1666.57 461.352 1667.67 463.051 1668.49 465.167C1669.32 467.283 1669.73 469.889 1669.73 472.984V475.144H1644.16V470.738H1664.54C1664.54 468.867 1664.17 467.197 1663.42 465.729C1662.69 464.26 1661.63 463.102 1660.27 462.252C1658.91 461.403 1657.32 460.978 1655.47 460.978C1653.44 460.978 1651.69 461.482 1650.2 462.49C1648.74 463.483 1647.61 464.779 1646.81 466.377C1646.02 467.974 1645.63 469.688 1645.63 471.516V474.453C1645.63 476.957 1646.06 479.081 1646.92 480.823C1647.8 482.55 1649.02 483.867 1650.57 484.774C1652.13 485.667 1653.93 486.113 1655.99 486.113C1657.33 486.113 1658.54 485.926 1659.62 485.552C1660.71 485.163 1661.66 484.587 1662.45 483.824C1663.24 483.047 1663.85 482.082 1664.28 480.931L1669.21 482.313C1668.69 483.983 1667.82 485.451 1666.59 486.718C1665.37 487.97 1663.86 488.949 1662.06 489.655C1660.26 490.345 1658.24 490.691 1655.99 490.691ZM1216.1 551.389C1214.36 551.389 1212.77 550.965 1211.33 550.115C1209.89 549.252 1208.74 548.1 1207.87 546.66C1207.03 545.221 1206.6 543.63 1206.6 541.888C1206.6 540.132 1207.03 538.541 1207.87 537.116C1208.74 535.676 1209.89 534.532 1211.33 533.683C1212.77 532.819 1214.36 532.387 1216.1 532.387C1217.86 532.387 1219.45 532.819 1220.87 533.683C1222.31 534.532 1223.46 535.676 1224.31 537.116C1225.17 538.541 1225.6 540.132 1225.6 541.888C1225.6 543.63 1225.17 545.221 1224.31 546.66C1223.46 548.1 1222.31 549.252 1220.87 550.115C1219.45 550.965 1217.86 551.389 1216.1 551.389ZM1272.76 564V519.776H1287.71C1291.18 519.776 1294.01 520.402 1296.21 521.655C1298.43 522.893 1300.07 524.57 1301.14 526.686C1302.2 528.802 1302.74 531.163 1302.74 533.769C1302.74 536.375 1302.2 538.743 1301.14 540.873C1300.09 543.004 1298.46 544.702 1296.26 545.969C1294.06 547.222 1291.23 547.848 1287.79 547.848H1277.08V543.097H1287.62C1290 543.097 1291.9 542.687 1293.34 541.867C1294.78 541.046 1295.83 539.937 1296.47 538.541C1297.14 537.13 1297.47 535.54 1297.47 533.769C1297.47 531.998 1297.14 530.415 1296.47 529.018C1295.83 527.622 1294.78 526.528 1293.32 525.736C1291.87 524.93 1289.94 524.527 1287.53 524.527H1278.12V564H1272.76ZM1331.57 550.439V530.832H1336.67V564H1331.57V558.386H1331.23C1330.45 560.07 1329.24 561.502 1327.6 562.683C1325.96 563.849 1323.89 564.432 1321.38 564.432C1319.31 564.432 1317.47 563.978 1315.85 563.071C1314.24 562.15 1312.97 560.768 1312.05 558.925C1311.13 557.068 1310.67 554.729 1310.67 551.908V530.832H1315.77V551.562C1315.77 553.981 1316.44 555.91 1317.8 557.349C1319.17 558.789 1320.91 559.509 1323.02 559.509C1324.29 559.509 1325.58 559.185 1326.89 558.537C1328.21 557.889 1329.32 556.896 1330.21 555.557C1331.12 554.218 1331.57 552.512 1331.57 550.439ZM1351.1 544.047V564H1346V530.832H1350.93V536.015H1351.36C1352.14 534.33 1353.32 532.977 1354.9 531.955C1356.48 530.919 1358.53 530.4 1361.03 530.4C1363.28 530.4 1365.24 530.861 1366.93 531.782C1368.61 532.689 1369.92 534.071 1370.86 535.928C1371.79 537.771 1372.26 540.103 1372.26 542.925V564H1367.17V543.27C1367.17 540.664 1366.49 538.635 1365.14 537.181C1363.78 535.712 1361.93 534.978 1359.56 534.978C1357.94 534.978 1356.48 535.331 1355.2 536.036C1353.94 536.742 1352.94 537.771 1352.2 539.124C1351.47 540.477 1351.1 542.118 1351.1 544.047ZM1396 530.832V535.151H1378.81V530.832H1396ZM1383.82 522.886H1388.92V554.499C1388.92 555.938 1389.12 557.018 1389.54 557.738C1389.97 558.443 1390.52 558.918 1391.18 559.163C1391.86 559.393 1392.57 559.509 1393.32 559.509C1393.88 559.509 1394.34 559.48 1394.7 559.422C1395.06 559.35 1395.35 559.293 1395.57 559.249L1396.6 563.827C1396.26 563.957 1395.78 564.086 1395.16 564.216C1394.54 564.36 1393.75 564.432 1392.8 564.432C1391.36 564.432 1389.95 564.122 1388.57 563.503C1387.2 562.884 1386.07 561.941 1385.16 560.675C1384.27 559.408 1383.82 557.81 1383.82 555.881V522.886ZM1413.42 564.777C1411.32 564.777 1409.42 564.381 1407.7 563.59C1405.99 562.784 1404.63 561.625 1403.62 560.113C1402.61 558.587 1402.11 556.745 1402.11 554.585C1402.11 552.685 1402.48 551.145 1403.23 549.964C1403.98 548.769 1404.98 547.834 1406.23 547.157C1407.49 546.48 1408.87 545.977 1410.38 545.645C1411.91 545.3 1413.44 545.026 1414.98 544.825C1417 544.566 1418.63 544.371 1419.88 544.242C1421.15 544.098 1422.07 543.86 1422.65 543.529C1423.24 543.198 1423.53 542.622 1423.53 541.802V541.629C1423.53 539.498 1422.95 537.843 1421.78 536.662C1420.63 535.482 1418.88 534.892 1416.53 534.892C1414.1 534.892 1412.19 535.424 1410.81 536.49C1409.43 537.555 1408.46 538.692 1407.9 539.901L1403.06 538.174C1403.92 536.159 1405.08 534.589 1406.51 533.467C1407.97 532.329 1409.55 531.538 1411.27 531.091C1412.99 530.631 1414.69 530.4 1416.36 530.4C1417.43 530.4 1418.65 530.53 1420.03 530.789C1421.43 531.034 1422.77 531.545 1424.07 532.322C1425.38 533.099 1426.47 534.273 1427.33 535.842C1428.19 537.411 1428.63 539.513 1428.63 542.147V564H1423.53V559.509H1423.27C1422.93 560.228 1422.35 560.998 1421.54 561.819C1420.74 562.64 1419.67 563.338 1418.33 563.914C1416.99 564.489 1415.35 564.777 1413.42 564.777ZM1414.2 560.2C1416.22 560.2 1417.92 559.804 1419.3 559.012C1420.69 558.22 1421.75 557.198 1422.45 555.946C1423.17 554.693 1423.53 553.376 1423.53 551.994V547.33C1423.31 547.589 1422.84 547.826 1422.11 548.042C1421.39 548.244 1420.55 548.424 1419.6 548.582C1418.66 548.726 1417.75 548.856 1416.86 548.971C1415.98 549.072 1415.27 549.158 1414.72 549.23C1413.4 549.403 1412.16 549.683 1411.01 550.072C1409.87 550.446 1408.95 551.015 1408.24 551.778C1407.55 552.527 1407.21 553.549 1407.21 554.844C1407.21 556.615 1407.86 557.954 1409.17 558.861C1410.5 559.753 1412.17 560.2 1414.2 560.2ZM1485.95 533.596C1485.48 532.142 1484.85 530.839 1484.07 529.688C1483.31 528.522 1482.4 527.528 1481.33 526.708C1480.28 525.887 1479.09 525.261 1477.75 524.829C1476.41 524.397 1474.94 524.181 1473.34 524.181C1470.72 524.181 1468.34 524.858 1466.19 526.211C1464.05 527.564 1462.34 529.558 1461.08 532.193C1459.81 534.827 1459.18 538.059 1459.18 541.888C1459.18 545.717 1459.82 548.949 1461.1 551.584C1462.38 554.218 1464.11 556.212 1466.3 557.565C1468.49 558.918 1470.95 559.595 1473.69 559.595C1476.22 559.595 1478.45 559.055 1480.38 557.975C1482.32 556.881 1483.84 555.341 1484.92 553.354C1486.01 551.353 1486.56 549 1486.56 546.293L1488.2 546.639H1474.9V541.888H1491.74V546.639C1491.74 550.281 1490.96 553.448 1489.41 556.14C1487.87 558.832 1485.74 560.919 1483.02 562.402C1480.31 563.87 1477.2 564.605 1473.69 564.605C1469.77 564.605 1466.33 563.683 1463.37 561.841C1460.41 559.998 1458.11 557.378 1456.46 553.981C1454.81 550.583 1453.99 546.552 1453.99 541.888C1453.99 538.39 1454.46 535.244 1455.4 532.452C1456.35 529.645 1457.69 527.255 1459.41 525.283C1461.14 523.31 1463.19 521.799 1465.55 520.748C1467.91 519.697 1470.51 519.172 1473.34 519.172C1475.67 519.172 1477.85 519.524 1479.86 520.23C1481.89 520.921 1483.7 521.907 1485.28 523.188C1486.88 524.455 1488.21 525.974 1489.28 527.744C1490.34 529.501 1491.08 531.451 1491.48 533.596H1485.95ZM1513.7 564.691C1510.7 564.691 1508.07 563.978 1505.81 562.553C1503.57 561.128 1501.81 559.134 1500.54 556.572C1499.29 554.009 1498.67 551.015 1498.67 547.589C1498.67 544.134 1499.29 541.118 1500.54 538.541C1501.81 535.964 1503.57 533.963 1505.81 532.538C1508.07 531.113 1510.7 530.4 1513.7 530.4C1516.69 530.4 1519.31 531.113 1521.56 532.538C1523.82 533.963 1525.57 535.964 1526.82 538.541C1528.09 541.118 1528.72 544.134 1528.72 547.589C1528.72 551.015 1528.09 554.009 1526.82 556.572C1525.57 559.134 1523.82 561.128 1521.56 562.553C1519.31 563.978 1516.69 564.691 1513.7 564.691ZM1513.7 560.113C1515.97 560.113 1517.84 559.53 1519.31 558.364C1520.78 557.198 1521.86 555.665 1522.57 553.765C1523.28 551.864 1523.63 549.806 1523.63 547.589C1523.63 545.372 1523.28 543.306 1522.57 541.391C1521.86 539.477 1520.78 537.929 1519.31 536.749C1517.84 535.568 1515.97 534.978 1513.7 534.978C1511.42 534.978 1509.55 535.568 1508.08 536.749C1506.61 537.929 1505.53 539.477 1504.82 541.391C1504.11 543.306 1503.76 545.372 1503.76 547.589C1503.76 549.806 1504.11 551.864 1504.82 553.765C1505.53 555.665 1506.61 557.198 1508.08 558.364C1509.55 559.53 1511.42 560.113 1513.7 560.113ZM1536.5 564V530.832H1541.43V535.842H1541.77C1542.38 534.201 1543.47 532.869 1545.05 531.847C1546.64 530.825 1548.42 530.314 1550.41 530.314C1550.78 530.314 1551.25 530.321 1551.81 530.336C1552.37 530.35 1552.8 530.371 1553.09 530.4V535.583C1552.91 535.54 1552.52 535.475 1551.9 535.388C1551.29 535.288 1550.65 535.237 1549.98 535.237C1548.37 535.237 1546.93 535.576 1545.66 536.252C1544.41 536.914 1543.41 537.836 1542.68 539.016C1541.96 540.182 1541.6 541.514 1541.6 543.011V564H1536.5ZM1570.64 564.691C1567.88 564.691 1565.44 563.993 1563.32 562.596C1561.21 561.186 1559.55 559.199 1558.36 556.637C1557.16 554.06 1556.56 551.015 1556.56 547.502C1556.56 544.019 1557.16 540.996 1558.36 538.433C1559.55 535.871 1561.21 533.891 1563.34 532.495C1565.47 531.098 1567.94 530.4 1570.73 530.4C1572.89 530.4 1574.59 530.76 1575.85 531.48C1577.11 532.185 1578.08 532.992 1578.74 533.898C1579.42 534.791 1579.94 535.525 1580.32 536.101H1580.75V519.776H1585.84V564H1580.92V558.904H1580.32C1579.94 559.509 1579.41 560.271 1578.72 561.193C1578.03 562.1 1577.04 562.913 1575.76 563.633C1574.48 564.338 1572.77 564.691 1570.64 564.691ZM1571.33 560.113C1573.38 560.113 1575.11 559.581 1576.52 558.515C1577.93 557.436 1579 555.946 1579.73 554.045C1580.47 552.131 1580.84 549.921 1580.84 547.416C1580.84 544.94 1580.48 542.773 1579.76 540.916C1579.04 539.045 1577.97 537.591 1576.56 536.554C1575.15 535.504 1573.41 534.978 1571.33 534.978C1569.17 534.978 1567.38 535.532 1565.94 536.641C1564.51 537.735 1563.44 539.225 1562.72 541.111C1562.01 542.982 1561.66 545.084 1561.66 547.416C1561.66 549.777 1562.02 551.922 1562.74 553.851C1563.47 555.766 1564.55 557.292 1565.98 558.429C1567.42 559.552 1569.2 560.113 1571.33 560.113ZM1605.65 564.777C1603.54 564.777 1601.64 564.381 1599.92 563.59C1598.21 562.784 1596.85 561.625 1595.84 560.113C1594.83 558.587 1594.33 556.745 1594.33 554.585C1594.33 552.685 1594.71 551.145 1595.45 549.964C1596.2 548.769 1597.2 547.834 1598.46 547.157C1599.71 546.48 1601.09 545.977 1602.6 545.645C1604.13 545.3 1605.66 545.026 1607.2 544.825C1609.22 544.566 1610.85 544.371 1612.1 544.242C1613.37 544.098 1614.29 543.86 1614.87 543.529C1615.46 543.198 1615.75 542.622 1615.75 541.802V541.629C1615.75 539.498 1615.17 537.843 1614 536.662C1612.85 535.482 1611.1 534.892 1608.76 534.892C1606.32 534.892 1604.42 535.424 1603.03 536.49C1601.65 537.555 1600.68 538.692 1600.12 539.901L1595.28 538.174C1596.14 536.159 1597.3 534.589 1598.74 533.467C1600.19 532.329 1601.77 531.538 1603.49 531.091C1605.21 530.631 1606.91 530.4 1608.58 530.4C1609.65 530.4 1610.87 530.53 1612.25 530.789C1613.65 531.034 1615 531.545 1616.29 532.322C1617.6 533.099 1618.69 534.273 1619.55 535.842C1620.42 537.411 1620.85 539.513 1620.85 542.147V564H1615.75V559.509H1615.49C1615.15 560.228 1614.57 560.998 1613.77 561.819C1612.96 562.64 1611.89 563.338 1610.55 563.914C1609.21 564.489 1607.58 564.777 1605.65 564.777ZM1606.42 560.2C1608.44 560.2 1610.14 559.804 1611.52 559.012C1612.92 558.22 1613.97 557.198 1614.67 555.946C1615.39 554.693 1615.75 553.376 1615.75 551.994V547.33C1615.54 547.589 1615.06 547.826 1614.33 548.042C1613.61 548.244 1612.77 548.424 1611.82 548.582C1610.89 548.726 1609.97 548.856 1609.08 548.971C1608.2 549.072 1607.49 549.158 1606.94 549.23C1605.62 549.403 1604.38 549.683 1603.23 550.072C1602.09 550.446 1601.17 551.015 1600.46 551.778C1599.77 552.527 1599.43 553.549 1599.43 554.844C1599.43 556.615 1600.08 557.954 1601.39 558.861C1602.72 559.753 1604.39 560.2 1606.42 560.2ZM1216.1 625.389C1214.36 625.389 1212.77 624.965 1211.33 624.115C1209.89 623.252 1208.74 622.1 1207.87 620.66C1207.03 619.221 1206.6 617.63 1206.6 615.888C1206.6 614.132 1207.03 612.541 1207.87 611.116C1208.74 609.676 1209.89 608.532 1211.33 607.683C1212.77 606.819 1214.36 606.387 1216.1 606.387C1217.86 606.387 1219.45 606.819 1220.87 607.683C1222.31 608.532 1223.46 609.676 1224.31 611.116C1225.17 612.541 1225.6 614.132 1225.6 615.888C1225.6 617.63 1225.17 619.221 1224.31 620.66C1223.46 622.1 1222.31 623.252 1220.87 624.115C1219.45 624.965 1217.86 625.389 1216.1 625.389ZM1272.76 638V593.776H1299.45V598.527H1278.12V613.47H1298.07V618.22H1278.12V633.249H1299.8V638H1272.76ZM1313.51 618.047V638H1308.42V604.832H1313.34V610.015H1313.77C1314.55 608.33 1315.73 606.977 1317.31 605.955C1318.9 604.919 1320.94 604.4 1323.44 604.4C1325.69 604.4 1327.65 604.861 1329.34 605.782C1331.02 606.689 1332.33 608.071 1333.27 609.928C1334.21 611.771 1334.67 614.103 1334.67 616.925V638H1329.58V617.27C1329.58 614.664 1328.9 612.635 1327.55 611.181C1326.19 609.712 1324.34 608.978 1321.98 608.978C1320.35 608.978 1318.9 609.331 1317.61 610.036C1316.35 610.742 1315.35 611.771 1314.61 613.124C1313.88 614.477 1313.51 616.118 1313.51 618.047ZM1357.37 651.129C1354.91 651.129 1352.8 650.812 1351.02 650.179C1349.25 649.56 1347.78 648.739 1346.6 647.717C1345.43 646.709 1344.5 645.63 1343.81 644.478L1347.87 641.628C1348.33 642.232 1348.92 642.923 1349.62 643.701C1350.33 644.492 1351.29 645.176 1352.51 645.752C1353.75 646.342 1355.37 646.637 1357.37 646.637C1360.05 646.637 1362.26 645.99 1364 644.694C1365.74 643.398 1366.62 641.369 1366.62 638.605V631.867H1366.18C1365.81 632.472 1365.28 633.221 1364.59 634.113C1363.91 634.991 1362.93 635.776 1361.65 636.467C1360.38 637.143 1358.67 637.482 1356.51 637.482C1353.83 637.482 1351.43 636.848 1349.3 635.582C1347.18 634.315 1345.5 632.472 1344.27 630.054C1343.04 627.635 1342.43 624.698 1342.43 621.243C1342.43 617.846 1343.03 614.888 1344.22 612.368C1345.42 609.835 1347.08 607.877 1349.21 606.495C1351.34 605.098 1353.8 604.4 1356.6 604.4C1358.76 604.4 1360.47 604.76 1361.74 605.48C1363.02 606.185 1364 606.992 1364.67 607.898C1365.36 608.791 1365.9 609.525 1366.27 610.101H1366.79V604.832H1371.71V638.95C1371.71 641.8 1371.06 644.118 1369.77 645.903C1368.49 647.703 1366.76 649.02 1364.59 649.855C1362.43 650.704 1360.02 651.129 1357.37 651.129ZM1357.2 632.904C1359.24 632.904 1360.97 632.436 1362.38 631.5C1363.79 630.565 1364.87 629.219 1365.6 627.462C1366.33 625.706 1366.7 623.604 1366.7 621.157C1366.7 618.767 1366.34 616.658 1365.62 614.83C1364.9 613.002 1363.84 611.569 1362.43 610.533C1361.02 609.496 1359.27 608.978 1357.2 608.978C1355.04 608.978 1353.24 609.525 1351.8 610.619C1350.38 611.713 1349.3 613.182 1348.58 615.024C1347.88 616.867 1347.53 618.911 1347.53 621.157C1347.53 623.46 1347.89 625.497 1348.61 627.268C1349.34 629.024 1350.42 630.406 1351.85 631.414C1353.28 632.407 1355.07 632.904 1357.2 632.904ZM1386.14 593.776V638H1381.04V593.776H1386.14ZM1409.38 638.691C1406.18 638.691 1403.42 637.986 1401.11 636.575C1398.8 635.15 1397.02 633.163 1395.77 630.615C1394.53 628.053 1393.92 625.073 1393.92 621.675C1393.92 618.278 1394.53 615.283 1395.77 612.692C1397.02 610.087 1398.77 608.057 1401 606.603C1403.24 605.134 1405.86 604.4 1408.86 604.4C1410.59 604.4 1412.29 604.688 1413.98 605.264C1415.66 605.84 1417.19 606.776 1418.58 608.071C1419.96 609.352 1421.06 611.051 1421.88 613.167C1422.7 615.283 1423.11 617.889 1423.11 620.984V623.144H1397.54V618.738H1417.93C1417.93 616.867 1417.55 615.197 1416.8 613.729C1416.07 612.26 1415.02 611.102 1413.65 610.252C1412.3 609.403 1410.7 608.978 1408.86 608.978C1406.83 608.978 1405.07 609.482 1403.59 610.49C1402.12 611.483 1400.99 612.779 1400.2 614.377C1399.41 615.974 1399.01 617.688 1399.01 619.516V622.453C1399.01 624.957 1399.44 627.081 1400.31 628.823C1401.18 630.55 1402.4 631.867 1403.96 632.774C1405.51 633.667 1407.32 634.113 1409.38 634.113C1410.71 634.113 1411.92 633.926 1413 633.552C1414.1 633.163 1415.04 632.587 1415.83 631.824C1416.62 631.047 1417.24 630.082 1417.67 628.931L1422.59 630.313C1422.07 631.983 1421.2 633.451 1419.98 634.718C1418.75 635.97 1417.24 636.949 1415.44 637.655C1413.64 638.345 1411.62 638.691 1409.38 638.691ZM1438.38 638L1428.27 604.832H1433.63L1440.79 630.226H1441.14L1448.22 604.832H1453.66L1460.66 630.14H1461.01L1468.18 604.832H1473.53L1463.43 638H1458.42L1451.16 612.519H1450.64L1443.39 638H1438.38ZM1492.61 638.691C1489.62 638.691 1486.99 637.978 1484.73 636.553C1482.49 635.128 1480.73 633.134 1479.46 630.572C1478.21 628.009 1477.59 625.015 1477.59 621.589C1477.59 618.134 1478.21 615.118 1479.46 612.541C1480.73 609.964 1482.49 607.963 1484.73 606.538C1486.99 605.113 1489.62 604.4 1492.61 604.4C1495.61 604.4 1498.23 605.113 1500.47 606.538C1502.73 607.963 1504.49 609.964 1505.74 612.541C1507.01 615.118 1507.64 618.134 1507.64 621.589C1507.64 625.015 1507.01 628.009 1505.74 630.572C1504.49 633.134 1502.73 635.128 1500.47 636.553C1498.23 637.978 1495.61 638.691 1492.61 638.691ZM1492.61 634.113C1494.89 634.113 1496.76 633.53 1498.23 632.364C1499.7 631.198 1500.78 629.665 1501.49 627.765C1502.19 625.864 1502.55 623.806 1502.55 621.589C1502.55 619.372 1502.19 617.306 1501.49 615.391C1500.78 613.477 1499.7 611.929 1498.23 610.749C1496.76 609.568 1494.89 608.978 1492.61 608.978C1490.34 608.978 1488.47 609.568 1487 610.749C1485.53 611.929 1484.44 613.477 1483.74 615.391C1483.03 617.306 1482.68 619.372 1482.68 621.589C1482.68 623.806 1483.03 625.864 1483.74 627.765C1484.44 629.665 1485.53 631.198 1487 632.364C1488.47 633.53 1490.34 634.113 1492.61 634.113ZM1528.9 638.691C1525.9 638.691 1523.28 637.978 1521.02 636.553C1518.77 635.128 1517.01 633.134 1515.75 630.572C1514.49 628.009 1513.87 625.015 1513.87 621.589C1513.87 618.134 1514.49 615.118 1515.75 612.541C1517.01 609.964 1518.77 607.963 1521.02 606.538C1523.28 605.113 1525.9 604.4 1528.9 604.4C1531.89 604.4 1534.51 605.113 1536.76 606.538C1539.02 607.963 1540.77 609.964 1542.03 612.541C1543.29 615.118 1543.93 618.134 1543.93 621.589C1543.93 625.015 1543.29 628.009 1542.03 630.572C1540.77 633.134 1539.02 635.128 1536.76 636.553C1534.51 637.978 1531.89 638.691 1528.9 638.691ZM1528.9 634.113C1531.17 634.113 1533.04 633.53 1534.51 632.364C1535.98 631.198 1537.07 629.665 1537.77 627.765C1538.48 625.864 1538.83 623.806 1538.83 621.589C1538.83 619.372 1538.48 617.306 1537.77 615.391C1537.07 613.477 1535.98 611.929 1534.51 610.749C1533.04 609.568 1531.17 608.978 1528.9 608.978C1526.62 608.978 1524.75 609.568 1523.28 610.749C1521.81 611.929 1520.73 613.477 1520.02 615.391C1519.32 617.306 1518.96 619.372 1518.96 621.589C1518.96 623.806 1519.32 625.864 1520.02 627.765C1520.73 629.665 1521.81 631.198 1523.28 632.364C1524.75 633.53 1526.62 634.113 1528.9 634.113ZM1564.23 638.691C1561.47 638.691 1559.03 637.993 1556.91 636.596C1554.79 635.186 1553.14 633.199 1551.94 630.637C1550.75 628.06 1550.15 625.015 1550.15 621.502C1550.15 618.019 1550.75 614.996 1551.94 612.433C1553.14 609.871 1554.8 607.891 1556.93 606.495C1559.06 605.098 1561.52 604.4 1564.32 604.4C1566.48 604.4 1568.18 604.76 1569.43 605.48C1570.7 606.185 1571.66 606.992 1572.33 607.898C1573 608.791 1573.53 609.525 1573.9 610.101H1574.34V593.776H1579.43V638H1574.51V632.904H1573.9C1573.53 633.509 1573 634.271 1572.31 635.193C1571.61 636.1 1570.63 636.913 1569.35 637.633C1568.07 638.338 1566.36 638.691 1564.23 638.691ZM1564.92 634.113C1566.96 634.113 1568.69 633.581 1570.1 632.515C1571.51 631.436 1572.59 629.946 1573.32 628.045C1574.05 626.131 1574.42 623.921 1574.42 621.416C1574.42 618.94 1574.06 616.773 1573.34 614.916C1572.62 613.045 1571.56 611.591 1570.15 610.554C1568.74 609.504 1566.99 608.978 1564.92 608.978C1562.76 608.978 1560.96 609.532 1559.52 610.641C1558.1 611.735 1557.02 613.225 1556.3 615.111C1555.6 616.982 1555.25 619.084 1555.25 621.416C1555.25 623.777 1555.61 625.922 1556.33 627.851C1557.06 629.766 1558.14 631.292 1559.57 632.429C1561 633.552 1562.79 634.113 1564.92 634.113ZM1216.1 699.389C1214.36 699.389 1212.77 698.965 1211.33 698.115C1209.89 697.252 1208.74 696.1 1207.87 694.66C1207.03 693.221 1206.6 691.63 1206.6 689.888C1206.6 688.132 1207.03 686.541 1207.87 685.116C1208.74 683.676 1209.89 682.532 1211.33 681.683C1212.77 680.819 1214.36 680.387 1216.1 680.387C1217.86 680.387 1219.45 680.819 1220.87 681.683C1222.31 682.532 1223.46 683.676 1224.31 685.116C1225.17 686.541 1225.6 688.132 1225.6 689.888C1225.6 691.63 1225.17 693.221 1224.31 694.66C1223.46 696.1 1222.31 697.252 1220.87 698.115C1219.45 698.965 1217.86 699.389 1216.1 699.389ZM1272.76 712V667.776H1288.22C1291.31 667.776 1293.85 668.309 1295.85 669.374C1297.85 670.425 1299.34 671.843 1300.32 673.628C1301.3 675.399 1301.79 677.364 1301.79 679.523C1301.79 681.423 1301.45 682.993 1300.77 684.231C1300.11 685.469 1299.23 686.448 1298.14 687.167C1297.06 687.887 1295.88 688.42 1294.62 688.765V689.197C1295.97 689.283 1297.33 689.759 1298.7 690.622C1300.07 691.486 1301.21 692.724 1302.13 694.336C1303.05 695.949 1303.51 697.921 1303.51 700.253C1303.51 702.47 1303.01 704.464 1302 706.234C1300.99 708.005 1299.4 709.409 1297.23 710.445C1295.06 711.482 1292.23 712 1288.74 712H1272.76ZM1278.12 707.249H1288.74C1292.24 707.249 1294.72 706.573 1296.19 705.22C1297.68 703.852 1298.42 702.196 1298.42 700.253C1298.42 698.756 1298.04 697.374 1297.27 696.107C1296.51 694.826 1295.42 693.804 1294.01 693.041C1292.6 692.263 1290.93 691.875 1289 691.875H1278.12V707.249ZM1278.12 687.21H1288.05C1289.66 687.21 1291.12 686.894 1292.41 686.26C1293.72 685.627 1294.76 684.734 1295.52 683.583C1296.3 682.431 1296.69 681.078 1296.69 679.523C1296.69 677.58 1296.01 675.931 1294.66 674.578C1293.31 673.211 1291.16 672.527 1288.22 672.527H1278.12V687.21ZM1321.38 712.777C1319.28 712.777 1317.37 712.381 1315.66 711.59C1313.95 710.784 1312.59 709.625 1311.58 708.113C1310.57 706.587 1310.07 704.745 1310.07 702.585C1310.07 700.685 1310.44 699.145 1311.19 697.964C1311.94 696.769 1312.94 695.834 1314.19 695.157C1315.44 694.48 1316.83 693.977 1318.34 693.645C1319.86 693.3 1321.4 693.026 1322.94 692.825C1324.95 692.566 1326.59 692.371 1327.84 692.242C1329.11 692.098 1330.03 691.86 1330.6 691.529C1331.19 691.198 1331.49 690.622 1331.49 689.802V689.629C1331.49 687.498 1330.9 685.843 1329.74 684.662C1328.59 683.482 1326.84 682.892 1324.49 682.892C1322.06 682.892 1320.15 683.424 1318.77 684.49C1317.39 685.555 1316.42 686.692 1315.85 687.901L1311.02 686.174C1311.88 684.159 1313.03 682.589 1314.47 681.467C1315.93 680.329 1317.51 679.538 1319.22 679.091C1320.95 678.631 1322.65 678.4 1324.32 678.4C1325.38 678.4 1326.61 678.53 1327.99 678.789C1329.39 679.034 1330.73 679.545 1332.03 680.322C1333.34 681.099 1334.42 682.273 1335.29 683.842C1336.15 685.411 1336.58 687.513 1336.58 690.147V712H1331.49V707.509H1331.23C1330.88 708.228 1330.31 708.998 1329.5 709.819C1328.7 710.64 1327.62 711.338 1326.28 711.914C1324.94 712.489 1323.31 712.777 1321.38 712.777ZM1322.16 708.2C1324.17 708.2 1325.87 707.804 1327.26 707.012C1328.65 706.22 1329.7 705.198 1330.41 703.946C1331.13 702.693 1331.49 701.376 1331.49 699.994V695.33C1331.27 695.589 1330.8 695.826 1330.06 696.042C1329.34 696.244 1328.51 696.424 1327.56 696.582C1326.62 696.726 1325.71 696.856 1324.82 696.971C1323.94 697.072 1323.22 697.158 1322.68 697.23C1321.35 697.403 1320.12 697.683 1318.96 698.072C1317.83 698.446 1316.9 699.015 1316.2 699.778C1315.51 700.527 1315.16 701.549 1315.16 702.844C1315.16 704.615 1315.82 705.954 1317.13 706.861C1318.45 707.753 1320.13 708.2 1322.16 708.2ZM1346.58 712V667.776H1351.67V684.101H1352.1C1352.48 683.525 1353 682.791 1353.66 681.898C1354.34 680.992 1355.3 680.185 1356.55 679.48C1357.82 678.76 1359.53 678.4 1361.69 678.4C1364.48 678.4 1366.95 679.098 1369.08 680.495C1371.21 681.891 1372.87 683.871 1374.07 686.433C1375.26 688.996 1375.86 692.019 1375.86 695.502C1375.86 699.015 1375.26 702.06 1374.07 704.637C1372.87 707.199 1371.21 709.186 1369.1 710.596C1366.98 711.993 1364.54 712.691 1361.78 712.691C1359.65 712.691 1357.94 712.338 1356.66 711.633C1355.38 710.913 1354.39 710.1 1353.7 709.193C1353.01 708.271 1352.48 707.509 1352.1 706.904H1351.5V712H1346.58ZM1351.59 695.416C1351.59 697.921 1351.95 700.131 1352.69 702.045C1353.42 703.946 1354.49 705.436 1355.9 706.515C1357.32 707.581 1359.04 708.113 1361.09 708.113C1363.22 708.113 1365 707.552 1366.42 706.429C1367.86 705.292 1368.94 703.766 1369.66 701.851C1370.39 699.922 1370.76 697.777 1370.76 695.416C1370.76 693.084 1370.4 690.982 1369.68 689.111C1368.98 687.225 1367.9 685.735 1366.46 684.641C1365.04 683.532 1363.25 682.978 1361.09 682.978C1359.01 682.978 1357.27 683.504 1355.86 684.554C1354.45 685.591 1353.39 687.045 1352.67 688.916C1351.95 690.773 1351.59 692.94 1351.59 695.416ZM1397.13 712.691C1394.02 712.691 1391.34 711.957 1389.09 710.488C1386.85 709.02 1385.12 706.997 1383.91 704.421C1382.7 701.844 1382.1 698.9 1382.1 695.589C1382.1 692.22 1382.72 689.247 1383.96 686.671C1385.21 684.079 1386.95 682.057 1389.18 680.603C1391.43 679.134 1394.05 678.4 1397.04 678.4C1399.37 678.4 1401.47 678.832 1403.35 679.696C1405.22 680.56 1406.75 681.769 1407.95 683.324C1409.14 684.878 1409.88 686.692 1410.17 688.765H1405.07C1404.68 687.254 1403.82 685.915 1402.48 684.749C1401.16 683.568 1399.37 682.978 1397.13 682.978C1395.14 682.978 1393.4 683.496 1391.9 684.533C1390.42 685.555 1389.26 687.002 1388.42 688.873C1387.6 690.73 1387.19 692.911 1387.19 695.416C1387.19 697.979 1387.6 700.21 1388.4 702.11C1389.22 704.01 1390.38 705.486 1391.86 706.537C1393.36 707.588 1395.11 708.113 1397.13 708.113C1398.45 708.113 1399.65 707.883 1400.73 707.422C1401.81 706.961 1402.73 706.299 1403.48 705.436C1404.22 704.572 1404.76 703.535 1405.07 702.326H1410.17C1409.88 704.284 1409.17 706.047 1408.03 707.616C1406.91 709.171 1405.42 710.409 1403.56 711.331C1401.72 712.238 1399.57 712.691 1397.13 712.691ZM1431.09 712.691C1428.1 712.691 1425.47 711.978 1423.21 710.553C1420.97 709.128 1419.21 707.134 1417.94 704.572C1416.69 702.009 1416.06 699.015 1416.06 695.589C1416.06 692.134 1416.69 689.118 1417.94 686.541C1419.21 683.964 1420.97 681.963 1423.21 680.538C1425.47 679.113 1428.1 678.4 1431.09 678.4C1434.09 678.4 1436.71 679.113 1438.95 680.538C1441.21 681.963 1442.97 683.964 1444.22 686.541C1445.49 689.118 1446.12 692.134 1446.12 695.589C1446.12 699.015 1445.49 702.009 1444.22 704.572C1442.97 707.134 1441.21 709.128 1438.95 710.553C1436.71 711.978 1434.09 712.691 1431.09 712.691ZM1431.09 708.113C1433.37 708.113 1435.24 707.53 1436.71 706.364C1438.18 705.198 1439.26 703.665 1439.97 701.765C1440.67 699.864 1441.03 697.806 1441.03 695.589C1441.03 693.372 1440.67 691.306 1439.97 689.391C1439.26 687.477 1438.18 685.929 1436.71 684.749C1435.24 683.568 1433.37 682.978 1431.09 682.978C1428.82 682.978 1426.95 683.568 1425.48 684.749C1424.01 685.929 1422.92 687.477 1422.22 689.391C1421.51 691.306 1421.16 693.372 1421.16 695.589C1421.16 697.806 1421.51 699.864 1422.22 701.765C1422.92 703.665 1424.01 705.198 1425.48 706.364C1426.95 707.53 1428.82 708.113 1431.09 708.113ZM1467.38 712.691C1464.27 712.691 1461.59 711.957 1459.34 710.488C1457.1 709.02 1455.37 706.997 1454.16 704.421C1452.95 701.844 1452.35 698.9 1452.35 695.589C1452.35 692.22 1452.97 689.247 1454.2 686.671C1455.46 684.079 1457.2 682.057 1459.43 680.603C1461.68 679.134 1464.3 678.4 1467.29 678.4C1469.62 678.4 1471.72 678.832 1473.6 679.696C1475.47 680.56 1477 681.769 1478.2 683.324C1479.39 684.878 1480.13 686.692 1480.42 688.765H1475.32C1474.93 687.254 1474.07 685.915 1472.73 684.749C1471.41 683.568 1469.62 682.978 1467.38 682.978C1465.39 682.978 1463.65 683.496 1462.15 684.533C1460.67 685.555 1459.51 687.002 1458.67 688.873C1457.85 690.73 1457.44 692.911 1457.44 695.416C1457.44 697.979 1457.85 700.21 1458.65 702.11C1459.47 704.01 1460.63 705.486 1462.11 706.537C1463.6 707.588 1465.36 708.113 1467.38 708.113C1468.7 708.113 1469.9 707.883 1470.98 707.422C1472.06 706.961 1472.98 706.299 1473.73 705.436C1474.47 704.572 1475.01 703.535 1475.32 702.326H1480.42C1480.13 704.284 1479.42 706.047 1478.28 707.616C1477.16 709.171 1475.67 710.409 1473.81 711.331C1471.97 712.238 1469.82 712.691 1467.38 712.691ZM1492.62 699.908L1492.53 693.602H1493.57L1508.08 678.832H1514.39L1498.92 694.466H1498.49L1492.62 699.908ZM1487.87 712V667.776H1492.97V712H1487.87ZM1508.94 712L1495.99 695.589L1499.62 692.047L1515.42 712H1508.94ZM1538.74 712V667.776H1553.68C1557.14 667.776 1559.97 668.366 1562.19 669.547C1564.41 670.713 1566.05 672.318 1567.11 674.362C1568.18 676.406 1568.71 678.731 1568.71 681.337C1568.71 683.943 1568.18 686.253 1567.11 688.269C1566.05 690.284 1564.41 691.868 1562.21 693.019C1560.01 694.156 1557.19 694.725 1553.77 694.725H1541.67V689.888H1553.59C1555.96 689.888 1557.86 689.543 1559.3 688.852C1560.75 688.161 1561.8 687.182 1562.45 685.915C1563.11 684.634 1563.44 683.108 1563.44 681.337C1563.44 679.566 1563.11 678.019 1562.45 676.694C1561.79 675.37 1560.73 674.348 1559.27 673.628C1557.82 672.894 1555.9 672.527 1553.51 672.527H1544.09V712H1538.74ZM1559.55 692.134L1570.44 712H1564.22L1553.51 692.134H1559.55ZM1586.7 712.777C1584.6 712.777 1582.69 712.381 1580.98 711.59C1579.27 710.784 1577.91 709.625 1576.9 708.113C1575.89 706.587 1575.39 704.745 1575.39 702.585C1575.39 700.685 1575.76 699.145 1576.51 697.964C1577.26 696.769 1578.26 695.834 1579.51 695.157C1580.76 694.48 1582.15 693.977 1583.66 693.645C1585.18 693.3 1586.72 693.026 1588.26 692.825C1590.27 692.566 1591.91 692.371 1593.16 692.242C1594.43 692.098 1595.35 691.86 1595.92 691.529C1596.51 691.198 1596.81 690.622 1596.81 689.802V689.629C1596.81 687.498 1596.23 685.843 1595.06 684.662C1593.91 683.482 1592.16 682.892 1589.81 682.892C1587.38 682.892 1585.47 683.424 1584.09 684.49C1582.71 685.555 1581.74 686.692 1581.18 687.901L1576.34 686.174C1577.2 684.159 1578.35 682.589 1579.79 681.467C1581.25 680.329 1582.83 679.538 1584.54 679.091C1586.27 678.631 1587.97 678.4 1589.64 678.4C1590.71 678.4 1591.93 678.53 1593.31 678.789C1594.71 679.034 1596.05 679.545 1597.35 680.322C1598.66 681.099 1599.75 682.273 1600.61 683.842C1601.47 685.411 1601.91 687.513 1601.91 690.147V712H1596.81V707.509H1596.55C1596.2 708.228 1595.63 708.998 1594.82 709.819C1594.02 710.64 1592.94 711.338 1591.6 711.914C1590.27 712.489 1588.63 712.777 1586.7 712.777ZM1587.48 708.2C1589.5 708.2 1591.19 707.804 1592.58 707.012C1593.97 706.22 1595.02 705.198 1595.73 703.946C1596.45 702.693 1596.81 701.376 1596.81 699.994V695.33C1596.59 695.589 1596.12 695.826 1595.38 696.042C1594.66 696.244 1593.83 696.424 1592.88 696.582C1591.94 696.726 1591.03 696.856 1590.14 696.971C1589.26 697.072 1588.55 697.158 1588 697.23C1586.67 697.403 1585.44 697.683 1584.28 698.072C1583.15 698.446 1582.23 699.015 1581.52 699.778C1580.83 700.527 1580.48 701.549 1580.48 702.844C1580.48 704.615 1581.14 705.954 1582.45 706.861C1583.77 707.753 1585.45 708.2 1587.48 708.2ZM1616.3 692.047V712H1611.21V678.832H1616.13V684.015H1616.56C1617.34 682.33 1618.52 680.977 1620.1 679.955C1621.69 678.919 1623.73 678.4 1626.24 678.4C1628.48 678.4 1630.45 678.861 1632.13 679.782C1633.82 680.689 1635.13 682.071 1636.06 683.928C1637 685.771 1637.46 688.103 1637.46 690.925V712H1632.37V691.27C1632.37 688.664 1631.69 686.635 1630.34 685.181C1628.99 683.712 1627.13 682.978 1624.77 682.978C1623.14 682.978 1621.69 683.331 1620.41 684.036C1619.14 684.742 1618.14 685.771 1617.4 687.124C1616.67 688.477 1616.3 690.118 1616.3 692.047ZM1660.25 712.691C1657.14 712.691 1654.46 711.957 1652.22 710.488C1649.97 709.02 1648.25 706.997 1647.04 704.421C1645.83 701.844 1645.22 698.9 1645.22 695.589C1645.22 692.22 1645.84 689.247 1647.08 686.671C1648.33 684.079 1650.07 682.057 1652.3 680.603C1654.55 679.134 1657.17 678.4 1660.16 678.4C1662.5 678.4 1664.6 678.832 1666.47 679.696C1668.34 680.56 1669.87 681.769 1671.07 683.324C1672.26 684.878 1673.01 686.692 1673.29 688.765H1668.2C1667.81 687.254 1666.95 685.915 1665.61 684.749C1664.28 683.568 1662.5 682.978 1660.25 682.978C1658.26 682.978 1656.52 683.496 1655.03 684.533C1653.54 685.555 1652.38 687.002 1651.55 688.873C1650.73 690.73 1650.32 692.911 1650.32 695.416C1650.32 697.979 1650.72 700.21 1651.53 702.11C1652.35 704.01 1653.5 705.486 1654.98 706.537C1656.48 707.588 1658.24 708.113 1660.25 708.113C1661.58 708.113 1662.78 707.883 1663.86 707.422C1664.94 706.961 1665.85 706.299 1666.6 705.436C1667.35 704.572 1667.88 703.535 1668.2 702.326H1673.29C1673.01 704.284 1672.29 706.047 1671.16 707.616C1670.03 709.171 1668.54 710.409 1666.69 711.331C1664.84 712.238 1662.7 712.691 1660.25 712.691ZM1685.84 692.047V712H1680.74V667.776H1685.84V684.015H1686.27C1687.05 682.302 1688.21 680.941 1689.77 679.933C1691.34 678.911 1693.43 678.4 1696.03 678.4C1698.29 678.4 1700.27 678.854 1701.97 679.761C1703.67 680.653 1704.99 682.028 1705.92 683.885C1706.87 685.728 1707.35 688.074 1707.35 690.925V712H1702.25V691.27C1702.25 688.636 1701.57 686.599 1700.2 685.159C1698.85 683.705 1696.97 682.978 1694.56 682.978C1692.89 682.978 1691.4 683.331 1690.07 684.036C1688.76 684.742 1687.73 685.771 1686.96 687.124C1686.21 688.477 1685.84 690.118 1685.84 692.047ZM1216.1 773.389C1214.36 773.389 1212.77 772.965 1211.33 772.115C1209.89 771.252 1208.74 770.1 1207.87 768.66C1207.03 767.221 1206.6 765.63 1206.6 763.888C1206.6 762.132 1207.03 760.541 1207.87 759.116C1208.74 757.676 1209.89 756.532 1211.33 755.683C1212.77 754.819 1214.36 754.387 1216.1 754.387C1217.86 754.387 1219.45 754.819 1220.87 755.683C1222.31 756.532 1223.46 757.676 1224.31 759.116C1225.17 760.541 1225.6 762.132 1225.6 763.888C1225.6 765.63 1225.17 767.221 1224.31 768.66C1223.46 770.1 1222.31 771.252 1220.87 772.115C1219.45 772.965 1217.86 773.389 1216.1 773.389ZM1272.76 786V741.776H1288.22C1291.31 741.776 1293.85 742.309 1295.85 743.374C1297.85 744.425 1299.34 745.843 1300.32 747.628C1301.3 749.399 1301.79 751.364 1301.79 753.523C1301.79 755.423 1301.45 756.993 1300.77 758.231C1300.11 759.469 1299.23 760.448 1298.14 761.167C1297.06 761.887 1295.88 762.42 1294.62 762.765V763.197C1295.97 763.283 1297.33 763.759 1298.7 764.622C1300.07 765.486 1301.21 766.724 1302.13 768.336C1303.05 769.949 1303.51 771.921 1303.51 774.253C1303.51 776.47 1303.01 778.464 1302 780.234C1300.99 782.005 1299.4 783.409 1297.23 784.445C1295.06 785.482 1292.23 786 1288.74 786H1272.76ZM1278.12 781.249H1288.74C1292.24 781.249 1294.72 780.573 1296.19 779.22C1297.68 777.852 1298.42 776.196 1298.42 774.253C1298.42 772.756 1298.04 771.374 1297.27 770.107C1296.51 768.826 1295.42 767.804 1294.01 767.041C1292.6 766.263 1290.93 765.875 1289 765.875H1278.12V781.249ZM1278.12 761.21H1288.05C1289.66 761.21 1291.12 760.894 1292.41 760.26C1293.72 759.627 1294.76 758.734 1295.52 757.583C1296.3 756.431 1296.69 755.078 1296.69 753.523C1296.69 751.58 1296.01 749.931 1294.66 748.578C1293.31 747.211 1291.16 746.527 1288.22 746.527H1278.12V761.21ZM1325.1 786.691C1322.1 786.691 1319.47 785.978 1317.21 784.553C1314.97 783.128 1313.21 781.134 1311.95 778.572C1310.69 776.009 1310.07 773.015 1310.07 769.589C1310.07 766.134 1310.69 763.118 1311.95 760.541C1313.21 757.964 1314.97 755.963 1317.21 754.538C1319.47 753.113 1322.1 752.4 1325.1 752.4C1328.09 752.4 1330.71 753.113 1332.96 754.538C1335.22 755.963 1336.97 757.964 1338.23 760.541C1339.49 763.118 1340.13 766.134 1340.13 769.589C1340.13 773.015 1339.49 776.009 1338.23 778.572C1336.97 781.134 1335.22 783.128 1332.96 784.553C1330.71 785.978 1328.09 786.691 1325.1 786.691ZM1325.1 782.113C1327.37 782.113 1329.24 781.53 1330.71 780.364C1332.18 779.198 1333.27 777.665 1333.97 775.765C1334.68 773.864 1335.03 771.806 1335.03 769.589C1335.03 767.372 1334.68 765.306 1333.97 763.391C1333.27 761.477 1332.18 759.929 1330.71 758.749C1329.24 757.568 1327.37 756.978 1325.1 756.978C1322.82 756.978 1320.95 757.568 1319.48 758.749C1318.01 759.929 1316.93 761.477 1316.22 763.391C1315.52 765.306 1315.16 767.372 1315.16 769.589C1315.16 771.806 1315.52 773.864 1316.22 775.765C1316.93 777.665 1318.01 779.198 1319.48 780.364C1320.95 781.53 1322.82 782.113 1325.1 782.113ZM1361.38 786.691C1358.27 786.691 1355.59 785.957 1353.35 784.488C1351.1 783.02 1349.37 780.997 1348.16 778.421C1346.95 775.844 1346.35 772.9 1346.35 769.589C1346.35 766.22 1346.97 763.247 1348.21 760.671C1349.46 758.079 1351.2 756.057 1353.43 754.603C1355.68 753.134 1358.3 752.4 1361.29 752.4C1363.62 752.4 1365.73 752.832 1367.6 753.696C1369.47 754.56 1371 755.769 1372.2 757.324C1373.39 758.878 1374.13 760.692 1374.42 762.765H1369.33C1368.94 761.254 1368.07 759.915 1366.73 758.749C1365.41 757.568 1363.62 756.978 1361.38 756.978C1359.39 756.978 1357.65 757.496 1356.15 758.533C1354.67 759.555 1353.51 761.002 1352.68 762.873C1351.86 764.73 1351.45 766.911 1351.45 769.416C1351.45 771.979 1351.85 774.21 1352.66 776.11C1353.48 778.01 1354.63 779.486 1356.11 780.537C1357.61 781.588 1359.36 782.113 1361.38 782.113C1362.7 782.113 1363.91 781.883 1364.98 781.422C1366.06 780.961 1366.98 780.299 1367.73 779.436C1368.48 778.572 1369.01 777.535 1369.33 776.326H1374.42C1374.13 778.284 1373.42 780.047 1372.28 781.616C1371.16 783.171 1369.67 784.409 1367.81 785.331C1365.97 786.238 1363.83 786.691 1361.38 786.691ZM1391.63 786.777C1389.53 786.777 1387.62 786.381 1385.91 785.59C1384.2 784.784 1382.84 783.625 1381.83 782.113C1380.82 780.587 1380.32 778.745 1380.32 776.585C1380.32 774.685 1380.69 773.145 1381.44 771.964C1382.19 770.769 1383.19 769.834 1384.44 769.157C1385.69 768.48 1387.08 767.977 1388.59 767.645C1390.11 767.3 1391.65 767.026 1393.19 766.825C1395.2 766.566 1396.84 766.371 1398.09 766.242C1399.35 766.098 1400.28 765.86 1400.85 765.529C1401.44 765.198 1401.74 764.622 1401.74 763.802V763.629C1401.74 761.498 1401.15 759.843 1399.99 758.662C1398.84 757.482 1397.09 756.892 1394.74 756.892C1392.31 756.892 1390.4 757.424 1389.02 758.49C1387.64 759.555 1386.66 760.692 1386.1 761.901L1381.27 760.174C1382.13 758.159 1383.28 756.589 1384.72 755.467C1386.18 754.329 1387.76 753.538 1389.47 753.091C1391.2 752.631 1392.9 752.4 1394.57 752.4C1395.63 752.4 1396.86 752.53 1398.24 752.789C1399.64 753.034 1400.98 753.545 1402.28 754.322C1403.59 755.099 1404.67 756.273 1405.54 757.842C1406.4 759.411 1406.83 761.513 1406.83 764.147V786H1401.74V781.509H1401.48C1401.13 782.228 1400.56 782.998 1399.75 783.819C1398.94 784.64 1397.87 785.338 1396.53 785.914C1395.19 786.489 1393.56 786.777 1391.63 786.777ZM1392.41 782.2C1394.42 782.2 1396.12 781.804 1397.51 781.012C1398.9 780.22 1399.95 779.198 1400.66 777.946C1401.38 776.693 1401.74 775.376 1401.74 773.994V769.33C1401.52 769.589 1401.05 769.826 1400.31 770.042C1399.59 770.244 1398.76 770.424 1397.81 770.582C1396.87 770.726 1395.96 770.856 1395.06 770.971C1394.19 771.072 1393.47 771.158 1392.93 771.23C1391.6 771.403 1390.36 771.683 1389.21 772.072C1388.08 772.446 1387.15 773.015 1386.45 773.778C1385.76 774.527 1385.41 775.549 1385.41 776.844C1385.41 778.615 1386.07 779.954 1387.38 780.861C1388.7 781.753 1390.38 782.2 1392.41 782.2ZM1464.16 755.596C1463.68 754.142 1463.06 752.839 1462.28 751.688C1461.52 750.522 1460.6 749.528 1459.54 748.708C1458.49 747.887 1457.29 747.261 1455.95 746.829C1454.61 746.397 1453.15 746.181 1451.55 746.181C1448.93 746.181 1446.55 746.858 1444.4 748.211C1442.26 749.564 1440.55 751.558 1439.28 754.193C1438.02 756.827 1437.38 760.059 1437.38 763.888C1437.38 767.717 1438.02 770.949 1439.3 773.584C1440.59 776.218 1442.32 778.212 1444.51 779.565C1446.7 780.918 1449.16 781.595 1451.89 781.595C1454.43 781.595 1456.66 781.055 1458.59 779.975C1460.53 778.881 1462.04 777.341 1463.12 775.354C1464.22 773.353 1464.76 771 1464.76 768.293L1466.4 768.639H1453.1V763.888H1469.95V768.639C1469.95 772.281 1469.17 775.448 1467.61 778.14C1466.07 780.832 1463.94 782.919 1461.22 784.402C1458.52 785.87 1455.41 786.605 1451.89 786.605C1447.98 786.605 1444.54 785.683 1441.57 783.841C1438.62 781.998 1436.32 779.378 1434.66 775.981C1433.02 772.583 1432.2 768.552 1432.2 763.888C1432.2 760.39 1432.67 757.244 1433.6 754.452C1434.55 751.645 1435.89 749.255 1437.62 747.283C1439.35 745.31 1441.39 743.799 1443.75 742.748C1446.11 741.697 1448.71 741.172 1451.55 741.172C1453.88 741.172 1456.05 741.524 1458.07 742.23C1460.1 742.921 1461.91 743.907 1463.49 745.188C1465.09 746.455 1466.42 747.974 1467.48 749.744C1468.55 751.501 1469.28 753.451 1469.69 755.596H1464.16ZM1478.43 786V752.832H1483.35V757.842H1483.7C1484.3 756.201 1485.39 754.869 1486.98 753.847C1488.56 752.825 1490.35 752.314 1492.33 752.314C1492.71 752.314 1493.18 752.321 1493.74 752.336C1494.3 752.35 1494.72 752.371 1495.01 752.4V757.583C1494.84 757.54 1494.44 757.475 1493.82 757.388C1493.22 757.288 1492.58 757.237 1491.9 757.237C1490.29 757.237 1488.85 757.576 1487.58 758.252C1486.33 758.914 1485.34 759.836 1484.6 761.016C1483.88 762.182 1483.52 763.514 1483.52 765.011V786H1478.43ZM1510.81 786.777C1508.71 786.777 1506.8 786.381 1505.09 785.59C1503.38 784.784 1502.02 783.625 1501.01 782.113C1500 780.587 1499.5 778.745 1499.5 776.585C1499.5 774.685 1499.87 773.145 1500.62 771.964C1501.37 770.769 1502.37 769.834 1503.62 769.157C1504.87 768.48 1506.26 767.977 1507.77 767.645C1509.29 767.3 1510.83 767.026 1512.37 766.825C1514.38 766.566 1516.02 766.371 1517.27 766.242C1518.54 766.098 1519.46 765.86 1520.03 765.529C1520.62 765.198 1520.92 764.622 1520.92 763.802V763.629C1520.92 761.498 1520.34 759.843 1519.17 758.662C1518.02 757.482 1516.27 756.892 1513.92 756.892C1511.49 756.892 1509.58 757.424 1508.2 758.49C1506.82 759.555 1505.85 760.692 1505.28 761.901L1500.45 760.174C1501.31 758.159 1502.46 756.589 1503.9 755.467C1505.36 754.329 1506.94 753.538 1508.65 753.091C1510.38 752.631 1512.08 752.4 1513.75 752.4C1514.81 752.4 1516.04 752.53 1517.42 752.789C1518.82 753.034 1520.16 753.545 1521.46 754.322C1522.77 755.099 1523.85 756.273 1524.72 757.842C1525.58 759.411 1526.01 761.513 1526.01 764.147V786H1520.92V781.509H1520.66C1520.31 782.228 1519.74 782.998 1518.93 783.819C1518.13 784.64 1517.05 785.338 1515.71 785.914C1514.38 786.489 1512.74 786.777 1510.81 786.777ZM1511.59 782.2C1513.61 782.2 1515.3 781.804 1516.69 781.012C1518.08 780.22 1519.13 779.198 1519.84 777.946C1520.56 776.693 1520.92 775.376 1520.92 773.994V769.33C1520.7 769.589 1520.23 769.826 1519.49 770.042C1518.77 770.244 1517.94 770.424 1516.99 770.582C1516.05 770.726 1515.14 770.856 1514.25 770.971C1513.37 771.072 1512.65 771.158 1512.11 771.23C1510.78 771.403 1509.55 771.683 1508.39 772.072C1507.26 772.446 1506.34 773.015 1505.63 773.778C1504.94 774.527 1504.59 775.549 1504.59 776.844C1504.59 778.615 1505.25 779.954 1506.56 780.861C1507.88 781.753 1509.56 782.2 1511.59 782.2ZM1540.41 766.047V786H1535.32V752.832H1540.24V758.015H1540.67C1541.45 756.33 1542.63 754.977 1544.21 753.955C1545.8 752.919 1547.84 752.4 1550.34 752.4C1552.59 752.4 1554.56 752.861 1556.24 753.782C1557.92 754.689 1559.23 756.071 1560.17 757.928C1561.11 759.771 1561.57 762.103 1561.57 764.925V786H1556.48V765.27C1556.48 762.664 1555.8 760.635 1554.45 759.181C1553.09 757.712 1551.24 756.978 1548.88 756.978C1547.25 756.978 1545.8 757.331 1544.51 758.036C1543.25 758.742 1542.25 759.771 1541.51 761.124C1540.78 762.477 1540.41 764.118 1540.41 766.047ZM1583.41 786.691C1580.65 786.691 1578.21 785.993 1576.09 784.596C1573.97 783.186 1572.32 781.199 1571.12 778.637C1569.93 776.06 1569.33 773.015 1569.33 769.502C1569.33 766.019 1569.93 762.996 1571.12 760.433C1572.32 757.871 1573.98 755.891 1576.11 754.495C1578.24 753.098 1580.7 752.4 1583.5 752.4C1585.66 752.4 1587.36 752.76 1588.61 753.48C1589.88 754.185 1590.85 754.992 1591.51 755.898C1592.18 756.791 1592.71 757.525 1593.08 758.101H1593.52V741.776H1598.61V786H1593.69V780.904H1593.08C1592.71 781.509 1592.18 782.271 1591.49 783.193C1590.8 784.1 1589.81 784.913 1588.53 785.633C1587.25 786.338 1585.54 786.691 1583.41 786.691ZM1584.1 782.113C1586.15 782.113 1587.87 781.581 1589.28 780.515C1590.69 779.436 1591.77 777.946 1592.5 776.045C1593.24 774.131 1593.6 771.921 1593.6 769.416C1593.6 766.94 1593.24 764.773 1592.52 762.916C1591.8 761.045 1590.74 759.591 1589.33 758.554C1587.92 757.504 1586.17 756.978 1584.1 756.978C1581.94 756.978 1580.14 757.532 1578.7 758.641C1577.28 759.735 1576.21 761.225 1575.49 763.111C1574.78 764.982 1574.43 767.084 1574.43 769.416C1574.43 771.777 1574.79 773.922 1575.51 775.851C1576.24 777.766 1577.32 779.292 1578.75 780.429C1580.19 781.552 1581.97 782.113 1584.1 782.113ZM1622.56 786.691C1619.36 786.691 1616.61 785.986 1614.29 784.575C1611.99 783.15 1610.21 781.163 1608.96 778.615C1607.72 776.053 1607.1 773.073 1607.1 769.675C1607.1 766.278 1607.72 763.283 1608.96 760.692C1610.21 758.087 1611.95 756.057 1614.18 754.603C1616.43 753.134 1619.05 752.4 1622.04 752.4C1623.77 752.4 1625.47 752.688 1627.16 753.264C1628.84 753.84 1630.38 754.776 1631.76 756.071C1633.14 757.352 1634.24 759.051 1635.06 761.167C1635.88 763.283 1636.29 765.889 1636.29 768.984V771.144H1610.73V766.738H1631.11C1631.11 764.867 1630.74 763.197 1629.99 761.729C1629.25 760.26 1628.2 759.102 1626.83 758.252C1625.48 757.403 1623.88 756.978 1622.04 756.978C1620.01 756.978 1618.26 757.482 1616.77 758.49C1615.3 759.483 1614.17 760.779 1613.38 762.377C1612.59 763.974 1612.19 765.688 1612.19 767.516V770.453C1612.19 772.957 1612.63 775.081 1613.49 776.823C1614.37 778.55 1615.58 779.867 1617.14 780.774C1618.69 781.667 1620.5 782.113 1622.56 782.113C1623.9 782.113 1625.11 781.926 1626.19 781.552C1627.28 781.163 1628.22 780.587 1629.02 779.824C1629.81 779.047 1630.42 778.082 1630.85 776.931L1635.77 778.313C1635.26 779.983 1634.39 781.451 1633.16 782.718C1631.94 783.97 1630.43 784.949 1628.63 785.655C1626.83 786.345 1624.81 786.691 1622.56 786.691Z" fill="white"/>
<path d="M1847.67 458.083H1907.33" stroke="white" stroke-width="14.9167" stroke-linecap="round" stroke-linejoin="round"/>
<path d="M1840.21 368.583H1914.79" stroke="white" stroke-width="14.9167" stroke-linecap="round" stroke-linejoin="round"/>
<path d="M1877.5 405.875V458.083" stroke="white" stroke-width="14.9167" stroke-linecap="round" stroke-linejoin="round"/>
<path d="M1877.5 405.875C1887.39 405.875 1896.88 401.946 1903.87 394.953C1910.86 387.959 1914.79 378.474 1914.79 368.584C1914.79 353.667 1911.06 338.75 1899.88 308.917H1855.13C1843.94 338.75 1840.21 353.667 1840.21 368.584C1840.21 378.474 1844.14 387.959 1851.13 394.953C1858.13 401.946 1867.61 405.875 1877.5 405.875Z" stroke="white" stroke-width="14.9167" stroke-linecap="round" stroke-linejoin="round"/>
<path d="M474.79 905.417L497.165 930.029C498.187 931.072 498.881 932.391 499.16 933.824C499.44 935.257 499.292 936.741 498.736 938.09C498.18 939.44 497.241 940.598 496.033 941.418C494.826 942.239 493.404 942.688 491.944 942.708H383.053C381.593 942.688 380.171 942.239 378.964 941.418C377.757 940.598 376.817 939.44 376.261 938.09C375.705 936.741 375.558 935.257 375.837 933.824C376.116 932.391 376.81 931.072 377.832 930.029L400.207 905.417H397.969C396.51 905.396 395.088 904.948 393.881 904.127C392.673 903.306 391.734 902.149 391.178 900.799C390.622 899.449 390.474 897.965 390.754 896.532C391.033 895.099 391.727 893.78 392.749 892.738L415.124 868.125H413.632C412.109 868.262 410.58 867.928 409.253 867.167C407.926 866.407 406.865 865.257 406.213 863.873C405.562 862.489 405.352 860.938 405.612 859.43C405.872 857.923 406.588 856.532 407.665 855.446L437.499 823.375L467.332 855.446C468.409 856.532 469.126 857.923 469.385 859.43C469.645 860.938 469.435 862.489 468.784 863.873C468.133 865.257 467.071 866.407 465.744 867.167C464.417 867.928 462.889 868.262 461.365 868.125H459.874L482.249 892.738C483.271 893.78 483.964 895.099 484.244 896.532C484.523 897.965 484.375 899.449 483.82 900.799C483.264 902.149 482.324 903.306 481.117 904.127C479.909 904.948 478.488 905.396 477.028 905.417H474.79Z" stroke="white" stroke-width="14.9167" stroke-linecap="round" stroke-linejoin="round"/>
<path d="M437.5 965.083V942.708" stroke="white" stroke-width="14.9167" stroke-linecap="round" stroke-linejoin="round"/>
</svg>
