<svg width="3068" height="2288" viewBox="0 0 3068 2288" fill="none" xmlns="http://www.w3.org/2000/svg">
<path d="M2816.11 631.263C2816.11 631.263 3212 1116.19 2975.7 1493.51C2739.41 1870.84 3062.8 2029.78 3062.8 2029.78C3062.8 2029.78 2635.6 1919.16 2387.05 2139.83C2138.5 2360.5 1711.3 2249.88 1711.3 2249.88L1691.26 2210.09L1677.9 2195.84L1543.78 2121.41L1471.53 2091.68L1450.25 2085.05L1172.38 2026.34L1137.99 2026.34L804.688 2088L777.717 2105.93L754.21 2134.92L750.993 2168.08L743.076 2227.78L732.187 2265.61L712.146 2263.4L696.309 2247.68C696.309 2247.68 644.321 2057.89 514.69 1992.93C385.058 1927.97 427.823 1700.79 477.472 1625.16C527.122 1549.53 379.994 1475.1 233.353 1451.51C86.712 1427.91 213.559 1372.9 213.559 1372.9C213.559 1372.9 241.682 1128.96 139.822 1116.19C37.9619 1103.41 77.4677 942.262 77.4677 942.262L29.4647 844.983L10.0001 780.001L62.5006 780.001L327 744.001C327 744.001 592.352 580.356 650 562.001C707.649 543.645 790.087 429.58 790.087 429.58L742.084 149.288C1188.96 161.567 1330.34 109.219 1571.74 10.0008C1590.1 124.163 1671.81 139.058 1618.76 302.33C1565.71 465.602 1687.57 859.839 1710.06 824.84C2106.39 636.871 2682.66 904.136 2816.11 631.263Z" fill="black" stroke="#886E34" stroke-width="20" stroke-linejoin="bevel"/>
<path d="M942.109 831.512H922.958C922.412 828.372 921.405 825.589 919.937 823.166C918.469 820.708 916.642 818.625 914.458 816.918C912.273 815.212 909.781 813.931 906.981 813.078C904.216 812.19 901.229 811.747 898.02 811.747C892.319 811.747 887.267 813.18 882.863 816.048C878.459 818.881 875.011 823.046 872.519 828.542C870.027 834.004 868.781 840.678 868.781 848.564C868.781 856.587 870.027 863.346 872.519 868.842C875.045 874.304 878.493 878.435 882.863 881.234C887.267 883.999 892.302 885.382 897.969 885.382C901.11 885.382 904.046 884.972 906.777 884.153C909.542 883.3 912.017 882.053 914.202 880.415C916.421 878.776 918.281 876.762 919.783 874.372C921.319 871.983 922.378 869.252 922.958 866.179L942.109 866.282C941.392 871.266 939.839 875.943 937.449 880.312C935.094 884.682 932.004 888.54 928.181 891.885C924.358 895.197 919.886 897.791 914.765 899.669C909.644 901.512 903.96 902.434 897.713 902.434C888.496 902.434 880.269 900.3 873.031 896.033C865.794 891.766 860.093 885.604 855.928 877.547C851.763 869.491 849.681 859.83 849.681 848.564C849.681 837.265 851.78 827.604 855.979 819.581C860.178 811.525 865.896 805.363 873.134 801.096C880.371 796.828 888.564 794.695 897.713 794.695C903.551 794.695 908.978 795.514 913.997 797.153C919.015 798.791 923.487 801.198 927.413 804.373C931.339 807.513 934.565 811.371 937.091 815.946C939.651 820.486 941.324 825.675 942.109 831.512ZM992.996 902.536C985.315 902.536 978.658 900.846 973.025 897.467C967.393 894.087 963.023 889.359 959.916 883.282C956.844 877.206 955.308 870.105 955.308 861.98C955.308 853.856 956.844 846.738 959.916 840.627C963.023 834.517 967.393 829.771 973.025 826.392C978.658 823.012 985.315 821.322 992.996 821.322C1000.68 821.322 1007.33 823.012 1012.97 826.392C1018.6 829.771 1022.95 834.517 1026.02 840.627C1029.13 846.738 1030.68 853.856 1030.68 861.98C1030.68 870.105 1029.13 877.206 1026.02 883.282C1022.95 889.359 1018.6 894.087 1012.97 897.467C1007.33 900.846 1000.68 902.536 992.996 902.536ZM993.098 887.686C997.263 887.686 1000.75 886.543 1003.54 884.255C1006.34 881.934 1008.43 878.827 1009.79 874.936C1011.19 871.044 1011.89 866.709 1011.89 861.929C1011.89 857.116 1011.19 852.763 1009.79 848.871C1008.43 844.946 1006.34 841.822 1003.54 839.501C1000.75 837.179 997.263 836.019 993.098 836.019C988.831 836.019 985.281 837.179 982.447 839.501C979.648 841.822 977.549 844.946 976.149 848.871C974.783 852.763 974.101 857.116 974.101 861.929C974.101 866.709 974.783 871.044 976.149 874.936C977.549 878.827 979.648 881.934 982.447 884.255C985.281 886.543 988.831 887.686 993.098 887.686ZM1064.95 796.129V901H1046.42V796.129H1064.95ZM1102.55 796.129V901H1084.02V796.129H1102.55ZM1121.61 901V822.346H1140.15V901H1121.61ZM1130.93 811.183C1128 811.183 1125.47 810.21 1123.36 808.265C1121.24 806.285 1120.18 803.912 1120.18 801.147C1120.18 798.347 1121.24 795.975 1123.36 794.029C1125.47 792.049 1128 791.059 1130.93 791.059C1133.9 791.059 1136.43 792.049 1138.51 794.029C1140.63 795.975 1141.69 798.347 1141.69 801.147C1141.69 803.912 1140.63 806.285 1138.51 808.265C1136.43 810.21 1133.9 811.183 1130.93 811.183ZM1194.03 902.536C1186.15 902.536 1179.34 900.898 1173.6 897.62C1167.9 894.309 1163.51 889.632 1160.44 883.59C1157.37 877.513 1155.83 870.361 1155.83 862.134C1155.83 854.043 1157.37 846.943 1160.44 840.832C1163.55 834.687 1167.88 829.908 1173.45 826.494C1179.01 823.046 1185.55 821.322 1193.06 821.322C1197.91 821.322 1202.48 822.107 1206.78 823.678C1211.12 825.214 1214.94 827.604 1218.25 830.847C1221.6 834.09 1224.23 838.22 1226.14 843.239C1228.05 848.223 1229.01 854.163 1229.01 861.059V866.743H1164.54V854.248H1211.24C1211.21 850.698 1210.44 847.54 1208.93 844.775C1207.43 841.976 1205.33 839.774 1202.64 838.169C1199.97 836.565 1196.87 835.763 1193.32 835.763C1189.53 835.763 1186.2 836.684 1183.33 838.528C1180.46 840.337 1178.23 842.727 1176.62 845.697C1175.05 848.633 1174.25 851.859 1174.22 855.375V866.282C1174.22 870.856 1175.05 874.782 1176.73 878.059C1178.4 881.302 1180.74 883.795 1183.74 885.536C1186.75 887.242 1190.26 888.096 1194.29 888.096C1196.99 888.096 1199.43 887.72 1201.61 886.969C1203.8 886.184 1205.69 885.041 1207.3 883.538C1208.9 882.036 1210.11 880.176 1210.93 877.957L1228.24 879.903C1227.15 884.477 1225.07 888.471 1221.99 891.885C1218.95 895.265 1215.06 897.893 1210.32 899.771C1205.57 901.614 1200.14 902.536 1194.03 902.536ZM1244.69 901V822.346H1262.66V835.455H1263.48C1264.92 830.915 1267.37 827.416 1270.86 824.958C1274.37 822.466 1278.38 821.22 1282.89 821.22C1283.91 821.22 1285.06 821.271 1286.32 821.373C1287.62 821.442 1288.69 821.561 1289.55 821.732V838.784C1288.76 838.511 1287.52 838.272 1285.81 838.067C1284.14 837.828 1282.51 837.708 1280.94 837.708C1277.56 837.708 1274.53 838.442 1271.83 839.91C1269.17 841.344 1267.07 843.341 1265.53 845.902C1264 848.462 1263.23 851.415 1263.23 854.76V901H1244.69Z" fill="#886E34"/>
<path d="M868.378 1079.33C865.692 1079.33 863.238 1078.68 861.018 1077.37C858.797 1076.04 857.021 1074.26 855.689 1072.04C854.379 1069.82 853.724 1067.37 853.724 1064.68C853.724 1061.97 854.379 1059.52 855.689 1057.32C857.021 1055.1 858.797 1053.33 861.018 1052.02C863.238 1050.69 865.692 1050.03 868.378 1050.03C871.087 1050.03 873.541 1050.69 875.739 1052.02C877.959 1053.33 879.725 1055.1 881.035 1057.32C882.367 1059.52 883.033 1061.97 883.033 1064.68C883.033 1067.37 882.367 1069.82 881.035 1072.04C879.725 1074.26 877.959 1076.04 875.739 1077.37C873.541 1078.68 871.087 1079.33 868.378 1079.33ZM1009.86 1030.57V1098.79H1001.87L964.7 1045.23H964.034V1098.79H955.774V1030.57H963.767L1001.07 1084.26H1001.74V1030.57H1009.86ZM1040.38 1099.98C1037.14 1099.98 1034.2 1099.37 1031.55 1098.15C1028.91 1096.91 1026.81 1095.12 1025.26 1092.79C1023.7 1090.44 1022.93 1087.59 1022.93 1084.26C1022.93 1081.33 1023.5 1078.96 1024.66 1077.14C1025.81 1075.29 1027.36 1073.85 1029.29 1072.81C1031.22 1071.76 1033.35 1070.99 1035.68 1070.47C1038.04 1069.94 1040.4 1069.52 1042.78 1069.21C1045.89 1068.81 1048.41 1068.51 1050.34 1068.31C1052.29 1068.09 1053.71 1067.72 1054.6 1067.21C1055.51 1066.7 1055.97 1065.81 1055.97 1064.55V1064.28C1055.97 1060.99 1055.07 1058.44 1053.27 1056.62C1051.49 1054.8 1048.79 1053.89 1045.18 1053.89C1041.42 1053.89 1038.48 1054.71 1036.35 1056.35C1034.22 1058 1032.72 1059.75 1031.85 1061.62L1024.39 1058.95C1025.72 1055.84 1027.5 1053.42 1029.72 1051.69C1031.96 1049.94 1034.41 1048.71 1037.05 1048.03C1039.71 1047.32 1042.33 1046.96 1044.91 1046.96C1046.55 1046.96 1048.44 1047.16 1050.57 1047.56C1052.72 1047.94 1054.8 1048.73 1056.8 1049.93C1058.82 1051.12 1060.5 1052.93 1061.83 1055.35C1063.16 1057.77 1063.83 1061.02 1063.83 1065.08V1098.79H1055.97V1091.86H1055.57C1055.03 1092.97 1054.15 1094.16 1052.9 1095.42C1051.66 1096.69 1050 1097.76 1047.94 1098.65C1045.88 1099.54 1043.35 1099.98 1040.38 1099.98ZM1041.58 1092.92C1044.69 1092.92 1047.31 1092.31 1049.44 1091.09C1051.59 1089.87 1053.21 1088.29 1054.3 1086.36C1055.41 1084.43 1055.97 1082.4 1055.97 1080.27V1073.07C1055.63 1073.47 1054.9 1073.84 1053.77 1074.17C1052.66 1074.48 1051.37 1074.76 1049.91 1075C1048.46 1075.23 1047.05 1075.43 1045.68 1075.6C1044.32 1075.76 1043.22 1075.89 1042.38 1076C1040.34 1076.27 1038.43 1076.7 1036.65 1077.3C1034.9 1077.88 1033.47 1078.76 1032.39 1079.93C1031.32 1081.09 1030.79 1082.66 1030.79 1084.66C1030.79 1087.39 1031.8 1089.46 1033.82 1090.86C1035.86 1092.23 1038.45 1092.92 1041.58 1092.92ZM1078.17 1117.97V1047.63H1085.77V1055.75H1086.7C1087.28 1054.87 1088.08 1053.73 1089.1 1052.36C1090.14 1050.96 1091.63 1049.71 1093.56 1048.63C1095.51 1047.52 1098.16 1046.96 1101.49 1046.96C1105.8 1046.96 1109.59 1048.04 1112.88 1050.19C1116.16 1052.35 1118.73 1055.4 1120.57 1059.35C1122.42 1063.3 1123.34 1067.97 1123.34 1073.34C1123.34 1078.76 1122.42 1083.45 1120.57 1087.43C1118.73 1091.38 1116.18 1094.44 1112.91 1096.62C1109.65 1098.77 1105.88 1099.85 1101.62 1099.85C1098.33 1099.85 1095.7 1099.31 1093.73 1098.22C1091.75 1097.11 1090.23 1095.85 1089.16 1094.46C1088.1 1093.03 1087.28 1091.86 1086.7 1090.92H1086.03V1117.97H1078.17ZM1085.9 1073.21C1085.9 1077.07 1086.47 1080.48 1087.6 1083.43C1088.73 1086.36 1090.39 1088.66 1092.56 1090.33C1094.74 1091.97 1097.4 1092.79 1100.56 1092.79C1103.84 1092.79 1106.58 1091.92 1108.78 1090.19C1111 1088.44 1112.67 1086.08 1113.78 1083.13C1114.91 1080.16 1115.48 1076.85 1115.48 1073.21C1115.48 1069.61 1114.92 1066.37 1113.81 1063.48C1112.72 1060.57 1111.07 1058.27 1108.85 1056.59C1106.65 1054.88 1103.89 1054.02 1100.56 1054.02C1097.36 1054.02 1094.67 1054.83 1092.5 1056.45C1090.32 1058.05 1088.68 1060.29 1087.57 1063.18C1086.46 1066.05 1085.9 1069.39 1085.9 1073.21ZM1143.19 1030.57V1098.79H1135.33V1030.57H1143.19ZM1179.03 1099.85C1174.1 1099.85 1169.85 1098.76 1166.28 1096.59C1162.72 1094.39 1159.98 1091.32 1158.05 1087.39C1156.14 1083.44 1155.19 1078.85 1155.19 1073.61C1155.19 1068.37 1156.14 1063.75 1158.05 1059.75C1159.98 1055.73 1162.67 1052.6 1166.11 1050.36C1169.57 1048.09 1173.62 1046.96 1178.23 1046.96C1180.9 1046.96 1183.53 1047.4 1186.13 1048.29C1188.72 1049.18 1191.09 1050.62 1193.22 1052.62C1195.35 1054.6 1197.05 1057.22 1198.32 1060.48C1199.58 1063.75 1200.22 1067.77 1200.22 1072.54V1075.87H1160.78V1069.08H1192.22C1192.22 1066.19 1191.64 1063.61 1190.49 1061.35C1189.36 1059.08 1187.74 1057.3 1185.63 1055.99C1183.54 1054.68 1181.08 1054.02 1178.23 1054.02C1175.1 1054.02 1172.39 1054.8 1170.11 1056.35C1167.84 1057.89 1166.1 1059.88 1164.88 1062.35C1163.66 1064.81 1163.05 1067.46 1163.05 1070.28V1074.8C1163.05 1078.67 1163.71 1081.94 1165.04 1084.63C1166.4 1087.29 1168.27 1089.33 1170.67 1090.73C1173.07 1092.1 1175.86 1092.79 1179.03 1092.79C1181.1 1092.79 1182.96 1092.5 1184.63 1091.92C1186.32 1091.32 1187.77 1090.44 1188.99 1089.26C1190.21 1088.06 1191.16 1086.57 1191.82 1084.8L1199.42 1086.93C1198.62 1089.5 1197.27 1091.77 1195.39 1093.72C1193.5 1095.65 1191.17 1097.16 1188.39 1098.25C1185.62 1099.32 1182.5 1099.85 1179.03 1099.85ZM1248.41 1059.08L1241.35 1061.08C1240.9 1059.91 1240.25 1058.76 1239.38 1057.65C1238.54 1056.52 1237.39 1055.59 1235.92 1054.85C1234.45 1054.12 1232.58 1053.76 1230.29 1053.76C1227.16 1053.76 1224.55 1054.48 1222.46 1055.92C1220.4 1057.34 1219.37 1059.15 1219.37 1061.35C1219.37 1063.3 1220.08 1064.85 1221.5 1065.98C1222.92 1067.11 1225.14 1068.05 1228.16 1068.81L1235.75 1070.67C1240.33 1071.79 1243.74 1073.48 1245.98 1075.77C1248.22 1078.04 1249.34 1080.96 1249.34 1084.53C1249.34 1087.46 1248.5 1090.08 1246.81 1092.39C1245.15 1094.7 1242.81 1096.52 1239.82 1097.85C1236.82 1099.18 1233.33 1099.85 1229.36 1099.85C1224.14 1099.85 1219.82 1098.72 1216.4 1096.45C1212.98 1094.19 1210.82 1090.88 1209.91 1086.53L1217.37 1084.66C1218.08 1087.42 1219.42 1089.48 1221.4 1090.86C1223.4 1092.23 1226.01 1092.92 1229.23 1092.92C1232.89 1092.92 1235.8 1092.15 1237.95 1090.59C1240.13 1089.02 1241.22 1087.13 1241.22 1084.93C1241.22 1083.15 1240.59 1081.67 1239.35 1080.47C1238.11 1079.25 1236.2 1078.34 1233.62 1077.74L1225.1 1075.74C1220.41 1074.63 1216.97 1072.91 1214.77 1070.57C1212.59 1068.22 1211.51 1065.28 1211.51 1061.75C1211.51 1058.86 1212.32 1056.31 1213.94 1054.09C1215.58 1051.87 1217.81 1050.12 1220.63 1048.86C1223.47 1047.59 1226.69 1046.96 1230.29 1046.96C1235.35 1046.96 1239.33 1048.07 1242.21 1050.29C1245.12 1052.51 1247.19 1055.44 1248.41 1059.08ZM868.378 1193.33C865.692 1193.33 863.238 1192.68 861.018 1191.37C858.797 1190.04 857.021 1188.26 855.689 1186.04C854.379 1183.82 853.724 1181.37 853.724 1178.68C853.724 1175.97 854.379 1173.52 855.689 1171.32C857.021 1169.1 858.797 1167.33 861.018 1166.02C863.238 1164.69 865.692 1164.03 868.378 1164.03C871.087 1164.03 873.541 1164.69 875.739 1166.02C877.959 1167.33 879.725 1169.1 881.035 1171.32C882.367 1173.52 883.033 1175.97 883.033 1178.68C883.033 1181.37 882.367 1183.82 881.035 1186.04C879.725 1188.26 877.959 1190.04 875.739 1191.37C873.541 1192.68 871.087 1193.33 868.378 1193.33ZM1009.86 1144.57V1212.79H1001.87L964.7 1159.23H964.034V1212.79H955.774V1144.57H963.767L1001.07 1198.26H1001.74V1144.57H1009.86ZM1046.11 1213.85C1041.49 1213.85 1037.44 1212.75 1033.95 1210.55C1030.49 1208.36 1027.78 1205.28 1025.82 1201.33C1023.89 1197.38 1022.93 1192.76 1022.93 1187.47C1022.93 1182.14 1023.89 1177.49 1025.82 1173.52C1027.78 1169.54 1030.49 1166.46 1033.95 1164.26C1037.44 1162.06 1041.49 1160.96 1046.11 1160.96C1050.73 1160.96 1054.77 1162.06 1058.23 1164.26C1061.72 1166.46 1064.43 1169.54 1066.36 1173.52C1068.31 1177.49 1069.29 1182.14 1069.29 1187.47C1069.29 1192.76 1068.31 1197.38 1066.36 1201.33C1064.43 1205.28 1061.72 1208.36 1058.23 1210.55C1054.77 1212.75 1050.73 1213.85 1046.11 1213.85ZM1046.11 1206.79C1049.62 1206.79 1052.5 1205.89 1054.77 1204.09C1057.03 1202.29 1058.71 1199.93 1059.8 1197C1060.88 1194.07 1061.43 1190.89 1061.43 1187.47C1061.43 1184.05 1060.88 1180.87 1059.8 1177.91C1058.71 1174.96 1057.03 1172.57 1054.77 1170.75C1052.5 1168.93 1049.62 1168.02 1046.11 1168.02C1042.6 1168.02 1039.71 1168.93 1037.45 1170.75C1035.18 1172.57 1033.51 1174.96 1032.42 1177.91C1031.33 1180.87 1030.79 1184.05 1030.79 1187.47C1030.79 1190.89 1031.33 1194.07 1032.42 1197C1033.51 1199.93 1035.18 1202.29 1037.45 1204.09C1039.71 1205.89 1042.6 1206.79 1046.11 1206.79ZM1081.29 1212.79V1161.63H1088.88V1169.35H1089.41C1090.35 1166.82 1092.03 1164.77 1094.48 1163.19C1096.92 1161.62 1099.67 1160.83 1102.74 1160.83C1103.31 1160.83 1104.04 1160.84 1104.9 1160.86C1105.77 1160.88 1106.42 1160.92 1106.87 1160.96V1168.95C1106.6 1168.89 1105.99 1168.79 1105.03 1168.65C1104.1 1168.5 1103.11 1168.42 1102.07 1168.42C1099.58 1168.42 1097.36 1168.94 1095.41 1169.99C1093.48 1171.01 1091.95 1172.43 1090.81 1174.25C1089.7 1176.05 1089.15 1178.1 1089.15 1180.41V1212.79H1081.29ZM1141.64 1161.63V1168.29H1115.13V1161.63H1141.64ZM1122.85 1149.37H1130.71V1198.13C1130.71 1200.35 1131.04 1202.02 1131.68 1203.13C1132.35 1204.21 1133.19 1204.95 1134.21 1205.32C1135.25 1205.68 1136.35 1205.86 1137.51 1205.86C1138.37 1205.86 1139.08 1205.81 1139.64 1205.72C1140.2 1205.61 1140.64 1205.52 1140.97 1205.46L1142.57 1212.52C1142.04 1212.72 1141.29 1212.92 1140.34 1213.12C1139.38 1213.34 1138.17 1213.45 1136.71 1213.45C1134.49 1213.45 1132.31 1212.97 1130.18 1212.02C1128.07 1211.06 1126.32 1209.61 1124.92 1207.66C1123.54 1205.7 1122.85 1203.24 1122.85 1200.26V1149.37ZM1162.42 1182.01V1212.79H1154.56V1144.57H1162.42V1169.62H1163.09C1164.29 1166.98 1166.09 1164.88 1168.48 1163.33C1170.9 1161.75 1174.12 1160.96 1178.14 1160.96C1181.63 1160.96 1184.68 1161.66 1187.3 1163.06C1189.92 1164.44 1191.95 1166.56 1193.4 1169.42C1194.86 1172.26 1195.59 1175.88 1195.59 1180.28V1212.79H1187.73V1180.81C1187.73 1176.75 1186.68 1173.61 1184.57 1171.39C1182.48 1169.14 1179.59 1168.02 1175.88 1168.02C1173.3 1168.02 1170.99 1168.57 1168.95 1169.65C1166.93 1170.74 1165.33 1172.33 1164.15 1174.42C1163 1176.5 1162.42 1179.03 1162.42 1182.01ZM1291.51 1144.57V1212.79H1283.51L1246.34 1159.23H1245.68V1212.79H1237.42V1144.57H1245.41L1282.71 1198.26H1283.38V1144.57H1291.51ZM1322.02 1213.98C1318.78 1213.98 1315.84 1213.37 1313.2 1212.15C1310.56 1210.91 1308.46 1209.12 1306.9 1206.79C1305.35 1204.44 1304.57 1201.59 1304.57 1198.26C1304.57 1195.33 1305.15 1192.96 1306.3 1191.14C1307.46 1189.29 1309 1187.85 1310.93 1186.81C1312.87 1185.76 1315 1184.99 1317.33 1184.47C1319.68 1183.94 1322.05 1183.52 1324.42 1183.21C1327.53 1182.81 1330.05 1182.51 1331.98 1182.31C1333.94 1182.09 1335.36 1181.72 1336.25 1181.21C1337.16 1180.7 1337.61 1179.81 1337.61 1178.55V1178.28C1337.61 1174.99 1336.71 1172.44 1334.91 1170.62C1333.14 1168.8 1330.44 1167.89 1326.82 1167.89C1323.07 1167.89 1320.13 1168.71 1317.99 1170.35C1315.86 1172 1314.36 1173.75 1313.5 1175.62L1306.04 1172.95C1307.37 1169.84 1309.15 1167.42 1311.37 1165.69C1313.61 1163.94 1316.05 1162.71 1318.69 1162.03C1321.36 1161.32 1323.98 1160.96 1326.55 1160.96C1328.2 1160.96 1330.08 1161.16 1332.22 1161.56C1334.37 1161.94 1336.45 1162.73 1338.44 1163.93C1340.46 1165.12 1342.14 1166.93 1343.47 1169.35C1344.81 1171.77 1345.47 1175.02 1345.47 1179.08V1212.79H1337.61V1205.86H1337.21C1336.68 1206.97 1335.79 1208.16 1334.55 1209.42C1333.3 1210.69 1331.65 1211.76 1329.58 1212.65C1327.52 1213.54 1325 1213.98 1322.02 1213.98ZM1323.22 1206.92C1326.33 1206.92 1328.95 1206.31 1331.08 1205.09C1333.24 1203.87 1334.86 1202.29 1335.95 1200.36C1337.06 1198.43 1337.61 1196.4 1337.61 1194.27V1187.07C1337.28 1187.47 1336.55 1187.84 1335.41 1188.17C1334.3 1188.48 1333.02 1188.76 1331.55 1189C1330.11 1189.23 1328.7 1189.43 1327.32 1189.6C1325.97 1189.76 1324.87 1189.89 1324.02 1190C1321.98 1190.27 1320.07 1190.7 1318.29 1191.3C1316.54 1191.88 1315.12 1192.76 1314.03 1193.93C1312.97 1195.09 1312.43 1196.66 1312.43 1198.66C1312.43 1201.39 1313.44 1203.46 1315.46 1204.86C1317.51 1206.23 1320.09 1206.92 1323.22 1206.92ZM1359.82 1231.97V1161.63H1367.41V1169.75H1368.34C1368.92 1168.87 1369.72 1167.73 1370.74 1166.36C1371.79 1164.96 1373.27 1163.71 1375.21 1162.63C1377.16 1161.52 1379.8 1160.96 1383.13 1160.96C1387.44 1160.96 1391.24 1162.04 1394.52 1164.19C1397.81 1166.35 1400.37 1169.4 1402.22 1173.35C1404.06 1177.3 1404.98 1181.97 1404.98 1187.34C1404.98 1192.76 1404.06 1197.45 1402.22 1201.43C1400.37 1205.38 1397.82 1208.44 1394.56 1210.62C1391.29 1212.77 1387.53 1213.85 1383.27 1213.85C1379.98 1213.85 1377.35 1213.31 1375.37 1212.22C1373.4 1211.11 1371.88 1209.85 1370.81 1208.46C1369.74 1207.03 1368.92 1205.86 1368.34 1204.92H1367.68V1231.97H1359.82ZM1367.55 1187.21C1367.55 1191.07 1368.11 1194.48 1369.24 1197.43C1370.38 1200.36 1372.03 1202.66 1374.21 1204.33C1376.38 1205.97 1379.05 1206.79 1382.2 1206.79C1385.49 1206.79 1388.23 1205.92 1390.43 1204.19C1392.65 1202.44 1394.31 1200.08 1395.42 1197.13C1396.56 1194.16 1397.12 1190.85 1397.12 1187.21C1397.12 1183.61 1396.57 1180.37 1395.46 1177.48C1394.37 1174.57 1392.71 1172.27 1390.49 1170.59C1388.3 1168.88 1385.53 1168.02 1382.2 1168.02C1379 1168.02 1376.32 1168.83 1374.14 1170.45C1371.96 1172.05 1370.32 1174.29 1369.21 1177.18C1368.1 1180.05 1367.55 1183.39 1367.55 1187.21ZM1424.83 1144.57V1212.79H1416.97V1144.57H1424.83ZM1460.68 1213.85C1455.75 1213.85 1451.5 1212.76 1447.92 1210.59C1444.37 1208.39 1441.63 1205.32 1439.69 1201.39C1437.79 1197.44 1436.83 1192.85 1436.83 1187.61C1436.83 1182.37 1437.79 1177.75 1439.69 1173.75C1441.63 1169.73 1444.31 1166.6 1447.75 1164.36C1451.22 1162.09 1455.26 1160.96 1459.88 1160.96C1462.54 1160.96 1465.17 1161.4 1467.77 1162.29C1470.37 1163.18 1472.73 1164.62 1474.87 1166.62C1477 1168.6 1478.7 1171.22 1479.96 1174.48C1481.23 1177.75 1481.86 1181.77 1481.86 1186.54V1189.87H1442.43V1183.08H1473.87C1473.87 1180.19 1473.29 1177.61 1472.13 1175.35C1471 1173.08 1469.38 1171.3 1467.27 1169.99C1465.19 1168.68 1462.72 1168.02 1459.88 1168.02C1456.75 1168.02 1454.04 1168.8 1451.75 1170.35C1449.49 1171.89 1447.74 1173.88 1446.52 1176.35C1445.3 1178.81 1444.69 1181.46 1444.69 1184.28V1188.8C1444.69 1192.67 1445.36 1195.94 1446.69 1198.63C1448.04 1201.29 1449.92 1203.33 1452.32 1204.73C1454.72 1206.1 1457.5 1206.79 1460.68 1206.79C1462.74 1206.79 1464.61 1206.5 1466.27 1205.92C1467.96 1205.32 1469.41 1204.44 1470.64 1203.26C1471.86 1202.06 1472.8 1200.57 1473.47 1198.8L1481.06 1200.93C1480.26 1203.5 1478.92 1205.77 1477.03 1207.72C1475.14 1209.65 1472.81 1211.16 1470.04 1212.25C1467.26 1213.32 1464.14 1213.85 1460.68 1213.85ZM1530.05 1173.08L1522.99 1175.08C1522.55 1173.91 1521.89 1172.76 1521.03 1171.65C1520.18 1170.52 1519.03 1169.59 1517.56 1168.85C1516.1 1168.12 1514.22 1167.76 1511.94 1167.76C1508.8 1167.76 1506.2 1168.48 1504.11 1169.92C1502.04 1171.34 1501.01 1173.15 1501.01 1175.35C1501.01 1177.3 1501.72 1178.85 1503.14 1179.98C1504.56 1181.11 1506.78 1182.05 1509.8 1182.81L1517.4 1184.67C1521.97 1185.79 1525.38 1187.48 1527.62 1189.77C1529.87 1192.04 1530.99 1194.96 1530.99 1198.53C1530.99 1201.46 1530.14 1204.08 1528.46 1206.39C1526.79 1208.7 1524.46 1210.52 1521.46 1211.85C1518.46 1213.18 1514.98 1213.85 1511 1213.85C1505.79 1213.85 1501.47 1212.72 1498.05 1210.45C1494.63 1208.19 1492.46 1204.88 1491.55 1200.53L1499.01 1198.66C1499.72 1201.42 1501.07 1203.48 1503.04 1204.86C1505.04 1206.23 1507.65 1206.92 1510.87 1206.92C1514.53 1206.92 1517.44 1206.15 1519.6 1204.59C1521.77 1203.02 1522.86 1201.13 1522.86 1198.93C1522.86 1197.15 1522.24 1195.67 1520.99 1194.47C1519.75 1193.25 1517.84 1192.34 1515.27 1191.74L1506.74 1189.74C1502.05 1188.63 1498.61 1186.91 1496.42 1184.57C1494.24 1182.22 1493.15 1179.28 1493.15 1175.75C1493.15 1172.86 1493.96 1170.31 1495.58 1168.09C1497.23 1165.87 1499.46 1164.12 1502.28 1162.86C1505.12 1161.59 1508.34 1160.96 1511.94 1160.96C1517 1160.96 1520.97 1162.07 1523.86 1164.29C1526.77 1166.51 1528.83 1169.44 1530.05 1173.08ZM868.378 1307.33C865.692 1307.33 863.238 1306.68 861.018 1305.37C858.797 1304.04 857.021 1302.26 855.689 1300.04C854.379 1297.82 853.724 1295.37 853.724 1292.68C853.724 1289.97 854.379 1287.52 855.689 1285.32C857.021 1283.1 858.797 1281.33 861.018 1280.02C863.238 1278.69 865.692 1278.03 868.378 1278.03C871.087 1278.03 873.541 1278.69 875.739 1280.02C877.959 1281.33 879.725 1283.1 881.035 1285.32C882.367 1287.52 883.033 1289.97 883.033 1292.68C883.033 1295.37 882.367 1297.82 881.035 1300.04C879.725 1302.26 877.959 1304.04 875.739 1305.37C873.541 1306.68 871.087 1307.33 868.378 1307.33ZM955.774 1258.57H965.632L988.813 1315.19H989.613L1012.79 1258.57H1022.65V1326.79H1014.93V1274.96H1014.26L992.943 1326.79H985.483L964.167 1274.96H963.501V1326.79H955.774V1258.57ZM1053.2 1327.98C1049.96 1327.98 1047.02 1327.37 1044.38 1326.15C1041.73 1324.91 1039.64 1323.12 1038.08 1320.79C1036.53 1318.44 1035.75 1315.59 1035.75 1312.26C1035.75 1309.33 1036.33 1306.96 1037.48 1305.14C1038.64 1303.29 1040.18 1301.85 1042.11 1300.81C1044.04 1299.76 1046.17 1298.99 1048.51 1298.47C1050.86 1297.94 1053.22 1297.52 1055.6 1297.21C1058.71 1296.81 1061.23 1296.51 1063.16 1296.31C1065.11 1296.09 1066.54 1295.72 1067.42 1295.21C1068.33 1294.7 1068.79 1293.81 1068.79 1292.55V1292.28C1068.79 1288.99 1067.89 1286.44 1066.09 1284.62C1064.32 1282.8 1061.62 1281.89 1058 1281.89C1054.25 1281.89 1051.3 1282.71 1049.17 1284.35C1047.04 1286 1045.54 1287.75 1044.68 1289.62L1037.22 1286.95C1038.55 1283.84 1040.32 1281.42 1042.54 1279.69C1044.79 1277.94 1047.23 1276.71 1049.87 1276.03C1052.54 1275.32 1055.16 1274.96 1057.73 1274.96C1059.38 1274.96 1061.26 1275.16 1063.39 1275.56C1065.55 1275.94 1067.62 1276.73 1069.62 1277.93C1071.64 1279.12 1073.32 1280.93 1074.65 1283.35C1075.98 1285.77 1076.65 1289.02 1076.65 1293.08V1326.79H1068.79V1319.86H1068.39C1067.86 1320.97 1066.97 1322.16 1065.73 1323.42C1064.48 1324.69 1062.83 1325.76 1060.76 1326.65C1058.7 1327.54 1056.18 1327.98 1053.2 1327.98ZM1054.4 1320.92C1057.51 1320.92 1060.13 1320.31 1062.26 1319.09C1064.42 1317.87 1066.04 1316.29 1067.12 1314.36C1068.23 1312.43 1068.79 1310.4 1068.79 1308.27V1301.07C1068.46 1301.47 1067.72 1301.84 1066.59 1302.17C1065.48 1302.48 1064.19 1302.76 1062.73 1303C1061.28 1303.23 1059.87 1303.43 1058.5 1303.6C1057.14 1303.76 1056.04 1303.89 1055.2 1304C1053.16 1304.27 1051.25 1304.7 1049.47 1305.3C1047.72 1305.88 1046.3 1306.76 1045.21 1307.93C1044.14 1309.09 1043.61 1310.66 1043.61 1312.66C1043.61 1315.39 1044.62 1317.46 1046.64 1318.86C1048.68 1320.23 1051.27 1320.92 1054.4 1320.92ZM1091 1326.79V1275.63H1098.59V1283.35H1099.12C1100.06 1280.82 1101.74 1278.77 1104.19 1277.19C1106.63 1275.62 1109.38 1274.83 1112.45 1274.83C1113.02 1274.83 1113.74 1274.84 1114.61 1274.86C1115.48 1274.88 1116.13 1274.92 1116.58 1274.96V1282.95C1116.31 1282.89 1115.7 1282.79 1114.74 1282.65C1113.81 1282.5 1112.82 1282.42 1111.78 1282.42C1109.29 1282.42 1107.07 1282.94 1105.12 1283.99C1103.19 1285.01 1101.65 1286.43 1100.52 1288.25C1099.41 1290.05 1098.86 1292.1 1098.86 1294.41V1326.79H1091ZM1145.12 1327.85C1140.32 1327.85 1136.19 1326.72 1132.73 1324.45C1129.27 1322.19 1126.6 1319.07 1124.74 1315.09C1122.87 1311.12 1121.94 1306.58 1121.94 1301.47C1121.94 1296.28 1122.89 1291.69 1124.8 1287.72C1126.73 1283.72 1129.42 1280.6 1132.86 1278.36C1136.33 1276.09 1140.37 1274.96 1144.99 1274.96C1148.58 1274.96 1151.82 1275.63 1154.71 1276.96C1157.6 1278.29 1159.96 1280.16 1161.81 1282.55C1163.65 1284.95 1164.79 1287.75 1165.24 1290.95H1157.38C1156.78 1288.62 1155.44 1286.55 1153.38 1284.75C1151.34 1282.93 1148.58 1282.02 1145.12 1282.02C1142.05 1282.02 1139.37 1282.82 1137.06 1284.42C1134.77 1286 1132.98 1288.23 1131.7 1291.11C1130.43 1293.98 1129.8 1297.34 1129.8 1301.21C1129.8 1305.16 1130.42 1308.6 1131.66 1311.53C1132.93 1314.46 1134.71 1316.74 1136.99 1318.36C1139.3 1319.98 1142.01 1320.79 1145.12 1320.79C1147.16 1320.79 1149.02 1320.43 1150.68 1319.72C1152.35 1319.01 1153.76 1317.99 1154.91 1316.66C1156.07 1315.33 1156.89 1313.73 1157.38 1311.86H1165.24C1164.79 1314.88 1163.69 1317.6 1161.94 1320.02C1160.21 1322.42 1157.91 1324.33 1155.04 1325.75C1152.2 1327.15 1148.89 1327.85 1145.12 1327.85ZM1197.51 1327.85C1192.89 1327.85 1188.84 1326.75 1185.35 1324.55C1181.89 1322.36 1179.18 1319.28 1177.23 1315.33C1175.29 1311.38 1174.33 1306.76 1174.33 1301.47C1174.33 1296.14 1175.29 1291.49 1177.23 1287.52C1179.18 1283.54 1181.89 1280.46 1185.35 1278.26C1188.84 1276.06 1192.89 1274.96 1197.51 1274.96C1202.13 1274.96 1206.17 1276.06 1209.63 1278.26C1213.12 1280.46 1215.83 1283.54 1217.76 1287.52C1219.71 1291.49 1220.69 1296.14 1220.69 1301.47C1220.69 1306.76 1219.71 1311.38 1217.76 1315.33C1215.83 1319.28 1213.12 1322.36 1209.63 1324.55C1206.17 1326.75 1202.13 1327.85 1197.51 1327.85ZM1197.51 1320.79C1201.02 1320.79 1203.9 1319.89 1206.17 1318.09C1208.43 1316.29 1210.11 1313.93 1211.2 1311C1212.29 1308.07 1212.83 1304.89 1212.83 1301.47C1212.83 1298.05 1212.29 1294.87 1211.2 1291.91C1210.11 1288.96 1208.43 1286.57 1206.17 1284.75C1203.9 1282.93 1201.02 1282.02 1197.51 1282.02C1194 1282.02 1191.11 1282.93 1188.85 1284.75C1186.58 1286.57 1184.91 1288.96 1183.82 1291.91C1182.73 1294.87 1182.19 1298.05 1182.19 1301.47C1182.19 1304.89 1182.73 1308.07 1183.82 1311C1184.91 1313.93 1186.58 1316.29 1188.85 1318.09C1191.11 1319.89 1194 1320.79 1197.51 1320.79ZM1268.39 1258.57V1326.79H1260.13V1258.57H1268.39ZM1320.13 1287.08L1313.06 1289.08C1312.62 1287.91 1311.97 1286.76 1311.1 1285.65C1310.26 1284.52 1309.1 1283.59 1307.64 1282.85C1306.17 1282.12 1304.29 1281.76 1302.01 1281.76C1298.88 1281.76 1296.27 1282.48 1294.18 1283.92C1292.12 1285.34 1291.08 1287.15 1291.08 1289.35C1291.08 1291.3 1291.79 1292.85 1293.21 1293.98C1294.64 1295.11 1296.86 1296.05 1299.88 1296.81L1307.47 1298.67C1312.04 1299.79 1315.45 1301.48 1317.69 1303.77C1319.94 1306.04 1321.06 1308.96 1321.06 1312.53C1321.06 1315.46 1320.21 1318.08 1318.53 1320.39C1316.86 1322.7 1314.53 1324.52 1311.53 1325.85C1308.54 1327.18 1305.05 1327.85 1301.07 1327.85C1295.86 1327.85 1291.54 1326.72 1288.12 1324.45C1284.7 1322.19 1282.53 1318.88 1281.62 1314.53L1289.08 1312.66C1289.8 1315.42 1291.14 1317.48 1293.11 1318.86C1295.11 1320.23 1297.72 1320.92 1300.94 1320.92C1304.61 1320.92 1307.51 1320.15 1309.67 1318.59C1311.84 1317.02 1312.93 1315.13 1312.93 1312.93C1312.93 1311.15 1312.31 1309.67 1311.07 1308.47C1309.82 1307.25 1307.91 1306.34 1305.34 1305.74L1296.81 1303.74C1292.13 1302.63 1288.68 1300.91 1286.49 1298.57C1284.31 1296.22 1283.22 1293.28 1283.22 1289.75C1283.22 1286.86 1284.03 1284.31 1285.65 1282.09C1287.3 1279.87 1289.53 1278.12 1292.35 1276.86C1295.19 1275.59 1298.41 1274.96 1302.01 1274.96C1307.07 1274.96 1311.04 1276.07 1313.93 1278.29C1316.84 1280.51 1318.9 1283.44 1320.13 1287.08ZM1340.75 1258.57V1326.79H1332.89V1258.57H1340.75ZM1370.2 1327.98C1366.96 1327.98 1364.02 1327.37 1361.38 1326.15C1358.73 1324.91 1356.63 1323.12 1355.08 1320.79C1353.53 1318.44 1352.75 1315.59 1352.75 1312.26C1352.75 1309.33 1353.33 1306.96 1354.48 1305.14C1355.64 1303.29 1357.18 1301.85 1359.11 1300.81C1361.04 1299.76 1363.17 1298.99 1365.51 1298.47C1367.86 1297.94 1370.22 1297.52 1372.6 1297.21C1375.71 1296.81 1378.23 1296.51 1380.16 1296.31C1382.11 1296.09 1383.54 1295.72 1384.42 1295.21C1385.33 1294.7 1385.79 1293.81 1385.79 1292.55V1292.28C1385.79 1288.99 1384.89 1286.44 1383.09 1284.62C1381.31 1282.8 1378.62 1281.89 1375 1281.89C1371.25 1281.89 1368.3 1282.71 1366.17 1284.35C1364.04 1286 1362.54 1287.75 1361.68 1289.62L1354.21 1286.95C1355.55 1283.84 1357.32 1281.42 1359.54 1279.69C1361.79 1277.94 1364.23 1276.71 1366.87 1276.03C1369.54 1275.32 1372.16 1274.96 1374.73 1274.96C1376.37 1274.96 1378.26 1275.16 1380.39 1275.56C1382.55 1275.94 1384.62 1276.73 1386.62 1277.93C1388.64 1279.12 1390.32 1280.93 1391.65 1283.35C1392.98 1285.77 1393.65 1289.02 1393.65 1293.08V1326.79H1385.79V1319.86H1385.39C1384.86 1320.97 1383.97 1322.16 1382.72 1323.42C1381.48 1324.69 1379.83 1325.76 1377.76 1326.65C1375.7 1327.54 1373.18 1327.98 1370.2 1327.98ZM1371.4 1320.92C1374.51 1320.92 1377.13 1320.31 1379.26 1319.09C1381.41 1317.87 1383.04 1316.29 1384.12 1314.36C1385.23 1312.43 1385.79 1310.4 1385.79 1308.27V1301.07C1385.46 1301.47 1384.72 1301.84 1383.59 1302.17C1382.48 1302.48 1381.19 1302.76 1379.73 1303C1378.28 1303.23 1376.87 1303.43 1375.5 1303.6C1374.14 1303.76 1373.04 1303.89 1372.2 1304C1370.16 1304.27 1368.25 1304.7 1366.47 1305.3C1364.72 1305.88 1363.3 1306.76 1362.21 1307.93C1361.14 1309.09 1360.61 1310.66 1360.61 1312.66C1360.61 1315.39 1361.62 1317.46 1363.64 1318.86C1365.68 1320.23 1368.27 1320.92 1371.4 1320.92ZM1415.86 1296.01V1326.79H1408V1275.63H1415.59V1283.62H1416.26C1417.45 1281.02 1419.28 1278.94 1421.72 1277.36C1424.16 1275.76 1427.31 1274.96 1431.18 1274.96C1434.64 1274.96 1437.67 1275.67 1440.27 1277.09C1442.87 1278.49 1444.89 1280.62 1446.33 1283.49C1447.77 1286.33 1448.5 1289.93 1448.5 1294.28V1326.79H1440.64V1294.81C1440.64 1290.79 1439.59 1287.66 1437.5 1285.42C1435.42 1283.15 1432.55 1282.02 1428.91 1282.02C1426.4 1282.02 1424.16 1282.57 1422.18 1283.65C1420.23 1284.74 1418.69 1286.33 1417.55 1288.42C1416.42 1290.5 1415.86 1293.03 1415.86 1296.01ZM1482.18 1327.85C1477.91 1327.85 1474.15 1326.77 1470.89 1324.62C1467.62 1322.44 1465.07 1319.38 1463.23 1315.43C1461.38 1311.45 1460.46 1306.76 1460.46 1301.34C1460.46 1295.97 1461.38 1291.3 1463.23 1287.35C1465.07 1283.4 1467.63 1280.35 1470.92 1278.19C1474.21 1276.04 1478 1274.96 1482.31 1274.96C1485.64 1274.96 1488.27 1275.52 1490.2 1276.63C1492.16 1277.71 1493.65 1278.96 1494.67 1280.36C1495.71 1281.73 1496.52 1282.87 1497.1 1283.75H1497.76V1258.57H1505.62V1326.79H1498.03V1318.92H1497.1C1496.52 1319.86 1495.7 1321.03 1494.63 1322.46C1493.57 1323.85 1492.05 1325.11 1490.07 1326.22C1488.09 1327.31 1485.46 1327.85 1482.18 1327.85ZM1483.24 1320.79C1486.4 1320.79 1489.06 1319.97 1491.24 1318.33C1493.41 1316.66 1495.07 1314.36 1496.2 1311.43C1497.33 1308.48 1497.9 1305.07 1497.9 1301.21C1497.9 1297.39 1497.34 1294.05 1496.23 1291.18C1495.12 1288.29 1493.48 1286.05 1491.3 1284.45C1489.13 1282.83 1486.44 1282.02 1483.24 1282.02C1479.91 1282.02 1477.14 1282.88 1474.92 1284.59C1472.72 1286.27 1471.06 1288.57 1469.95 1291.48C1468.87 1294.37 1468.32 1297.61 1468.32 1301.21C1468.32 1304.85 1468.88 1308.16 1469.99 1311.13C1471.12 1314.08 1472.78 1316.44 1474.98 1318.19C1477.2 1319.92 1479.96 1320.79 1483.24 1320.79ZM868.378 1421.33C865.692 1421.33 863.238 1420.68 861.018 1419.37C858.797 1418.04 857.021 1416.26 855.689 1414.04C854.379 1411.82 853.724 1409.37 853.724 1406.68C853.724 1403.97 854.379 1401.52 855.689 1399.32C857.021 1397.1 858.797 1395.33 861.018 1394.02C863.238 1392.69 865.692 1392.03 868.378 1392.03C871.087 1392.03 873.541 1392.69 875.739 1394.02C877.959 1395.33 879.725 1397.1 881.035 1399.32C882.367 1401.52 883.033 1403.97 883.033 1406.68C883.033 1409.37 882.367 1411.82 881.035 1414.04C879.725 1416.26 877.959 1418.04 875.739 1419.37C873.541 1420.68 871.087 1421.33 868.378 1421.33ZM1002.4 1393.89C1001.67 1391.65 1000.7 1389.64 999.505 1387.86C998.328 1386.06 996.918 1384.53 995.275 1383.27C993.654 1382 991.811 1381.03 989.746 1380.37C987.681 1379.7 985.416 1379.37 982.951 1379.37C978.91 1379.37 975.236 1380.41 971.927 1382.5C968.619 1384.59 965.988 1387.66 964.034 1391.73C962.08 1395.79 961.103 1400.77 961.103 1406.68C961.103 1412.59 962.091 1417.57 964.067 1421.63C966.043 1425.7 968.719 1428.77 972.094 1430.86C975.469 1432.95 979.266 1433.99 983.484 1433.99C987.392 1433.99 990.834 1433.16 993.809 1431.49C996.807 1429.81 999.138 1427.43 1000.8 1424.37C1002.49 1421.28 1003.33 1417.65 1003.33 1413.47L1005.87 1414.01H985.349V1406.68H1011.33V1414.01C1011.33 1419.62 1010.13 1424.51 1007.73 1428.66C1005.36 1432.81 1002.07 1436.03 997.873 1438.32C993.698 1440.59 988.902 1441.72 983.484 1441.72C977.445 1441.72 972.138 1440.3 967.564 1437.45C963.012 1434.61 959.46 1430.57 956.906 1425.33C954.375 1420.09 953.109 1413.87 953.109 1406.68C953.109 1401.28 953.831 1396.43 955.274 1392.12C956.74 1387.8 958.805 1384.11 961.469 1381.07C964.133 1378.03 967.286 1375.69 970.928 1374.07C974.569 1372.45 978.577 1371.64 982.951 1371.64C986.549 1371.64 989.901 1372.19 993.01 1373.27C996.141 1374.34 998.927 1375.86 1001.37 1377.84C1003.83 1379.79 1005.89 1382.13 1007.53 1384.86C1009.17 1387.57 1010.31 1390.58 1010.93 1393.89H1002.4ZM1045.19 1441.85C1040.57 1441.85 1036.52 1440.75 1033.04 1438.55C1029.57 1436.36 1026.86 1433.28 1024.91 1429.33C1022.98 1425.38 1022.01 1420.76 1022.01 1415.47C1022.01 1410.14 1022.98 1405.49 1024.91 1401.52C1026.86 1397.54 1029.57 1394.46 1033.04 1392.26C1036.52 1390.06 1040.57 1388.96 1045.19 1388.96C1049.81 1388.96 1053.85 1390.06 1057.32 1392.26C1060.8 1394.46 1063.51 1397.54 1065.44 1401.52C1067.4 1405.49 1068.37 1410.14 1068.37 1415.47C1068.37 1420.76 1067.4 1425.38 1065.44 1429.33C1063.51 1433.28 1060.8 1436.36 1057.32 1438.55C1053.85 1440.75 1049.81 1441.85 1045.19 1441.85ZM1045.19 1434.79C1048.7 1434.79 1051.59 1433.89 1053.85 1432.09C1056.12 1430.29 1057.79 1427.93 1058.88 1425C1059.97 1422.07 1060.51 1418.89 1060.51 1415.47C1060.51 1412.05 1059.97 1408.87 1058.88 1405.91C1057.79 1402.96 1056.12 1400.57 1053.85 1398.75C1051.59 1396.93 1048.7 1396.02 1045.19 1396.02C1041.68 1396.02 1038.8 1396.93 1036.53 1398.75C1034.27 1400.57 1032.59 1402.96 1031.5 1405.91C1030.42 1408.87 1029.87 1412.05 1029.87 1415.47C1029.87 1418.89 1030.42 1422.07 1031.5 1425C1032.59 1427.93 1034.27 1430.29 1036.53 1432.09C1038.8 1433.89 1041.68 1434.79 1045.19 1434.79ZM1088.23 1372.57V1440.79H1080.37V1372.57H1088.23ZM1121.95 1441.85C1117.68 1441.85 1113.92 1440.77 1110.66 1438.62C1107.39 1436.44 1104.84 1433.38 1102.99 1429.43C1101.15 1425.45 1100.23 1420.76 1100.23 1415.34C1100.23 1409.97 1101.15 1405.3 1102.99 1401.35C1104.84 1397.4 1107.4 1394.35 1110.69 1392.19C1113.97 1390.04 1117.77 1388.96 1122.08 1388.96C1125.41 1388.96 1128.04 1389.52 1129.97 1390.63C1131.93 1391.71 1133.41 1392.96 1134.44 1394.36C1135.48 1395.73 1136.29 1396.87 1136.87 1397.75H1137.53V1372.57H1145.39V1440.79H1137.8V1432.92H1136.87C1136.29 1433.86 1135.47 1435.03 1134.4 1436.46C1133.34 1437.85 1131.82 1439.11 1129.84 1440.22C1127.86 1441.31 1125.23 1441.85 1121.95 1441.85ZM1123.01 1434.79C1126.16 1434.79 1128.83 1433.97 1131.01 1432.33C1133.18 1430.66 1134.84 1428.36 1135.97 1425.43C1137.1 1422.48 1137.67 1419.07 1137.67 1415.21C1137.67 1411.39 1137.11 1408.05 1136 1405.18C1134.89 1402.29 1133.25 1400.05 1131.07 1398.45C1128.9 1396.83 1126.21 1396.02 1123.01 1396.02C1119.68 1396.02 1116.91 1396.88 1114.69 1398.59C1112.49 1400.27 1110.83 1402.57 1109.72 1405.48C1108.63 1408.37 1108.09 1411.61 1108.09 1415.21C1108.09 1418.85 1108.65 1422.16 1109.76 1425.13C1110.89 1428.08 1112.55 1430.44 1114.75 1432.19C1116.97 1433.92 1119.73 1434.79 1123.01 1434.79ZM1182.33 1441.85C1177.4 1441.85 1173.15 1440.76 1169.57 1438.59C1166.02 1436.39 1163.28 1433.32 1161.35 1429.39C1159.44 1425.44 1158.48 1420.85 1158.48 1415.61C1158.48 1410.37 1159.44 1405.75 1161.35 1401.75C1163.28 1397.73 1165.97 1394.6 1169.41 1392.36C1172.87 1390.09 1176.91 1388.96 1181.53 1388.96C1184.2 1388.96 1186.83 1389.4 1189.42 1390.29C1192.02 1391.18 1194.39 1392.62 1196.52 1394.62C1198.65 1396.6 1200.35 1399.22 1201.61 1402.48C1202.88 1405.75 1203.51 1409.77 1203.51 1414.54V1417.87H1164.08V1411.08H1195.52C1195.52 1408.19 1194.94 1405.61 1193.79 1403.35C1192.66 1401.08 1191.03 1399.3 1188.92 1397.99C1186.84 1396.68 1184.37 1396.02 1181.53 1396.02C1178.4 1396.02 1175.69 1396.8 1173.4 1398.35C1171.14 1399.89 1169.4 1401.88 1168.18 1404.35C1166.95 1406.81 1166.34 1409.46 1166.34 1412.28V1416.8C1166.34 1420.67 1167.01 1423.94 1168.34 1426.63C1169.7 1429.29 1171.57 1431.33 1173.97 1432.73C1176.37 1434.1 1179.15 1434.79 1182.33 1434.79C1184.4 1434.79 1186.26 1434.5 1187.93 1433.92C1189.61 1433.32 1191.07 1432.44 1192.29 1431.26C1193.51 1430.06 1194.45 1428.57 1195.12 1426.8L1202.71 1428.93C1201.91 1431.5 1200.57 1433.77 1198.68 1435.72C1196.8 1437.65 1194.46 1439.16 1191.69 1440.25C1188.91 1441.32 1185.79 1441.85 1182.33 1441.85ZM1223.33 1410.01V1440.79H1215.47V1389.63H1223.06V1397.62H1223.73C1224.93 1395.02 1226.75 1392.94 1229.19 1391.36C1231.63 1389.76 1234.79 1388.96 1238.65 1388.96C1242.11 1388.96 1245.15 1389.67 1247.74 1391.09C1250.34 1392.49 1252.36 1394.62 1253.81 1397.49C1255.25 1400.33 1255.97 1403.93 1255.97 1408.28V1440.79H1248.11V1408.81C1248.11 1404.79 1247.07 1401.66 1244.98 1399.42C1242.89 1397.15 1240.03 1396.02 1236.39 1396.02C1233.88 1396.02 1231.63 1396.57 1229.66 1397.65C1227.7 1398.74 1226.16 1400.33 1225.03 1402.42C1223.9 1404.5 1223.33 1407.03 1223.33 1410.01ZM1344.41 1393.89C1343.67 1391.65 1342.71 1389.64 1341.51 1387.86C1340.33 1386.06 1338.92 1384.53 1337.28 1383.27C1335.66 1382 1333.81 1381.03 1331.75 1380.37C1329.68 1379.7 1327.42 1379.37 1324.96 1379.37C1320.91 1379.37 1317.24 1380.41 1313.93 1382.5C1310.62 1384.59 1307.99 1387.66 1306.04 1391.73C1304.08 1395.79 1303.11 1400.77 1303.11 1406.68C1303.11 1412.59 1304.09 1417.57 1306.07 1421.63C1308.05 1425.7 1310.72 1428.77 1314.1 1430.86C1317.47 1432.95 1321.27 1433.99 1325.49 1433.99C1329.4 1433.99 1332.84 1433.16 1335.81 1431.49C1338.81 1429.81 1341.14 1427.43 1342.81 1424.37C1344.49 1421.28 1345.34 1417.65 1345.34 1413.47L1347.87 1414.01H1327.35V1406.68H1353.33V1414.01C1353.33 1419.62 1352.13 1424.51 1349.73 1428.66C1347.36 1432.81 1344.07 1436.03 1339.88 1438.32C1335.7 1440.59 1330.91 1441.72 1325.49 1441.72C1319.45 1441.72 1314.14 1440.3 1309.57 1437.45C1305.02 1434.61 1301.46 1430.57 1298.91 1425.33C1296.38 1420.09 1295.11 1413.87 1295.11 1406.68C1295.11 1401.28 1295.83 1396.43 1297.28 1392.12C1298.74 1387.8 1300.81 1384.11 1303.47 1381.07C1306.14 1378.03 1309.29 1375.69 1312.93 1374.07C1316.57 1372.45 1320.58 1371.64 1324.96 1371.64C1328.55 1371.64 1331.91 1372.19 1335.01 1373.27C1338.14 1374.34 1340.93 1375.86 1343.37 1377.84C1345.84 1379.79 1347.89 1382.13 1349.54 1384.86C1351.18 1387.57 1352.31 1390.58 1352.93 1393.89H1344.41ZM1381.47 1441.98C1378.23 1441.98 1375.28 1441.37 1372.64 1440.15C1370 1438.91 1367.9 1437.12 1366.35 1434.79C1364.79 1432.44 1364.01 1429.59 1364.01 1426.26C1364.01 1423.33 1364.59 1420.96 1365.75 1419.14C1366.9 1417.29 1368.44 1415.85 1370.38 1414.81C1372.31 1413.76 1374.44 1412.99 1376.77 1412.47C1379.12 1411.94 1381.49 1411.52 1383.87 1411.21C1386.97 1410.81 1389.49 1410.51 1391.43 1410.31C1393.38 1410.09 1394.8 1409.72 1395.69 1409.21C1396.6 1408.7 1397.05 1407.81 1397.05 1406.55V1406.28C1397.05 1402.99 1396.16 1400.44 1394.36 1398.62C1392.58 1396.8 1389.88 1395.89 1386.26 1395.89C1382.51 1395.89 1379.57 1396.71 1377.44 1398.35C1375.31 1400 1373.81 1401.75 1372.94 1403.62L1365.48 1400.95C1366.81 1397.84 1368.59 1395.42 1370.81 1393.69C1373.05 1391.94 1375.49 1390.71 1378.14 1390.03C1380.8 1389.32 1383.42 1388.96 1386 1388.96C1387.64 1388.96 1389.53 1389.16 1391.66 1389.56C1393.81 1389.94 1395.89 1390.73 1397.89 1391.93C1399.91 1393.12 1401.58 1394.93 1402.92 1397.35C1404.25 1399.77 1404.91 1403.02 1404.91 1407.08V1440.79H1397.05V1433.86H1396.65C1396.12 1434.97 1395.23 1436.16 1393.99 1437.42C1392.75 1438.69 1391.09 1439.76 1389.03 1440.65C1386.96 1441.54 1384.44 1441.98 1381.47 1441.98ZM1382.67 1434.92C1385.77 1434.92 1388.4 1434.31 1390.53 1433.09C1392.68 1431.87 1394.3 1430.29 1395.39 1428.36C1396.5 1426.43 1397.05 1424.4 1397.05 1422.27V1415.07C1396.72 1415.47 1395.99 1415.84 1394.86 1416.17C1393.75 1416.48 1392.46 1416.76 1390.99 1417C1389.55 1417.23 1388.14 1417.43 1386.76 1417.6C1385.41 1417.76 1384.31 1417.89 1383.47 1418C1381.42 1418.27 1379.51 1418.7 1377.74 1419.3C1375.98 1419.88 1374.56 1420.76 1373.47 1421.93C1372.41 1423.09 1371.88 1424.66 1371.88 1426.66C1371.88 1429.39 1372.89 1431.46 1374.91 1432.86C1376.95 1434.23 1379.54 1434.92 1382.67 1434.92ZM1441.51 1389.63V1396.29H1415V1389.63H1441.51ZM1422.73 1377.37H1430.59V1426.13C1430.59 1428.35 1430.91 1430.02 1431.55 1431.13C1432.22 1432.21 1433.06 1432.95 1434.08 1433.32C1435.13 1433.68 1436.23 1433.86 1437.38 1433.86C1438.25 1433.86 1438.96 1433.81 1439.51 1433.72C1440.07 1433.61 1440.51 1433.52 1440.84 1433.46L1442.44 1440.52C1441.91 1440.72 1441.17 1440.92 1440.21 1441.12C1439.26 1441.34 1438.05 1441.45 1436.58 1441.45C1434.36 1441.45 1432.18 1440.97 1430.05 1440.02C1427.94 1439.06 1426.19 1437.61 1424.79 1435.66C1423.41 1433.7 1422.73 1431.24 1422.73 1428.26V1377.37ZM1474.23 1441.85C1469.3 1441.85 1465.05 1440.76 1461.48 1438.59C1457.92 1436.39 1455.18 1433.32 1453.25 1429.39C1451.34 1425.44 1450.39 1420.85 1450.39 1415.61C1450.39 1410.37 1451.34 1405.75 1453.25 1401.75C1455.18 1397.73 1457.87 1394.6 1461.31 1392.36C1464.77 1390.09 1468.82 1388.96 1473.43 1388.96C1476.1 1388.96 1478.73 1389.4 1481.33 1390.29C1483.93 1391.18 1486.29 1392.62 1488.42 1394.62C1490.55 1396.6 1492.25 1399.22 1493.52 1402.48C1494.78 1405.75 1495.42 1409.77 1495.42 1414.54V1417.87H1455.98V1411.08H1487.42C1487.42 1408.19 1486.85 1405.61 1485.69 1403.35C1484.56 1401.08 1482.94 1399.3 1480.83 1397.99C1478.74 1396.68 1476.28 1396.02 1473.43 1396.02C1470.3 1396.02 1467.59 1396.8 1465.31 1398.35C1463.04 1399.89 1461.3 1401.88 1460.08 1404.35C1458.86 1406.81 1458.25 1409.46 1458.25 1412.28V1416.8C1458.25 1420.67 1458.91 1423.94 1460.24 1426.63C1461.6 1429.29 1463.48 1431.33 1465.87 1432.73C1468.27 1434.1 1471.06 1434.79 1474.23 1434.79C1476.3 1434.79 1478.16 1434.5 1479.83 1433.92C1481.52 1433.32 1482.97 1432.44 1484.19 1431.26C1485.41 1430.06 1486.36 1428.57 1487.02 1426.8L1494.62 1428.93C1493.82 1431.5 1492.47 1433.77 1490.59 1435.72C1488.7 1437.65 1486.37 1439.16 1483.59 1440.25C1480.82 1441.32 1477.7 1441.85 1474.23 1441.85ZM868.378 1535.33C865.692 1535.33 863.238 1534.68 861.018 1533.37C858.797 1532.04 857.021 1530.26 855.689 1528.04C854.379 1525.82 853.724 1523.37 853.724 1520.68C853.724 1517.97 854.379 1515.52 855.689 1513.32C857.021 1511.1 858.797 1509.33 861.018 1508.02C863.238 1506.69 865.692 1506.03 868.378 1506.03C871.087 1506.03 873.541 1506.69 875.739 1508.02C877.959 1509.33 879.725 1511.1 881.035 1513.32C882.367 1515.52 883.033 1517.97 883.033 1520.68C883.033 1523.37 882.367 1525.82 881.035 1528.04C879.725 1530.26 877.959 1532.04 875.739 1533.37C873.541 1534.68 871.087 1535.33 868.378 1535.33ZM958.571 1554.79H949.912L974.958 1486.57H983.484L1008.53 1554.79H999.871L979.488 1497.37H978.955L958.571 1554.79ZM961.769 1528.14H996.674V1535.47H961.769V1528.14ZM1053.51 1503.63L1034.59 1554.79H1026.6L1007.68 1503.63H1016.21L1030.33 1544.39H1030.86L1044.98 1503.63H1053.51ZM1083.5 1555.85C1078.57 1555.85 1074.32 1554.76 1070.75 1552.59C1067.19 1550.39 1064.45 1547.32 1062.52 1543.39C1060.61 1539.44 1059.66 1534.85 1059.66 1529.61C1059.66 1524.37 1060.61 1519.75 1062.52 1515.75C1064.45 1511.73 1067.14 1508.6 1070.58 1506.36C1074.04 1504.09 1078.08 1502.96 1082.7 1502.96C1085.37 1502.96 1088 1503.4 1090.6 1504.29C1093.19 1505.18 1095.56 1506.62 1097.69 1508.62C1099.82 1510.6 1101.52 1513.22 1102.79 1516.48C1104.05 1519.75 1104.69 1523.77 1104.69 1528.54V1531.87H1065.25V1525.08H1096.69C1096.69 1522.19 1096.11 1519.61 1094.96 1517.35C1093.83 1515.08 1092.21 1513.3 1090.1 1511.99C1088.01 1510.68 1085.55 1510.02 1082.7 1510.02C1079.57 1510.02 1076.86 1510.8 1074.58 1512.35C1072.31 1513.89 1070.57 1515.88 1069.35 1518.35C1068.13 1520.81 1067.52 1523.46 1067.52 1526.28V1530.8C1067.52 1534.67 1068.18 1537.94 1069.51 1540.63C1070.87 1543.29 1072.74 1545.33 1075.14 1546.73C1077.54 1548.1 1080.33 1548.79 1083.5 1548.79C1085.57 1548.79 1087.43 1548.5 1089.1 1547.92C1090.79 1547.32 1092.24 1546.44 1093.46 1545.26C1094.68 1544.06 1095.63 1542.57 1096.29 1540.8L1103.89 1542.93C1103.09 1545.5 1101.74 1547.77 1099.86 1549.72C1097.97 1551.65 1095.64 1553.16 1092.86 1554.25C1090.09 1555.32 1086.97 1555.85 1083.5 1555.85ZM1144.09 1486.57H1153.95L1177.13 1543.19H1177.93L1201.11 1486.57H1210.97V1554.79H1203.24V1502.96H1202.57L1181.26 1554.79H1173.8L1152.48 1502.96H1151.81V1554.79H1144.09V1486.57ZM1241.52 1555.98C1238.27 1555.98 1235.33 1555.37 1232.69 1554.15C1230.05 1552.91 1227.95 1551.12 1226.39 1548.79C1224.84 1546.44 1224.06 1543.59 1224.06 1540.26C1224.06 1537.33 1224.64 1534.96 1225.79 1533.14C1226.95 1531.29 1228.49 1529.85 1230.42 1528.81C1232.36 1527.76 1234.49 1526.99 1236.82 1526.47C1239.17 1525.94 1241.54 1525.52 1243.91 1525.21C1247.02 1524.81 1249.54 1524.51 1251.47 1524.31C1253.43 1524.09 1254.85 1523.72 1255.74 1523.21C1256.65 1522.7 1257.1 1521.81 1257.1 1520.55V1520.28C1257.1 1516.99 1256.2 1514.44 1254.4 1512.62C1252.63 1510.8 1249.93 1509.89 1246.31 1509.89C1242.56 1509.89 1239.62 1510.71 1237.49 1512.35C1235.35 1514 1233.85 1515.75 1232.99 1517.62L1225.53 1514.95C1226.86 1511.84 1228.64 1509.42 1230.86 1507.69C1233.1 1505.94 1235.54 1504.71 1238.18 1504.03C1240.85 1503.32 1243.47 1502.96 1246.04 1502.96C1247.69 1502.96 1249.58 1503.16 1251.71 1503.56C1253.86 1503.94 1255.94 1504.73 1257.93 1505.93C1259.96 1507.12 1261.63 1508.93 1262.96 1511.35C1264.3 1513.77 1264.96 1517.02 1264.96 1521.08V1554.79H1257.1V1547.86H1256.7C1256.17 1548.97 1255.28 1550.16 1254.04 1551.42C1252.79 1552.69 1251.14 1553.76 1249.08 1554.65C1247.01 1555.54 1244.49 1555.98 1241.52 1555.98ZM1242.71 1548.92C1245.82 1548.92 1248.44 1548.31 1250.57 1547.09C1252.73 1545.87 1254.35 1544.29 1255.44 1542.36C1256.55 1540.43 1257.1 1538.4 1257.1 1536.27V1529.07C1256.77 1529.47 1256.04 1529.84 1254.9 1530.17C1253.79 1530.48 1252.51 1530.76 1251.04 1531C1249.6 1531.23 1248.19 1531.43 1246.81 1531.6C1245.46 1531.76 1244.36 1531.89 1243.51 1532C1241.47 1532.27 1239.56 1532.7 1237.78 1533.3C1236.03 1533.88 1234.61 1534.76 1233.52 1535.93C1232.46 1537.09 1231.92 1538.66 1231.92 1540.66C1231.92 1543.39 1232.93 1545.46 1234.95 1546.86C1237 1548.23 1239.58 1548.92 1242.71 1548.92ZM1279.31 1554.79V1503.63H1286.9V1511.35H1287.44C1288.37 1508.82 1290.06 1506.77 1292.5 1505.19C1294.94 1503.62 1297.69 1502.83 1300.76 1502.83C1301.34 1502.83 1302.06 1502.84 1302.92 1502.86C1303.79 1502.88 1304.44 1502.92 1304.89 1502.96V1510.95C1304.62 1510.89 1304.01 1510.79 1303.06 1510.65C1302.12 1510.5 1301.14 1510.42 1300.09 1510.42C1297.61 1510.42 1295.38 1510.94 1293.43 1511.99C1291.5 1513.01 1289.97 1514.43 1288.83 1516.25C1287.72 1518.05 1287.17 1520.1 1287.17 1522.41V1554.79H1279.31ZM1314.21 1554.79V1503.63H1322.07V1554.79H1314.21ZM1318.2 1495.1C1316.67 1495.1 1315.35 1494.58 1314.24 1493.54C1313.15 1492.49 1312.61 1491.24 1312.61 1489.77C1312.61 1488.31 1313.15 1487.05 1314.24 1486.01C1315.35 1484.96 1316.67 1484.44 1318.2 1484.44C1319.73 1484.44 1321.04 1484.96 1322.13 1486.01C1323.24 1487.05 1323.8 1488.31 1323.8 1489.77C1323.8 1491.24 1323.24 1492.49 1322.13 1493.54C1321.04 1494.58 1319.73 1495.1 1318.2 1495.1ZM1351.52 1555.98C1348.28 1555.98 1345.33 1555.37 1342.69 1554.15C1340.05 1552.91 1337.95 1551.12 1336.4 1548.79C1334.84 1546.44 1334.06 1543.59 1334.06 1540.26C1334.06 1537.33 1334.64 1534.96 1335.8 1533.14C1336.95 1531.29 1338.49 1529.85 1340.43 1528.81C1342.36 1527.76 1344.49 1526.99 1346.82 1526.47C1349.17 1525.94 1351.54 1525.52 1353.91 1525.21C1357.02 1524.81 1359.54 1524.51 1361.48 1524.31C1363.43 1524.09 1364.85 1523.72 1365.74 1523.21C1366.65 1522.7 1367.1 1521.81 1367.1 1520.55V1520.28C1367.1 1516.99 1366.2 1514.44 1364.41 1512.62C1362.63 1510.8 1359.93 1509.89 1356.31 1509.89C1352.56 1509.89 1349.62 1510.71 1347.49 1512.35C1345.36 1514 1343.86 1515.75 1342.99 1517.62L1335.53 1514.95C1336.86 1511.84 1338.64 1509.42 1340.86 1507.69C1343.1 1505.94 1345.54 1504.71 1348.19 1504.03C1350.85 1503.32 1353.47 1502.96 1356.05 1502.96C1357.69 1502.96 1359.58 1503.16 1361.71 1503.56C1363.86 1503.94 1365.94 1504.73 1367.94 1505.93C1369.96 1507.12 1371.63 1508.93 1372.97 1511.35C1374.3 1513.77 1374.96 1517.02 1374.96 1521.08V1554.79H1367.1V1547.86H1366.7C1366.17 1548.97 1365.28 1550.16 1364.04 1551.42C1362.8 1552.69 1361.14 1553.76 1359.08 1554.65C1357.01 1555.54 1354.49 1555.98 1351.52 1555.98ZM1352.72 1548.92C1355.82 1548.92 1358.44 1548.31 1360.58 1547.09C1362.73 1545.87 1364.35 1544.29 1365.44 1542.36C1366.55 1540.43 1367.1 1538.4 1367.1 1536.27V1529.07C1366.77 1529.47 1366.04 1529.84 1364.91 1530.17C1363.8 1530.48 1362.51 1530.76 1361.04 1531C1359.6 1531.23 1358.19 1531.43 1356.81 1531.6C1355.46 1531.76 1354.36 1531.89 1353.52 1532C1351.47 1532.27 1349.56 1532.7 1347.79 1533.3C1346.03 1533.88 1344.61 1534.76 1343.52 1535.93C1342.46 1537.09 1341.92 1538.66 1341.92 1540.66C1341.92 1543.39 1342.93 1545.46 1344.96 1546.86C1347 1548.23 1349.59 1548.92 1352.72 1548.92Z" fill="white"/>
<path d="M645.666 975.083H705.333" stroke="white" stroke-width="14.9167" stroke-linecap="round" stroke-linejoin="round"/>
<path d="M638.209 885.583H712.792" stroke="white" stroke-width="14.9167" stroke-linecap="round" stroke-linejoin="round"/>
<path d="M675.5 922.875V975.083" stroke="white" stroke-width="14.9167" stroke-linecap="round" stroke-linejoin="round"/>
<path d="M675.501 922.875C685.391 922.875 694.876 918.946 701.87 911.953C708.863 904.959 712.792 895.474 712.792 885.584C712.792 870.667 709.063 855.75 697.876 825.917H653.126C641.938 855.75 638.209 870.667 638.209 885.584C638.209 895.474 642.138 904.959 649.131 911.953C656.125 918.946 665.61 922.875 675.501 922.875Z" stroke="white" stroke-width="14.9167" stroke-linecap="round" stroke-linejoin="round"/>
<path d="M2668.79 1734.42L2691.17 1759.03C2692.19 1760.07 2692.88 1761.39 2693.16 1762.82C2693.44 1764.26 2693.29 1765.74 2692.74 1767.09C2692.18 1768.44 2691.24 1769.6 2690.03 1770.42C2688.83 1771.24 2687.4 1771.69 2685.94 1771.71H2577.05C2575.59 1771.69 2574.17 1771.24 2572.96 1770.42C2571.76 1769.6 2570.82 1768.44 2570.26 1767.09C2569.71 1765.74 2569.56 1764.26 2569.84 1762.82C2570.12 1761.39 2570.81 1760.07 2571.83 1759.03L2594.21 1734.42H2591.97C2590.51 1734.4 2589.09 1733.95 2587.88 1733.13C2586.67 1732.31 2585.73 1731.15 2585.18 1729.8C2584.62 1728.45 2584.47 1726.97 2584.75 1725.53C2585.03 1724.1 2585.73 1722.78 2586.75 1721.74L2609.12 1697.13H2607.63C2606.11 1697.26 2604.58 1696.93 2603.25 1696.17C2601.93 1695.41 2600.86 1694.26 2600.21 1692.87C2599.56 1691.49 2599.35 1689.94 2599.61 1688.43C2599.87 1686.92 2600.59 1685.53 2601.67 1684.45L2631.5 1652.38L2661.33 1684.45C2662.41 1685.53 2663.13 1686.92 2663.39 1688.43C2663.65 1689.94 2663.44 1691.49 2662.78 1692.87C2662.13 1694.26 2661.07 1695.41 2659.74 1696.17C2658.42 1696.93 2656.89 1697.26 2655.37 1697.13H2653.87L2676.25 1721.74C2677.27 1722.78 2677.96 1724.1 2678.24 1725.53C2678.52 1726.97 2678.38 1728.45 2677.82 1729.8C2677.26 1731.15 2676.32 1732.31 2675.12 1733.13C2673.91 1733.95 2672.49 1734.4 2671.03 1734.42H2668.79Z" stroke="white" stroke-width="14.9167" stroke-linecap="round" stroke-linejoin="round"/>
<path d="M2631.5 1794.08V1771.71" stroke="white" stroke-width="14.9167" stroke-linecap="round" stroke-linejoin="round"/>
</svg>
