<svg width="2044" height="1524" viewBox="0 0 2044 1524" fill="none" xmlns="http://www.w3.org/2000/svg">
<path d="M5 495L213.714 888.133L238.884 911.661L274.023 931.596L395.624 961.007L413.929 935.354L439.916 922.936L537 942.053V946.302L452.338 1015.58L431.091 1026.04L416.381 1028L386.798 1026.04L329.267 1010.52L233 958.883L224.01 951.531L215.349 943.524L200.475 917.544L5.98011 559.052L5 495Z" fill="black" stroke="#886E34" stroke-width="10" stroke-linejoin="bevel"/>
<path d="M465.847 243.102C465.847 243.102 480.035 236.217 598.147 220.806C716.259 205.395 951.894 152.97 1096.28 146.429C1240.67 139.888 1554.1 101 1533.5 101C1512.9 101 1866.5 62.9999 1866.5 62.9999C1866.5 62.9999 1955.89 229.5 1911.19 476.34C1866.5 723.18 1955.89 889.68 1955.89 889.68L1996.78 1138.04L1880.97 1263.79L1740.87 1354.26L1542.57 1451.14L1224.76 1490.51L1132.56 1455.09C1132.56 1455.09 965.273 1384.57 1021.73 1252.64C1078.19 1120.71 632.946 1258.6 699.889 1048.73C766.832 838.855 412.303 576.241 412.303 576.241L465.847 243.102Z" fill="black" stroke="#886E34" stroke-width="20" stroke-linejoin="bevel"/>
<path d="M1120.1 470.389C1118.36 470.389 1116.77 469.965 1115.33 469.115C1113.89 468.252 1112.74 467.1 1111.87 465.66C1111.03 464.221 1110.6 462.63 1110.6 460.888C1110.6 459.132 1111.03 457.541 1111.87 456.116C1112.74 454.676 1113.89 453.532 1115.33 452.683C1116.77 451.819 1118.36 451.387 1120.1 451.387C1121.86 451.387 1123.45 451.819 1124.87 452.683C1126.31 453.532 1127.46 454.676 1128.31 456.116C1129.17 457.541 1129.6 459.132 1129.6 460.888C1129.6 462.63 1129.17 464.221 1128.31 465.66C1127.46 467.1 1126.31 468.252 1124.87 469.115C1123.45 469.965 1121.86 470.389 1120.1 470.389ZM1212.35 452.596H1207C1206.68 451.056 1206.12 449.703 1205.33 448.537C1204.55 447.37 1203.6 446.392 1202.48 445.6C1201.37 444.794 1200.14 444.189 1198.79 443.786C1197.44 443.383 1196.03 443.181 1194.56 443.181C1191.88 443.181 1189.45 443.858 1187.28 445.211C1185.12 446.564 1183.4 448.558 1182.12 451.193C1180.85 453.827 1180.22 457.059 1180.22 460.888C1180.22 464.717 1180.85 467.949 1182.12 470.584C1183.4 473.218 1185.12 475.212 1187.28 476.565C1189.45 477.918 1191.88 478.595 1194.56 478.595C1196.03 478.595 1197.44 478.393 1198.79 477.99C1200.14 477.587 1201.37 476.99 1202.48 476.198C1203.6 475.392 1204.55 474.406 1205.33 473.24C1206.12 472.059 1206.68 470.706 1207 469.18H1212.35C1211.95 471.44 1211.21 473.463 1210.15 475.248C1209.08 477.033 1207.76 478.552 1206.17 479.804C1204.59 481.042 1202.81 481.985 1200.84 482.633C1198.88 483.281 1196.79 483.605 1194.56 483.605C1190.79 483.605 1187.43 482.683 1184.49 480.841C1181.56 478.998 1179.25 476.378 1177.56 472.981C1175.88 469.583 1175.04 465.552 1175.04 460.888C1175.04 456.224 1175.88 452.193 1177.56 448.796C1179.25 445.398 1181.56 442.778 1184.49 440.936C1187.43 439.093 1190.79 438.172 1194.56 438.172C1196.79 438.172 1198.88 438.495 1200.84 439.143C1202.81 439.791 1204.59 440.741 1206.17 441.994C1207.76 443.232 1209.08 444.743 1210.15 446.528C1211.21 448.299 1211.95 450.322 1212.35 452.596ZM1230.07 483.777C1227.97 483.777 1226.06 483.381 1224.35 482.59C1222.64 481.784 1221.28 480.625 1220.27 479.113C1219.26 477.587 1218.76 475.745 1218.76 473.585C1218.76 471.685 1219.13 470.145 1219.88 468.964C1220.63 467.769 1221.63 466.834 1222.88 466.157C1224.13 465.48 1225.52 464.977 1227.03 464.645C1228.55 464.3 1230.09 464.026 1231.63 463.825C1233.64 463.566 1235.28 463.371 1236.53 463.242C1237.8 463.098 1238.72 462.86 1239.29 462.529C1239.88 462.198 1240.18 461.622 1240.18 460.802V460.629C1240.18 458.498 1239.6 456.843 1238.43 455.662C1237.28 454.482 1235.53 453.892 1233.18 453.892C1230.75 453.892 1228.84 454.424 1227.46 455.49C1226.08 456.555 1225.11 457.692 1224.55 458.901L1219.71 457.174C1220.57 455.159 1221.72 453.589 1223.16 452.467C1224.62 451.329 1226.2 450.538 1227.91 450.091C1229.64 449.631 1231.34 449.4 1233.01 449.4C1234.08 449.4 1235.3 449.53 1236.68 449.789C1238.08 450.034 1239.42 450.545 1240.72 451.322C1242.03 452.099 1243.12 453.273 1243.98 454.842C1244.84 456.411 1245.28 458.513 1245.28 461.147V483H1240.18V478.509H1239.92C1239.57 479.228 1239 479.998 1238.19 480.819C1237.39 481.64 1236.31 482.338 1234.97 482.914C1233.64 483.489 1232 483.777 1230.07 483.777ZM1230.85 479.2C1232.87 479.2 1234.56 478.804 1235.95 478.012C1237.34 477.22 1238.39 476.198 1239.1 474.946C1239.82 473.693 1240.18 472.376 1240.18 470.994V466.33C1239.96 466.589 1239.49 466.826 1238.75 467.042C1238.03 467.244 1237.2 467.424 1236.25 467.582C1235.31 467.726 1234.4 467.856 1233.51 467.971C1232.63 468.072 1231.92 468.158 1231.37 468.23C1230.04 468.403 1228.81 468.683 1227.65 469.072C1226.52 469.446 1225.6 470.015 1224.89 470.778C1224.2 471.527 1223.85 472.549 1223.85 473.844C1223.85 475.615 1224.51 476.954 1225.82 477.861C1227.14 478.753 1228.82 479.2 1230.85 479.2ZM1254.58 495.438V449.832H1259.5V455.101H1260.1C1260.48 454.525 1261 453.791 1261.66 452.898C1262.34 451.992 1263.3 451.185 1264.55 450.48C1265.82 449.76 1267.53 449.4 1269.69 449.4C1272.48 449.4 1274.95 450.098 1277.08 451.495C1279.21 452.891 1280.87 454.871 1282.07 457.433C1283.26 459.996 1283.86 463.019 1283.86 466.502C1283.86 470.015 1283.26 473.06 1282.07 475.637C1280.87 478.199 1279.21 480.186 1277.1 481.596C1274.98 482.993 1272.54 483.691 1269.78 483.691C1267.65 483.691 1265.94 483.338 1264.66 482.633C1263.38 481.913 1262.39 481.1 1261.7 480.193C1261.01 479.271 1260.48 478.509 1260.1 477.904H1259.67V495.438H1254.58ZM1259.59 466.416C1259.59 468.921 1259.95 471.131 1260.69 473.045C1261.42 474.946 1262.49 476.436 1263.91 477.515C1265.32 478.581 1267.04 479.113 1269.09 479.113C1271.22 479.113 1273 478.552 1274.42 477.429C1275.86 476.292 1276.94 474.766 1277.66 472.851C1278.39 470.922 1278.76 468.777 1278.76 466.416C1278.76 464.084 1278.4 461.982 1277.68 460.111C1276.98 458.225 1275.9 456.735 1274.46 455.641C1273.04 454.532 1271.25 453.978 1269.09 453.978C1267.01 453.978 1265.27 454.504 1263.86 455.554C1262.45 456.591 1261.39 458.045 1260.67 459.916C1259.95 461.773 1259.59 463.94 1259.59 466.416ZM1305.54 483.691C1302.34 483.691 1299.58 482.986 1297.27 481.575C1294.96 480.15 1293.19 478.163 1291.93 475.615C1290.7 473.053 1290.08 470.073 1290.08 466.675C1290.08 463.278 1290.7 460.283 1291.93 457.692C1293.19 455.087 1294.93 453.057 1297.16 451.603C1299.41 450.134 1302.03 449.4 1305.02 449.4C1306.75 449.4 1308.45 449.688 1310.14 450.264C1311.82 450.84 1313.35 451.776 1314.74 453.071C1316.12 454.352 1317.22 456.051 1318.04 458.167C1318.86 460.283 1319.27 462.889 1319.27 465.984V468.144H1293.7V463.738H1314.09C1314.09 461.867 1313.71 460.197 1312.97 458.729C1312.23 457.26 1311.18 456.102 1309.81 455.252C1308.46 454.403 1306.86 453.978 1305.02 453.978C1302.99 453.978 1301.23 454.482 1299.75 455.49C1298.28 456.483 1297.15 457.779 1296.36 459.377C1295.57 460.974 1295.17 462.688 1295.17 464.516V467.453C1295.17 469.957 1295.6 472.081 1296.47 473.823C1297.35 475.55 1298.56 476.867 1300.12 477.774C1301.67 478.667 1303.48 479.113 1305.54 479.113C1306.88 479.113 1308.09 478.926 1309.17 478.552C1310.26 478.163 1311.2 477.587 1311.99 476.824C1312.79 476.047 1313.4 475.082 1313.83 473.931L1318.75 475.313C1318.23 476.983 1317.36 478.451 1316.14 479.718C1314.92 480.97 1313.4 481.949 1311.61 482.655C1309.81 483.345 1307.78 483.691 1305.54 483.691ZM1380.4 452.596H1375.05C1374.73 451.056 1374.18 449.703 1373.38 448.537C1372.61 447.37 1371.66 446.392 1370.53 445.6C1369.43 444.794 1368.2 444.189 1366.84 443.786C1365.49 443.383 1364.08 443.181 1362.61 443.181C1359.93 443.181 1357.51 443.858 1355.33 445.211C1353.17 446.564 1351.45 448.558 1350.17 451.193C1348.9 453.827 1348.27 457.059 1348.27 460.888C1348.27 464.717 1348.9 467.949 1350.17 470.584C1351.45 473.218 1353.17 475.212 1355.33 476.565C1357.51 477.918 1359.93 478.595 1362.61 478.595C1364.08 478.595 1365.49 478.393 1366.84 477.99C1368.2 477.587 1369.43 476.99 1370.53 476.198C1371.66 475.392 1372.61 474.406 1373.38 473.24C1374.18 472.059 1374.73 470.706 1375.05 469.18H1380.4C1380 471.44 1379.27 473.463 1378.2 475.248C1377.13 477.033 1375.81 478.552 1374.23 479.804C1372.64 481.042 1370.87 481.985 1368.89 482.633C1366.94 483.281 1364.84 483.605 1362.61 483.605C1358.84 483.605 1355.48 482.683 1352.55 480.841C1349.61 478.998 1347.3 476.378 1345.62 472.981C1343.93 469.583 1343.09 465.552 1343.09 460.888C1343.09 456.224 1343.93 452.193 1345.62 448.796C1347.3 445.398 1349.61 442.778 1352.55 440.936C1355.48 439.093 1358.84 438.172 1362.61 438.172C1364.84 438.172 1366.94 438.495 1368.89 439.143C1370.87 439.791 1372.64 440.741 1374.23 441.994C1375.81 443.232 1377.13 444.743 1378.2 446.528C1379.27 448.299 1380 450.322 1380.4 452.596ZM1401.84 483.691C1398.85 483.691 1396.22 482.978 1393.96 481.553C1391.71 480.128 1389.96 478.134 1388.69 475.572C1387.44 473.009 1386.81 470.015 1386.81 466.589C1386.81 463.134 1387.44 460.118 1388.69 457.541C1389.96 454.964 1391.71 452.963 1393.96 451.538C1396.22 450.113 1398.85 449.4 1401.84 449.4C1404.83 449.4 1407.45 450.113 1409.7 451.538C1411.96 452.963 1413.72 454.964 1414.97 457.541C1416.24 460.118 1416.87 463.134 1416.87 466.589C1416.87 470.015 1416.24 473.009 1414.97 475.572C1413.72 478.134 1411.96 480.128 1409.7 481.553C1407.45 482.978 1404.83 483.691 1401.84 483.691ZM1401.84 479.113C1404.11 479.113 1405.99 478.53 1407.45 477.364C1408.92 476.198 1410.01 474.665 1410.71 472.765C1411.42 470.864 1411.77 468.806 1411.77 466.589C1411.77 464.372 1411.42 462.306 1410.71 460.391C1410.01 458.477 1408.92 456.929 1407.45 455.749C1405.99 454.568 1404.11 453.978 1401.84 453.978C1399.57 453.978 1397.69 454.568 1396.23 455.749C1394.76 456.929 1393.67 458.477 1392.96 460.391C1392.26 462.306 1391.91 464.372 1391.91 466.589C1391.91 468.806 1392.26 470.864 1392.96 472.765C1393.67 474.665 1394.76 476.198 1396.23 477.364C1397.69 478.53 1399.57 479.113 1401.84 479.113ZM1424.65 483V449.832H1429.57V454.842H1429.92C1430.52 453.201 1431.62 451.869 1433.2 450.847C1434.78 449.825 1436.57 449.314 1438.55 449.314C1438.93 449.314 1439.4 449.321 1439.96 449.336C1440.52 449.35 1440.94 449.371 1441.23 449.4V454.583C1441.06 454.54 1440.66 454.475 1440.04 454.388C1439.44 454.288 1438.8 454.237 1438.12 454.237C1436.51 454.237 1435.07 454.576 1433.8 455.252C1432.55 455.914 1431.56 456.836 1430.82 458.016C1430.1 459.182 1429.74 460.514 1429.74 462.011V483H1424.65ZM1457.03 483.777C1454.93 483.777 1453.02 483.381 1451.31 482.59C1449.6 481.784 1448.24 480.625 1447.23 479.113C1446.22 477.587 1445.72 475.745 1445.72 473.585C1445.72 471.685 1446.09 470.145 1446.84 468.964C1447.59 467.769 1448.59 466.834 1449.84 466.157C1451.1 465.48 1452.48 464.977 1453.99 464.645C1455.51 464.3 1457.05 464.026 1458.59 463.825C1460.6 463.566 1462.24 463.371 1463.49 463.242C1464.76 463.098 1465.68 462.86 1466.25 462.529C1466.84 462.198 1467.14 461.622 1467.14 460.802V460.629C1467.14 458.498 1466.56 456.843 1465.39 455.662C1464.24 454.482 1462.49 453.892 1460.14 453.892C1457.71 453.892 1455.8 454.424 1454.42 455.49C1453.04 456.555 1452.07 457.692 1451.51 458.901L1446.67 457.174C1447.53 455.159 1448.68 453.589 1450.12 452.467C1451.58 451.329 1453.16 450.538 1454.87 450.091C1456.6 449.631 1458.3 449.4 1459.97 449.4C1461.04 449.4 1462.26 449.53 1463.64 449.789C1465.04 450.034 1466.38 450.545 1467.68 451.322C1468.99 452.099 1470.08 453.273 1470.94 454.842C1471.8 456.411 1472.24 458.513 1472.24 461.147V483H1467.14V478.509H1466.88C1466.53 479.228 1465.96 479.998 1465.15 480.819C1464.35 481.64 1463.27 482.338 1461.94 482.914C1460.6 483.489 1458.96 483.777 1457.03 483.777ZM1457.81 479.2C1459.83 479.2 1461.52 478.804 1462.91 478.012C1464.3 477.22 1465.35 476.198 1466.06 474.946C1466.78 473.693 1467.14 472.376 1467.14 470.994V466.33C1466.92 466.589 1466.45 466.826 1465.71 467.042C1464.99 467.244 1464.16 467.424 1463.21 467.582C1462.27 467.726 1461.36 467.856 1460.47 467.971C1459.59 468.072 1458.88 468.158 1458.33 468.23C1457 468.403 1455.77 468.683 1454.61 469.072C1453.48 469.446 1452.56 470.015 1451.85 470.778C1451.16 471.527 1450.81 472.549 1450.81 473.844C1450.81 475.615 1451.47 476.954 1452.78 477.861C1454.1 478.753 1455.78 479.2 1457.81 479.2ZM1486.63 438.776V483H1481.54V438.776H1486.63ZM1120.1 544.389C1118.36 544.389 1116.77 543.965 1115.33 543.115C1113.89 542.252 1112.74 541.1 1111.87 539.66C1111.03 538.221 1110.6 536.63 1110.6 534.888C1110.6 533.132 1111.03 531.541 1111.87 530.116C1112.74 528.676 1113.89 527.532 1115.33 526.683C1116.77 525.819 1118.36 525.387 1120.1 525.387C1121.86 525.387 1123.45 525.819 1124.87 526.683C1126.31 527.532 1127.46 528.676 1128.31 530.116C1129.17 531.541 1129.6 533.132 1129.6 534.888C1129.6 536.63 1129.17 538.221 1128.31 539.66C1127.46 541.1 1126.31 542.252 1124.87 543.115C1123.45 543.965 1121.86 544.389 1120.1 544.389ZM1176.76 557V512.776H1203.28V517.527H1182.12V532.47H1201.29V537.22H1182.12V557H1176.76ZM1222.8 557.691C1219.81 557.691 1217.18 556.978 1214.92 555.553C1212.67 554.128 1210.92 552.134 1209.65 549.572C1208.4 547.009 1207.77 544.015 1207.77 540.589C1207.77 537.134 1208.4 534.118 1209.65 531.541C1210.92 528.964 1212.67 526.963 1214.92 525.538C1217.18 524.113 1219.81 523.4 1222.8 523.4C1225.8 523.4 1228.42 524.113 1230.66 525.538C1232.92 526.963 1234.68 528.964 1235.93 531.541C1237.2 534.118 1237.83 537.134 1237.83 540.589C1237.83 544.015 1237.2 547.009 1235.93 549.572C1234.68 552.134 1232.92 554.128 1230.66 555.553C1228.42 556.978 1225.8 557.691 1222.8 557.691ZM1222.8 553.113C1225.08 553.113 1226.95 552.53 1228.42 551.364C1229.88 550.198 1230.97 548.665 1231.68 546.765C1232.38 544.864 1232.73 542.806 1232.73 540.589C1232.73 538.372 1232.38 536.306 1231.68 534.391C1230.97 532.477 1229.88 530.929 1228.42 529.749C1226.95 528.568 1225.08 527.978 1222.8 527.978C1220.53 527.978 1218.66 528.568 1217.19 529.749C1215.72 530.929 1214.63 532.477 1213.93 534.391C1213.22 536.306 1212.87 538.372 1212.87 540.589C1212.87 542.806 1213.22 544.864 1213.93 546.765C1214.63 548.665 1215.72 550.198 1217.19 551.364C1218.66 552.53 1220.53 553.113 1222.8 553.113ZM1245.61 557V523.832H1250.53V528.842H1250.88C1251.48 527.201 1252.58 525.869 1254.16 524.847C1255.74 523.825 1257.53 523.314 1259.52 523.314C1259.89 523.314 1260.36 523.321 1260.92 523.336C1261.48 523.35 1261.91 523.371 1262.19 523.4V528.583C1262.02 528.54 1261.63 528.475 1261.01 528.388C1260.4 528.288 1259.76 528.237 1259.08 528.237C1257.47 528.237 1256.03 528.576 1254.77 529.252C1253.51 529.914 1252.52 530.836 1251.79 532.016C1251.07 533.182 1250.71 534.514 1250.71 536.011V557H1245.61ZM1284.74 523.832V528.151H1267.55V523.832H1284.74ZM1272.56 515.886H1277.65V547.499C1277.65 548.938 1277.86 550.018 1278.28 550.738C1278.71 551.443 1279.26 551.918 1279.92 552.163C1280.6 552.393 1281.31 552.509 1282.06 552.509C1282.62 552.509 1283.08 552.48 1283.44 552.422C1283.8 552.35 1284.09 552.293 1284.31 552.249L1285.34 556.827C1285 556.957 1284.51 557.086 1283.9 557.216C1283.28 557.36 1282.49 557.432 1281.54 557.432C1280.1 557.432 1278.69 557.122 1277.31 556.503C1275.94 555.884 1274.8 554.941 1273.9 553.675C1273 552.408 1272.56 550.81 1272.56 548.881V515.886ZM1310.2 512.776H1316.59L1331.62 549.485H1332.14L1347.16 512.776H1353.56V557H1348.55V523.4H1348.11L1334.29 557H1329.46L1315.64 523.4H1315.21V557H1310.2V512.776ZM1366.89 569.438C1366.02 569.438 1365.25 569.366 1364.57 569.222C1363.9 569.092 1363.43 568.963 1363.17 568.833L1364.47 564.342C1365.7 564.659 1366.8 564.774 1367.75 564.687C1368.7 564.601 1369.54 564.176 1370.28 563.413C1371.02 562.665 1371.71 561.448 1372.33 559.764L1373.28 557.173L1361.01 523.832H1366.54L1375.7 550.263H1376.04L1385.2 523.832H1390.72L1376.65 561.837C1376.01 563.55 1375.23 564.968 1374.29 566.091C1373.36 567.228 1372.27 568.07 1371.03 568.617C1369.81 569.164 1368.43 569.438 1366.89 569.438ZM1410.17 557.691C1406.97 557.691 1404.22 556.986 1401.9 555.575C1399.6 554.15 1397.82 552.163 1396.57 549.615C1395.33 547.053 1394.71 544.073 1394.71 540.675C1394.71 537.278 1395.33 534.283 1396.57 531.692C1397.82 529.087 1399.56 527.057 1401.79 525.603C1404.04 524.134 1406.66 523.4 1409.65 523.4C1411.38 523.4 1413.08 523.688 1414.77 524.264C1416.45 524.84 1417.99 525.776 1419.37 527.071C1420.75 528.352 1421.85 530.051 1422.67 532.167C1423.49 534.283 1423.9 536.889 1423.9 539.984V542.144H1398.34V537.738H1418.72C1418.72 535.867 1418.35 534.197 1417.6 532.729C1416.86 531.26 1415.81 530.102 1414.45 529.252C1413.09 528.403 1411.49 527.978 1409.65 527.978C1407.62 527.978 1405.87 528.482 1404.38 529.49C1402.91 530.483 1401.78 531.779 1400.99 533.377C1400.2 534.974 1399.8 536.688 1399.8 538.516V541.453C1399.8 543.957 1400.24 546.081 1401.1 547.823C1401.98 549.55 1403.19 550.867 1404.75 551.774C1406.3 552.667 1408.11 553.113 1410.17 553.113C1411.51 553.113 1412.72 552.926 1413.8 552.552C1414.89 552.163 1415.83 551.587 1416.63 550.824C1417.42 550.047 1418.03 549.082 1418.46 547.931L1423.38 549.313C1422.87 550.983 1422 552.451 1420.77 553.718C1419.55 554.97 1418.04 555.949 1416.24 556.655C1414.44 557.345 1412.42 557.691 1410.17 557.691ZM1431.66 557V523.832H1436.58V528.842H1436.92C1437.53 527.201 1438.62 525.869 1440.21 524.847C1441.79 523.825 1443.58 523.314 1445.56 523.314C1445.94 523.314 1446.4 523.321 1446.97 523.336C1447.53 523.35 1447.95 523.371 1448.24 523.4V528.583C1448.07 528.54 1447.67 528.475 1447.05 528.388C1446.45 528.288 1445.81 528.237 1445.13 528.237C1443.52 528.237 1442.08 528.576 1440.81 529.252C1439.56 529.914 1438.57 530.836 1437.83 532.016C1437.11 533.182 1436.75 534.514 1436.75 536.011V557H1431.66ZM1477.77 531.26L1473.2 532.556C1472.91 531.793 1472.48 531.052 1471.92 530.332C1471.38 529.598 1470.63 528.993 1469.68 528.518C1468.73 528.043 1467.51 527.805 1466.03 527.805C1464 527.805 1462.31 528.273 1460.95 529.209C1459.61 530.13 1458.94 531.304 1458.94 532.729C1458.94 533.996 1459.4 534.996 1460.33 535.73C1461.25 536.464 1462.69 537.076 1464.65 537.566L1469.57 538.775C1472.53 539.495 1474.74 540.596 1476.2 542.079C1477.65 543.547 1478.38 545.44 1478.38 547.758C1478.38 549.658 1477.83 551.357 1476.74 552.854C1475.66 554.351 1474.15 555.532 1472.2 556.395C1470.26 557.259 1468 557.691 1465.42 557.691C1462.04 557.691 1459.24 556.957 1457.02 555.488C1454.81 554.02 1453.4 551.875 1452.81 549.054L1457.65 547.844C1458.11 549.629 1458.98 550.968 1460.26 551.861C1461.56 552.753 1463.25 553.2 1465.34 553.2C1467.71 553.2 1469.6 552.696 1470.99 551.688C1472.4 550.666 1473.11 549.442 1473.11 548.017C1473.11 546.865 1472.71 545.901 1471.9 545.123C1471.09 544.332 1469.86 543.741 1468.19 543.353L1462.66 542.057C1459.62 541.337 1457.39 540.222 1455.96 538.71C1454.55 537.184 1453.85 535.277 1453.85 532.988C1453.85 531.116 1454.37 529.461 1455.42 528.021C1456.49 526.582 1457.94 525.452 1459.76 524.631C1461.61 523.811 1463.69 523.4 1466.03 523.4C1469.31 523.4 1471.89 524.12 1473.76 525.56C1475.64 526.999 1476.98 528.899 1477.77 531.26ZM1120.1 618.389C1118.36 618.389 1116.77 617.965 1115.33 617.115C1113.89 616.252 1112.74 615.1 1111.87 613.66C1111.03 612.221 1110.6 610.63 1110.6 608.888C1110.6 607.132 1111.03 605.541 1111.87 604.116C1112.74 602.676 1113.89 601.532 1115.33 600.683C1116.77 599.819 1118.36 599.387 1120.1 599.387C1121.86 599.387 1123.45 599.819 1124.87 600.683C1126.31 601.532 1127.46 602.676 1128.31 604.116C1129.17 605.541 1129.6 607.132 1129.6 608.888C1129.6 610.63 1129.17 612.221 1128.31 613.66C1127.46 615.1 1126.31 616.252 1124.87 617.115C1123.45 617.965 1121.86 618.389 1120.1 618.389ZM1211.83 586.776V631H1206.65L1182.55 596.277H1182.12V631H1176.76V586.776H1181.95L1206.13 621.585H1206.56V586.776H1211.83ZM1235.33 631.691C1232.34 631.691 1229.71 630.978 1227.45 629.553C1225.2 628.128 1223.45 626.134 1222.18 623.572C1220.93 621.009 1220.3 618.015 1220.3 614.589C1220.3 611.134 1220.93 608.118 1222.18 605.541C1223.45 602.964 1225.2 600.963 1227.45 599.538C1229.71 598.113 1232.34 597.4 1235.33 597.4C1238.33 597.4 1240.95 598.113 1243.19 599.538C1245.45 600.963 1247.21 602.964 1248.46 605.541C1249.73 608.118 1250.36 611.134 1250.36 614.589C1250.36 618.015 1249.73 621.009 1248.46 623.572C1247.21 626.134 1245.45 628.128 1243.19 629.553C1240.95 630.978 1238.33 631.691 1235.33 631.691ZM1235.33 627.113C1237.61 627.113 1239.48 626.53 1240.95 625.364C1242.41 624.198 1243.5 622.665 1244.21 620.765C1244.91 618.864 1245.26 616.806 1245.26 614.589C1245.26 612.372 1244.91 610.306 1244.21 608.391C1243.5 606.477 1242.41 604.929 1240.95 603.749C1239.48 602.568 1237.61 601.978 1235.33 601.978C1233.06 601.978 1231.19 602.568 1229.72 603.749C1228.25 604.929 1227.16 606.477 1226.46 608.391C1225.75 610.306 1225.4 612.372 1225.4 614.589C1225.4 616.806 1225.75 618.864 1226.46 620.765C1227.16 622.665 1228.25 624.198 1229.72 625.364C1231.19 626.53 1233.06 627.113 1235.33 627.113ZM1258.14 631V597.832H1263.06V602.842H1263.41C1264.01 601.201 1265.11 599.869 1266.69 598.847C1268.27 597.825 1270.06 597.314 1272.05 597.314C1272.42 597.314 1272.89 597.321 1273.45 597.336C1274.01 597.35 1274.44 597.371 1274.72 597.4V602.583C1274.55 602.54 1274.15 602.475 1273.54 602.388C1272.93 602.288 1272.29 602.237 1271.61 602.237C1270 602.237 1268.56 602.576 1267.3 603.252C1266.04 603.914 1265.05 604.836 1264.32 606.016C1263.6 607.182 1263.24 608.514 1263.24 610.011V631H1258.14ZM1297.27 597.832V602.151H1280.08V597.832H1297.27ZM1285.09 589.886H1290.18V621.499C1290.18 622.938 1290.39 624.018 1290.81 624.738C1291.24 625.443 1291.79 625.918 1292.45 626.163C1293.13 626.393 1293.84 626.509 1294.59 626.509C1295.15 626.509 1295.61 626.48 1295.97 626.422C1296.33 626.35 1296.62 626.293 1296.84 626.249L1297.87 630.827C1297.53 630.957 1297.04 631.086 1296.43 631.216C1295.81 631.36 1295.02 631.432 1294.07 631.432C1292.63 631.432 1291.22 631.122 1289.84 630.503C1288.47 629.884 1287.33 628.941 1286.43 627.675C1285.53 626.408 1285.09 624.81 1285.09 622.881V589.886ZM1310.74 611.047V631H1305.65V586.776H1310.74V603.015H1311.17C1311.95 601.302 1313.12 599.941 1314.67 598.933C1316.24 597.911 1318.33 597.4 1320.93 597.4C1323.19 597.4 1325.17 597.854 1326.87 598.761C1328.57 599.653 1329.89 601.028 1330.82 602.885C1331.77 604.728 1332.25 607.074 1332.25 609.925V631H1327.15V610.27C1327.15 607.636 1326.47 605.599 1325.1 604.159C1323.75 602.705 1321.87 601.978 1319.47 601.978C1317.8 601.978 1316.3 602.331 1314.97 603.036C1313.66 603.742 1312.63 604.771 1311.86 606.124C1311.12 607.477 1310.74 609.118 1310.74 611.047ZM1359.37 631V586.776H1385.88V591.527H1364.72V606.47H1383.9V611.22H1364.72V631H1359.37ZM1405.4 631.691C1402.41 631.691 1399.78 630.978 1397.52 629.553C1395.28 628.128 1393.52 626.134 1392.25 623.572C1391 621.009 1390.37 618.015 1390.37 614.589C1390.37 611.134 1391 608.118 1392.25 605.541C1393.52 602.964 1395.28 600.963 1397.52 599.538C1399.78 598.113 1402.41 597.4 1405.4 597.4C1408.4 597.4 1411.02 598.113 1413.26 599.538C1415.52 600.963 1417.28 602.964 1418.53 605.541C1419.8 608.118 1420.43 611.134 1420.43 614.589C1420.43 618.015 1419.8 621.009 1418.53 623.572C1417.28 626.134 1415.52 628.128 1413.26 629.553C1411.02 630.978 1408.4 631.691 1405.4 631.691ZM1405.4 627.113C1407.68 627.113 1409.55 626.53 1411.02 625.364C1412.49 624.198 1413.57 622.665 1414.28 620.765C1414.98 618.864 1415.34 616.806 1415.34 614.589C1415.34 612.372 1414.98 610.306 1414.28 608.391C1413.57 606.477 1412.49 604.929 1411.02 603.749C1409.55 602.568 1407.68 601.978 1405.4 601.978C1403.13 601.978 1401.26 602.568 1399.79 603.749C1398.32 604.929 1397.23 606.477 1396.53 608.391C1395.82 610.306 1395.47 612.372 1395.47 614.589C1395.47 616.806 1395.82 618.864 1396.53 620.765C1397.23 622.665 1398.32 624.198 1399.79 625.364C1401.26 626.53 1403.13 627.113 1405.4 627.113ZM1428.21 631V597.832H1433.13V602.842H1433.48C1434.08 601.201 1435.18 599.869 1436.76 598.847C1438.35 597.825 1440.13 597.314 1442.12 597.314C1442.49 597.314 1442.96 597.321 1443.52 597.336C1444.08 597.35 1444.51 597.371 1444.8 597.4V602.583C1444.62 602.54 1444.23 602.475 1443.61 602.388C1443 602.288 1442.36 602.237 1441.69 602.237C1440.07 602.237 1438.63 602.576 1437.37 603.252C1436.11 603.914 1435.12 604.836 1434.39 606.016C1433.67 607.182 1433.31 608.514 1433.31 610.011V631H1428.21ZM1467.34 597.832V602.151H1450.15V597.832H1467.34ZM1455.16 589.886H1460.26V621.499C1460.26 622.938 1460.46 624.018 1460.88 624.738C1461.31 625.443 1461.86 625.918 1462.52 626.163C1463.2 626.393 1463.91 626.509 1464.66 626.509C1465.22 626.509 1465.68 626.48 1466.04 626.422C1466.4 626.35 1466.69 626.293 1466.91 626.249L1467.94 630.827C1467.6 630.957 1467.12 631.086 1466.5 631.216C1465.88 631.36 1465.09 631.432 1464.14 631.432C1462.7 631.432 1461.29 631.122 1459.91 630.503C1458.54 629.884 1457.41 628.941 1456.5 627.675C1455.61 626.408 1455.16 624.81 1455.16 622.881V589.886ZM1492.8 586.776H1499.19L1514.22 623.485H1514.74L1529.77 586.776H1536.16V631H1531.15V597.4H1530.72L1516.9 631H1512.06L1498.24 597.4H1497.81V631H1492.8V586.776ZM1549.49 643.438C1548.62 643.438 1547.85 643.366 1547.18 643.222C1546.5 643.092 1546.03 642.963 1545.77 642.833L1547.07 638.342C1548.31 638.659 1549.4 638.774 1550.35 638.687C1551.3 638.601 1552.14 638.176 1552.88 637.413C1553.63 636.665 1554.31 635.448 1554.93 633.764L1555.88 631.173L1543.61 597.832H1549.14L1558.3 624.263H1558.64L1567.8 597.832H1573.33L1559.25 635.837C1558.61 637.55 1557.83 638.968 1556.89 640.091C1555.96 641.228 1554.87 642.07 1553.63 642.617C1552.41 643.164 1551.03 643.438 1549.49 643.438ZM1592.77 631.691C1589.58 631.691 1586.82 630.986 1584.5 629.575C1582.2 628.15 1580.42 626.163 1579.17 623.615C1577.93 621.053 1577.31 618.073 1577.31 614.675C1577.31 611.278 1577.93 608.283 1579.17 605.692C1580.42 603.087 1582.16 601.057 1584.39 599.603C1586.64 598.134 1589.26 597.4 1592.25 597.4C1593.98 597.4 1595.69 597.688 1597.37 598.264C1599.05 598.84 1600.59 599.776 1601.97 601.071C1603.35 602.352 1604.45 604.051 1605.27 606.167C1606.09 608.283 1606.5 610.889 1606.5 613.984V616.144H1580.94V611.738H1601.32C1601.32 609.867 1600.95 608.197 1600.2 606.729C1599.46 605.26 1598.41 604.102 1597.05 603.252C1595.69 602.403 1594.1 601.978 1592.25 601.978C1590.22 601.978 1588.47 602.482 1586.98 603.49C1585.52 604.483 1584.39 605.779 1583.59 607.377C1582.8 608.974 1582.41 610.688 1582.41 612.516V615.453C1582.41 617.957 1582.84 620.081 1583.7 621.823C1584.58 623.55 1585.8 624.867 1587.35 625.774C1588.91 626.667 1590.71 627.113 1592.77 627.113C1594.11 627.113 1595.32 626.926 1596.4 626.552C1597.49 626.163 1598.44 625.587 1599.23 624.824C1600.02 624.047 1600.63 623.082 1601.06 621.931L1605.99 623.313C1605.47 624.983 1604.6 626.451 1603.37 627.718C1602.15 628.97 1600.64 629.949 1598.84 630.655C1597.04 631.345 1595.02 631.691 1592.77 631.691ZM1614.26 631V597.832H1619.18V602.842H1619.53C1620.13 601.201 1621.22 599.869 1622.81 598.847C1624.39 597.825 1626.18 597.314 1628.16 597.314C1628.54 597.314 1629.01 597.321 1629.57 597.336C1630.13 597.35 1630.55 597.371 1630.84 597.4V602.583C1630.67 602.54 1630.27 602.475 1629.65 602.388C1629.05 602.288 1628.41 602.237 1627.73 602.237C1626.12 602.237 1624.68 602.576 1623.41 603.252C1622.16 603.914 1621.17 604.836 1620.43 606.016C1619.71 607.182 1619.35 608.514 1619.35 610.011V631H1614.26ZM1660.38 605.26L1655.8 606.556C1655.51 605.793 1655.08 605.052 1654.52 604.332C1653.98 603.598 1653.23 602.993 1652.28 602.518C1651.33 602.043 1650.11 601.805 1648.63 601.805C1646.6 601.805 1644.91 602.273 1643.55 603.209C1642.21 604.13 1641.55 605.304 1641.55 606.729C1641.55 607.996 1642.01 608.996 1642.93 609.73C1643.85 610.464 1645.29 611.076 1647.25 611.566L1652.17 612.775C1655.14 613.495 1657.34 614.596 1658.8 616.079C1660.25 617.547 1660.98 619.44 1660.98 621.758C1660.98 623.658 1660.43 625.357 1659.34 626.854C1658.26 628.351 1656.75 629.532 1654.8 630.395C1652.86 631.259 1650.6 631.691 1648.02 631.691C1644.64 631.691 1641.84 630.957 1639.62 629.488C1637.41 628.02 1636 625.875 1635.41 623.054L1640.25 621.844C1640.71 623.629 1641.58 624.968 1642.86 625.861C1644.16 626.753 1645.85 627.2 1647.94 627.2C1650.31 627.2 1652.2 626.696 1653.59 625.688C1655.01 624.666 1655.71 623.442 1655.71 622.017C1655.71 620.865 1655.31 619.901 1654.5 619.123C1653.7 618.332 1652.46 617.741 1650.79 617.353L1645.26 616.057C1642.22 615.337 1639.99 614.222 1638.57 612.71C1637.15 611.184 1636.45 609.277 1636.45 606.988C1636.45 605.116 1636.97 603.461 1638.03 602.021C1639.09 600.582 1640.54 599.452 1642.37 598.631C1644.21 597.811 1646.3 597.4 1648.63 597.4C1651.91 597.4 1654.49 598.12 1656.36 599.56C1658.24 600.999 1659.58 602.899 1660.38 605.26ZM1120.1 692.389C1118.36 692.389 1116.77 691.965 1115.33 691.115C1113.89 690.252 1112.74 689.1 1111.87 687.66C1111.03 686.221 1110.6 684.63 1110.6 682.888C1110.6 681.132 1111.03 679.541 1111.87 678.116C1112.74 676.676 1113.89 675.532 1115.33 674.683C1116.77 673.819 1118.36 673.387 1120.1 673.387C1121.86 673.387 1123.45 673.819 1124.87 674.683C1126.31 675.532 1127.46 676.676 1128.31 678.116C1129.17 679.541 1129.6 681.132 1129.6 682.888C1129.6 684.63 1129.17 686.221 1128.31 687.66C1127.46 689.1 1126.31 690.252 1124.87 691.115C1123.45 691.965 1121.86 692.389 1120.1 692.389ZM1176.76 705V660.776H1203.28V665.527H1182.12V680.47H1201.29V685.22H1182.12V705H1176.76ZM1222.8 705.691C1219.81 705.691 1217.18 704.978 1214.92 703.553C1212.67 702.128 1210.92 700.134 1209.65 697.572C1208.4 695.009 1207.77 692.015 1207.77 688.589C1207.77 685.134 1208.4 682.118 1209.65 679.541C1210.92 676.964 1212.67 674.963 1214.92 673.538C1217.18 672.113 1219.81 671.4 1222.8 671.4C1225.8 671.4 1228.42 672.113 1230.66 673.538C1232.92 674.963 1234.68 676.964 1235.93 679.541C1237.2 682.118 1237.83 685.134 1237.83 688.589C1237.83 692.015 1237.2 695.009 1235.93 697.572C1234.68 700.134 1232.92 702.128 1230.66 703.553C1228.42 704.978 1225.8 705.691 1222.8 705.691ZM1222.8 701.113C1225.08 701.113 1226.95 700.53 1228.42 699.364C1229.88 698.198 1230.97 696.665 1231.68 694.765C1232.38 692.864 1232.73 690.806 1232.73 688.589C1232.73 686.372 1232.38 684.306 1231.68 682.391C1230.97 680.477 1229.88 678.929 1228.42 677.749C1226.95 676.568 1225.08 675.978 1222.8 675.978C1220.53 675.978 1218.66 676.568 1217.19 677.749C1215.72 678.929 1214.63 680.477 1213.93 682.391C1213.22 684.306 1212.87 686.372 1212.87 688.589C1212.87 690.806 1213.22 692.864 1213.93 694.765C1214.63 696.665 1215.72 698.198 1217.19 699.364C1218.66 700.53 1220.53 701.113 1222.8 701.113ZM1245.61 705V671.832H1250.53V676.842H1250.88C1251.48 675.201 1252.58 673.869 1254.16 672.847C1255.74 671.825 1257.53 671.314 1259.52 671.314C1259.89 671.314 1260.36 671.321 1260.92 671.336C1261.48 671.35 1261.91 671.371 1262.19 671.4V676.583C1262.02 676.54 1261.63 676.475 1261.01 676.388C1260.4 676.288 1259.76 676.237 1259.08 676.237C1257.47 676.237 1256.03 676.576 1254.77 677.252C1253.51 677.914 1252.52 678.836 1251.79 680.016C1251.07 681.182 1250.71 682.514 1250.71 684.011V705H1245.61ZM1284.74 671.832V676.151H1267.55V671.832H1284.74ZM1272.56 663.886H1277.65V695.499C1277.65 696.938 1277.86 698.018 1278.28 698.738C1278.71 699.443 1279.26 699.918 1279.92 700.163C1280.6 700.393 1281.31 700.509 1282.06 700.509C1282.62 700.509 1283.08 700.48 1283.44 700.422C1283.8 700.35 1284.09 700.293 1284.31 700.249L1285.34 704.827C1285 704.957 1284.51 705.086 1283.9 705.216C1283.28 705.36 1282.49 705.432 1281.54 705.432C1280.1 705.432 1278.69 705.122 1277.31 704.503C1275.94 703.884 1274.8 702.941 1273.9 701.675C1273 700.408 1272.56 698.81 1272.56 696.881V663.886ZM1310.2 660.776H1316.59L1331.62 697.485H1332.14L1347.16 660.776H1353.56V705H1348.55V671.4H1348.11L1334.29 705H1329.46L1315.64 671.4H1315.21V705H1310.2V660.776ZM1366.89 717.438C1366.02 717.438 1365.25 717.366 1364.57 717.222C1363.9 717.092 1363.43 716.963 1363.17 716.833L1364.47 712.342C1365.7 712.659 1366.8 712.774 1367.75 712.687C1368.7 712.601 1369.54 712.176 1370.28 711.413C1371.02 710.665 1371.71 709.448 1372.33 707.764L1373.28 705.173L1361.01 671.832H1366.54L1375.7 698.263H1376.04L1385.2 671.832H1390.72L1376.65 709.837C1376.01 711.55 1375.23 712.968 1374.29 714.091C1373.36 715.228 1372.27 716.07 1371.03 716.617C1369.81 717.164 1368.43 717.438 1366.89 717.438ZM1410.17 705.691C1406.97 705.691 1404.22 704.986 1401.9 703.575C1399.6 702.15 1397.82 700.163 1396.57 697.615C1395.33 695.053 1394.71 692.073 1394.71 688.675C1394.71 685.278 1395.33 682.283 1396.57 679.692C1397.82 677.087 1399.56 675.057 1401.79 673.603C1404.04 672.134 1406.66 671.4 1409.65 671.4C1411.38 671.4 1413.08 671.688 1414.77 672.264C1416.45 672.84 1417.99 673.776 1419.37 675.071C1420.75 676.352 1421.85 678.051 1422.67 680.167C1423.49 682.283 1423.9 684.889 1423.9 687.984V690.144H1398.34V685.738H1418.72C1418.72 683.867 1418.35 682.197 1417.6 680.729C1416.86 679.26 1415.81 678.102 1414.45 677.252C1413.09 676.403 1411.49 675.978 1409.65 675.978C1407.62 675.978 1405.87 676.482 1404.38 677.49C1402.91 678.483 1401.78 679.779 1400.99 681.377C1400.2 682.974 1399.8 684.688 1399.8 686.516V689.453C1399.8 691.957 1400.24 694.081 1401.1 695.823C1401.98 697.55 1403.19 698.867 1404.75 699.774C1406.3 700.667 1408.11 701.113 1410.17 701.113C1411.51 701.113 1412.72 700.926 1413.8 700.552C1414.89 700.163 1415.83 699.587 1416.63 698.824C1417.42 698.047 1418.03 697.082 1418.46 695.931L1423.38 697.313C1422.87 698.983 1422 700.451 1420.77 701.718C1419.55 702.97 1418.04 703.949 1416.24 704.655C1414.44 705.345 1412.42 705.691 1410.17 705.691ZM1431.66 705V671.832H1436.58V676.842H1436.92C1437.53 675.201 1438.62 673.869 1440.21 672.847C1441.79 671.825 1443.58 671.314 1445.56 671.314C1445.94 671.314 1446.4 671.321 1446.97 671.336C1447.53 671.35 1447.95 671.371 1448.24 671.4V676.583C1448.07 676.54 1447.67 676.475 1447.05 676.388C1446.45 676.288 1445.81 676.237 1445.13 676.237C1443.52 676.237 1442.08 676.576 1440.81 677.252C1439.56 677.914 1438.57 678.836 1437.83 680.016C1437.11 681.182 1436.75 682.514 1436.75 684.011V705H1431.66ZM1477.77 679.26L1473.2 680.556C1472.91 679.793 1472.48 679.052 1471.92 678.332C1471.38 677.598 1470.63 676.993 1469.68 676.518C1468.73 676.043 1467.51 675.805 1466.03 675.805C1464 675.805 1462.31 676.273 1460.95 677.209C1459.61 678.13 1458.94 679.304 1458.94 680.729C1458.94 681.996 1459.4 682.996 1460.33 683.73C1461.25 684.464 1462.69 685.076 1464.65 685.566L1469.57 686.775C1472.53 687.495 1474.74 688.596 1476.2 690.079C1477.65 691.547 1478.38 693.44 1478.38 695.758C1478.38 697.658 1477.83 699.357 1476.74 700.854C1475.66 702.351 1474.15 703.532 1472.2 704.395C1470.26 705.259 1468 705.691 1465.42 705.691C1462.04 705.691 1459.24 704.957 1457.02 703.488C1454.81 702.02 1453.4 699.875 1452.81 697.054L1457.65 695.844C1458.11 697.629 1458.98 698.968 1460.26 699.861C1461.56 700.753 1463.25 701.2 1465.34 701.2C1467.71 701.2 1469.6 700.696 1470.99 699.688C1472.4 698.666 1473.11 697.442 1473.11 696.017C1473.11 694.865 1472.71 693.901 1471.9 693.123C1471.09 692.332 1469.86 691.741 1468.19 691.353L1462.66 690.057C1459.62 689.337 1457.39 688.222 1455.96 686.71C1454.55 685.184 1453.85 683.277 1453.85 680.988C1453.85 679.116 1454.37 677.461 1455.42 676.021C1456.49 674.582 1457.94 673.452 1459.76 672.631C1461.61 671.811 1463.69 671.4 1466.03 671.4C1469.31 671.4 1471.89 672.12 1473.76 673.56C1475.64 674.999 1476.98 676.899 1477.77 679.26ZM1503.84 705V660.776H1519.3C1522.38 660.776 1524.93 661.309 1526.93 662.374C1528.93 663.425 1530.42 664.843 1531.4 666.628C1532.38 668.399 1532.86 670.364 1532.86 672.523C1532.86 674.423 1532.53 675.993 1531.85 677.231C1531.19 678.469 1530.31 679.448 1529.22 680.167C1528.14 680.887 1526.96 681.42 1525.7 681.765V682.197C1527.05 682.283 1528.41 682.759 1529.78 683.622C1531.14 684.486 1532.29 685.724 1533.21 687.336C1534.13 688.949 1534.59 690.921 1534.59 693.253C1534.59 695.47 1534.09 697.464 1533.08 699.234C1532.07 701.005 1530.48 702.409 1528.31 703.445C1526.13 704.482 1523.31 705 1519.82 705H1503.84ZM1509.2 700.249H1519.82C1523.32 700.249 1525.8 699.573 1527.27 698.22C1528.75 696.852 1529.5 695.196 1529.5 693.253C1529.5 691.756 1529.11 690.374 1528.35 689.107C1527.59 687.826 1526.5 686.804 1525.09 686.041C1523.68 685.263 1522.01 684.875 1520.08 684.875H1509.2V700.249ZM1509.2 680.21H1519.13C1520.74 680.21 1522.2 679.894 1523.49 679.26C1524.8 678.627 1525.84 677.734 1526.6 676.583C1527.38 675.431 1527.77 674.078 1527.77 672.523C1527.77 670.58 1527.09 668.931 1525.74 667.578C1524.39 666.211 1522.24 665.527 1519.3 665.527H1509.2V680.21ZM1556.61 705.691C1553.41 705.691 1550.65 704.986 1548.34 703.575C1546.03 702.15 1544.26 700.163 1543 697.615C1541.76 695.053 1541.15 692.073 1541.15 688.675C1541.15 685.278 1541.76 682.283 1543 679.692C1544.26 677.087 1546 675.057 1548.23 673.603C1550.47 672.134 1553.09 671.4 1556.09 671.4C1557.82 671.4 1559.52 671.688 1561.21 672.264C1562.89 672.84 1564.42 673.776 1565.81 675.071C1567.19 676.352 1568.29 678.051 1569.11 680.167C1569.93 682.283 1570.34 684.889 1570.34 687.984V690.144H1544.77V685.738H1565.16C1565.16 683.867 1564.78 682.197 1564.04 680.729C1563.3 679.26 1562.25 678.102 1560.88 677.252C1559.53 676.403 1557.93 675.978 1556.09 675.978C1554.06 675.978 1552.3 676.482 1550.82 677.49C1549.35 678.483 1548.22 679.779 1547.43 681.377C1546.64 682.974 1546.24 684.688 1546.24 686.516V689.453C1546.24 691.957 1546.67 694.081 1547.54 695.823C1548.42 697.55 1549.63 698.867 1551.19 699.774C1552.74 700.667 1554.55 701.113 1556.61 701.113C1557.95 701.113 1559.16 700.926 1560.23 700.552C1561.33 700.163 1562.27 699.587 1563.06 698.824C1563.86 698.047 1564.47 697.082 1564.9 695.931L1569.82 697.313C1569.3 698.983 1568.43 700.451 1567.21 701.718C1565.99 702.97 1564.47 703.949 1562.67 704.655C1560.88 705.345 1558.85 705.691 1556.61 705.691ZM1587.85 705.777C1585.75 705.777 1583.84 705.381 1582.13 704.59C1580.42 703.784 1579.06 702.625 1578.05 701.113C1577.04 699.587 1576.54 697.745 1576.54 695.585C1576.54 693.685 1576.91 692.145 1577.66 690.964C1578.41 689.769 1579.41 688.834 1580.66 688.157C1581.91 687.48 1583.3 686.977 1584.81 686.645C1586.33 686.3 1587.87 686.026 1589.41 685.825C1591.42 685.566 1593.06 685.371 1594.31 685.242C1595.58 685.098 1596.5 684.86 1597.07 684.529C1597.66 684.198 1597.96 683.622 1597.96 682.802V682.629C1597.96 680.498 1597.38 678.843 1596.21 677.662C1595.06 676.482 1593.31 675.892 1590.96 675.892C1588.53 675.892 1586.62 676.424 1585.24 677.49C1583.86 678.555 1582.89 679.692 1582.32 680.901L1577.49 679.174C1578.35 677.159 1579.5 675.589 1580.94 674.467C1582.4 673.329 1583.98 672.538 1585.69 672.091C1587.42 671.631 1589.12 671.4 1590.79 671.4C1591.85 671.4 1593.08 671.53 1594.46 671.789C1595.86 672.034 1597.2 672.545 1598.5 673.322C1599.81 674.099 1600.9 675.273 1601.76 676.842C1602.62 678.411 1603.05 680.513 1603.05 683.147V705H1597.96V700.509H1597.7C1597.35 701.228 1596.78 701.998 1595.97 702.819C1595.17 703.64 1594.09 704.338 1592.75 704.914C1591.42 705.489 1589.78 705.777 1587.85 705.777ZM1588.63 701.2C1590.65 701.2 1592.34 700.804 1593.73 700.012C1595.12 699.22 1596.17 698.198 1596.88 696.946C1597.6 695.693 1597.96 694.376 1597.96 692.994V688.33C1597.74 688.589 1597.27 688.826 1596.53 689.042C1595.81 689.244 1594.98 689.424 1594.03 689.582C1593.09 689.726 1592.18 689.856 1591.29 689.971C1590.41 690.072 1589.7 690.158 1589.15 690.23C1587.82 690.403 1586.59 690.683 1585.43 691.072C1584.3 691.446 1583.38 692.015 1582.67 692.778C1581.98 693.527 1581.63 694.549 1581.63 695.844C1581.63 697.615 1582.29 698.954 1583.6 699.861C1584.92 700.753 1586.6 701.2 1588.63 701.2ZM1625.83 705.691C1622.72 705.691 1620.04 704.957 1617.8 703.488C1615.55 702.02 1613.82 699.997 1612.62 697.421C1611.41 694.844 1610.8 691.9 1610.8 688.589C1610.8 685.22 1611.42 682.247 1612.66 679.671C1613.91 677.079 1615.65 675.057 1617.88 673.603C1620.13 672.134 1622.75 671.4 1625.74 671.4C1628.08 671.4 1630.18 671.832 1632.05 672.696C1633.92 673.56 1635.45 674.769 1636.65 676.324C1637.84 677.878 1638.59 679.692 1638.87 681.765H1633.78C1633.39 680.254 1632.52 678.915 1631.19 677.749C1629.86 676.568 1628.08 675.978 1625.83 675.978C1623.84 675.978 1622.1 676.496 1620.61 677.533C1619.12 678.555 1617.96 680.002 1617.13 681.873C1616.31 683.73 1615.9 685.911 1615.9 688.416C1615.9 690.979 1616.3 693.21 1617.11 695.11C1617.93 697.01 1619.08 698.486 1620.56 699.537C1622.06 700.588 1623.82 701.113 1625.83 701.113C1627.16 701.113 1628.36 700.883 1629.44 700.422C1630.52 699.961 1631.43 699.299 1632.18 698.436C1632.93 697.572 1633.46 696.535 1633.78 695.326H1638.87C1638.59 697.284 1637.87 699.047 1636.74 700.616C1635.61 702.171 1634.12 703.409 1632.27 704.331C1630.42 705.238 1628.28 705.691 1625.83 705.691ZM1651.42 685.047V705H1646.32V660.776H1651.42V677.015H1651.85C1652.63 675.302 1653.79 673.941 1655.35 672.933C1656.92 671.911 1659.01 671.4 1661.61 671.4C1663.87 671.4 1665.85 671.854 1667.55 672.761C1669.25 673.653 1670.57 675.028 1671.5 676.885C1672.45 678.728 1672.93 681.074 1672.93 683.925V705H1667.83V684.27C1667.83 681.636 1667.15 679.599 1665.78 678.159C1664.43 676.705 1662.55 675.978 1660.14 675.978C1658.47 675.978 1656.98 676.331 1655.65 677.036C1654.34 677.742 1653.31 678.771 1652.54 680.124C1651.79 681.477 1651.42 683.118 1651.42 685.047ZM1120.1 766.389C1118.36 766.389 1116.77 765.965 1115.33 765.115C1113.89 764.252 1112.74 763.1 1111.87 761.66C1111.03 760.221 1110.6 758.63 1110.6 756.888C1110.6 755.132 1111.03 753.541 1111.87 752.116C1112.74 750.676 1113.89 749.532 1115.33 748.683C1116.77 747.819 1118.36 747.387 1120.1 747.387C1121.86 747.387 1123.45 747.819 1124.87 748.683C1126.31 749.532 1127.46 750.676 1128.31 752.116C1129.17 753.541 1129.6 755.132 1129.6 756.888C1129.6 758.63 1129.17 760.221 1128.31 761.66C1127.46 763.1 1126.31 764.252 1124.87 765.115C1123.45 765.965 1121.86 766.389 1120.1 766.389ZM1200.95 745.832C1200.69 743.644 1199.64 741.945 1197.8 740.736C1195.95 739.527 1193.69 738.922 1191.02 738.922C1189.06 738.922 1187.34 739.239 1185.88 739.872C1184.42 740.506 1183.29 741.377 1182.46 742.485C1181.66 743.594 1181.26 744.853 1181.26 746.264C1181.26 747.444 1181.54 748.459 1182.1 749.309C1182.67 750.144 1183.41 750.842 1184.3 751.403C1185.19 751.95 1186.13 752.404 1187.11 752.764C1188.09 753.109 1188.99 753.39 1189.81 753.606L1194.3 754.815C1195.45 755.117 1196.73 755.535 1198.14 756.068C1199.57 756.6 1200.93 757.327 1202.22 758.249C1203.53 759.155 1204.61 760.321 1205.46 761.747C1206.31 763.172 1206.74 764.921 1206.74 766.994C1206.74 769.384 1206.11 771.543 1204.86 773.472C1203.62 775.401 1201.81 776.934 1199.42 778.071C1197.04 779.209 1194.15 779.777 1190.76 779.777C1187.59 779.777 1184.85 779.266 1182.53 778.244C1180.23 777.222 1178.41 775.797 1177.09 773.969C1175.78 772.14 1175.04 770.017 1174.86 767.599H1180.39C1180.54 769.268 1181.1 770.65 1182.08 771.745C1183.07 772.824 1184.32 773.63 1185.83 774.163C1187.36 774.681 1189 774.94 1190.76 774.94C1192.8 774.94 1194.64 774.609 1196.26 773.947C1197.89 773.27 1199.18 772.335 1200.13 771.14C1201.08 769.931 1201.55 768.52 1201.55 766.908C1201.55 765.439 1201.14 764.244 1200.32 763.323C1199.5 762.402 1198.42 761.653 1197.08 761.077C1195.74 760.501 1194.3 759.998 1192.74 759.566L1187.3 758.011C1183.85 757.018 1181.11 755.6 1179.1 753.757C1177.08 751.914 1176.07 749.503 1176.07 746.523C1176.07 744.047 1176.74 741.888 1178.08 740.045C1179.43 738.188 1181.25 736.748 1183.52 735.726C1185.81 734.69 1188.37 734.172 1191.19 734.172C1194.04 734.172 1196.57 734.683 1198.79 735.705C1201.01 736.712 1202.76 738.094 1204.06 739.851C1205.37 741.607 1206.06 743.601 1206.13 745.832H1200.95ZM1224.61 779.777C1222.51 779.777 1220.6 779.381 1218.89 778.59C1217.17 777.784 1215.81 776.625 1214.81 775.113C1213.8 773.587 1213.29 771.745 1213.29 769.585C1213.29 767.685 1213.67 766.145 1214.42 764.964C1215.17 763.769 1216.17 762.834 1217.42 762.157C1218.67 761.48 1220.05 760.977 1221.57 760.645C1223.09 760.3 1224.62 760.026 1226.16 759.825C1228.18 759.566 1229.81 759.371 1231.07 759.242C1232.33 759.098 1233.25 758.86 1233.83 758.529C1234.42 758.198 1234.72 757.622 1234.72 756.802V756.629C1234.72 754.498 1234.13 752.843 1232.97 751.662C1231.82 750.482 1230.07 749.892 1227.72 749.892C1225.29 749.892 1223.38 750.424 1222 751.49C1220.62 752.555 1219.64 753.692 1219.08 754.901L1214.25 753.174C1215.11 751.159 1216.26 749.589 1217.7 748.467C1219.15 747.329 1220.74 746.538 1222.45 746.091C1224.18 745.631 1225.88 745.4 1227.55 745.4C1228.61 745.4 1229.84 745.53 1231.22 745.789C1232.61 746.034 1233.96 746.545 1235.26 747.322C1236.57 748.099 1237.65 749.273 1238.52 750.842C1239.38 752.411 1239.81 754.513 1239.81 757.147V779H1234.72V774.509H1234.46C1234.11 775.228 1233.54 775.998 1232.73 776.819C1231.92 777.64 1230.85 778.338 1229.51 778.914C1228.17 779.489 1226.54 779.777 1224.61 779.777ZM1225.39 775.2C1227.4 775.2 1229.1 774.804 1230.48 774.012C1231.88 773.22 1232.93 772.198 1233.64 770.946C1234.36 769.693 1234.72 768.376 1234.72 766.994V762.33C1234.5 762.589 1234.02 762.826 1233.29 763.042C1232.57 763.244 1231.74 763.424 1230.79 763.582C1229.85 763.726 1228.94 763.856 1228.04 763.971C1227.17 764.072 1226.45 764.158 1225.91 764.23C1224.58 764.403 1223.34 764.683 1222.19 765.072C1221.05 765.446 1220.13 766.015 1219.43 766.778C1218.74 767.527 1218.39 768.549 1218.39 769.844C1218.39 771.615 1219.05 772.954 1220.36 773.861C1221.68 774.753 1223.36 775.2 1225.39 775.2ZM1254.21 759.047V779H1249.11V745.832H1254.04V751.015H1254.47C1255.25 749.33 1256.43 747.977 1258.01 746.955C1259.59 745.919 1261.64 745.4 1264.14 745.4C1266.39 745.4 1268.35 745.861 1270.04 746.782C1271.72 747.689 1273.03 749.071 1273.97 750.928C1274.9 752.771 1275.37 755.103 1275.37 757.925V779H1270.28V758.27C1270.28 755.664 1269.6 753.635 1268.25 752.181C1266.89 750.712 1265.04 749.978 1262.67 749.978C1261.05 749.978 1259.59 750.331 1258.31 751.036C1257.05 751.742 1256.04 752.771 1255.31 754.124C1254.58 755.477 1254.21 757.118 1254.21 759.047ZM1284.68 779V745.832H1289.78V779H1284.68ZM1287.27 740.304C1286.28 740.304 1285.42 739.966 1284.71 739.289C1284 738.613 1283.65 737.799 1283.65 736.849C1283.65 735.899 1284 735.086 1284.71 734.409C1285.42 733.733 1286.28 733.394 1287.27 733.394C1288.27 733.394 1289.12 733.733 1289.82 734.409C1290.54 735.086 1290.9 735.899 1290.9 736.849C1290.9 737.799 1290.54 738.613 1289.82 739.289C1289.12 739.966 1288.27 740.304 1287.27 740.304ZM1299.8 779V734.776H1304.9V751.101H1305.33C1305.71 750.525 1306.23 749.791 1306.89 748.898C1307.56 747.992 1308.53 747.185 1309.78 746.48C1311.05 745.76 1312.76 745.4 1314.92 745.4C1317.71 745.4 1320.17 746.098 1322.31 747.495C1324.44 748.891 1326.1 750.871 1327.29 753.433C1328.49 755.996 1329.09 759.019 1329.09 762.502C1329.09 766.015 1328.49 769.06 1327.29 771.637C1326.1 774.199 1324.44 776.186 1322.33 777.596C1320.21 778.993 1317.77 779.691 1315.01 779.691C1312.88 779.691 1311.17 779.338 1309.89 778.633C1308.61 777.913 1307.62 777.1 1306.93 776.193C1306.24 775.271 1305.71 774.509 1305.33 773.904H1304.73V779H1299.8ZM1304.81 762.416C1304.81 764.921 1305.18 767.131 1305.92 769.045C1306.65 770.946 1307.72 772.436 1309.13 773.515C1310.54 774.581 1312.27 775.113 1314.32 775.113C1316.45 775.113 1318.22 774.552 1319.65 773.429C1321.09 772.292 1322.17 770.766 1322.89 768.851C1323.62 766.922 1323.99 764.777 1323.99 762.416C1323.99 760.084 1323.63 757.982 1322.91 756.111C1322.2 754.225 1321.13 752.735 1319.69 751.641C1318.27 750.532 1316.47 749.978 1314.32 749.978C1312.24 749.978 1310.5 750.504 1309.09 751.554C1307.68 752.591 1306.61 754.045 1305.89 755.916C1305.17 757.773 1304.81 759.94 1304.81 762.416ZM1350.79 779.691C1347.59 779.691 1344.83 778.986 1342.52 777.575C1340.21 776.15 1338.44 774.163 1337.18 771.615C1335.95 769.053 1335.33 766.073 1335.33 762.675C1335.33 759.278 1335.95 756.283 1337.18 753.692C1338.44 751.087 1340.18 749.057 1342.41 747.603C1344.65 746.134 1347.27 745.4 1350.27 745.4C1352 745.4 1353.7 745.688 1355.39 746.264C1357.07 746.84 1358.6 747.776 1359.99 749.071C1361.37 750.352 1362.47 752.051 1363.29 754.167C1364.11 756.283 1364.52 758.889 1364.52 761.984V764.144H1338.95V759.738H1359.34C1359.34 757.867 1358.96 756.197 1358.22 754.729C1357.48 753.26 1356.43 752.102 1355.06 751.252C1353.71 750.403 1352.11 749.978 1350.27 749.978C1348.24 749.978 1346.48 750.482 1345 751.49C1343.53 752.483 1342.4 753.779 1341.61 755.377C1340.82 756.974 1340.42 758.688 1340.42 760.516V763.453C1340.42 765.957 1340.85 768.081 1341.72 769.823C1342.6 771.55 1343.81 772.867 1345.37 773.774C1346.92 774.667 1348.73 775.113 1350.79 775.113C1352.13 775.113 1353.34 774.926 1354.41 774.552C1355.51 774.163 1356.45 773.587 1357.24 772.824C1358.04 772.047 1358.65 771.082 1359.08 769.931L1364 771.313C1363.48 772.983 1362.61 774.451 1361.39 775.718C1360.17 776.97 1358.65 777.949 1356.85 778.655C1355.06 779.345 1353.03 779.691 1350.79 779.691ZM1377.37 734.776V779H1372.27V734.776H1377.37ZM1120.1 840.389C1118.36 840.389 1116.77 839.965 1115.33 839.115C1113.89 838.252 1112.74 837.1 1111.87 835.66C1111.03 834.221 1110.6 832.63 1110.6 830.888C1110.6 829.132 1111.03 827.541 1111.87 826.116C1112.74 824.676 1113.89 823.532 1115.33 822.683C1116.77 821.819 1118.36 821.387 1120.1 821.387C1121.86 821.387 1123.45 821.819 1124.87 822.683C1126.31 823.532 1127.46 824.676 1128.31 826.116C1129.17 827.541 1129.6 829.132 1129.6 830.888C1129.6 832.63 1129.17 834.221 1128.31 835.66C1127.46 837.1 1126.31 838.252 1124.87 839.115C1123.45 839.965 1121.86 840.389 1120.1 840.389ZM1212.35 822.596H1207C1206.68 821.056 1206.12 819.703 1205.33 818.537C1204.55 817.37 1203.6 816.392 1202.48 815.6C1201.37 814.794 1200.14 814.189 1198.79 813.786C1197.44 813.383 1196.03 813.181 1194.56 813.181C1191.88 813.181 1189.45 813.858 1187.28 815.211C1185.12 816.564 1183.4 818.558 1182.12 821.193C1180.85 823.827 1180.22 827.059 1180.22 830.888C1180.22 834.717 1180.85 837.949 1182.12 840.584C1183.4 843.218 1185.12 845.212 1187.28 846.565C1189.45 847.918 1191.88 848.595 1194.56 848.595C1196.03 848.595 1197.44 848.393 1198.79 847.99C1200.14 847.587 1201.37 846.99 1202.48 846.198C1203.6 845.392 1204.55 844.406 1205.33 843.24C1206.12 842.059 1206.68 840.706 1207 839.18H1212.35C1211.95 841.44 1211.21 843.463 1210.15 845.248C1209.08 847.033 1207.76 848.552 1206.17 849.804C1204.59 851.042 1202.81 851.985 1200.84 852.633C1198.88 853.281 1196.79 853.605 1194.56 853.605C1190.79 853.605 1187.43 852.683 1184.49 850.841C1181.56 848.998 1179.25 846.378 1177.56 842.981C1175.88 839.583 1175.04 835.552 1175.04 830.888C1175.04 826.224 1175.88 822.193 1177.56 818.796C1179.25 815.398 1181.56 812.778 1184.49 810.936C1187.43 809.093 1190.79 808.172 1194.56 808.172C1196.79 808.172 1198.88 808.495 1200.84 809.143C1202.81 809.791 1204.59 810.741 1206.17 811.994C1207.76 813.232 1209.08 814.743 1210.15 816.528C1211.21 818.299 1211.95 820.322 1212.35 822.596ZM1230.07 853.777C1227.97 853.777 1226.06 853.381 1224.35 852.59C1222.64 851.784 1221.28 850.625 1220.27 849.113C1219.26 847.587 1218.76 845.745 1218.76 843.585C1218.76 841.685 1219.13 840.145 1219.88 838.964C1220.63 837.769 1221.63 836.834 1222.88 836.157C1224.13 835.48 1225.52 834.977 1227.03 834.645C1228.55 834.3 1230.09 834.026 1231.63 833.825C1233.64 833.566 1235.28 833.371 1236.53 833.242C1237.8 833.098 1238.72 832.86 1239.29 832.529C1239.88 832.198 1240.18 831.622 1240.18 830.802V830.629C1240.18 828.498 1239.6 826.843 1238.43 825.662C1237.28 824.482 1235.53 823.892 1233.18 823.892C1230.75 823.892 1228.84 824.424 1227.46 825.49C1226.08 826.555 1225.11 827.692 1224.55 828.901L1219.71 827.174C1220.57 825.159 1221.72 823.589 1223.16 822.467C1224.62 821.329 1226.2 820.538 1227.91 820.091C1229.64 819.631 1231.34 819.4 1233.01 819.4C1234.08 819.4 1235.3 819.53 1236.68 819.789C1238.08 820.034 1239.42 820.545 1240.72 821.322C1242.03 822.099 1243.12 823.273 1243.98 824.842C1244.84 826.411 1245.28 828.513 1245.28 831.147V853H1240.18V848.509H1239.92C1239.57 849.228 1239 849.998 1238.19 850.819C1237.39 851.64 1236.31 852.338 1234.97 852.914C1233.64 853.489 1232 853.777 1230.07 853.777ZM1230.85 849.2C1232.87 849.2 1234.56 848.804 1235.95 848.012C1237.34 847.22 1238.39 846.198 1239.1 844.946C1239.82 843.693 1240.18 842.376 1240.18 840.994V836.33C1239.96 836.589 1239.49 836.826 1238.75 837.042C1238.03 837.244 1237.2 837.424 1236.25 837.582C1235.31 837.726 1234.4 837.856 1233.51 837.971C1232.63 838.072 1231.92 838.158 1231.37 838.23C1230.04 838.403 1228.81 838.683 1227.65 839.072C1226.52 839.446 1225.6 840.015 1224.89 840.778C1224.2 841.527 1223.85 842.549 1223.85 843.844C1223.85 845.615 1224.51 846.954 1225.82 847.861C1227.14 848.753 1228.82 849.2 1230.85 849.2ZM1254.58 865.438V819.832H1259.5V825.101H1260.1C1260.48 824.525 1261 823.791 1261.66 822.898C1262.34 821.992 1263.3 821.185 1264.55 820.48C1265.82 819.76 1267.53 819.4 1269.69 819.4C1272.48 819.4 1274.95 820.098 1277.08 821.495C1279.21 822.891 1280.87 824.871 1282.07 827.433C1283.26 829.996 1283.86 833.019 1283.86 836.502C1283.86 840.015 1283.26 843.06 1282.07 845.637C1280.87 848.199 1279.21 850.186 1277.1 851.596C1274.98 852.993 1272.54 853.691 1269.78 853.691C1267.65 853.691 1265.94 853.338 1264.66 852.633C1263.38 851.913 1262.39 851.1 1261.7 850.193C1261.01 849.271 1260.48 848.509 1260.1 847.904H1259.67V865.438H1254.58ZM1259.59 836.416C1259.59 838.921 1259.95 841.131 1260.69 843.045C1261.42 844.946 1262.49 846.436 1263.91 847.515C1265.32 848.581 1267.04 849.113 1269.09 849.113C1271.22 849.113 1273 848.552 1274.42 847.429C1275.86 846.292 1276.94 844.766 1277.66 842.851C1278.39 840.922 1278.76 838.777 1278.76 836.416C1278.76 834.084 1278.4 831.982 1277.68 830.111C1276.98 828.225 1275.9 826.735 1274.46 825.641C1273.04 824.532 1271.25 823.978 1269.09 823.978C1267.01 823.978 1265.27 824.504 1263.86 825.554C1262.45 826.591 1261.39 828.045 1260.67 829.916C1259.95 831.773 1259.59 833.94 1259.59 836.416ZM1306.06 819.832V824.151H1288.87V819.832H1306.06ZM1293.88 811.886H1298.97V843.499C1298.97 844.938 1299.18 846.018 1299.6 846.738C1300.03 847.443 1300.58 847.918 1301.24 848.163C1301.92 848.393 1302.63 848.509 1303.38 848.509C1303.94 848.509 1304.4 848.48 1304.76 848.422C1305.12 848.35 1305.41 848.293 1305.62 848.249L1306.66 852.827C1306.31 852.957 1305.83 853.086 1305.21 853.216C1304.59 853.36 1303.81 853.432 1302.86 853.432C1301.42 853.432 1300.01 853.122 1298.63 852.503C1297.26 851.884 1296.12 850.941 1295.22 849.675C1294.32 848.408 1293.88 846.81 1293.88 844.881V811.886ZM1313.72 853V819.832H1318.82V853H1313.72ZM1316.31 814.304C1315.32 814.304 1314.46 813.966 1313.74 813.289C1313.04 812.613 1312.69 811.799 1312.69 810.849C1312.69 809.899 1313.04 809.086 1313.74 808.409C1314.46 807.733 1315.32 807.394 1316.31 807.394C1317.31 807.394 1318.16 807.733 1318.86 808.409C1319.58 809.086 1319.94 809.899 1319.94 810.849C1319.94 811.799 1319.58 812.613 1318.86 813.289C1318.16 813.966 1317.31 814.304 1316.31 814.304ZM1355.27 819.832L1343.01 853H1337.83L1325.56 819.832H1331.09L1340.24 846.263H1340.59L1349.75 819.832H1355.27ZM1370.75 853.777C1368.65 853.777 1366.74 853.381 1365.03 852.59C1363.32 851.784 1361.95 850.625 1360.95 849.113C1359.94 847.587 1359.44 845.745 1359.44 843.585C1359.44 841.685 1359.81 840.145 1360.56 838.964C1361.31 837.769 1362.31 836.834 1363.56 836.157C1364.81 835.48 1366.19 834.977 1367.71 834.645C1369.23 834.3 1370.76 834.026 1372.31 833.825C1374.32 833.566 1375.95 833.371 1377.21 833.242C1378.47 833.098 1379.4 832.86 1379.97 832.529C1380.56 832.198 1380.86 831.622 1380.86 830.802V830.629C1380.86 828.498 1380.27 826.843 1379.11 825.662C1377.96 824.482 1376.21 823.892 1373.86 823.892C1371.43 823.892 1369.52 824.424 1368.14 825.49C1366.76 826.555 1365.78 827.692 1365.22 828.901L1360.39 827.174C1361.25 825.159 1362.4 823.589 1363.84 822.467C1365.29 821.329 1366.88 820.538 1368.59 820.091C1370.32 819.631 1372.02 819.4 1373.69 819.4C1374.75 819.4 1375.98 819.53 1377.36 819.789C1378.75 820.034 1380.1 820.545 1381.4 821.322C1382.71 822.099 1383.79 823.273 1384.66 824.842C1385.52 826.411 1385.95 828.513 1385.95 831.147V853H1380.86V848.509H1380.6C1380.25 849.228 1379.68 849.998 1378.87 850.819C1378.06 851.64 1376.99 852.338 1375.65 852.914C1374.31 853.489 1372.68 853.777 1370.75 853.777ZM1371.53 849.2C1373.54 849.2 1375.24 848.804 1376.62 848.012C1378.02 847.22 1379.07 846.198 1379.78 844.946C1380.5 843.693 1380.86 842.376 1380.86 840.994V836.33C1380.64 836.589 1380.17 836.826 1379.43 837.042C1378.71 837.244 1377.88 837.424 1376.93 837.582C1375.99 837.726 1375.08 837.856 1374.18 837.971C1373.31 838.072 1372.59 838.158 1372.05 838.23C1370.72 838.403 1369.48 838.683 1368.33 839.072C1367.19 839.446 1366.27 840.015 1365.57 840.778C1364.88 841.527 1364.53 842.549 1364.53 843.844C1364.53 845.615 1365.19 846.954 1366.5 847.861C1367.82 848.753 1369.5 849.2 1371.53 849.2ZM1120.1 914.389C1118.36 914.389 1116.77 913.965 1115.33 913.115C1113.89 912.252 1112.74 911.1 1111.87 909.66C1111.03 908.221 1110.6 906.63 1110.6 904.888C1110.6 903.132 1111.03 901.541 1111.87 900.116C1112.74 898.676 1113.89 897.532 1115.33 896.683C1116.77 895.819 1118.36 895.387 1120.1 895.387C1121.86 895.387 1123.45 895.819 1124.87 896.683C1126.31 897.532 1127.46 898.676 1128.31 900.116C1129.17 901.541 1129.6 903.132 1129.6 904.888C1129.6 906.63 1129.17 908.221 1128.31 909.66C1127.46 911.1 1126.31 912.252 1124.87 913.115C1123.45 913.965 1121.86 914.389 1120.1 914.389ZM1176.76 927V882.776H1203.45V887.527H1182.12V902.47H1202.07V907.22H1182.12V922.249H1203.8V927H1176.76ZM1235.91 901.26L1231.33 902.556C1231.04 901.793 1230.62 901.052 1230.06 900.332C1229.51 899.598 1228.76 898.993 1227.81 898.518C1226.86 898.043 1225.64 897.805 1224.16 897.805C1222.13 897.805 1220.44 898.273 1219.09 899.209C1217.75 900.13 1217.08 901.304 1217.08 902.729C1217.08 903.996 1217.54 904.996 1218.46 905.73C1219.38 906.464 1220.82 907.076 1222.78 907.566L1227.7 908.775C1230.67 909.495 1232.88 910.596 1234.33 912.079C1235.79 913.547 1236.51 915.44 1236.51 917.758C1236.51 919.658 1235.97 921.357 1234.87 922.854C1233.79 924.351 1232.28 925.532 1230.34 926.395C1228.39 927.259 1226.13 927.691 1223.56 927.691C1220.17 927.691 1217.37 926.957 1215.16 925.488C1212.94 924.02 1211.54 921.875 1210.95 919.054L1215.78 917.844C1216.24 919.629 1217.12 920.968 1218.4 921.861C1219.69 922.753 1221.38 923.2 1223.47 923.2C1225.85 923.2 1227.73 922.696 1229.13 921.688C1230.54 920.666 1231.24 919.442 1231.24 918.017C1231.24 916.865 1230.84 915.901 1230.04 915.123C1229.23 914.332 1227.99 913.741 1226.32 913.353L1220.79 912.057C1217.76 911.337 1215.52 910.222 1214.1 908.71C1212.69 907.184 1211.98 905.277 1211.98 902.988C1211.98 901.116 1212.51 899.461 1213.56 898.021C1214.62 896.582 1216.07 895.452 1217.9 894.631C1219.74 893.811 1221.83 893.4 1224.16 893.4C1227.44 893.4 1230.02 894.12 1231.89 895.56C1233.78 896.999 1235.12 898.899 1235.91 901.26ZM1258.61 893.832V898.151H1241.42V893.832H1258.61ZM1246.43 885.886H1251.53V917.499C1251.53 918.938 1251.74 920.018 1252.15 920.738C1252.58 921.443 1253.13 921.918 1253.79 922.163C1254.47 922.393 1255.18 922.509 1255.93 922.509C1256.49 922.509 1256.95 922.48 1257.31 922.422C1257.67 922.35 1257.96 922.293 1258.18 922.249L1259.21 926.827C1258.87 926.957 1258.39 927.086 1257.77 927.216C1257.15 927.36 1256.36 927.432 1255.41 927.432C1253.97 927.432 1252.56 927.122 1251.18 926.503C1249.81 925.884 1248.68 924.941 1247.77 923.675C1246.88 922.408 1246.43 920.81 1246.43 918.881V885.886ZM1279.82 927.691C1276.63 927.691 1273.87 926.986 1271.55 925.575C1269.25 924.15 1267.47 922.163 1266.22 919.615C1264.98 917.053 1264.36 914.073 1264.36 910.675C1264.36 907.278 1264.98 904.283 1266.22 901.692C1267.47 899.087 1269.22 897.057 1271.45 895.603C1273.69 894.134 1276.31 893.4 1279.31 893.4C1281.03 893.4 1282.74 893.688 1284.42 894.264C1286.11 894.84 1287.64 895.776 1289.02 897.071C1290.41 898.352 1291.51 900.051 1292.33 902.167C1293.15 904.283 1293.56 906.889 1293.56 909.984V912.144H1267.99V907.738H1288.38C1288.38 905.867 1288 904.197 1287.25 902.729C1286.52 901.26 1285.47 900.102 1284.1 899.252C1282.75 898.403 1281.15 897.978 1279.31 897.978C1277.28 897.978 1275.52 898.482 1274.04 899.49C1272.57 900.483 1271.44 901.779 1270.65 903.377C1269.86 904.974 1269.46 906.688 1269.46 908.516V911.453C1269.46 913.957 1269.89 916.081 1270.76 917.823C1271.63 919.55 1272.85 920.867 1274.4 921.774C1275.96 922.667 1277.77 923.113 1279.82 923.113C1281.16 923.113 1282.37 922.926 1283.45 922.552C1284.55 922.163 1285.49 921.587 1286.28 920.824C1287.07 920.047 1287.69 919.082 1288.12 917.931L1293.04 919.313C1292.52 920.983 1291.65 922.451 1290.43 923.718C1289.2 924.97 1287.69 925.949 1285.89 926.655C1284.09 927.345 1282.07 927.691 1279.82 927.691ZM1301.31 927V893.832H1306.23V898.842H1306.58C1307.18 897.201 1308.28 895.869 1309.86 894.847C1311.45 893.825 1313.23 893.314 1315.22 893.314C1315.59 893.314 1316.06 893.321 1316.62 893.336C1317.18 893.35 1317.61 893.371 1317.89 893.4V898.583C1317.72 898.54 1317.33 898.475 1316.71 898.388C1316.1 898.288 1315.46 898.237 1314.79 898.237C1313.17 898.237 1311.73 898.576 1310.47 899.252C1309.21 899.914 1308.22 900.836 1307.49 902.016C1306.77 903.182 1306.41 904.514 1306.41 906.011V927H1301.31ZM1336.4 927.691C1333.41 927.691 1330.78 926.978 1328.52 925.553C1326.27 924.128 1324.52 922.134 1323.25 919.572C1322 917.009 1321.37 914.015 1321.37 910.589C1321.37 907.134 1322 904.118 1323.25 901.541C1324.52 898.964 1326.27 896.963 1328.52 895.538C1330.78 894.113 1333.41 893.4 1336.4 893.4C1339.39 893.4 1342.01 894.113 1344.26 895.538C1346.52 896.963 1348.28 898.964 1349.53 901.541C1350.8 904.118 1351.43 907.134 1351.43 910.589C1351.43 914.015 1350.8 917.009 1349.53 919.572C1348.28 922.134 1346.52 924.128 1344.26 925.553C1342.01 926.978 1339.39 927.691 1336.4 927.691ZM1336.4 923.113C1338.67 923.113 1340.55 922.53 1342.01 921.364C1343.48 920.198 1344.57 918.665 1345.28 916.765C1345.98 914.864 1346.33 912.806 1346.33 910.589C1346.33 908.372 1345.98 906.306 1345.28 904.391C1344.57 902.477 1343.48 900.929 1342.01 899.749C1340.55 898.568 1338.67 897.978 1336.4 897.978C1334.13 897.978 1332.25 898.568 1330.79 899.749C1329.32 900.929 1328.23 902.477 1327.53 904.391C1326.82 906.306 1326.47 908.372 1326.47 910.589C1326.47 912.806 1326.82 914.864 1327.53 916.765C1328.23 918.665 1329.32 920.198 1330.79 921.364C1332.25 922.53 1334.13 923.113 1336.4 923.113ZM1120.1 988.389C1118.36 988.389 1116.77 987.965 1115.33 987.115C1113.89 986.252 1112.74 985.1 1111.87 983.66C1111.03 982.221 1110.6 980.63 1110.6 978.888C1110.6 977.132 1111.03 975.541 1111.87 974.116C1112.74 972.676 1113.89 971.532 1115.33 970.683C1116.77 969.819 1118.36 969.387 1120.1 969.387C1121.86 969.387 1123.45 969.819 1124.87 970.683C1126.31 971.532 1127.46 972.676 1128.31 974.116C1129.17 975.541 1129.6 977.132 1129.6 978.888C1129.6 980.63 1129.17 982.221 1128.31 983.66C1127.46 985.1 1126.31 986.252 1124.87 987.115C1123.45 987.965 1121.86 988.389 1120.1 988.389ZM1176.76 1001V956.776H1192.22C1195.31 956.776 1197.85 957.309 1199.85 958.374C1201.85 959.425 1203.34 960.843 1204.32 962.628C1205.3 964.399 1205.79 966.364 1205.79 968.523C1205.79 970.423 1205.45 971.993 1204.77 973.231C1204.11 974.469 1203.23 975.448 1202.14 976.167C1201.06 976.887 1199.88 977.42 1198.62 977.765V978.197C1199.97 978.283 1201.33 978.759 1202.7 979.622C1204.07 980.486 1205.21 981.724 1206.13 983.336C1207.05 984.949 1207.51 986.921 1207.51 989.253C1207.51 991.47 1207.01 993.464 1206 995.234C1204.99 997.005 1203.4 998.409 1201.23 999.445C1199.06 1000.48 1196.23 1001 1192.74 1001H1176.76ZM1182.12 996.249H1192.74C1196.24 996.249 1198.72 995.573 1200.19 994.22C1201.68 992.852 1202.42 991.196 1202.42 989.253C1202.42 987.756 1202.04 986.374 1201.27 985.107C1200.51 983.826 1199.42 982.804 1198.01 982.041C1196.6 981.263 1194.93 980.875 1193 980.875H1182.12V996.249ZM1182.12 976.21H1192.05C1193.66 976.21 1195.12 975.894 1196.41 975.26C1197.72 974.627 1198.76 973.734 1199.52 972.583C1200.3 971.431 1200.69 970.078 1200.69 968.523C1200.69 966.58 1200.01 964.931 1198.66 963.578C1197.31 962.211 1195.16 961.527 1192.22 961.527H1182.12V976.21ZM1229.1 1001.69C1226.1 1001.69 1223.47 1000.98 1221.21 999.553C1218.97 998.128 1217.21 996.134 1215.95 993.572C1214.69 991.009 1214.07 988.015 1214.07 984.589C1214.07 981.134 1214.69 978.118 1215.95 975.541C1217.21 972.964 1218.97 970.963 1221.21 969.538C1223.47 968.113 1226.1 967.4 1229.1 967.4C1232.09 967.4 1234.71 968.113 1236.96 969.538C1239.22 970.963 1240.97 972.964 1242.23 975.541C1243.49 978.118 1244.13 981.134 1244.13 984.589C1244.13 988.015 1243.49 991.009 1242.23 993.572C1240.97 996.134 1239.22 998.128 1236.96 999.553C1234.71 1000.98 1232.09 1001.69 1229.1 1001.69ZM1229.1 997.113C1231.37 997.113 1233.24 996.53 1234.71 995.364C1236.18 994.198 1237.27 992.665 1237.97 990.765C1238.68 988.864 1239.03 986.806 1239.03 984.589C1239.03 982.372 1238.68 980.306 1237.97 978.391C1237.27 976.477 1236.18 974.929 1234.71 973.749C1233.24 972.568 1231.37 971.978 1229.1 971.978C1226.82 971.978 1224.95 972.568 1223.48 973.749C1222.01 974.929 1220.93 976.477 1220.22 978.391C1219.52 980.306 1219.16 982.372 1219.16 984.589C1219.16 986.806 1219.52 988.864 1220.22 990.765C1220.93 992.665 1222.01 994.198 1223.48 995.364C1224.95 996.53 1226.82 997.113 1229.1 997.113ZM1257 981.047V1001H1251.9V967.832H1256.83V973.015H1257.26C1258.04 971.33 1259.22 969.977 1260.8 968.955C1262.38 967.919 1264.43 967.4 1266.93 967.4C1269.18 967.4 1271.14 967.861 1272.83 968.782C1274.51 969.689 1275.82 971.071 1276.76 972.928C1277.69 974.771 1278.16 977.103 1278.16 979.925V1001H1273.07V980.27C1273.07 977.664 1272.39 975.635 1271.04 974.181C1269.68 972.712 1267.83 971.978 1265.47 971.978C1263.84 971.978 1262.38 972.331 1261.1 973.036C1259.84 973.742 1258.84 974.771 1258.1 976.124C1257.37 977.477 1257 979.118 1257 981.047ZM1287.47 1001V967.832H1292.57V1001H1287.47ZM1290.07 962.304C1289.07 962.304 1288.22 961.966 1287.5 961.289C1286.79 960.613 1286.44 959.799 1286.44 958.849C1286.44 957.899 1286.79 957.086 1287.5 956.409C1288.22 955.733 1289.07 955.394 1290.07 955.394C1291.06 955.394 1291.91 955.733 1292.61 956.409C1293.33 957.086 1293.69 957.899 1293.69 958.849C1293.69 959.799 1293.33 960.613 1292.61 961.289C1291.91 961.966 1291.06 962.304 1290.07 962.304ZM1316.33 967.832V972.151H1299.14V967.832H1316.33ZM1304.15 959.886H1309.25V991.499C1309.25 992.938 1309.46 994.018 1309.87 994.738C1310.3 995.443 1310.85 995.918 1311.51 996.163C1312.19 996.393 1312.9 996.509 1313.65 996.509C1314.21 996.509 1314.67 996.48 1315.03 996.422C1315.39 996.35 1315.68 996.293 1315.9 996.249L1316.93 1000.83C1316.59 1000.96 1316.11 1001.09 1315.49 1001.22C1314.87 1001.36 1314.08 1001.43 1313.13 1001.43C1311.69 1001.43 1310.28 1001.12 1308.9 1000.5C1307.53 999.884 1306.4 998.941 1305.49 997.675C1304.6 996.408 1304.15 994.81 1304.15 992.881V959.886ZM1333.76 1001.78C1331.65 1001.78 1329.75 1001.38 1328.03 1000.59C1326.32 999.784 1324.96 998.625 1323.95 997.113C1322.94 995.587 1322.44 993.745 1322.44 991.585C1322.44 989.685 1322.81 988.145 1323.56 986.964C1324.31 985.769 1325.31 984.834 1326.56 984.157C1327.82 983.48 1329.2 982.977 1330.71 982.645C1332.24 982.3 1333.77 982.026 1335.31 981.825C1337.33 981.566 1338.96 981.371 1340.21 981.242C1341.48 981.098 1342.4 980.86 1342.98 980.529C1343.57 980.198 1343.86 979.622 1343.86 978.802V978.629C1343.86 976.498 1343.28 974.843 1342.11 973.662C1340.96 972.482 1339.21 971.892 1336.86 971.892C1334.43 971.892 1332.52 972.424 1331.14 973.49C1329.76 974.555 1328.79 975.692 1328.23 976.901L1323.39 975.174C1324.25 973.159 1325.41 971.589 1326.85 970.467C1328.3 969.329 1329.88 968.538 1331.6 968.091C1333.32 967.631 1335.02 967.4 1336.69 967.4C1337.76 967.4 1338.98 967.53 1340.36 967.789C1341.76 968.034 1343.11 968.545 1344.4 969.322C1345.71 970.099 1346.8 971.273 1347.66 972.842C1348.53 974.411 1348.96 976.513 1348.96 979.147V1001H1343.86V996.509H1343.6C1343.26 997.228 1342.68 997.998 1341.87 998.819C1341.07 999.64 1340 1000.34 1338.66 1000.91C1337.32 1001.49 1335.68 1001.78 1333.76 1001.78ZM1334.53 997.2C1336.55 997.2 1338.25 996.804 1339.63 996.012C1341.02 995.22 1342.08 994.198 1342.78 992.946C1343.5 991.693 1343.86 990.376 1343.86 988.994V984.33C1343.65 984.589 1343.17 984.826 1342.44 985.042C1341.72 985.244 1340.88 985.424 1339.93 985.582C1339 985.726 1338.08 985.856 1337.19 985.971C1336.31 986.072 1335.6 986.158 1335.05 986.23C1333.73 986.403 1332.49 986.683 1331.34 987.072C1330.2 987.446 1329.28 988.015 1328.57 988.778C1327.88 989.527 1327.54 990.549 1327.54 991.844C1327.54 993.615 1328.19 994.954 1329.5 995.861C1330.83 996.753 1332.5 997.2 1334.53 997.2ZM1400.24 967.832C1399.98 965.644 1398.93 963.945 1397.08 962.736C1395.24 961.527 1392.98 960.922 1390.3 960.922C1388.35 960.922 1386.63 961.239 1385.16 961.872C1383.71 962.506 1382.57 963.377 1381.75 964.485C1380.95 965.594 1380.54 966.853 1380.54 968.264C1380.54 969.444 1380.82 970.459 1381.39 971.309C1381.96 972.144 1382.7 972.842 1383.59 973.403C1384.48 973.95 1385.42 974.404 1386.4 974.764C1387.37 975.109 1388.27 975.39 1389.09 975.606L1393.59 976.815C1394.74 977.117 1396.02 977.535 1397.43 978.068C1398.85 978.6 1400.21 979.327 1401.51 980.249C1402.82 981.155 1403.9 982.321 1404.75 983.747C1405.6 985.172 1406.02 986.921 1406.02 988.994C1406.02 991.384 1405.4 993.543 1404.15 995.472C1402.91 997.401 1401.09 998.934 1398.7 1000.07C1396.33 1001.21 1393.44 1001.78 1390.04 1001.78C1386.88 1001.78 1384.13 1001.27 1381.82 1000.24C1379.51 999.222 1377.7 997.797 1376.38 995.969C1375.07 994.14 1374.32 992.017 1374.15 989.599H1379.68C1379.82 991.268 1380.38 992.65 1381.36 993.745C1382.36 994.824 1383.61 995.63 1385.12 996.163C1386.65 996.681 1388.29 996.94 1390.04 996.94C1392.09 996.94 1393.92 996.609 1395.55 995.947C1397.18 995.27 1398.47 994.335 1399.42 993.14C1400.37 991.931 1400.84 990.52 1400.84 988.908C1400.84 987.439 1400.43 986.244 1399.61 985.323C1398.79 984.402 1397.71 983.653 1396.37 983.077C1395.03 982.501 1393.59 981.998 1392.03 981.566L1386.59 980.011C1383.13 979.018 1380.4 977.6 1378.38 975.757C1376.37 973.914 1375.36 971.503 1375.36 968.523C1375.36 966.047 1376.03 963.888 1377.37 962.045C1378.72 960.188 1380.54 958.748 1382.81 957.726C1385.1 956.69 1387.65 956.172 1390.48 956.172C1393.33 956.172 1395.86 956.683 1398.08 957.705C1400.29 958.712 1402.05 960.094 1403.35 961.851C1404.66 963.607 1405.35 965.601 1405.42 967.832H1400.24ZM1414.14 1013.44V967.832H1419.06V973.101H1419.67C1420.04 972.525 1420.56 971.791 1421.22 970.898C1421.9 969.992 1422.86 969.185 1424.11 968.48C1425.38 967.76 1427.09 967.4 1429.25 967.4C1432.05 967.4 1434.51 968.098 1436.64 969.495C1438.77 970.891 1440.43 972.871 1441.63 975.433C1442.82 977.996 1443.42 981.019 1443.42 984.502C1443.42 988.015 1442.82 991.06 1441.63 993.637C1440.43 996.199 1438.78 998.186 1436.66 999.596C1434.54 1000.99 1432.1 1001.69 1429.34 1001.69C1427.21 1001.69 1425.5 1001.34 1424.22 1000.63C1422.94 999.913 1421.95 999.1 1421.26 998.193C1420.57 997.271 1420.04 996.509 1419.67 995.904H1419.23V1013.44H1414.14ZM1419.15 984.416C1419.15 986.921 1419.51 989.131 1420.25 991.045C1420.98 992.946 1422.06 994.436 1423.47 995.515C1424.88 996.581 1426.6 997.113 1428.65 997.113C1430.78 997.113 1432.56 996.552 1433.98 995.429C1435.42 994.292 1436.5 992.766 1437.22 990.851C1437.96 988.922 1438.32 986.777 1438.32 984.416C1438.32 982.084 1437.96 979.982 1437.24 978.111C1436.54 976.225 1435.46 974.735 1434.03 973.641C1432.6 972.532 1430.81 971.978 1428.65 971.978C1426.58 971.978 1424.83 972.504 1423.42 973.554C1422.01 974.591 1420.95 976.045 1420.23 977.916C1419.51 979.773 1419.15 981.94 1419.15 984.416ZM1451.19 1001V967.832H1456.12V972.842H1456.46C1457.07 971.201 1458.16 969.869 1459.74 968.847C1461.33 967.825 1463.11 967.314 1465.1 967.314C1465.47 967.314 1465.94 967.321 1466.5 967.336C1467.06 967.35 1467.49 967.371 1467.78 967.4V972.583C1467.6 972.54 1467.21 972.475 1466.59 972.388C1465.98 972.288 1465.34 972.237 1464.67 972.237C1463.05 972.237 1461.61 972.576 1460.35 973.252C1459.1 973.914 1458.1 974.836 1457.37 976.016C1456.65 977.182 1456.29 978.514 1456.29 980.011V1001H1451.19ZM1473.82 1001V967.832H1478.91V1001H1473.82ZM1476.41 962.304C1475.41 962.304 1474.56 961.966 1473.84 961.289C1473.13 960.613 1472.78 959.799 1472.78 958.849C1472.78 957.899 1473.13 957.086 1473.84 956.409C1474.56 955.733 1475.41 955.394 1476.41 955.394C1477.4 955.394 1478.25 955.733 1478.96 956.409C1479.68 957.086 1480.04 957.899 1480.04 958.849C1480.04 959.799 1479.68 960.613 1478.96 961.289C1478.25 961.966 1477.4 962.304 1476.41 962.304ZM1493.34 981.047V1001H1488.25V967.832H1493.17V973.015H1493.6C1494.38 971.33 1495.56 969.977 1497.14 968.955C1498.73 967.919 1500.77 967.4 1503.28 967.4C1505.52 967.4 1507.49 967.861 1509.17 968.782C1510.86 969.689 1512.17 971.071 1513.1 972.928C1514.04 974.771 1514.5 977.103 1514.5 979.925V1001H1509.41V980.27C1509.41 977.664 1508.73 975.635 1507.38 974.181C1506.03 972.712 1504.17 971.978 1501.81 971.978C1500.18 971.978 1498.73 972.331 1497.45 973.036C1496.18 973.742 1495.18 974.771 1494.44 976.124C1493.71 977.477 1493.34 979.118 1493.34 981.047ZM1537.21 1014.13C1534.74 1014.13 1532.63 1013.81 1530.86 1013.18C1529.09 1012.56 1527.61 1011.74 1526.43 1010.72C1525.26 1009.71 1524.34 1008.63 1523.64 1007.48L1527.7 1004.63C1528.16 1005.23 1528.75 1005.92 1529.45 1006.7C1530.16 1007.49 1531.12 1008.18 1532.35 1008.75C1533.58 1009.34 1535.2 1009.64 1537.21 1009.64C1539.88 1009.64 1542.09 1008.99 1543.83 1007.69C1545.58 1006.4 1546.45 1004.37 1546.45 1001.6V994.867H1546.02C1545.64 995.472 1545.11 996.221 1544.42 997.113C1543.74 997.991 1542.76 998.776 1541.48 999.467C1540.21 1000.14 1538.5 1000.48 1536.34 1000.48C1533.66 1000.48 1531.26 999.848 1529.13 998.582C1527.01 997.315 1525.34 995.472 1524.1 993.054C1522.87 990.635 1522.26 987.698 1522.26 984.243C1522.26 980.846 1522.86 977.888 1524.05 975.368C1525.25 972.835 1526.91 970.877 1529.04 969.495C1531.17 968.098 1533.63 967.4 1536.43 967.4C1538.59 967.4 1540.3 967.76 1541.57 968.48C1542.85 969.185 1543.83 969.992 1544.5 970.898C1545.19 971.791 1545.73 972.525 1546.1 973.101H1546.62V967.832H1551.54V1001.95C1551.54 1004.8 1550.9 1007.12 1549.6 1008.9C1548.32 1010.7 1546.59 1012.02 1544.42 1012.85C1542.26 1013.7 1539.85 1014.13 1537.21 1014.13ZM1537.03 995.904C1539.08 995.904 1540.8 995.436 1542.21 994.5C1543.63 993.565 1544.7 992.219 1545.43 990.462C1546.17 988.706 1546.53 986.604 1546.53 984.157C1546.53 981.767 1546.17 979.658 1545.45 977.83C1544.73 976.002 1543.67 974.569 1542.26 973.533C1540.85 972.496 1539.11 971.978 1537.03 971.978C1534.87 971.978 1533.07 972.525 1531.63 973.619C1530.21 974.713 1529.14 976.182 1528.42 978.024C1527.71 979.867 1527.36 981.911 1527.36 984.157C1527.36 986.46 1527.72 988.497 1528.44 990.268C1529.17 992.024 1530.25 993.406 1531.68 994.414C1533.12 995.407 1534.9 995.904 1537.03 995.904ZM1584.37 975.26L1579.79 976.556C1579.5 975.793 1579.08 975.052 1578.51 974.332C1577.97 973.598 1577.22 972.993 1576.27 972.518C1575.32 972.043 1574.1 971.805 1572.62 971.805C1570.59 971.805 1568.9 972.273 1567.54 973.209C1566.21 974.13 1565.54 975.304 1565.54 976.729C1565.54 977.996 1566 978.996 1566.92 979.73C1567.84 980.464 1569.28 981.076 1571.24 981.566L1576.16 982.775C1579.13 983.495 1581.34 984.596 1582.79 986.079C1584.24 987.547 1584.97 989.44 1584.97 991.758C1584.97 993.658 1584.42 995.357 1583.33 996.854C1582.25 998.351 1580.74 999.532 1578.79 1000.4C1576.85 1001.26 1574.59 1001.69 1572.01 1001.69C1568.63 1001.69 1565.83 1000.96 1563.61 999.488C1561.4 998.02 1559.99 995.875 1559.4 993.054L1564.24 991.844C1564.7 993.629 1565.57 994.968 1566.85 995.861C1568.15 996.753 1569.84 997.2 1571.93 997.2C1574.3 997.2 1576.19 996.696 1577.59 995.688C1579 994.666 1579.7 993.442 1579.7 992.017C1579.7 990.865 1579.3 989.901 1578.49 989.123C1577.69 988.332 1576.45 987.741 1574.78 987.353L1569.25 986.057C1566.21 985.337 1563.98 984.222 1562.56 982.71C1561.15 981.184 1560.44 979.277 1560.44 976.988C1560.44 975.116 1560.97 973.461 1562.02 972.021C1563.08 970.582 1564.53 969.452 1566.36 968.631C1568.2 967.811 1570.29 967.4 1572.62 967.4C1575.9 967.4 1578.48 968.12 1580.35 969.56C1582.24 970.999 1583.57 972.899 1584.37 975.26ZM1120.1 1062.39C1118.36 1062.39 1116.77 1061.96 1115.33 1061.12C1113.89 1060.25 1112.74 1059.1 1111.87 1057.66C1111.03 1056.22 1110.6 1054.63 1110.6 1052.89C1110.6 1051.13 1111.03 1049.54 1111.87 1048.12C1112.74 1046.68 1113.89 1045.53 1115.33 1044.68C1116.77 1043.82 1118.36 1043.39 1120.1 1043.39C1121.86 1043.39 1123.45 1043.82 1124.87 1044.68C1126.31 1045.53 1127.46 1046.68 1128.31 1048.12C1129.17 1049.54 1129.6 1051.13 1129.6 1052.89C1129.6 1054.63 1129.17 1056.22 1128.31 1057.66C1127.46 1059.1 1126.31 1060.25 1124.87 1061.12C1123.45 1061.96 1121.86 1062.39 1120.1 1062.39ZM1178.58 1075H1172.96L1189.2 1030.78H1194.73L1210.97 1075H1205.35L1192.14 1037.77H1191.79L1178.58 1075ZM1180.65 1057.73H1203.28V1062.48H1180.65V1057.73ZM1222.26 1030.78V1075H1217.17V1030.78H1222.26ZM1258.72 1041.83L1246.45 1075H1241.27L1229 1041.83H1234.53L1243.69 1068.26H1244.03L1253.19 1041.83H1258.72ZM1274.19 1075.78C1272.09 1075.78 1270.19 1075.38 1268.47 1074.59C1266.76 1073.78 1265.4 1072.62 1264.39 1071.11C1263.38 1069.59 1262.88 1067.74 1262.88 1065.59C1262.88 1063.68 1263.25 1062.14 1264 1060.96C1264.75 1059.77 1265.75 1058.83 1267 1058.16C1268.26 1057.48 1269.64 1056.98 1271.15 1056.65C1272.68 1056.3 1274.21 1056.03 1275.75 1055.82C1277.76 1055.57 1279.4 1055.37 1280.65 1055.24C1281.92 1055.1 1282.84 1054.86 1283.41 1054.53C1284.01 1054.2 1284.3 1053.62 1284.3 1052.8V1052.63C1284.3 1050.5 1283.72 1048.84 1282.55 1047.66C1281.4 1046.48 1279.65 1045.89 1277.3 1045.89C1274.87 1045.89 1272.96 1046.42 1271.58 1047.49C1270.2 1048.55 1269.23 1049.69 1268.67 1050.9L1263.83 1049.17C1264.69 1047.16 1265.84 1045.59 1267.28 1044.47C1268.74 1043.33 1270.32 1042.54 1272.04 1042.09C1273.76 1041.63 1275.46 1041.4 1277.13 1041.4C1278.2 1041.4 1279.42 1041.53 1280.8 1041.79C1282.2 1042.03 1283.54 1042.54 1284.84 1043.32C1286.15 1044.1 1287.24 1045.27 1288.1 1046.84C1288.96 1048.41 1289.4 1050.51 1289.4 1053.15V1075H1284.3V1070.51H1284.04C1283.7 1071.23 1283.12 1072 1282.31 1072.82C1281.51 1073.64 1280.44 1074.34 1279.1 1074.91C1277.76 1075.49 1276.12 1075.78 1274.19 1075.78ZM1274.97 1071.2C1276.99 1071.2 1278.69 1070.8 1280.07 1070.01C1281.46 1069.22 1282.52 1068.2 1283.22 1066.95C1283.94 1065.69 1284.3 1064.38 1284.3 1062.99V1058.33C1284.08 1058.59 1283.61 1058.83 1282.88 1059.04C1282.16 1059.24 1281.32 1059.42 1280.37 1059.58C1279.43 1059.73 1278.52 1059.86 1277.63 1059.97C1276.75 1060.07 1276.04 1060.16 1275.49 1060.23C1274.17 1060.4 1272.93 1060.68 1271.78 1061.07C1270.64 1061.45 1269.72 1062.02 1269.01 1062.78C1268.32 1063.53 1267.98 1064.55 1267.98 1065.84C1267.98 1067.61 1268.63 1068.95 1269.94 1069.86C1271.26 1070.75 1272.94 1071.2 1274.97 1071.2ZM1120.1 1136.39C1118.36 1136.39 1116.77 1135.96 1115.33 1135.12C1113.89 1134.25 1112.74 1133.1 1111.87 1131.66C1111.03 1130.22 1110.6 1128.63 1110.6 1126.89C1110.6 1125.13 1111.03 1123.54 1111.87 1122.12C1112.74 1120.68 1113.89 1119.53 1115.33 1118.68C1116.77 1117.82 1118.36 1117.39 1120.1 1117.39C1121.86 1117.39 1123.45 1117.82 1124.87 1118.68C1126.31 1119.53 1127.46 1120.68 1128.31 1122.12C1129.17 1123.54 1129.6 1125.13 1129.6 1126.89C1129.6 1128.63 1129.17 1130.22 1128.31 1131.66C1127.46 1133.1 1126.31 1134.25 1124.87 1135.12C1123.45 1135.96 1121.86 1136.39 1120.1 1136.39ZM1176.76 1149V1104.78H1182.12V1144.25H1202.68V1149H1176.76ZM1224.18 1149.69C1220.99 1149.69 1218.23 1148.99 1215.91 1147.57C1213.61 1146.15 1211.83 1144.16 1210.58 1141.61C1209.34 1139.05 1208.72 1136.07 1208.72 1132.68C1208.72 1129.28 1209.34 1126.28 1210.58 1123.69C1211.83 1121.09 1213.57 1119.06 1215.81 1117.6C1218.05 1116.13 1220.67 1115.4 1223.67 1115.4C1225.39 1115.4 1227.1 1115.69 1228.78 1116.26C1230.47 1116.84 1232 1117.78 1233.38 1119.07C1234.76 1120.35 1235.87 1122.05 1236.69 1124.17C1237.51 1126.28 1237.92 1128.89 1237.92 1131.98V1134.14H1212.35V1129.74H1232.73C1232.73 1127.87 1232.36 1126.2 1231.61 1124.73C1230.88 1123.26 1229.83 1122.1 1228.46 1121.25C1227.11 1120.4 1225.51 1119.98 1223.67 1119.98C1221.64 1119.98 1219.88 1120.48 1218.4 1121.49C1216.93 1122.48 1215.8 1123.78 1215.01 1125.38C1214.21 1126.97 1213.82 1128.69 1213.82 1130.52V1133.45C1213.82 1135.96 1214.25 1138.08 1215.11 1139.82C1215.99 1141.55 1217.21 1142.87 1218.76 1143.77C1220.32 1144.67 1222.12 1145.11 1224.18 1145.11C1225.52 1145.11 1226.73 1144.93 1227.81 1144.55C1228.91 1144.16 1229.85 1143.59 1230.64 1142.82C1231.43 1142.05 1232.04 1141.08 1232.48 1139.93L1237.4 1141.31C1236.88 1142.98 1236.01 1144.45 1234.79 1145.72C1233.56 1146.97 1232.05 1147.95 1230.25 1148.65C1228.45 1149.35 1226.43 1149.69 1224.18 1149.69ZM1250.77 1129.05V1149H1245.67V1104.78H1250.77V1121.01H1251.2C1251.97 1119.3 1253.14 1117.94 1254.7 1116.93C1256.26 1115.91 1258.35 1115.4 1260.96 1115.4C1263.22 1115.4 1265.2 1115.85 1266.9 1116.76C1268.59 1117.65 1269.91 1119.03 1270.85 1120.89C1271.8 1122.73 1272.27 1125.07 1272.27 1127.92V1149H1267.18V1128.27C1267.18 1125.64 1266.49 1123.6 1265.13 1122.16C1263.77 1120.71 1261.89 1119.98 1259.49 1119.98C1257.82 1119.98 1256.32 1120.33 1255 1121.04C1253.69 1121.74 1252.65 1122.77 1251.89 1124.12C1251.14 1125.48 1250.77 1127.12 1250.77 1129.05ZM1281.6 1149V1115.83H1286.69V1149H1281.6ZM1284.19 1110.3C1283.19 1110.3 1282.34 1109.97 1281.62 1109.29C1280.91 1108.61 1280.56 1107.8 1280.56 1106.85C1280.56 1105.9 1280.91 1105.09 1281.62 1104.41C1282.34 1103.73 1283.19 1103.39 1284.19 1103.39C1285.18 1103.39 1286.03 1103.73 1286.73 1104.41C1287.45 1105.09 1287.81 1105.9 1287.81 1106.85C1287.81 1107.8 1287.45 1108.61 1286.73 1109.29C1286.03 1109.97 1285.18 1110.3 1284.19 1110.3ZM1309.41 1162.13C1306.95 1162.13 1304.84 1161.81 1303.07 1161.18C1301.29 1160.56 1299.82 1159.74 1298.64 1158.72C1297.47 1157.71 1296.54 1156.63 1295.85 1155.48L1299.91 1152.63C1300.37 1153.23 1300.96 1153.92 1301.66 1154.7C1302.37 1155.49 1303.33 1156.18 1304.56 1156.75C1305.79 1157.34 1307.41 1157.64 1309.41 1157.64C1312.09 1157.64 1314.3 1156.99 1316.04 1155.69C1317.78 1154.4 1318.66 1152.37 1318.66 1149.6V1142.87H1318.22C1317.85 1143.47 1317.32 1144.22 1316.63 1145.11C1315.95 1145.99 1314.97 1146.78 1313.69 1147.47C1312.42 1148.14 1310.71 1148.48 1308.55 1148.48C1305.87 1148.48 1303.47 1147.85 1301.34 1146.58C1299.22 1145.31 1297.54 1143.47 1296.31 1141.05C1295.08 1138.64 1294.47 1135.7 1294.47 1132.24C1294.47 1128.85 1295.07 1125.89 1296.26 1123.37C1297.46 1120.83 1299.12 1118.88 1301.25 1117.49C1303.38 1116.1 1305.84 1115.4 1308.64 1115.4C1310.8 1115.4 1312.51 1115.76 1313.78 1116.48C1315.06 1117.19 1316.04 1117.99 1316.71 1118.9C1317.4 1119.79 1317.94 1120.53 1318.31 1121.1H1318.83V1115.83H1323.75V1149.95C1323.75 1152.8 1323.1 1155.12 1321.81 1156.9C1320.53 1158.7 1318.8 1160.02 1316.63 1160.85C1314.47 1161.7 1312.06 1162.13 1309.41 1162.13ZM1309.24 1143.9C1311.29 1143.9 1313.01 1143.44 1314.42 1142.5C1315.83 1141.56 1316.91 1140.22 1317.64 1138.46C1318.38 1136.71 1318.74 1134.6 1318.74 1132.16C1318.74 1129.77 1318.38 1127.66 1317.66 1125.83C1316.94 1124 1315.88 1122.57 1314.47 1121.53C1313.06 1120.5 1311.31 1119.98 1309.24 1119.98C1307.08 1119.98 1305.28 1120.53 1303.84 1121.62C1302.42 1122.71 1301.34 1124.18 1300.63 1126.02C1299.92 1127.87 1299.57 1129.91 1299.57 1132.16C1299.57 1134.46 1299.93 1136.5 1300.65 1138.27C1301.38 1140.02 1302.46 1141.41 1303.89 1142.41C1305.33 1143.41 1307.11 1143.9 1309.24 1143.9ZM1338.18 1129.05V1149H1333.08V1104.78H1338.18V1121.01H1338.61C1339.39 1119.3 1340.55 1117.94 1342.11 1116.93C1343.68 1115.91 1345.76 1115.4 1348.37 1115.4C1350.63 1115.4 1352.61 1115.85 1354.31 1116.76C1356.01 1117.65 1357.32 1119.03 1358.26 1120.89C1359.21 1122.73 1359.68 1125.07 1359.68 1127.92V1149H1354.59V1128.27C1354.59 1125.64 1353.9 1123.6 1352.54 1122.16C1351.18 1120.71 1349.3 1119.98 1346.9 1119.98C1345.23 1119.98 1343.73 1120.33 1342.41 1121.04C1341.1 1121.74 1340.06 1122.77 1339.3 1124.12C1338.55 1125.48 1338.18 1127.12 1338.18 1129.05ZM1388.61 1149H1383L1399.24 1104.78H1404.77L1421 1149H1415.39L1402.17 1111.77H1401.83L1388.61 1149ZM1390.69 1131.73H1413.32V1136.48H1390.69V1131.73ZM1440.68 1149.69C1437.57 1149.69 1434.89 1148.96 1432.64 1147.49C1430.4 1146.02 1428.67 1144 1427.46 1141.42C1426.25 1138.84 1425.65 1135.9 1425.65 1132.59C1425.65 1129.22 1426.27 1126.25 1427.5 1123.67C1428.76 1121.08 1430.5 1119.06 1432.73 1117.6C1434.98 1116.13 1437.6 1115.4 1440.59 1115.4C1442.92 1115.4 1445.02 1115.83 1446.9 1116.7C1448.77 1117.56 1450.3 1118.77 1451.49 1120.32C1452.69 1121.88 1453.43 1123.69 1453.72 1125.77H1448.62C1448.23 1124.25 1447.37 1122.91 1446.03 1121.75C1444.71 1120.57 1442.92 1119.98 1440.68 1119.98C1438.69 1119.98 1436.95 1120.5 1435.45 1121.53C1433.97 1122.55 1432.81 1124 1431.97 1125.87C1431.15 1127.73 1430.74 1129.91 1430.74 1132.42C1430.74 1134.98 1431.15 1137.21 1431.95 1139.11C1432.77 1141.01 1433.92 1142.49 1435.41 1143.54C1436.9 1144.59 1438.66 1145.11 1440.68 1145.11C1442 1145.11 1443.2 1144.88 1444.28 1144.42C1445.36 1143.96 1446.28 1143.3 1447.02 1142.44C1447.77 1141.57 1448.31 1140.54 1448.62 1139.33H1453.72C1453.43 1141.28 1452.72 1143.05 1451.58 1144.62C1450.46 1146.17 1448.97 1147.41 1447.11 1148.33C1445.27 1149.24 1443.12 1149.69 1440.68 1149.69ZM1461.17 1149V1115.83H1466.09V1120.84H1466.44C1467.04 1119.2 1468.14 1117.87 1469.72 1116.85C1471.3 1115.82 1473.09 1115.31 1475.07 1115.31C1475.45 1115.31 1475.92 1115.32 1476.48 1115.34C1477.04 1115.35 1477.46 1115.37 1477.75 1115.4V1120.58C1477.58 1120.54 1477.18 1120.47 1476.56 1120.39C1475.96 1120.29 1475.32 1120.24 1474.64 1120.24C1473.03 1120.24 1471.59 1120.58 1470.32 1121.25C1469.07 1121.91 1468.08 1122.84 1467.34 1124.02C1466.62 1125.18 1466.26 1126.51 1466.26 1128.01V1149H1461.17ZM1496.69 1149.69C1493.49 1149.69 1490.74 1148.99 1488.42 1147.57C1486.12 1146.15 1484.34 1144.16 1483.09 1141.61C1481.85 1139.05 1481.23 1136.07 1481.23 1132.68C1481.23 1129.28 1481.85 1126.28 1483.09 1123.69C1484.34 1121.09 1486.08 1119.06 1488.31 1117.6C1490.56 1116.13 1493.18 1115.4 1496.17 1115.4C1497.9 1115.4 1499.61 1115.69 1501.29 1116.26C1502.97 1116.84 1504.51 1117.78 1505.89 1119.07C1507.27 1120.35 1508.37 1122.05 1509.19 1124.17C1510.01 1126.28 1510.42 1128.89 1510.42 1131.98V1134.14H1484.86V1129.74H1505.24C1505.24 1127.87 1504.87 1126.2 1504.12 1124.73C1503.38 1123.26 1502.33 1122.1 1500.97 1121.25C1499.61 1120.4 1498.01 1119.98 1496.17 1119.98C1494.14 1119.98 1492.39 1120.48 1490.9 1121.49C1489.43 1122.48 1488.3 1123.78 1487.51 1125.38C1486.72 1126.97 1486.33 1128.69 1486.33 1130.52V1133.45C1486.33 1135.96 1486.76 1138.08 1487.62 1139.82C1488.5 1141.55 1489.72 1142.87 1491.27 1143.77C1492.82 1144.67 1494.63 1145.11 1496.69 1145.11C1498.03 1145.11 1499.24 1144.93 1500.32 1144.55C1501.41 1144.16 1502.35 1143.59 1503.15 1142.82C1503.94 1142.05 1504.55 1141.08 1504.98 1139.93L1509.91 1141.31C1509.39 1142.98 1508.52 1144.45 1507.29 1145.72C1506.07 1146.97 1504.56 1147.95 1502.76 1148.65C1500.96 1149.35 1498.94 1149.69 1496.69 1149.69ZM1541.67 1123.26L1537.09 1124.56C1536.8 1123.79 1536.38 1123.05 1535.82 1122.33C1535.27 1121.6 1534.52 1120.99 1533.57 1120.52C1532.62 1120.04 1531.41 1119.81 1529.92 1119.81C1527.89 1119.81 1526.2 1120.27 1524.85 1121.21C1523.51 1122.13 1522.84 1123.3 1522.84 1124.73C1522.84 1126 1523.3 1127 1524.22 1127.73C1525.14 1128.46 1526.58 1129.08 1528.54 1129.57L1533.46 1130.77C1536.43 1131.49 1538.64 1132.6 1540.09 1134.08C1541.55 1135.55 1542.27 1137.44 1542.27 1139.76C1542.27 1141.66 1541.73 1143.36 1540.63 1144.85C1539.55 1146.35 1538.04 1147.53 1536.1 1148.4C1534.15 1149.26 1531.89 1149.69 1529.32 1149.69C1525.93 1149.69 1523.14 1148.96 1520.92 1147.49C1518.7 1146.02 1517.3 1143.88 1516.71 1141.05L1521.54 1139.84C1522 1141.63 1522.88 1142.97 1524.16 1143.86C1525.45 1144.75 1527.14 1145.2 1529.23 1145.2C1531.61 1145.2 1533.49 1144.7 1534.89 1143.69C1536.3 1142.67 1537.01 1141.44 1537.01 1140.02C1537.01 1138.87 1536.6 1137.9 1535.8 1137.12C1534.99 1136.33 1533.75 1135.74 1532.08 1135.35L1526.55 1134.06C1523.52 1133.34 1521.29 1132.22 1519.86 1130.71C1518.45 1129.18 1517.74 1127.28 1517.74 1124.99C1517.74 1123.12 1518.27 1121.46 1519.32 1120.02C1520.39 1118.58 1521.83 1117.45 1523.66 1116.63C1525.5 1115.81 1527.59 1115.4 1529.92 1115.4C1533.2 1115.4 1535.78 1116.12 1537.65 1117.56C1539.54 1119 1540.88 1120.9 1541.67 1123.26Z" fill="white"/>
<path d="M1109.71 354V286.008H1122.02V343.675H1151.97V354H1109.71ZM1184.7 354.996C1179.59 354.996 1175.18 353.934 1171.46 351.809C1167.76 349.662 1164.92 346.63 1162.92 342.712C1160.93 338.773 1159.94 334.136 1159.94 328.802C1159.94 323.556 1160.93 318.953 1162.92 314.991C1164.94 311.007 1167.75 307.908 1171.36 305.695C1174.97 303.46 1179.2 302.342 1184.07 302.342C1187.22 302.342 1190.18 302.851 1192.97 303.869C1195.78 304.865 1198.26 306.414 1200.41 308.517C1202.58 310.62 1204.28 313.298 1205.52 316.551C1206.76 319.783 1207.38 323.634 1207.38 328.105V331.79H1165.58V323.689H1195.86C1195.84 321.387 1195.34 319.34 1194.36 317.547C1193.39 315.732 1192.03 314.305 1190.28 313.264C1188.55 312.224 1186.54 311.704 1184.24 311.704C1181.78 311.704 1179.62 312.302 1177.76 313.497C1175.91 314.67 1174.46 316.219 1173.42 318.145C1172.4 320.048 1171.88 322.14 1171.86 324.419V331.491C1171.86 334.457 1172.4 337.002 1173.48 339.127C1174.57 341.229 1176.08 342.845 1178.03 343.974C1179.98 345.08 1182.26 345.634 1184.87 345.634C1186.62 345.634 1188.2 345.39 1189.62 344.903C1191.03 344.394 1192.26 343.653 1193.3 342.679C1194.34 341.705 1195.13 340.499 1195.66 339.06L1206.88 340.322C1206.17 343.288 1204.82 345.877 1202.83 348.091C1200.86 350.282 1198.34 351.986 1195.26 353.203C1192.18 354.398 1188.67 354.996 1184.7 354.996ZM1240.12 354.996C1235.01 354.996 1230.59 353.934 1226.88 351.809C1223.18 349.662 1220.33 346.63 1218.34 342.712C1216.35 338.773 1215.35 334.136 1215.35 328.802C1215.35 323.556 1216.35 318.953 1218.34 314.991C1220.36 311.007 1223.17 307.908 1226.78 305.695C1230.38 303.46 1234.62 302.342 1239.49 302.342C1242.63 302.342 1245.6 302.851 1248.39 303.869C1251.2 304.865 1253.68 306.414 1255.82 308.517C1257.99 310.62 1259.7 313.298 1260.94 316.551C1262.18 319.783 1262.8 323.634 1262.8 328.105V331.79H1221V323.689H1251.28C1251.25 321.387 1250.76 319.34 1249.78 317.547C1248.81 315.732 1247.45 314.305 1245.7 313.264C1243.97 312.224 1241.96 311.704 1239.66 311.704C1237.2 311.704 1235.04 312.302 1233.18 313.497C1231.32 314.67 1229.87 316.219 1228.83 318.145C1227.82 320.048 1227.3 322.14 1227.27 324.419V331.491C1227.27 334.457 1227.82 337.002 1228.9 339.127C1229.98 341.229 1231.5 342.845 1233.45 343.974C1235.4 345.08 1237.68 345.634 1240.29 345.634C1242.04 345.634 1243.62 345.39 1245.04 344.903C1246.45 344.394 1247.68 343.653 1248.72 342.679C1249.76 341.705 1250.55 340.499 1251.08 339.06L1262.3 340.322C1261.59 343.288 1260.24 345.877 1258.25 348.091C1256.28 350.282 1253.76 351.986 1250.68 353.203C1247.6 354.398 1244.08 354.996 1240.12 354.996Z" fill="#886E34"/>
<path d="M694.666 518.083H754.333" stroke="white" stroke-width="14.9167" stroke-linecap="round" stroke-linejoin="round"/>
<path d="M687.209 428.583H761.792" stroke="white" stroke-width="14.9167" stroke-linecap="round" stroke-linejoin="round"/>
<path d="M724.5 465.875V518.083" stroke="white" stroke-width="14.9167" stroke-linecap="round" stroke-linejoin="round"/>
<path d="M724.501 465.875C734.391 465.875 743.876 461.946 750.87 454.953C757.863 447.959 761.792 438.474 761.792 428.584C761.792 413.667 758.063 398.75 746.876 368.917H702.126C690.938 398.75 687.209 413.667 687.209 428.584C687.209 438.474 691.138 447.959 698.131 454.953C705.125 461.946 714.61 465.875 724.501 465.875Z" stroke="white" stroke-width="14.9167" stroke-linecap="round" stroke-linejoin="round"/>
<path d="M1843.79 1105.42L1866.17 1130.03C1867.19 1131.07 1867.88 1132.39 1868.16 1133.82C1868.44 1135.26 1868.29 1136.74 1867.74 1138.09C1867.18 1139.44 1866.24 1140.6 1865.03 1141.42C1863.83 1142.24 1862.4 1142.69 1860.94 1142.71H1752.05C1750.59 1142.69 1749.17 1142.24 1747.96 1141.42C1746.76 1140.6 1745.82 1139.44 1745.26 1138.09C1744.71 1136.74 1744.56 1135.26 1744.84 1133.82C1745.12 1132.39 1745.81 1131.07 1746.83 1130.03L1769.21 1105.42H1766.97C1765.51 1105.4 1764.09 1104.95 1762.88 1104.13C1761.67 1103.31 1760.73 1102.15 1760.18 1100.8C1759.62 1099.45 1759.47 1097.97 1759.75 1096.53C1760.03 1095.1 1760.73 1093.78 1761.75 1092.74L1784.12 1068.13H1782.63C1781.11 1068.26 1779.58 1067.93 1778.25 1067.17C1776.93 1066.41 1775.86 1065.26 1775.21 1063.87C1774.56 1062.49 1774.35 1060.94 1774.61 1059.43C1774.87 1057.92 1775.59 1056.53 1776.67 1055.45L1806.5 1023.38L1836.33 1055.45C1837.41 1056.53 1838.13 1057.92 1838.39 1059.43C1838.65 1060.94 1838.44 1062.49 1837.78 1063.87C1837.13 1065.26 1836.07 1066.41 1834.74 1067.17C1833.42 1067.93 1831.89 1068.26 1830.37 1068.13H1828.87L1851.25 1092.74C1852.27 1093.78 1852.96 1095.1 1853.24 1096.53C1853.52 1097.97 1853.38 1099.45 1852.82 1100.8C1852.26 1102.15 1851.32 1103.31 1850.12 1104.13C1848.91 1104.95 1847.49 1105.4 1846.03 1105.42H1843.79Z" stroke="white" stroke-width="14.9167" stroke-linecap="round" stroke-linejoin="round"/>
<path d="M1806.5 1165.08V1142.71" stroke="white" stroke-width="14.9167" stroke-linecap="round" stroke-linejoin="round"/>
</svg>
