<svg width="2019" height="1472" viewBox="0 0 2019 1472" fill="none" xmlns="http://www.w3.org/2000/svg">
<path d="M395.992 218.59C395.992 218.59 519.5 247.513 627.5 167.498C914.83 106.665 1375.35 18.5996 1442.16 63.5409C1540.32 129.569 1803.42 10 1803.42 10C1803.42 10 1762.27 469 1887.63 598C2013 727 1841.47 698.998 1941.73 975.749C2042 1252.5 1999.39 1384.02 1999.39 1384.02L1442.16 1461.96L1364.96 906.467L260.149 1053.69C260.149 1053.69 21.5 1020.51 99.3152 902.013L9 735.734L82.7365 701.34L178.99 638.739C178.99 638.739 289 318.513 365.805 338.844L376.94 315.338L395.992 218.59Z" fill="black" stroke="#886E34" stroke-width="20" stroke-linejoin="bevel"/>
<path d="M931.706 278.008H946.779L966.964 327.276H967.761L987.946 278.008H1003.02V346H991.2V299.289H990.569L971.778 345.801H962.947L944.156 299.189H943.525V346H931.706V278.008ZM1030.57 347.029C1027.34 347.029 1024.43 346.454 1021.84 345.303C1019.28 344.13 1017.24 342.403 1015.73 340.124C1014.25 337.844 1013.51 335.033 1013.51 331.691C1013.51 328.814 1014.04 326.435 1015.1 324.553C1016.17 322.672 1017.62 321.167 1019.45 320.038C1021.29 318.909 1023.36 318.057 1025.66 317.482C1027.98 316.884 1030.39 316.453 1032.86 316.187C1035.85 315.877 1038.28 315.6 1040.14 315.357C1041.99 315.091 1043.34 314.693 1044.19 314.162C1045.05 313.608 1045.48 312.756 1045.48 311.605V311.406C1045.48 308.905 1044.74 306.969 1043.26 305.596C1041.77 304.224 1039.64 303.538 1036.85 303.538C1033.9 303.538 1031.57 304.18 1029.84 305.464C1028.14 306.747 1026.99 308.263 1026.39 310.012L1015.17 308.418C1016.05 305.32 1017.52 302.73 1019.55 300.65C1021.59 298.547 1024.08 296.976 1027.02 295.935C1029.97 294.873 1033.22 294.342 1036.78 294.342C1039.24 294.342 1041.68 294.63 1044.12 295.205C1046.55 295.78 1048.78 296.732 1050.79 298.06C1052.81 299.366 1054.42 301.148 1055.64 303.405C1056.88 305.663 1057.5 308.485 1057.5 311.871V346H1045.95V338.995H1045.55C1044.82 340.411 1043.79 341.739 1042.46 342.979C1041.15 344.196 1039.5 345.181 1037.51 345.934C1035.54 346.664 1033.23 347.029 1030.57 347.029ZM1033.69 338.198C1036.11 338.198 1038.2 337.722 1039.97 336.771C1041.74 335.797 1043.1 334.513 1044.05 332.919C1045.03 331.326 1045.51 329.588 1045.51 327.707V321.698C1045.14 322.008 1044.5 322.296 1043.59 322.561C1042.7 322.827 1041.71 323.059 1040.6 323.258C1039.49 323.458 1038.4 323.635 1037.31 323.79C1036.23 323.945 1035.29 324.077 1034.49 324.188C1032.7 324.431 1031.09 324.83 1029.68 325.383C1028.26 325.937 1027.14 326.711 1026.32 327.707C1025.51 328.681 1025.1 329.943 1025.1 331.492C1025.1 333.705 1025.9 335.376 1027.52 336.505C1029.14 337.634 1031.19 338.198 1033.69 338.198ZM1081.6 316.121V346H1069.58V295.006H1081.07V303.671H1081.67C1082.84 300.816 1084.71 298.547 1087.28 296.865C1089.87 295.183 1093.07 294.342 1096.87 294.342C1100.39 294.342 1103.46 295.094 1106.07 296.599C1108.7 298.104 1110.74 300.284 1112.18 303.14C1113.64 305.995 1114.36 309.459 1114.34 313.531V346H1102.32V315.39C1102.32 311.982 1101.43 309.315 1099.66 307.389C1097.91 305.464 1095.49 304.501 1092.39 304.501C1090.29 304.501 1088.42 304.966 1086.78 305.895C1085.16 306.803 1083.89 308.12 1082.96 309.846C1082.06 311.572 1081.6 313.664 1081.6 316.121ZM1141.23 347.029C1138 347.029 1135.09 346.454 1132.5 345.303C1129.93 344.13 1127.89 342.403 1126.39 340.124C1124.9 337.844 1124.16 335.033 1124.16 331.691C1124.16 328.814 1124.69 326.435 1125.76 324.553C1126.82 322.672 1128.27 321.167 1130.11 320.038C1131.94 318.909 1134.01 318.057 1136.31 317.482C1138.64 316.884 1141.04 316.453 1143.52 316.187C1146.51 315.877 1148.93 315.6 1150.79 315.357C1152.65 315.091 1154 314.693 1154.84 314.162C1155.7 313.608 1156.13 312.756 1156.13 311.605V311.406C1156.13 308.905 1155.39 306.969 1153.91 305.596C1152.43 304.224 1150.29 303.538 1147.5 303.538C1144.56 303.538 1142.22 304.18 1140.5 305.464C1138.79 306.747 1137.64 308.263 1137.04 310.012L1125.82 308.418C1126.71 305.32 1128.17 302.73 1130.21 300.65C1132.24 298.547 1134.73 296.976 1137.68 295.935C1140.62 294.873 1143.87 294.342 1147.44 294.342C1149.89 294.342 1152.34 294.63 1154.77 295.205C1157.21 295.78 1159.43 296.732 1161.45 298.06C1163.46 299.366 1165.08 301.148 1166.29 303.405C1167.53 305.663 1168.15 308.485 1168.15 311.871V346H1156.6V338.995H1156.2C1155.47 340.411 1154.44 341.739 1153.11 342.979C1151.81 344.196 1150.16 345.181 1148.17 345.934C1146.2 346.664 1143.88 347.029 1141.23 347.029ZM1144.35 338.198C1146.76 338.198 1148.85 337.722 1150.62 336.771C1152.39 335.797 1153.75 334.513 1154.71 332.919C1155.68 331.326 1156.17 329.588 1156.17 327.707V321.698C1155.79 322.008 1155.15 322.296 1154.24 322.561C1153.36 322.827 1152.36 323.059 1151.25 323.258C1150.15 323.458 1149.05 323.635 1147.97 323.79C1146.88 323.945 1145.94 324.077 1145.14 324.188C1143.35 324.431 1141.75 324.83 1140.33 325.383C1138.91 325.937 1137.8 326.711 1136.98 327.707C1136.16 328.681 1135.75 329.943 1135.75 331.492C1135.75 333.705 1136.56 335.376 1138.17 336.505C1139.79 337.634 1141.85 338.198 1144.35 338.198ZM1205.7 295.006V304.302H1176.39V295.006H1205.7ZM1183.62 282.788H1195.64V330.662C1195.64 332.278 1195.88 333.517 1196.37 334.38C1196.88 335.221 1197.54 335.797 1198.36 336.107C1199.18 336.416 1200.09 336.571 1201.09 336.571C1201.84 336.571 1202.52 336.516 1203.14 336.405C1203.79 336.295 1204.27 336.195 1204.6 336.107L1206.63 345.502C1205.99 345.723 1205.07 345.967 1203.87 346.232C1202.7 346.498 1201.26 346.653 1199.56 346.697C1196.55 346.786 1193.84 346.332 1191.42 345.336C1189.01 344.318 1187.1 342.746 1185.68 340.622C1184.29 338.497 1183.6 335.841 1183.62 332.654V282.788ZM1237.78 346.996C1232.67 346.996 1228.25 345.934 1224.53 343.809C1220.84 341.662 1217.99 338.63 1216 334.712C1214.01 330.773 1213.01 326.136 1213.01 320.802C1213.01 315.556 1214.01 310.953 1216 306.991C1218.01 303.007 1220.83 299.908 1224.43 297.695C1228.04 295.46 1232.28 294.342 1237.15 294.342C1240.29 294.342 1243.26 294.851 1246.05 295.869C1248.86 296.865 1251.34 298.414 1253.48 300.517C1255.65 302.62 1257.36 305.298 1258.6 308.551C1259.83 311.783 1260.45 315.634 1260.45 320.105V323.79H1218.66V315.689H1248.93C1248.91 313.387 1248.41 311.34 1247.44 309.547C1246.47 307.732 1245.11 306.305 1243.36 305.264C1241.63 304.224 1239.62 303.704 1237.31 303.704C1234.86 303.704 1232.7 304.302 1230.84 305.497C1228.98 306.67 1227.53 308.219 1226.49 310.145C1225.47 312.048 1224.95 314.14 1224.93 316.419V323.491C1224.93 326.457 1225.47 329.002 1226.56 331.127C1227.64 333.229 1229.16 334.845 1231.11 335.974C1233.05 337.08 1235.33 337.634 1237.95 337.634C1239.69 337.634 1241.28 337.39 1242.69 336.903C1244.11 336.394 1245.34 335.653 1246.38 334.679C1247.42 333.705 1248.2 332.499 1248.74 331.06L1259.96 332.322C1259.25 335.288 1257.9 337.877 1255.91 340.091C1253.94 342.282 1251.41 343.986 1248.34 345.203C1245.26 346.398 1241.74 346.996 1237.78 346.996ZM1293.2 346.996C1288.08 346.996 1283.67 345.934 1279.95 343.809C1276.25 341.662 1273.41 338.63 1271.42 334.712C1269.43 330.773 1268.43 326.136 1268.43 320.802C1268.43 315.556 1269.43 310.953 1271.42 306.991C1273.43 303.007 1276.24 299.908 1279.85 297.695C1283.46 295.46 1287.7 294.342 1292.57 294.342C1295.71 294.342 1298.68 294.851 1301.46 295.869C1304.27 296.865 1306.75 298.414 1308.9 300.517C1311.07 302.62 1312.77 305.298 1314.01 308.551C1315.25 311.783 1315.87 315.634 1315.87 320.105V323.79H1274.07V315.689H1304.35C1304.33 313.387 1303.83 311.34 1302.86 309.547C1301.88 307.732 1300.52 306.305 1298.77 305.264C1297.05 304.224 1295.03 303.704 1292.73 303.704C1290.28 303.704 1288.12 304.302 1286.26 305.497C1284.4 306.67 1282.95 308.219 1281.91 310.145C1280.89 312.048 1280.37 314.14 1280.35 316.419V323.491C1280.35 326.457 1280.89 329.002 1281.98 331.127C1283.06 333.229 1284.58 334.845 1286.52 335.974C1288.47 337.08 1290.75 337.634 1293.36 337.634C1295.11 337.634 1296.69 337.39 1298.11 336.903C1299.53 336.394 1300.76 335.653 1301.8 334.679C1302.84 333.705 1303.62 332.499 1304.15 331.06L1315.37 332.322C1314.67 335.288 1313.32 337.877 1311.32 340.091C1309.35 342.282 1306.83 343.986 1303.75 345.203C1300.68 346.398 1297.16 346.996 1293.2 346.996Z" fill="#886E34"/>
<path d="M942.102 462.389C940.36 462.389 938.77 461.965 937.33 461.115C935.89 460.252 934.739 459.1 933.875 457.66C933.026 456.221 932.601 454.63 932.601 452.888C932.601 451.132 933.026 449.541 933.875 448.116C934.739 446.676 935.89 445.532 937.33 444.683C938.77 443.819 940.36 443.387 942.102 443.387C943.858 443.387 945.449 443.819 946.874 444.683C948.314 445.532 949.458 446.676 950.308 448.116C951.172 449.541 951.603 451.132 951.603 452.888C951.603 454.63 951.172 456.221 950.308 457.66C949.458 459.1 948.314 460.252 946.874 461.115C945.449 461.965 943.858 462.389 942.102 462.389ZM998.764 475V430.776H1014.22C1017.31 430.776 1019.85 431.309 1021.85 432.374C1023.85 433.425 1025.34 434.843 1026.32 436.628C1027.3 438.399 1027.79 440.364 1027.79 442.523C1027.79 444.423 1027.45 445.993 1026.77 447.231C1026.11 448.469 1025.23 449.448 1024.14 450.167C1023.06 450.887 1021.88 451.42 1020.62 451.765V452.197C1021.97 452.283 1023.33 452.759 1024.7 453.622C1026.07 454.486 1027.21 455.724 1028.13 457.336C1029.05 458.949 1029.51 460.921 1029.51 463.253C1029.51 465.47 1029.01 467.464 1028 469.234C1026.99 471.005 1025.4 472.409 1023.23 473.445C1021.06 474.482 1018.23 475 1014.74 475H998.764ZM1004.12 470.249H1014.74C1018.24 470.249 1020.72 469.573 1022.19 468.22C1023.68 466.852 1024.42 465.196 1024.42 463.253C1024.42 461.756 1024.04 460.374 1023.27 459.107C1022.51 457.826 1021.42 456.804 1020.01 456.041C1018.6 455.263 1016.93 454.875 1015 454.875H1004.12V470.249ZM1004.12 450.21H1014.05C1015.66 450.21 1017.12 449.894 1018.41 449.26C1019.72 448.627 1020.76 447.734 1021.52 446.583C1022.3 445.431 1022.69 444.078 1022.69 442.523C1022.69 440.58 1022.01 438.931 1020.66 437.578C1019.31 436.211 1017.16 435.527 1014.22 435.527H1004.12V450.21ZM1037.62 475V441.832H1042.55V446.842H1042.89C1043.5 445.201 1044.59 443.869 1046.17 442.847C1047.76 441.825 1049.54 441.314 1051.53 441.314C1051.9 441.314 1052.37 441.321 1052.93 441.336C1053.49 441.35 1053.92 441.371 1054.21 441.4V446.583C1054.03 446.54 1053.64 446.475 1053.02 446.388C1052.41 446.288 1051.77 446.237 1051.1 446.237C1049.48 446.237 1048.04 446.576 1046.78 447.252C1045.52 447.914 1044.53 448.836 1043.8 450.016C1043.08 451.182 1042.72 452.514 1042.72 454.011V475H1037.62ZM1070.01 475.777C1067.9 475.777 1066 475.381 1064.28 474.59C1062.57 473.784 1061.21 472.625 1060.2 471.113C1059.2 469.587 1058.69 467.745 1058.69 465.585C1058.69 463.685 1059.07 462.145 1059.81 460.964C1060.56 459.769 1061.56 458.834 1062.82 458.157C1064.07 457.48 1065.45 456.977 1066.96 456.645C1068.49 456.3 1070.02 456.026 1071.56 455.825C1073.58 455.566 1075.21 455.371 1076.46 455.242C1077.73 455.098 1078.65 454.86 1079.23 454.529C1079.82 454.198 1080.11 453.622 1080.11 452.802V452.629C1080.11 450.498 1079.53 448.843 1078.36 447.662C1077.21 446.482 1075.46 445.892 1073.12 445.892C1070.68 445.892 1068.78 446.424 1067.39 447.49C1066.01 448.555 1065.04 449.692 1064.48 450.901L1059.64 449.174C1060.51 447.159 1061.66 445.589 1063.1 444.467C1064.55 443.329 1066.13 442.538 1067.85 442.091C1069.57 441.631 1071.27 441.4 1072.94 441.4C1074.01 441.4 1075.23 441.53 1076.61 441.789C1078.01 442.034 1079.36 442.545 1080.65 443.322C1081.96 444.099 1083.05 445.273 1083.91 446.842C1084.78 448.411 1085.21 450.513 1085.21 453.147V475H1080.11V470.509H1079.85C1079.51 471.228 1078.93 471.998 1078.13 472.819C1077.32 473.64 1076.25 474.338 1074.91 474.914C1073.57 475.489 1071.94 475.777 1070.01 475.777ZM1070.78 471.2C1072.8 471.2 1074.5 470.804 1075.88 470.012C1077.28 469.22 1078.33 468.198 1079.03 466.946C1079.75 465.693 1080.11 464.376 1080.11 462.994V458.33C1079.9 458.589 1079.42 458.826 1078.69 459.042C1077.97 459.244 1077.13 459.424 1076.18 459.582C1075.25 459.726 1074.33 459.856 1073.44 459.971C1072.56 460.072 1071.85 460.158 1071.3 460.23C1069.98 460.403 1068.74 460.683 1067.59 461.072C1066.45 461.446 1065.53 462.015 1064.82 462.778C1064.13 463.527 1063.79 464.549 1063.79 465.844C1063.79 467.615 1064.44 468.954 1065.75 469.861C1067.08 470.753 1068.75 471.2 1070.78 471.2ZM1107.03 475.691C1104.27 475.691 1101.83 474.993 1099.71 473.596C1097.6 472.186 1095.94 470.199 1094.75 467.637C1093.55 465.06 1092.96 462.015 1092.96 458.502C1092.96 455.019 1093.55 451.996 1094.75 449.433C1095.94 446.871 1097.61 444.891 1099.74 443.495C1101.87 442.098 1104.33 441.4 1107.12 441.4C1109.28 441.4 1110.99 441.76 1112.24 442.48C1113.51 443.185 1114.47 443.992 1115.13 444.898C1115.81 445.791 1116.33 446.525 1116.71 447.101H1117.14V430.776H1122.24V475H1117.31V469.904H1116.71C1116.33 470.509 1115.8 471.271 1115.11 472.193C1114.42 473.1 1113.43 473.913 1112.15 474.633C1110.87 475.338 1109.17 475.691 1107.03 475.691ZM1107.73 471.113C1109.77 471.113 1111.5 470.581 1112.91 469.515C1114.32 468.436 1115.39 466.946 1116.13 465.045C1116.86 463.131 1117.23 460.921 1117.23 458.416C1117.23 455.94 1116.87 453.773 1116.15 451.916C1115.43 450.045 1114.36 448.591 1112.95 447.554C1111.54 446.504 1109.8 445.978 1107.73 445.978C1105.57 445.978 1103.77 446.532 1102.33 447.641C1100.9 448.735 1099.83 450.225 1099.11 452.111C1098.4 453.982 1098.05 456.084 1098.05 458.416C1098.05 460.777 1098.41 462.922 1099.13 464.851C1099.87 466.766 1100.95 468.292 1102.37 469.429C1103.81 470.552 1105.59 471.113 1107.73 471.113ZM1146.18 475.691C1142.99 475.691 1140.23 474.986 1137.91 473.575C1135.61 472.15 1133.83 470.163 1132.58 467.615C1131.34 465.053 1130.72 462.073 1130.72 458.675C1130.72 455.278 1131.34 452.283 1132.58 449.692C1133.83 447.087 1135.57 445.057 1137.81 443.603C1140.05 442.134 1142.67 441.4 1145.67 441.4C1147.39 441.4 1149.1 441.688 1150.78 442.264C1152.47 442.84 1154 443.776 1155.38 445.071C1156.76 446.352 1157.87 448.051 1158.69 450.167C1159.51 452.283 1159.92 454.889 1159.92 457.984V460.144H1134.35V455.738H1154.73C1154.73 453.867 1154.36 452.197 1153.61 450.729C1152.88 449.26 1151.83 448.102 1150.46 447.252C1149.11 446.403 1147.51 445.978 1145.67 445.978C1143.64 445.978 1141.88 446.482 1140.4 447.49C1138.93 448.483 1137.8 449.779 1137.01 451.377C1136.21 452.974 1135.82 454.688 1135.82 456.516V459.453C1135.82 461.957 1136.25 464.081 1137.11 465.823C1137.99 467.55 1139.21 468.867 1140.76 469.774C1142.32 470.667 1144.13 471.113 1146.18 471.113C1147.52 471.113 1148.73 470.926 1149.81 470.552C1150.91 470.163 1151.85 469.587 1152.64 468.824C1153.43 468.047 1154.04 467.082 1154.48 465.931L1159.4 467.313C1158.88 468.983 1158.01 470.451 1156.79 471.718C1155.56 472.97 1154.05 473.949 1152.25 474.655C1150.45 475.345 1148.43 475.691 1146.18 475.691ZM1172.77 455.047V475H1167.67V441.832H1172.59V447.015H1173.02C1173.8 445.33 1174.98 443.977 1176.57 442.955C1178.15 441.919 1180.19 441.4 1182.7 441.4C1184.94 441.4 1186.91 441.861 1188.59 442.782C1190.28 443.689 1191.59 445.071 1192.52 446.928C1193.46 448.771 1193.93 451.103 1193.93 453.925V475H1188.83V454.27C1188.83 451.664 1188.15 449.635 1186.8 448.181C1185.45 446.712 1183.59 445.978 1181.23 445.978C1179.6 445.978 1178.15 446.331 1176.87 447.036C1175.6 447.742 1174.6 448.771 1173.87 450.124C1173.13 451.477 1172.77 453.118 1172.77 455.047ZM1217.66 441.832V446.151H1200.48V441.832H1217.66ZM1205.49 433.886H1210.58V465.499C1210.58 466.938 1210.79 468.018 1211.21 468.738C1211.64 469.443 1212.19 469.918 1212.85 470.163C1213.53 470.393 1214.24 470.509 1214.99 470.509C1215.55 470.509 1216.01 470.48 1216.37 470.422C1216.73 470.35 1217.02 470.293 1217.23 470.249L1218.27 474.827C1217.92 474.957 1217.44 475.086 1216.82 475.216C1216.2 475.36 1215.42 475.432 1214.47 475.432C1213.03 475.432 1211.62 475.122 1210.24 474.503C1208.87 473.884 1207.73 472.941 1206.82 471.675C1205.93 470.408 1205.49 468.81 1205.49 466.881V433.886ZM1238.45 475.691C1235.45 475.691 1232.83 474.978 1230.57 473.553C1228.32 472.128 1226.56 470.134 1225.3 467.572C1224.05 465.009 1223.42 462.015 1223.42 458.589C1223.42 455.134 1224.05 452.118 1225.3 449.541C1226.56 446.964 1228.32 444.963 1230.57 443.538C1232.83 442.113 1235.45 441.4 1238.45 441.4C1241.44 441.4 1244.06 442.113 1246.31 443.538C1248.57 444.963 1250.32 446.964 1251.58 449.541C1252.84 452.118 1253.48 455.134 1253.48 458.589C1253.48 462.015 1252.84 465.009 1251.58 467.572C1250.32 470.134 1248.57 472.128 1246.31 473.553C1244.06 474.978 1241.44 475.691 1238.45 475.691ZM1238.45 471.113C1240.72 471.113 1242.59 470.53 1244.06 469.364C1245.53 468.198 1246.62 466.665 1247.32 464.765C1248.03 462.864 1248.38 460.806 1248.38 458.589C1248.38 456.372 1248.03 454.306 1247.32 452.391C1246.62 450.477 1245.53 448.929 1244.06 447.749C1242.59 446.568 1240.72 445.978 1238.45 445.978C1236.17 445.978 1234.3 446.568 1232.83 447.749C1231.37 448.929 1230.28 450.477 1229.57 452.391C1228.87 454.306 1228.51 456.372 1228.51 458.589C1228.51 460.806 1228.87 462.864 1229.57 464.765C1230.28 466.665 1231.37 468.198 1232.83 469.364C1234.3 470.53 1236.17 471.113 1238.45 471.113ZM1266.35 455.047V475H1261.26V441.832H1266.18V447.015H1266.61C1267.39 445.33 1268.57 443.977 1270.15 442.955C1271.74 441.919 1273.78 441.4 1276.29 441.4C1278.53 441.4 1280.5 441.861 1282.18 442.782C1283.86 443.689 1285.17 445.071 1286.11 446.928C1287.05 448.771 1287.51 451.103 1287.51 453.925V475H1282.42V454.27C1282.42 451.664 1281.74 449.635 1280.39 448.181C1279.04 446.712 1277.18 445.978 1274.82 445.978C1273.19 445.978 1271.74 446.331 1270.46 447.036C1269.19 447.742 1268.19 448.771 1267.45 450.124C1266.72 451.477 1266.35 453.118 1266.35 455.047ZM942.102 536.389C940.36 536.389 938.77 535.965 937.33 535.115C935.89 534.252 934.739 533.1 933.875 531.66C933.026 530.221 932.601 528.63 932.601 526.888C932.601 525.132 933.026 523.541 933.875 522.116C934.739 520.676 935.89 519.532 937.33 518.683C938.77 517.819 940.36 517.387 942.102 517.387C943.858 517.387 945.449 517.819 946.874 518.683C948.314 519.532 949.458 520.676 950.308 522.116C951.172 523.541 951.603 525.132 951.603 526.888C951.603 528.63 951.172 530.221 950.308 531.66C949.458 533.1 948.314 534.252 946.874 535.115C945.449 535.965 943.858 536.389 942.102 536.389ZM998.764 549V504.776H1004.12V544.249H1024.68V549H998.764ZM1042.04 549.777C1039.94 549.777 1038.03 549.381 1036.32 548.59C1034.6 547.784 1033.24 546.625 1032.23 545.113C1031.23 543.587 1030.72 541.745 1030.72 539.585C1030.72 537.685 1031.1 536.145 1031.85 534.964C1032.59 533.769 1033.59 532.834 1034.85 532.157C1036.1 531.48 1037.48 530.977 1038.99 530.645C1040.52 530.3 1042.05 530.026 1043.59 529.825C1045.61 529.566 1047.24 529.371 1048.49 529.242C1049.76 529.098 1050.68 528.86 1051.26 528.529C1051.85 528.198 1052.14 527.622 1052.14 526.802V526.629C1052.14 524.498 1051.56 522.843 1050.39 521.662C1049.24 520.482 1047.49 519.892 1045.15 519.892C1042.71 519.892 1040.81 520.424 1039.42 521.49C1038.04 522.555 1037.07 523.692 1036.51 524.901L1031.67 523.174C1032.54 521.159 1033.69 519.589 1035.13 518.467C1036.58 517.329 1038.17 516.538 1039.88 516.091C1041.61 515.631 1043.3 515.4 1044.97 515.4C1046.04 515.4 1047.26 515.53 1048.65 515.789C1050.04 516.034 1051.39 516.545 1052.68 517.322C1053.99 518.099 1055.08 519.273 1055.94 520.842C1056.81 522.411 1057.24 524.513 1057.24 527.147V549H1052.14V544.509H1051.88C1051.54 545.228 1050.96 545.998 1050.16 546.819C1049.35 547.64 1048.28 548.338 1046.94 548.914C1045.6 549.489 1043.97 549.777 1042.04 549.777ZM1042.81 545.2C1044.83 545.2 1046.53 544.804 1047.91 544.012C1049.31 543.22 1050.36 542.198 1051.06 540.946C1051.78 539.693 1052.14 538.376 1052.14 536.994V532.33C1051.93 532.589 1051.45 532.826 1050.72 533.042C1050 533.244 1049.16 533.424 1048.21 533.582C1047.28 533.726 1046.36 533.856 1045.47 533.971C1044.59 534.072 1043.88 534.158 1043.33 534.23C1042.01 534.403 1040.77 534.683 1039.62 535.072C1038.48 535.446 1037.56 536.015 1036.86 536.778C1036.16 537.527 1035.82 538.549 1035.82 539.844C1035.82 541.615 1036.47 542.954 1037.78 543.861C1039.11 544.753 1040.79 545.2 1042.81 545.2ZM1071.29 536.908L1071.21 530.602H1072.24L1086.75 515.832H1093.06L1077.6 531.466H1077.17L1071.29 536.908ZM1066.54 549V504.776H1071.64V549H1066.54ZM1087.62 549L1074.66 532.589L1078.29 529.047L1094.09 549H1087.62ZM1112.16 549.691C1108.96 549.691 1106.2 548.986 1103.89 547.575C1101.58 546.15 1099.81 544.163 1098.55 541.615C1097.32 539.053 1096.7 536.073 1096.7 532.675C1096.7 529.278 1097.32 526.283 1098.55 523.692C1099.81 521.087 1101.55 519.057 1103.78 517.603C1106.02 516.134 1108.64 515.4 1111.64 515.4C1113.37 515.4 1115.07 515.688 1116.76 516.264C1118.44 516.84 1119.97 517.776 1121.36 519.071C1122.74 520.352 1123.84 522.051 1124.66 524.167C1125.48 526.283 1125.89 528.889 1125.89 531.984V534.144H1100.32V529.738H1120.71C1120.71 527.867 1120.33 526.197 1119.59 524.729C1118.85 523.26 1117.8 522.102 1116.43 521.252C1115.08 520.403 1113.48 519.978 1111.64 519.978C1109.61 519.978 1107.85 520.482 1106.37 521.49C1104.9 522.483 1103.77 523.779 1102.98 525.377C1102.19 526.974 1101.79 528.688 1101.79 530.516V533.453C1101.79 535.957 1102.22 538.081 1103.09 539.823C1103.97 541.55 1105.18 542.867 1106.74 543.774C1108.29 544.667 1110.1 545.113 1112.16 545.113C1113.5 545.113 1114.71 544.926 1115.79 544.552C1116.88 544.163 1117.82 543.587 1118.61 542.824C1119.41 542.047 1120.02 541.082 1120.45 539.931L1125.37 541.313C1124.85 542.983 1123.98 544.451 1122.76 545.718C1121.54 546.97 1120.02 547.949 1118.23 548.655C1116.43 549.345 1114.4 549.691 1112.16 549.691ZM1141.16 549L1131.05 515.832H1136.41L1143.58 541.226H1143.92L1151 515.832H1156.45L1163.44 541.14H1163.79L1170.96 515.832H1176.31L1166.21 549H1161.2L1153.94 523.519H1153.42L1146.17 549H1141.16ZM1195.4 549.691C1192.4 549.691 1189.77 548.978 1187.51 547.553C1185.27 546.128 1183.51 544.134 1182.25 541.572C1180.99 539.009 1180.37 536.015 1180.37 532.589C1180.37 529.134 1180.99 526.118 1182.25 523.541C1183.51 520.964 1185.27 518.963 1187.51 517.538C1189.77 516.113 1192.4 515.4 1195.4 515.4C1198.39 515.4 1201.01 516.113 1203.26 517.538C1205.52 518.963 1207.27 520.964 1208.52 523.541C1209.79 526.118 1210.42 529.134 1210.42 532.589C1210.42 536.015 1209.79 539.009 1208.52 541.572C1207.27 544.134 1205.52 546.128 1203.26 547.553C1201.01 548.978 1198.39 549.691 1195.4 549.691ZM1195.4 545.113C1197.67 545.113 1199.54 544.53 1201.01 543.364C1202.48 542.198 1203.57 540.665 1204.27 538.765C1204.98 536.864 1205.33 534.806 1205.33 532.589C1205.33 530.372 1204.98 528.306 1204.27 526.391C1203.57 524.477 1202.48 522.929 1201.01 521.749C1199.54 520.568 1197.67 519.978 1195.4 519.978C1193.12 519.978 1191.25 520.568 1189.78 521.749C1188.31 522.929 1187.23 524.477 1186.52 526.391C1185.82 528.306 1185.46 530.372 1185.46 532.589C1185.46 534.806 1185.82 536.864 1186.52 538.765C1187.23 540.665 1188.31 542.198 1189.78 543.364C1191.25 544.53 1193.12 545.113 1195.4 545.113ZM1231.68 549.691C1228.68 549.691 1226.06 548.978 1223.8 547.553C1221.55 546.128 1219.79 544.134 1218.53 541.572C1217.28 539.009 1216.65 536.015 1216.65 532.589C1216.65 529.134 1217.28 526.118 1218.53 523.541C1219.79 520.964 1221.55 518.963 1223.8 517.538C1226.06 516.113 1228.68 515.4 1231.68 515.4C1234.67 515.4 1237.29 516.113 1239.54 517.538C1241.8 518.963 1243.55 520.964 1244.81 523.541C1246.07 526.118 1246.71 529.134 1246.71 532.589C1246.71 536.015 1246.07 539.009 1244.81 541.572C1243.55 544.134 1241.8 546.128 1239.54 547.553C1237.29 548.978 1234.67 549.691 1231.68 549.691ZM1231.68 545.113C1233.95 545.113 1235.82 544.53 1237.29 543.364C1238.76 542.198 1239.85 540.665 1240.55 538.765C1241.26 536.864 1241.61 534.806 1241.61 532.589C1241.61 530.372 1241.26 528.306 1240.55 526.391C1239.85 524.477 1238.76 522.929 1237.29 521.749C1235.82 520.568 1233.95 519.978 1231.68 519.978C1229.4 519.978 1227.53 520.568 1226.06 521.749C1224.6 522.929 1223.51 524.477 1222.8 526.391C1222.1 528.306 1221.75 530.372 1221.75 532.589C1221.75 534.806 1222.1 536.864 1222.8 538.765C1223.51 540.665 1224.6 542.198 1226.06 543.364C1227.53 544.53 1229.4 545.113 1231.68 545.113ZM1267.01 549.691C1264.25 549.691 1261.81 548.993 1259.69 547.596C1257.57 546.186 1255.92 544.199 1254.72 541.637C1253.53 539.06 1252.93 536.015 1252.93 532.502C1252.93 529.019 1253.53 525.996 1254.72 523.433C1255.92 520.871 1257.58 518.891 1259.71 517.495C1261.84 516.098 1264.3 515.4 1267.1 515.4C1269.26 515.4 1270.96 515.76 1272.22 516.48C1273.48 517.185 1274.45 517.992 1275.11 518.898C1275.79 519.791 1276.31 520.525 1276.68 521.101H1277.12V504.776H1282.21V549H1277.29V543.904H1276.68C1276.31 544.509 1275.78 545.271 1275.09 546.193C1274.4 547.1 1273.41 547.913 1272.13 548.633C1270.85 549.338 1269.14 549.691 1267.01 549.691ZM1267.7 545.113C1269.75 545.113 1271.47 544.581 1272.88 543.515C1274.3 542.436 1275.37 540.946 1276.1 539.045C1276.84 537.131 1277.2 534.921 1277.2 532.416C1277.2 529.94 1276.84 527.773 1276.12 525.916C1275.4 524.045 1274.34 522.591 1272.93 521.554C1271.52 520.504 1269.77 519.978 1267.7 519.978C1265.54 519.978 1263.74 520.532 1262.3 521.641C1260.88 522.735 1259.81 524.225 1259.09 526.111C1258.38 527.982 1258.03 530.084 1258.03 532.416C1258.03 534.777 1258.39 536.922 1259.11 538.851C1259.84 540.766 1260.92 542.292 1262.35 543.429C1263.79 544.552 1265.57 545.113 1267.7 545.113ZM1310.05 549V504.776H1324.99C1328.44 504.776 1331.28 505.366 1333.5 506.547C1335.71 507.713 1337.36 509.318 1338.42 511.362C1339.49 513.406 1340.02 515.731 1340.02 518.337C1340.02 520.943 1339.49 523.253 1338.42 525.269C1337.36 527.284 1335.72 528.868 1333.52 530.019C1331.32 531.156 1328.5 531.725 1325.08 531.725H1312.98V526.888H1324.9C1327.26 526.888 1329.16 526.543 1330.6 525.852C1332.06 525.161 1333.11 524.182 1333.76 522.915C1334.42 521.634 1334.75 520.108 1334.75 518.337C1334.75 516.566 1334.42 515.019 1333.76 513.694C1333.09 512.37 1332.04 511.348 1330.58 510.628C1329.13 509.894 1327.21 509.527 1324.82 509.527H1315.4V549H1310.05ZM1330.86 529.134L1341.75 549H1335.53L1324.82 529.134H1330.86ZM1358.01 549.777C1355.91 549.777 1354 549.381 1352.29 548.59C1350.58 547.784 1349.22 546.625 1348.21 545.113C1347.2 543.587 1346.7 541.745 1346.7 539.585C1346.7 537.685 1347.07 536.145 1347.82 534.964C1348.57 533.769 1349.57 532.834 1350.82 532.157C1352.07 531.48 1353.46 530.977 1354.97 530.645C1356.49 530.3 1358.03 530.026 1359.57 529.825C1361.58 529.566 1363.22 529.371 1364.47 529.242C1365.74 529.098 1366.66 528.86 1367.23 528.529C1367.82 528.198 1368.12 527.622 1368.12 526.802V526.629C1368.12 524.498 1367.53 522.843 1366.37 521.662C1365.22 520.482 1363.47 519.892 1361.12 519.892C1358.69 519.892 1356.78 520.424 1355.4 521.49C1354.02 522.555 1353.05 523.692 1352.48 524.901L1347.65 523.174C1348.51 521.159 1349.66 519.589 1351.1 518.467C1352.56 517.329 1354.14 516.538 1355.85 516.091C1357.58 515.631 1359.28 515.4 1360.95 515.4C1362.01 515.4 1363.24 515.53 1364.62 515.789C1366.02 516.034 1367.36 516.545 1368.66 517.322C1369.97 518.099 1371.05 519.273 1371.92 520.842C1372.78 522.411 1373.21 524.513 1373.21 527.147V549H1368.12V544.509H1367.86C1367.51 545.228 1366.94 545.998 1366.13 546.819C1365.33 547.64 1364.25 548.338 1362.91 548.914C1361.57 549.489 1359.94 549.777 1358.01 549.777ZM1358.79 545.2C1360.8 545.2 1362.5 544.804 1363.89 544.012C1365.28 543.22 1366.33 542.198 1367.04 540.946C1367.76 539.693 1368.12 538.376 1368.12 536.994V532.33C1367.9 532.589 1367.43 532.826 1366.69 533.042C1365.97 533.244 1365.14 533.424 1364.19 533.582C1363.25 533.726 1362.34 533.856 1361.45 533.971C1360.57 534.072 1359.85 534.158 1359.31 534.23C1357.98 534.403 1356.75 534.683 1355.59 535.072C1354.46 535.446 1353.53 536.015 1352.83 536.778C1352.14 537.527 1351.79 538.549 1351.79 539.844C1351.79 541.615 1352.45 542.954 1353.76 543.861C1355.08 544.753 1356.76 545.2 1358.79 545.2ZM1387.61 529.047V549H1382.52V515.832H1387.44V521.015H1387.87C1388.65 519.33 1389.83 517.977 1391.41 516.955C1393 515.919 1395.04 515.4 1397.54 515.4C1399.79 515.4 1401.76 515.861 1403.44 516.782C1405.12 517.689 1406.43 519.071 1407.37 520.928C1408.31 522.771 1408.77 525.103 1408.77 527.925V549H1403.68V528.27C1403.68 525.664 1403 523.635 1401.65 522.181C1400.29 520.712 1398.44 519.978 1396.08 519.978C1394.45 519.978 1393 520.331 1391.71 521.036C1390.45 521.742 1389.45 522.771 1388.71 524.124C1387.98 525.477 1387.61 527.118 1387.61 529.047ZM1431.56 549.691C1428.45 549.691 1425.77 548.957 1423.53 547.488C1421.28 546.02 1419.55 543.997 1418.34 541.421C1417.14 538.844 1416.53 535.9 1416.53 532.589C1416.53 529.22 1417.15 526.247 1418.39 523.671C1419.64 521.079 1421.38 519.057 1423.61 517.603C1425.86 516.134 1428.48 515.4 1431.47 515.4C1433.81 515.4 1435.91 515.832 1437.78 516.696C1439.65 517.56 1441.18 518.769 1442.38 520.324C1443.57 521.878 1444.31 523.692 1444.6 525.765H1439.51C1439.12 524.254 1438.25 522.915 1436.92 521.749C1435.59 520.568 1433.81 519.978 1431.56 519.978C1429.57 519.978 1427.83 520.496 1426.33 521.533C1424.85 522.555 1423.69 524.002 1422.86 525.873C1422.04 527.73 1421.63 529.911 1421.63 532.416C1421.63 534.979 1422.03 537.21 1422.84 539.11C1423.66 541.01 1424.81 542.486 1426.29 543.537C1427.79 544.588 1429.54 545.113 1431.56 545.113C1432.88 545.113 1434.09 544.883 1435.17 544.422C1436.25 543.961 1437.16 543.299 1437.91 542.436C1438.66 541.572 1439.19 540.535 1439.51 539.326H1444.6C1444.31 541.284 1443.6 543.047 1442.46 544.616C1441.34 546.171 1439.85 547.409 1437.99 548.331C1436.15 549.238 1434.01 549.691 1431.56 549.691ZM1457.15 529.047V549H1452.05V504.776H1457.15V521.015H1457.58C1458.36 519.302 1459.52 517.941 1461.08 516.933C1462.65 515.911 1464.74 515.4 1467.34 515.4C1469.6 515.4 1471.58 515.854 1473.28 516.761C1474.98 517.653 1476.29 519.028 1477.23 520.885C1478.18 522.728 1478.66 525.074 1478.66 527.925V549H1473.56V528.27C1473.56 525.636 1472.88 523.599 1471.51 522.159C1470.16 520.705 1468.28 519.978 1465.87 519.978C1464.2 519.978 1462.71 520.331 1461.38 521.036C1460.07 521.742 1459.03 522.771 1458.27 524.124C1457.52 525.477 1457.15 527.118 1457.15 529.047ZM942.102 610.389C940.36 610.389 938.77 609.965 937.33 609.115C935.89 608.252 934.739 607.1 933.875 605.66C933.026 604.221 932.601 602.63 932.601 600.888C932.601 599.132 933.026 597.541 933.875 596.116C934.739 594.676 935.89 593.532 937.33 592.683C938.77 591.819 940.36 591.387 942.102 591.387C943.858 591.387 945.449 591.819 946.874 592.683C948.314 593.532 949.458 594.676 950.308 596.116C951.172 597.541 951.603 599.132 951.603 600.888C951.603 602.63 951.172 604.221 950.308 605.66C949.458 607.1 948.314 608.252 946.874 609.115C945.449 609.965 943.858 610.389 942.102 610.389ZM1000.58 623H994.963L1011.2 578.776H1016.73L1032.97 623H1027.35L1014.14 585.773H1013.79L1000.58 623ZM1002.65 605.725H1025.28V610.476H1002.65V605.725ZM1044.26 603.047V623H1039.17V589.832H1044.09V595.015H1044.52C1045.3 593.33 1046.48 591.977 1048.06 590.955C1049.65 589.919 1051.69 589.4 1054.19 589.4C1056.44 589.4 1058.41 589.861 1060.09 590.782C1061.77 591.689 1063.08 593.071 1064.02 594.928C1064.96 596.771 1065.42 599.103 1065.42 601.925V623H1060.33V602.27C1060.33 599.664 1059.65 597.635 1058.3 596.181C1056.94 594.712 1055.09 593.978 1052.73 593.978C1051.1 593.978 1049.65 594.331 1048.36 595.036C1047.1 595.742 1046.1 596.771 1045.36 598.124C1044.63 599.477 1044.26 601.118 1044.26 603.047ZM1079.83 603.047V623H1074.74V589.832H1079.66V595.015H1080.09C1080.87 593.33 1082.05 591.977 1083.63 590.955C1085.22 589.919 1087.26 589.4 1089.76 589.4C1092.01 589.4 1093.98 589.861 1095.66 590.782C1097.34 591.689 1098.65 593.071 1099.59 594.928C1100.53 596.771 1100.99 599.103 1100.99 601.925V623H1095.9V602.27C1095.9 599.664 1095.22 597.635 1093.87 596.181C1092.51 594.712 1090.66 593.978 1088.3 593.978C1086.67 593.978 1085.22 594.331 1083.93 595.036C1082.67 595.742 1081.67 596.771 1080.93 598.124C1080.2 599.477 1079.83 601.118 1079.83 603.047ZM1120.07 623.777C1117.96 623.777 1116.06 623.381 1114.34 622.59C1112.63 621.784 1111.27 620.625 1110.26 619.113C1109.25 617.587 1108.75 615.745 1108.75 613.585C1108.75 611.685 1109.13 610.145 1109.87 608.964C1110.62 607.769 1111.62 606.834 1112.88 606.157C1114.13 605.48 1115.51 604.977 1117.02 604.645C1118.55 604.3 1120.08 604.026 1121.62 603.825C1123.64 603.566 1125.27 603.371 1126.52 603.242C1127.79 603.098 1128.71 602.86 1129.29 602.529C1129.88 602.198 1130.17 601.622 1130.17 600.802V600.629C1130.17 598.498 1129.59 596.843 1128.42 595.662C1127.27 594.482 1125.52 593.892 1123.18 593.892C1120.74 593.892 1118.84 594.424 1117.45 595.49C1116.07 596.555 1115.1 597.692 1114.54 598.901L1109.7 597.174C1110.57 595.159 1111.72 593.589 1113.16 592.467C1114.61 591.329 1116.19 590.538 1117.91 590.091C1119.63 589.631 1121.33 589.4 1123 589.4C1124.07 589.4 1125.29 589.53 1126.67 589.789C1128.07 590.034 1129.42 590.545 1130.71 591.322C1132.02 592.099 1133.11 593.273 1133.97 594.842C1134.84 596.411 1135.27 598.513 1135.27 601.147V623H1130.17V618.509H1129.91C1129.57 619.228 1128.99 619.998 1128.19 620.819C1127.38 621.64 1126.31 622.338 1124.97 622.914C1123.63 623.489 1122 623.777 1120.07 623.777ZM1120.84 619.2C1122.86 619.2 1124.56 618.804 1125.94 618.012C1127.34 617.22 1128.39 616.198 1129.09 614.946C1129.81 613.693 1130.17 612.376 1130.17 610.994V606.33C1129.96 606.589 1129.48 606.826 1128.75 607.042C1128.03 607.244 1127.19 607.424 1126.24 607.582C1125.31 607.726 1124.39 607.856 1123.5 607.971C1122.62 608.072 1121.91 608.158 1121.36 608.23C1120.04 608.403 1118.8 608.683 1117.65 609.072C1116.51 609.446 1115.59 610.015 1114.88 610.778C1114.19 611.527 1113.85 612.549 1113.85 613.844C1113.85 615.615 1114.5 616.954 1115.81 617.861C1117.14 618.753 1118.81 619.2 1120.84 619.2ZM1162.36 578.776H1168.75L1183.78 615.485H1184.3L1199.33 578.776H1205.72V623H1200.71V589.4H1200.28L1186.46 623H1181.62L1167.8 589.4H1167.37V623H1162.36V578.776ZM1225.53 623.777C1223.43 623.777 1221.52 623.381 1219.81 622.59C1218.09 621.784 1216.73 620.625 1215.73 619.113C1214.72 617.587 1214.21 615.745 1214.21 613.585C1214.21 611.685 1214.59 610.145 1215.34 608.964C1216.09 607.769 1217.09 606.834 1218.34 606.157C1219.59 605.48 1220.97 604.977 1222.48 604.645C1224.01 604.3 1225.54 604.026 1227.08 603.825C1229.1 603.566 1230.73 603.371 1231.99 603.242C1233.25 603.098 1234.17 602.86 1234.75 602.529C1235.34 602.198 1235.64 601.622 1235.64 600.802V600.629C1235.64 598.498 1235.05 596.843 1233.89 595.662C1232.73 594.482 1230.99 593.892 1228.64 593.892C1226.21 593.892 1224.3 594.424 1222.92 595.49C1221.53 596.555 1220.56 597.692 1220 598.901L1215.16 597.174C1216.03 595.159 1217.18 593.589 1218.62 592.467C1220.07 591.329 1221.66 590.538 1223.37 590.091C1225.1 589.631 1226.8 589.4 1228.47 589.4C1229.53 589.4 1230.76 589.53 1232.14 589.789C1233.53 590.034 1234.88 590.545 1236.18 591.322C1237.49 592.099 1238.57 593.273 1239.44 594.842C1240.3 596.411 1240.73 598.513 1240.73 601.147V623H1235.64V618.509H1235.38C1235.03 619.228 1234.45 619.998 1233.65 620.819C1232.84 621.64 1231.77 622.338 1230.43 622.914C1229.09 623.489 1227.46 623.777 1225.53 623.777ZM1226.31 619.2C1228.32 619.2 1230.02 618.804 1231.4 618.012C1232.8 617.22 1233.85 616.198 1234.56 614.946C1235.28 613.693 1235.64 612.376 1235.64 610.994V606.33C1235.42 606.589 1234.94 606.826 1234.21 607.042C1233.49 607.244 1232.66 607.424 1231.71 607.582C1230.77 607.726 1229.86 607.856 1228.96 607.971C1228.08 608.072 1227.37 608.158 1226.83 608.23C1225.5 608.403 1224.26 608.683 1223.11 609.072C1221.97 609.446 1221.05 610.015 1220.35 610.778C1219.66 611.527 1219.31 612.549 1219.31 613.844C1219.31 615.615 1219.97 616.954 1221.28 617.861C1222.6 618.753 1224.28 619.2 1226.31 619.2ZM1250.03 623V589.832H1254.96V594.842H1255.3C1255.91 593.201 1257 591.869 1258.58 590.847C1260.17 589.825 1261.95 589.314 1263.94 589.314C1264.31 589.314 1264.78 589.321 1265.34 589.336C1265.9 589.35 1266.33 589.371 1266.62 589.4V594.583C1266.44 594.54 1266.05 594.475 1265.43 594.388C1264.82 594.288 1264.18 594.237 1263.51 594.237C1261.9 594.237 1260.46 594.576 1259.19 595.252C1257.94 595.914 1256.94 596.836 1256.21 598.016C1255.49 599.182 1255.13 600.514 1255.13 602.011V623H1250.03ZM1272.66 623V589.832H1277.75V623H1272.66ZM1275.25 584.304C1274.26 584.304 1273.4 583.966 1272.68 583.289C1271.97 582.613 1271.62 581.799 1271.62 580.849C1271.62 579.899 1271.97 579.086 1272.68 578.409C1273.4 577.733 1274.26 577.394 1275.25 577.394C1276.24 577.394 1277.09 577.733 1277.8 578.409C1278.52 579.086 1278.88 579.899 1278.88 580.849C1278.88 581.799 1278.52 582.613 1277.8 583.289C1277.09 583.966 1276.24 584.304 1275.25 584.304ZM1296.85 623.777C1294.75 623.777 1292.84 623.381 1291.13 622.59C1289.41 621.784 1288.05 620.625 1287.04 619.113C1286.04 617.587 1285.53 615.745 1285.53 613.585C1285.53 611.685 1285.91 610.145 1286.66 608.964C1287.4 607.769 1288.4 606.834 1289.66 606.157C1290.91 605.48 1292.29 604.977 1293.8 604.645C1295.33 604.3 1296.86 604.026 1298.4 603.825C1300.42 603.566 1302.05 603.371 1303.3 603.242C1304.57 603.098 1305.49 602.86 1306.07 602.529C1306.66 602.198 1306.95 601.622 1306.95 600.802V600.629C1306.95 598.498 1306.37 596.843 1305.2 595.662C1304.05 594.482 1302.3 593.892 1299.96 593.892C1297.52 593.892 1295.62 594.424 1294.24 595.49C1292.85 596.555 1291.88 597.692 1291.32 598.901L1286.48 597.174C1287.35 595.159 1288.5 593.589 1289.94 592.467C1291.39 591.329 1292.98 590.538 1294.69 590.091C1296.42 589.631 1298.11 589.4 1299.78 589.4C1300.85 589.4 1302.07 589.53 1303.46 589.789C1304.85 590.034 1306.2 590.545 1307.49 591.322C1308.8 592.099 1309.89 593.273 1310.75 594.842C1311.62 596.411 1312.05 598.513 1312.05 601.147V623H1306.95V618.509H1306.69C1306.35 619.228 1305.77 619.998 1304.97 620.819C1304.16 621.64 1303.09 622.338 1301.75 622.914C1300.41 623.489 1298.78 623.777 1296.85 623.777ZM1297.63 619.2C1299.64 619.2 1301.34 618.804 1302.72 618.012C1304.12 617.22 1305.17 616.198 1305.87 614.946C1306.59 613.693 1306.95 612.376 1306.95 610.994V606.33C1306.74 606.589 1306.26 606.826 1305.53 607.042C1304.81 607.244 1303.97 607.424 1303.02 607.582C1302.09 607.726 1301.17 607.856 1300.28 607.971C1299.4 608.072 1298.69 608.158 1298.14 608.23C1296.82 608.403 1295.58 608.683 1294.43 609.072C1293.29 609.446 1292.37 610.015 1291.67 610.778C1290.97 611.527 1290.63 612.549 1290.63 613.844C1290.63 615.615 1291.28 616.954 1292.59 617.861C1293.92 618.753 1295.6 619.2 1297.63 619.2ZM1344.5 578.776V623H1339.14V578.776H1344.5ZM1378.04 597.26L1373.46 598.556C1373.17 597.793 1372.75 597.052 1372.19 596.332C1371.64 595.598 1370.89 594.993 1369.94 594.518C1368.99 594.043 1367.78 593.805 1366.29 593.805C1364.26 593.805 1362.57 594.273 1361.22 595.209C1359.88 596.13 1359.21 597.304 1359.21 598.729C1359.21 599.996 1359.67 600.996 1360.59 601.73C1361.51 602.464 1362.95 603.076 1364.91 603.566L1369.83 604.775C1372.8 605.495 1375.01 606.596 1376.46 608.079C1377.92 609.547 1378.64 611.44 1378.64 613.758C1378.64 615.658 1378.1 617.357 1377 618.854C1375.92 620.351 1374.41 621.532 1372.47 622.395C1370.53 623.259 1368.27 623.691 1365.69 623.691C1362.31 623.691 1359.51 622.957 1357.29 621.488C1355.07 620.02 1353.67 617.875 1353.08 615.054L1357.91 613.844C1358.38 615.629 1359.25 616.968 1360.53 617.861C1361.82 618.753 1363.51 619.2 1365.6 619.2C1367.98 619.2 1369.86 618.696 1371.26 617.688C1372.67 616.666 1373.38 615.442 1373.38 614.017C1373.38 612.865 1372.97 611.901 1372.17 611.123C1371.36 610.332 1370.12 609.741 1368.45 609.353L1362.92 608.057C1359.89 607.337 1357.66 606.222 1356.23 604.71C1354.82 603.184 1354.11 601.277 1354.11 598.988C1354.11 597.116 1354.64 595.461 1355.69 594.021C1356.76 592.582 1358.2 591.452 1360.03 590.631C1361.87 589.811 1363.96 589.4 1366.29 589.4C1369.58 589.4 1372.15 590.12 1374.02 591.56C1375.91 592.999 1377.25 594.899 1378.04 597.26ZM1391.41 578.776V623H1386.32V578.776H1391.41ZM1410.51 623.777C1408.4 623.777 1406.5 623.381 1404.78 622.59C1403.07 621.784 1401.71 620.625 1400.7 619.113C1399.69 617.587 1399.19 615.745 1399.19 613.585C1399.19 611.685 1399.57 610.145 1400.31 608.964C1401.06 607.769 1402.06 606.834 1403.32 606.157C1404.57 605.48 1405.95 604.977 1407.46 604.645C1408.99 604.3 1410.52 604.026 1412.06 603.825C1414.08 603.566 1415.71 603.371 1416.96 603.242C1418.23 603.098 1419.15 602.86 1419.73 602.529C1420.32 602.198 1420.61 601.622 1420.61 600.802V600.629C1420.61 598.498 1420.03 596.843 1418.86 595.662C1417.71 594.482 1415.96 593.892 1413.62 593.892C1411.18 593.892 1409.28 594.424 1407.89 595.49C1406.51 596.555 1405.54 597.692 1404.98 598.901L1400.14 597.174C1401 595.159 1402.16 593.589 1403.6 592.467C1405.05 591.329 1406.63 590.538 1408.35 590.091C1410.07 589.631 1411.77 589.4 1413.44 589.4C1414.51 589.4 1415.73 589.53 1417.11 589.789C1418.51 590.034 1419.86 590.545 1421.15 591.322C1422.46 592.099 1423.55 593.273 1424.41 594.842C1425.28 596.411 1425.71 598.513 1425.71 601.147V623H1420.61V618.509H1420.35C1420.01 619.228 1419.43 619.998 1418.63 620.819C1417.82 621.64 1416.75 622.338 1415.41 622.914C1414.07 623.489 1412.44 623.777 1410.51 623.777ZM1411.28 619.2C1413.3 619.2 1415 618.804 1416.38 618.012C1417.78 617.22 1418.83 616.198 1419.53 614.946C1420.25 613.693 1420.61 612.376 1420.61 610.994V606.33C1420.4 606.589 1419.92 606.826 1419.19 607.042C1418.47 607.244 1417.63 607.424 1416.68 607.582C1415.75 607.726 1414.83 607.856 1413.94 607.971C1413.06 608.072 1412.35 608.158 1411.8 608.23C1410.48 608.403 1409.24 608.683 1408.09 609.072C1406.95 609.446 1406.03 610.015 1405.32 610.778C1404.63 611.527 1404.29 612.549 1404.29 613.844C1404.29 615.615 1404.94 616.954 1406.25 617.861C1407.58 618.753 1409.25 619.2 1411.28 619.2ZM1440.11 603.047V623H1435.01V589.832H1439.93V595.015H1440.36C1441.14 593.33 1442.32 591.977 1443.91 590.955C1445.49 589.919 1447.53 589.4 1450.04 589.4C1452.28 589.4 1454.25 589.861 1455.93 590.782C1457.62 591.689 1458.93 593.071 1459.86 594.928C1460.8 596.771 1461.27 599.103 1461.27 601.925V623H1456.17V602.27C1456.17 599.664 1455.49 597.635 1454.14 596.181C1452.79 594.712 1450.93 593.978 1448.57 593.978C1446.94 593.978 1445.49 594.331 1444.21 595.036C1442.94 595.742 1441.94 596.771 1441.21 598.124C1440.47 599.477 1440.11 601.118 1440.11 603.047ZM1483.1 623.691C1480.34 623.691 1477.9 622.993 1475.78 621.596C1473.67 620.186 1472.01 618.199 1470.82 615.637C1469.62 613.06 1469.02 610.015 1469.02 606.502C1469.02 603.019 1469.62 599.996 1470.82 597.433C1472.01 594.871 1473.67 592.891 1475.81 591.495C1477.94 590.098 1480.4 589.4 1483.19 589.4C1485.35 589.4 1487.06 589.76 1488.31 590.48C1489.57 591.185 1490.54 591.992 1491.2 592.898C1491.88 593.791 1492.4 594.525 1492.78 595.101H1493.21V578.776H1498.31V623H1493.38V617.904H1492.78C1492.4 618.509 1491.87 619.271 1491.18 620.193C1490.49 621.1 1489.5 621.913 1488.22 622.633C1486.94 623.338 1485.23 623.691 1483.1 623.691ZM1483.8 619.113C1485.84 619.113 1487.57 618.581 1488.98 617.515C1490.39 616.436 1491.46 614.946 1492.19 613.045C1492.93 611.131 1493.3 608.921 1493.3 606.416C1493.3 603.94 1492.94 601.773 1492.22 599.916C1491.5 598.045 1490.43 596.591 1489.02 595.554C1487.61 594.504 1485.87 593.978 1483.8 593.978C1481.64 593.978 1479.84 594.532 1478.4 595.641C1476.97 596.735 1475.9 598.225 1475.18 600.111C1474.47 601.982 1474.12 604.084 1474.12 606.416C1474.12 608.777 1474.48 610.922 1475.2 612.851C1475.93 614.766 1477.01 616.292 1478.44 617.429C1479.88 618.552 1481.66 619.113 1483.8 619.113ZM942.102 684.389C940.36 684.389 938.77 683.965 937.33 683.115C935.89 682.252 934.739 681.1 933.875 679.66C933.026 678.221 932.601 676.63 932.601 674.888C932.601 673.132 933.026 671.541 933.875 670.116C934.739 668.676 935.89 667.532 937.33 666.683C938.77 665.819 940.36 665.387 942.102 665.387C943.858 665.387 945.449 665.819 946.874 666.683C948.314 667.532 949.458 668.676 950.308 670.116C951.172 671.541 951.603 673.132 951.603 674.888C951.603 676.63 951.172 678.221 950.308 679.66C949.458 681.1 948.314 682.252 946.874 683.115C945.449 683.965 943.858 684.389 942.102 684.389ZM998.764 697V652.776H1013.71C1017.18 652.776 1020.01 653.402 1022.21 654.655C1024.43 655.893 1026.07 657.57 1027.14 659.686C1028.2 661.802 1028.74 664.163 1028.74 666.769C1028.74 669.375 1028.2 671.743 1027.14 673.873C1026.09 676.004 1024.46 677.702 1022.26 678.969C1020.06 680.222 1017.23 680.848 1013.79 680.848H1003.08V676.097H1013.62C1016 676.097 1017.9 675.687 1019.34 674.867C1020.78 674.046 1021.83 672.937 1022.47 671.541C1023.14 670.13 1023.47 668.54 1023.47 666.769C1023.47 664.998 1023.14 663.415 1022.47 662.018C1021.83 660.622 1020.78 659.528 1019.32 658.736C1017.87 657.93 1015.94 657.527 1013.53 657.527H1004.12V697H998.764ZM1046.43 697.777C1044.33 697.777 1042.42 697.381 1040.71 696.59C1039 695.784 1037.64 694.625 1036.63 693.113C1035.62 691.587 1035.12 689.745 1035.12 687.585C1035.12 685.685 1035.49 684.145 1036.24 682.964C1036.99 681.769 1037.99 680.834 1039.24 680.157C1040.49 679.48 1041.88 678.977 1043.39 678.645C1044.91 678.3 1046.45 678.026 1047.99 677.825C1050 677.566 1051.64 677.371 1052.89 677.242C1054.16 677.098 1055.08 676.86 1055.65 676.529C1056.24 676.198 1056.54 675.622 1056.54 674.802V674.629C1056.54 672.498 1055.95 670.843 1054.79 669.662C1053.64 668.482 1051.89 667.892 1049.54 667.892C1047.11 667.892 1045.2 668.424 1043.82 669.49C1042.44 670.555 1041.47 671.692 1040.9 672.901L1036.07 671.174C1036.93 669.159 1038.08 667.589 1039.52 666.467C1040.98 665.329 1042.56 664.538 1044.27 664.091C1046 663.631 1047.7 663.4 1049.37 663.4C1050.43 663.4 1051.66 663.53 1053.04 663.789C1054.44 664.034 1055.78 664.545 1057.08 665.322C1058.39 666.099 1059.47 667.273 1060.34 668.842C1061.2 670.411 1061.63 672.513 1061.63 675.147V697H1056.54V692.509H1056.28C1055.93 693.228 1055.36 693.998 1054.55 694.819C1053.74 695.64 1052.67 696.338 1051.33 696.914C1049.99 697.489 1048.36 697.777 1046.43 697.777ZM1047.21 693.2C1049.22 693.2 1050.92 692.804 1052.31 692.012C1053.7 691.22 1054.75 690.198 1055.46 688.946C1056.18 687.693 1056.54 686.376 1056.54 684.994V680.33C1056.32 680.589 1055.85 680.826 1055.11 681.042C1054.39 681.244 1053.56 681.424 1052.61 681.582C1051.67 681.726 1050.76 681.856 1049.87 681.971C1048.99 682.072 1048.27 682.158 1047.73 682.23C1046.4 682.403 1045.17 682.683 1044.01 683.072C1042.88 683.446 1041.95 684.015 1041.25 684.778C1040.56 685.527 1040.21 686.549 1040.21 687.844C1040.21 689.615 1040.87 690.954 1042.18 691.861C1043.5 692.753 1045.18 693.2 1047.21 693.2ZM1076.03 652.776V697H1070.94V652.776H1076.03ZM1085.37 697V663.832H1090.29V669.015H1090.72C1091.41 667.244 1092.53 665.869 1094.07 664.89C1095.61 663.897 1097.46 663.4 1099.62 663.4C1101.81 663.4 1103.63 663.897 1105.08 664.89C1106.55 665.869 1107.69 667.244 1108.51 669.015H1108.86C1109.71 667.302 1110.98 665.941 1112.68 664.933C1114.38 663.911 1116.42 663.4 1118.79 663.4C1121.76 663.4 1124.18 664.329 1126.07 666.186C1127.96 668.029 1128.9 670.9 1128.9 674.802V697H1123.8V674.802C1123.8 672.354 1123.13 670.605 1121.79 669.554C1120.45 668.504 1118.88 667.978 1117.06 667.978C1114.73 667.978 1112.93 668.684 1111.64 670.094C1110.36 671.491 1109.72 673.261 1109.72 675.406V697H1104.54V674.283C1104.54 672.398 1103.93 670.879 1102.7 669.727C1101.48 668.561 1099.9 667.978 1097.98 667.978C1096.65 667.978 1095.41 668.331 1094.26 669.036C1093.12 669.742 1092.2 670.721 1091.5 671.973C1090.81 673.211 1090.46 674.643 1090.46 676.27V697H1085.37ZM1152.12 697.691C1148.93 697.691 1146.17 696.986 1143.85 695.575C1141.55 694.15 1139.77 692.163 1138.52 689.615C1137.28 687.053 1136.66 684.073 1136.66 680.675C1136.66 677.278 1137.28 674.283 1138.52 671.692C1139.77 669.087 1141.51 667.057 1143.74 665.603C1145.99 664.134 1148.61 663.4 1151.6 663.4C1153.33 663.4 1155.04 663.688 1156.72 664.264C1158.41 664.84 1159.94 665.776 1161.32 667.071C1162.7 668.352 1163.8 670.051 1164.62 672.167C1165.45 674.283 1165.86 676.889 1165.86 679.984V682.144H1140.29V677.738H1160.67C1160.67 675.867 1160.3 674.197 1159.55 672.729C1158.82 671.26 1157.77 670.102 1156.4 669.252C1155.04 668.403 1153.45 667.978 1151.6 667.978C1149.57 667.978 1147.82 668.482 1146.33 669.49C1144.87 670.483 1143.74 671.779 1142.94 673.377C1142.15 674.974 1141.76 676.688 1141.76 678.516V681.453C1141.76 683.957 1142.19 686.081 1143.05 687.823C1143.93 689.55 1145.15 690.867 1146.7 691.774C1148.26 692.667 1150.06 693.113 1152.12 693.113C1153.46 693.113 1154.67 692.926 1155.75 692.552C1156.84 692.163 1157.79 691.587 1158.58 690.824C1159.37 690.047 1159.98 689.082 1160.41 687.931L1165.34 689.313C1164.82 690.983 1163.95 692.451 1162.72 693.718C1161.5 694.97 1159.99 695.949 1158.19 696.655C1156.39 697.345 1154.37 697.691 1152.12 697.691ZM1188.03 663.832V668.151H1170.84V663.832H1188.03ZM1175.85 655.886H1180.95V687.499C1180.95 688.938 1181.16 690.018 1181.58 690.738C1182.01 691.443 1182.55 691.918 1183.22 692.163C1183.89 692.393 1184.61 692.509 1185.35 692.509C1185.92 692.509 1186.38 692.48 1186.74 692.422C1187.1 692.35 1187.38 692.293 1187.6 692.249L1188.64 696.827C1188.29 696.957 1187.81 697.086 1187.19 697.216C1186.57 697.36 1185.79 697.432 1184.84 697.432C1183.4 697.432 1181.99 697.122 1180.6 696.503C1179.24 695.884 1178.1 694.941 1177.19 693.675C1176.3 692.408 1175.85 690.81 1175.85 688.881V655.886ZM1210.12 663.832V668.151H1192.93V663.832H1210.12ZM1197.94 655.886H1203.04V687.499C1203.04 688.938 1203.25 690.018 1203.67 690.738C1204.1 691.443 1204.64 691.918 1205.31 692.163C1205.98 692.393 1206.7 692.509 1207.44 692.509C1208.01 692.509 1208.47 692.48 1208.83 692.422C1209.19 692.35 1209.47 692.293 1209.69 692.249L1210.73 696.827C1210.38 696.957 1209.9 697.086 1209.28 697.216C1208.66 697.36 1207.88 697.432 1206.93 697.432C1205.49 697.432 1204.08 697.122 1202.69 696.503C1201.33 695.884 1200.19 694.941 1199.28 693.675C1198.39 692.408 1197.94 690.81 1197.94 688.881V655.886ZM1230.91 697.691C1227.91 697.691 1225.28 696.978 1223.02 695.553C1220.78 694.128 1219.02 692.134 1217.76 689.572C1216.5 687.009 1215.88 684.015 1215.88 680.589C1215.88 677.134 1216.5 674.118 1217.76 671.541C1219.02 668.964 1220.78 666.963 1223.02 665.538C1225.28 664.113 1227.91 663.4 1230.91 663.4C1233.9 663.4 1236.52 664.113 1238.77 665.538C1241.03 666.963 1242.78 668.964 1244.04 671.541C1245.3 674.118 1245.94 677.134 1245.94 680.589C1245.94 684.015 1245.3 687.009 1244.04 689.572C1242.78 692.134 1241.03 694.128 1238.77 695.553C1236.52 696.978 1233.9 697.691 1230.91 697.691ZM1230.91 693.113C1233.18 693.113 1235.05 692.53 1236.52 691.364C1237.99 690.198 1239.08 688.665 1239.78 686.765C1240.49 684.864 1240.84 682.806 1240.84 680.589C1240.84 678.372 1240.49 676.306 1239.78 674.391C1239.08 672.477 1237.99 670.929 1236.52 669.749C1235.05 668.568 1233.18 667.978 1230.91 667.978C1228.63 667.978 1226.76 668.568 1225.29 669.749C1223.82 670.929 1222.74 672.477 1222.03 674.391C1221.33 676.306 1220.97 678.372 1220.97 680.589C1220.97 682.806 1221.33 684.864 1222.03 686.765C1222.74 688.665 1223.82 690.198 1225.29 691.364C1226.76 692.53 1228.63 693.113 1230.91 693.113ZM942.102 758.389C940.36 758.389 938.77 757.965 937.33 757.115C935.89 756.252 934.739 755.1 933.875 753.66C933.026 752.221 932.601 750.63 932.601 748.888C932.601 747.132 933.026 745.541 933.875 744.116C934.739 742.676 935.89 741.532 937.33 740.683C938.77 739.819 940.36 739.387 942.102 739.387C943.858 739.387 945.449 739.819 946.874 740.683C948.314 741.532 949.458 742.676 950.308 744.116C951.172 745.541 951.603 747.132 951.603 748.888C951.603 750.63 951.172 752.221 950.308 753.66C949.458 755.1 948.314 756.252 946.874 757.115C945.449 757.965 943.858 758.389 942.102 758.389ZM998.764 771V726.776H1013.71C1017.18 726.776 1020.01 727.402 1022.21 728.655C1024.43 729.893 1026.07 731.57 1027.14 733.686C1028.2 735.802 1028.74 738.163 1028.74 740.769C1028.74 743.375 1028.2 745.743 1027.14 747.873C1026.09 750.004 1024.46 751.702 1022.26 752.969C1020.06 754.222 1017.23 754.848 1013.79 754.848H1003.08V750.097H1013.62C1016 750.097 1017.9 749.687 1019.34 748.867C1020.78 748.046 1021.83 746.937 1022.47 745.541C1023.14 744.13 1023.47 742.54 1023.47 740.769C1023.47 738.998 1023.14 737.415 1022.47 736.018C1021.83 734.622 1020.78 733.528 1019.32 732.736C1017.87 731.93 1015.94 731.527 1013.53 731.527H1004.12V771H998.764ZM1046.43 771.777C1044.33 771.777 1042.42 771.381 1040.71 770.59C1039 769.784 1037.64 768.625 1036.63 767.113C1035.62 765.587 1035.12 763.745 1035.12 761.585C1035.12 759.685 1035.49 758.145 1036.24 756.964C1036.99 755.769 1037.99 754.834 1039.24 754.157C1040.49 753.48 1041.88 752.977 1043.39 752.645C1044.91 752.3 1046.45 752.026 1047.99 751.825C1050 751.566 1051.64 751.371 1052.89 751.242C1054.16 751.098 1055.08 750.86 1055.65 750.529C1056.24 750.198 1056.54 749.622 1056.54 748.802V748.629C1056.54 746.498 1055.95 744.843 1054.79 743.662C1053.64 742.482 1051.89 741.892 1049.54 741.892C1047.11 741.892 1045.2 742.424 1043.82 743.49C1042.44 744.555 1041.47 745.692 1040.9 746.901L1036.07 745.174C1036.93 743.159 1038.08 741.589 1039.52 740.467C1040.98 739.329 1042.56 738.538 1044.27 738.091C1046 737.631 1047.7 737.4 1049.37 737.4C1050.43 737.4 1051.66 737.53 1053.04 737.789C1054.44 738.034 1055.78 738.545 1057.08 739.322C1058.39 740.099 1059.47 741.273 1060.34 742.842C1061.2 744.411 1061.63 746.513 1061.63 749.147V771H1056.54V766.509H1056.28C1055.93 767.228 1055.36 767.998 1054.55 768.819C1053.74 769.64 1052.67 770.338 1051.33 770.914C1049.99 771.489 1048.36 771.777 1046.43 771.777ZM1047.21 767.2C1049.22 767.2 1050.92 766.804 1052.31 766.012C1053.7 765.22 1054.75 764.198 1055.46 762.946C1056.18 761.693 1056.54 760.376 1056.54 758.994V754.33C1056.32 754.589 1055.85 754.826 1055.11 755.042C1054.39 755.244 1053.56 755.424 1052.61 755.582C1051.67 755.726 1050.76 755.856 1049.87 755.971C1048.99 756.072 1048.27 756.158 1047.73 756.23C1046.4 756.403 1045.17 756.683 1044.01 757.072C1042.88 757.446 1041.95 758.015 1041.25 758.778C1040.56 759.527 1040.21 760.549 1040.21 761.844C1040.21 763.615 1040.87 764.954 1042.18 765.861C1043.5 766.753 1045.18 767.2 1047.21 767.2ZM1070.94 771V737.832H1075.86V742.842H1076.2C1076.81 741.201 1077.9 739.869 1079.49 738.847C1081.07 737.825 1082.85 737.314 1084.84 737.314C1085.22 737.314 1085.68 737.321 1086.25 737.336C1086.81 737.35 1087.23 737.371 1087.52 737.4V742.583C1087.35 742.54 1086.95 742.475 1086.33 742.388C1085.73 742.288 1085.09 742.237 1084.41 742.237C1082.8 742.237 1081.36 742.576 1080.09 743.252C1078.84 743.914 1077.85 744.836 1077.11 746.016C1076.39 747.182 1076.03 748.514 1076.03 750.011V771H1070.94ZM1093.56 771V737.832H1098.48V742.842H1098.83C1099.43 741.201 1100.53 739.869 1102.11 738.847C1103.69 737.825 1105.48 737.314 1107.47 737.314C1107.84 737.314 1108.31 737.321 1108.87 737.336C1109.43 737.35 1109.86 737.371 1110.14 737.4V742.583C1109.97 742.54 1109.58 742.475 1108.96 742.388C1108.35 742.288 1107.71 742.237 1107.03 742.237C1105.42 742.237 1103.98 742.576 1102.72 743.252C1101.46 743.914 1100.47 744.836 1099.74 746.016C1099.02 747.182 1098.66 748.514 1098.66 750.011V771H1093.56ZM1116.18 771V737.832H1121.28V771H1116.18ZM1118.78 732.304C1117.78 732.304 1116.93 731.966 1116.21 731.289C1115.5 730.613 1115.15 729.799 1115.15 728.849C1115.15 727.899 1115.5 727.086 1116.21 726.409C1116.93 725.733 1117.78 725.394 1118.78 725.394C1119.77 725.394 1120.62 725.733 1121.32 726.409C1122.04 727.086 1122.4 727.899 1122.4 728.849C1122.4 729.799 1122.04 730.613 1121.32 731.289C1120.62 731.966 1119.77 732.304 1118.78 732.304ZM1154.11 745.26L1149.53 746.556C1149.24 745.793 1148.82 745.052 1148.26 744.332C1147.71 743.598 1146.96 742.993 1146.01 742.518C1145.06 742.043 1143.84 741.805 1142.36 741.805C1140.33 741.805 1138.64 742.273 1137.29 743.209C1135.95 744.13 1135.28 745.304 1135.28 746.729C1135.28 747.996 1135.74 748.996 1136.66 749.73C1137.58 750.464 1139.02 751.076 1140.98 751.566L1145.9 752.775C1148.87 753.495 1151.08 754.596 1152.53 756.079C1153.99 757.547 1154.71 759.44 1154.71 761.758C1154.71 763.658 1154.17 765.357 1153.07 766.854C1151.99 768.351 1150.48 769.532 1148.54 770.395C1146.59 771.259 1144.33 771.691 1141.76 771.691C1138.37 771.691 1135.57 770.957 1133.36 769.488C1131.14 768.02 1129.74 765.875 1129.15 763.054L1133.98 761.844C1134.44 763.629 1135.31 764.968 1136.6 765.861C1137.89 766.753 1139.58 767.2 1141.67 767.2C1144.05 767.2 1145.93 766.696 1147.33 765.688C1148.74 764.666 1149.44 763.442 1149.44 762.017C1149.44 760.865 1149.04 759.901 1148.24 759.123C1147.43 758.332 1146.19 757.741 1144.52 757.353L1138.99 756.057C1135.96 755.337 1133.72 754.222 1132.3 752.71C1130.89 751.184 1130.18 749.277 1130.18 746.988C1130.18 745.116 1130.71 743.461 1131.76 742.021C1132.82 740.582 1134.27 739.452 1136.1 738.631C1137.94 737.811 1140.03 737.4 1142.36 737.4C1145.64 737.4 1148.22 738.12 1150.09 739.56C1151.98 740.999 1153.32 742.899 1154.11 745.26ZM1167.48 751.047V771H1162.38V726.776H1167.48V743.015H1167.91C1168.69 741.302 1169.86 739.941 1171.41 738.933C1172.98 737.911 1175.07 737.4 1177.67 737.4C1179.93 737.4 1181.91 737.854 1183.61 738.761C1185.31 739.653 1186.63 741.028 1187.56 742.885C1188.51 744.728 1188.99 747.074 1188.99 749.925V771H1183.89V750.27C1183.89 747.636 1183.21 745.599 1181.84 744.159C1180.49 742.705 1178.61 741.978 1176.2 741.978C1174.53 741.978 1173.04 742.331 1171.71 743.036C1170.4 743.742 1169.37 744.771 1168.6 746.124C1167.85 747.477 1167.48 749.118 1167.48 751.047Z" fill="white"/>
<path d="M681.666 443.083H741.333" stroke="white" stroke-width="14.9167" stroke-linecap="round" stroke-linejoin="round"/>
<path d="M674.209 353.583H748.792" stroke="white" stroke-width="14.9167" stroke-linecap="round" stroke-linejoin="round"/>
<path d="M711.5 390.875V443.083" stroke="white" stroke-width="14.9167" stroke-linecap="round" stroke-linejoin="round"/>
<path d="M711.501 390.875C721.391 390.875 730.876 386.946 737.87 379.953C744.863 372.959 748.792 363.474 748.792 353.584C748.792 338.667 745.063 323.75 733.876 293.917H689.126C677.938 323.75 674.209 338.667 674.209 353.584C674.209 363.474 678.138 372.959 685.131 379.953C692.125 386.946 701.61 390.875 711.501 390.875Z" stroke="white" stroke-width="14.9167" stroke-linecap="round" stroke-linejoin="round"/>
<path d="M1770.79 1206.42L1793.17 1231.03C1794.19 1232.07 1794.88 1233.39 1795.16 1234.82C1795.44 1236.26 1795.29 1237.74 1794.74 1239.09C1794.18 1240.44 1793.24 1241.6 1792.03 1242.42C1790.83 1243.24 1789.4 1243.69 1787.94 1243.71H1679.05C1677.59 1243.69 1676.17 1243.24 1674.96 1242.42C1673.76 1241.6 1672.82 1240.44 1672.26 1239.09C1671.71 1237.74 1671.56 1236.26 1671.84 1234.82C1672.12 1233.39 1672.81 1232.07 1673.83 1231.03L1696.21 1206.42H1693.97C1692.51 1206.4 1691.09 1205.95 1689.88 1205.13C1688.67 1204.31 1687.73 1203.15 1687.18 1201.8C1686.62 1200.45 1686.47 1198.97 1686.75 1197.53C1687.03 1196.1 1687.73 1194.78 1688.75 1193.74L1711.12 1169.13H1709.63C1708.11 1169.26 1706.58 1168.93 1705.25 1168.17C1703.93 1167.41 1702.86 1166.26 1702.21 1164.87C1701.56 1163.49 1701.35 1161.94 1701.61 1160.43C1701.87 1158.92 1702.59 1157.53 1703.67 1156.45L1733.5 1124.38L1763.33 1156.45C1764.41 1157.53 1765.13 1158.92 1765.39 1160.43C1765.65 1161.94 1765.44 1163.49 1764.78 1164.87C1764.13 1166.26 1763.07 1167.41 1761.74 1168.17C1760.42 1168.93 1758.89 1169.26 1757.37 1169.13H1755.87L1778.25 1193.74C1779.27 1194.78 1779.96 1196.1 1780.24 1197.53C1780.52 1198.97 1780.38 1200.45 1779.82 1201.8C1779.26 1203.15 1778.32 1204.31 1777.12 1205.13C1775.91 1205.95 1774.49 1206.4 1773.03 1206.42H1770.79Z" stroke="white" stroke-width="14.9167" stroke-linecap="round" stroke-linejoin="round"/>
<path d="M1733.5 1266.08V1243.71" stroke="white" stroke-width="14.9167" stroke-linecap="round" stroke-linejoin="round"/>
</svg>
