<svg width="1876" height="1449" viewBox="0 0 1876 1449" fill="none" xmlns="http://www.w3.org/2000/svg">
<path d="M1749.24 487.555C1749.24 487.555 1642.42 509.168 1788.46 762.334C1934.5 1015.5 1827.68 1037.11 1827.68 1037.11L1266.98 1116.29L1280.1 1203.39L1305.83 1390.7L964.368 1438.46L750 1353.01L712.476 1057.16C793.5 878.513 460.584 675.854 460.584 675.854L430.643 634.285L387.837 576.88L361.361 539.516C361.361 539.516 189.5 475.013 233.931 382.393C233.931 382.393 233.931 299.513 161.679 309.152C62.8674 283.527 23.0551 255.89 10 157.225L1114.81 10L1192.01 565.497L1749.24 487.555Z" fill="black" stroke="#886E34" stroke-width="20" stroke-linejoin="bevel"/>
<path d="M572.879 438.22C571.358 435.733 569.211 434.252 566.439 433.777C563.687 433.293 560.661 433.833 557.361 435.397C555.041 436.496 553.217 437.789 551.888 439.276C550.56 440.763 549.74 442.314 549.428 443.931C549.117 445.549 549.316 447.132 550.026 448.681C550.632 449.961 551.448 450.934 552.474 451.599C553.519 452.255 554.709 452.671 556.041 452.848C557.365 453.005 558.751 453.009 560.199 452.862C561.648 452.714 563.073 452.492 564.475 452.195L570.918 450.905C573.494 450.346 576.07 450.019 578.646 449.925C581.242 449.822 583.722 450.068 586.086 450.662C588.469 451.247 590.63 452.293 592.568 453.799C594.507 455.305 596.106 457.388 597.367 460.049C599.072 463.649 599.655 467.255 599.113 470.867C598.562 474.459 596.911 477.85 594.16 481.039C591.42 484.198 587.59 486.944 582.67 489.275C577.89 491.54 573.389 492.767 569.167 492.955C564.966 493.133 561.202 492.271 557.876 490.37C554.57 488.458 551.871 485.5 549.777 481.496L560.728 476.307C561.902 478.371 563.405 479.839 565.238 480.709C567.071 481.58 569.084 481.924 571.276 481.743C573.487 481.552 575.753 480.907 578.074 479.807C580.494 478.661 582.443 477.296 583.922 475.714C585.412 474.102 586.368 472.399 586.792 470.606C587.207 468.794 587.007 467.002 586.193 465.233C585.415 463.642 584.32 462.545 582.907 461.941C581.484 461.316 579.777 461.048 577.785 461.134C575.804 461.191 573.581 461.461 571.115 461.944L563.272 463.456C557.596 464.553 552.662 464.479 548.471 463.232C544.29 461.955 541.157 459.117 539.072 454.717C537.357 451.096 536.835 447.462 537.506 443.813C538.197 440.154 539.888 436.77 542.577 433.658C545.257 430.527 548.747 427.943 553.047 425.905C557.408 423.839 561.588 422.789 565.588 422.755C569.599 422.691 573.18 423.554 576.33 425.343C579.47 427.113 581.891 429.713 583.59 433.145L572.879 438.22ZM628.685 467.472C625.765 468.856 622.888 469.582 620.055 469.651C617.233 469.69 614.654 469.002 612.317 467.586C610.001 466.161 608.128 463.938 606.697 460.918C605.465 458.318 604.926 455.94 605.08 453.785C605.235 451.63 605.9 449.649 607.077 447.843C608.254 446.036 609.759 444.38 611.593 442.874C613.437 441.339 615.422 439.921 617.549 438.619C620.116 437.06 622.188 435.772 623.764 434.756C625.33 433.72 626.38 432.782 626.912 431.942C627.455 431.072 627.481 430.117 626.988 429.077L626.902 428.897C625.832 426.637 624.332 425.204 622.405 424.599C620.477 423.994 618.253 424.289 615.733 425.483C613.073 426.743 611.237 428.323 610.227 430.222C609.237 432.112 608.846 433.975 609.054 435.811L598.231 439.176C597.705 435.997 597.916 433.031 598.865 430.279C599.805 427.507 601.382 425.021 603.597 422.82C605.802 420.6 608.515 418.727 611.735 417.201C613.955 416.149 616.289 415.362 618.735 414.839C621.182 414.317 623.599 414.224 625.988 414.562C628.367 414.879 630.59 415.798 632.657 417.317C634.744 418.826 636.512 421.111 637.962 424.171L652.576 455.013L642.135 459.96L639.136 453.63L638.776 453.8C638.722 455.393 638.361 457.034 637.691 458.722C637.033 460.382 635.964 461.978 634.486 463.511C633.019 465.014 631.085 466.335 628.685 467.472ZM627.724 458.155C629.904 457.122 631.59 455.797 632.783 454.178C633.966 452.54 634.646 450.797 634.824 448.95C635.022 447.092 634.718 445.314 633.912 443.614L631.339 438.183C631.132 438.625 630.675 439.159 629.969 439.788C629.283 440.407 628.482 441.044 627.567 441.697C626.652 442.351 625.738 442.98 624.824 443.585C623.911 444.189 623.118 444.712 622.445 445.153C620.929 446.141 619.65 447.188 618.606 448.295C617.563 449.401 616.885 450.58 616.571 451.83C616.248 453.061 616.418 454.377 617.082 455.777C618.03 457.777 619.475 458.941 621.419 459.269C623.362 459.597 625.464 459.226 627.724 458.155ZM663.497 449.838L641.661 403.756L652.192 398.766L655.831 406.446L656.311 406.219C655.891 403.161 656.359 400.428 657.717 398.021C659.085 395.585 661.09 393.741 663.73 392.49C664.33 392.206 665.014 391.919 665.782 391.628C666.561 391.308 667.225 391.079 667.772 390.942L672.506 400.933C671.97 400.991 671.174 401.197 670.117 401.551C669.07 401.875 668.087 402.255 667.167 402.691C665.187 403.63 663.611 404.903 662.438 406.512C661.276 408.091 660.6 409.844 660.411 411.771C660.222 413.697 660.592 415.64 661.52 417.601L674.357 444.692L663.497 449.838ZM709.87 429.004C706.95 430.388 704.073 431.114 701.24 431.183C698.418 431.222 695.839 430.534 693.502 429.118C691.186 427.693 689.312 425.47 687.881 422.45C686.649 419.85 686.111 417.472 686.265 415.317C686.42 413.162 687.085 411.181 688.262 409.375C689.439 407.568 690.944 405.912 692.778 404.406C694.622 402.871 696.607 401.453 698.734 400.151C701.301 398.592 703.373 397.304 704.949 396.288C706.515 395.252 707.565 394.314 708.097 393.474C708.64 392.604 708.665 391.649 708.173 390.609L708.087 390.429C707.016 388.169 705.517 386.736 703.589 386.131C701.662 385.526 699.438 385.821 696.918 387.015C694.258 388.275 692.422 389.855 691.412 391.754C690.421 393.644 690.031 395.507 690.239 397.343L679.416 400.708C678.889 397.529 679.101 394.563 680.05 391.811C680.99 389.039 682.567 386.553 684.782 384.352C686.987 382.132 689.7 380.259 692.92 378.733C695.14 377.681 697.473 376.894 699.92 376.371C702.366 375.849 704.784 375.756 707.173 376.094C709.552 376.412 711.775 377.33 713.842 378.849C715.929 380.358 717.697 382.643 719.147 385.703L733.761 416.545L723.32 421.492L720.321 415.162L719.961 415.332C719.907 416.925 719.546 418.566 718.876 420.254C718.218 421.914 717.149 423.51 715.671 425.043C714.204 426.546 712.27 427.867 709.87 429.004ZM708.909 419.687C711.089 418.654 712.775 417.329 713.968 415.71C715.151 414.072 715.831 412.329 716.009 410.482C716.207 408.624 715.903 406.846 715.097 405.146L712.524 399.715C712.317 400.157 711.86 400.691 711.154 401.32C710.467 401.939 709.667 402.576 708.752 403.229C707.837 403.883 706.923 404.512 706.009 405.117C705.096 405.721 704.302 406.244 703.63 406.685C702.114 407.673 700.834 408.72 699.791 409.827C698.748 410.933 698.07 412.112 697.756 413.363C697.433 414.593 697.603 415.909 698.267 417.309C699.214 419.309 700.66 420.473 702.603 420.801C704.547 421.129 706.649 420.758 708.909 419.687ZM765.04 360.21L755.651 365.982C754.897 365.114 753.962 364.406 752.845 363.858C751.748 363.3 750.491 363.026 749.075 363.036C747.659 363.045 746.111 363.448 744.431 364.244C742.171 365.315 740.503 366.706 739.427 368.415C738.372 370.116 738.223 371.741 738.983 373.292C739.597 374.641 740.604 375.499 742.002 375.865C743.42 376.222 745.427 376.116 748.023 375.547L756.68 373.503C761.486 372.377 765.432 372.332 768.519 373.367C771.625 374.393 773.971 376.552 775.554 379.842C776.909 382.752 777.272 385.715 776.644 388.731C776.026 391.718 774.531 394.533 772.158 397.175C769.786 399.818 766.679 402.049 762.839 403.869C757.199 406.541 752.099 407.513 747.541 406.783C742.973 406.033 739.354 403.694 736.685 399.766L746.792 393.728C748.258 395.581 750.022 396.667 752.084 396.988C754.147 397.309 756.428 396.877 758.928 395.693C761.508 394.47 763.327 392.959 764.385 391.16C765.463 389.351 765.632 387.667 764.893 386.107C764.267 384.786 763.241 383.938 761.813 383.561C760.406 383.175 758.533 383.254 756.195 383.799L747.552 385.873C742.696 387.048 738.692 387.047 735.538 385.872C732.376 384.676 730.008 382.393 728.436 379.024C727.07 376.193 726.675 373.368 727.249 370.549C727.834 367.7 729.257 365.042 731.517 362.575C733.787 360.079 736.763 357.959 740.443 356.215C745.843 353.656 750.638 352.792 754.828 353.623C759.038 354.445 762.442 356.641 765.04 360.21ZM811.577 380.775C807.077 382.908 802.707 383.766 798.469 383.349C794.23 382.933 790.358 381.376 786.851 378.678C783.364 375.971 780.492 372.237 778.237 367.477C775.981 362.716 774.905 358.12 775.009 353.686C775.133 349.244 776.375 345.251 778.737 341.707C781.099 338.163 784.53 335.325 789.031 333.192C793.531 331.06 797.9 330.202 802.139 330.618C806.377 331.035 810.245 332.607 813.741 335.334C817.258 338.052 820.144 341.791 822.399 346.551C824.655 351.311 825.716 355.903 825.583 360.325C825.47 364.739 824.232 368.717 821.87 372.261C819.508 375.805 816.077 378.643 811.577 380.775ZM807.514 372.046C809.954 370.89 811.677 369.253 812.682 367.136C813.678 364.999 814.036 362.601 813.755 359.942C813.495 357.273 812.701 354.538 811.374 351.738C810.038 348.918 808.42 346.562 806.519 344.671C804.629 342.75 802.542 341.498 800.258 340.915C797.973 340.332 795.611 340.618 793.171 341.774C790.67 342.959 788.913 344.625 787.897 346.771C786.901 348.909 786.538 351.322 786.808 354.01C787.089 356.67 787.897 359.409 789.233 362.229C790.56 365.03 792.164 367.38 794.044 369.281C795.944 371.173 798.037 372.41 800.321 372.993C802.617 373.547 805.014 373.231 807.514 372.046ZM843.626 308.058L847.606 316.459L821.115 329.011L817.134 320.611L843.626 308.058ZM818.443 306.471L829.304 301.325L849.803 344.588C850.495 346.048 851.246 347.064 852.055 347.635C852.875 348.177 853.722 348.413 854.594 348.342C855.467 348.272 856.354 348.023 857.254 347.597C857.934 347.274 858.53 346.931 859.043 346.565C859.575 346.19 859.973 345.892 860.235 345.67L866.088 353.293C865.603 353.768 864.877 354.381 863.911 355.133C862.964 355.875 861.731 356.631 860.209 357.401C857.527 358.77 854.883 359.521 852.276 359.654C849.66 359.767 847.257 359.166 845.067 357.853C842.897 356.53 841.14 354.423 839.795 351.534L818.443 306.471ZM888.246 344.484C885.326 345.868 882.449 346.594 879.616 346.663C876.794 346.702 874.214 346.014 871.878 344.598C869.562 343.173 867.688 340.95 866.257 337.93C865.025 335.33 864.486 332.952 864.641 330.797C864.795 328.642 865.461 326.661 866.638 324.855C867.814 323.048 869.32 321.392 871.153 319.886C872.998 318.351 874.983 316.933 877.109 315.631C879.677 314.072 881.749 312.784 883.324 311.768C884.891 310.732 885.94 309.794 886.473 308.954C887.016 308.084 887.041 307.129 886.548 306.089L886.463 305.909C885.392 303.649 883.893 302.216 881.965 301.611C880.037 301.006 877.814 301.301 875.293 302.495C872.633 303.755 870.798 305.335 869.787 307.234C868.797 309.124 868.406 310.987 868.615 312.823L857.792 316.188C857.265 313.009 857.476 310.043 858.426 307.291C859.365 304.519 860.943 302.033 863.157 299.832C865.363 297.612 868.075 295.738 871.296 294.213C873.516 293.161 875.849 292.373 878.296 291.851C880.742 291.329 883.16 291.236 885.548 291.574C887.928 291.891 890.151 292.81 892.218 294.329C894.304 295.838 896.073 298.123 897.523 301.183L912.136 332.025L901.696 336.972L898.696 330.642L898.336 330.812C898.283 332.405 897.921 334.046 897.252 335.734C896.593 337.394 895.525 338.99 894.047 340.523C892.58 342.026 890.646 343.347 888.246 344.484ZM887.284 335.167C889.465 334.134 891.151 332.808 892.344 331.19C893.527 329.552 894.207 327.809 894.385 325.961C894.582 324.104 894.278 322.326 893.473 320.626L890.9 315.195C890.693 315.637 890.236 316.171 889.529 316.8C888.843 317.419 888.043 318.056 887.128 318.709C886.213 319.363 885.299 319.992 884.385 320.597C883.471 321.201 882.678 321.724 882.005 322.165C880.49 323.153 879.21 324.2 878.167 325.307C877.124 326.413 876.445 327.592 876.132 328.842C875.809 330.073 875.979 331.389 876.642 332.789C877.59 334.789 879.036 335.953 880.979 336.281C882.923 336.609 885.024 336.238 887.284 335.167Z" fill="#886E34"/>
<path d="M645.987 568.117C644.413 568.863 642.793 569.16 641.129 569.009C639.458 568.845 637.924 568.297 636.527 567.366C635.143 566.429 634.078 565.173 633.332 563.599C632.58 562.012 632.283 560.393 632.44 558.741C632.604 557.07 633.155 555.543 634.092 554.159C635.023 552.762 636.276 551.691 637.85 550.945C639.437 550.193 641.059 549.902 642.717 550.072C644.382 550.223 645.906 550.767 647.29 551.705C648.681 552.623 649.752 553.875 650.504 555.462C651.25 557.037 651.541 558.659 651.377 560.33C651.226 561.994 650.685 563.525 649.754 564.922C648.829 566.3 647.574 567.365 645.987 568.117ZM710.244 514.922C709.073 513.055 707.396 511.97 705.213 511.666C703.03 511.362 700.729 511.784 698.309 512.93C696.54 513.769 695.127 514.788 694.071 515.99C693.029 517.185 692.374 518.459 692.107 519.812C691.853 521.159 692.028 522.47 692.632 523.744C693.138 524.811 693.826 525.608 694.697 526.135C695.575 526.643 696.538 526.96 697.584 527.085C698.625 527.197 699.665 527.206 700.704 527.112C701.736 527.005 702.67 526.874 703.504 526.718L708.08 525.887C709.251 525.667 710.587 525.496 712.09 525.373C713.606 525.244 715.147 525.319 716.712 525.596C718.284 525.855 719.759 526.447 721.137 527.371C722.515 528.295 723.648 529.694 724.535 531.567C725.558 533.727 725.917 535.946 725.611 538.226C725.319 540.499 724.336 542.661 722.663 544.712C721.004 546.757 718.639 548.507 715.569 549.962C712.707 551.318 710.01 552.03 707.477 552.099C704.958 552.162 702.709 551.65 700.729 550.565C698.763 549.474 697.183 547.873 695.992 545.761L700.987 543.394C701.832 544.841 702.931 545.85 704.285 546.419C705.645 546.97 707.122 547.162 708.716 546.996C710.316 546.811 711.91 546.343 713.498 545.59C715.345 544.715 716.862 543.63 718.048 542.335C719.229 541.027 719.992 539.63 720.339 538.143C720.68 536.644 720.505 535.165 719.815 533.708C719.186 532.381 718.304 531.477 717.168 530.996C716.032 530.515 714.735 530.301 713.279 530.353C711.823 530.406 710.299 530.57 708.71 530.846L703.126 531.771C699.579 532.353 696.5 532.243 693.889 531.44C691.279 530.638 689.336 528.891 688.06 526.198C687 523.96 686.68 521.722 687.101 519.484C687.529 517.226 688.551 515.148 690.169 513.251C691.794 511.334 693.881 509.772 696.431 508.563C699.007 507.343 701.515 506.72 703.956 506.694C706.391 506.655 708.57 507.152 710.493 508.185C712.429 509.211 713.907 510.717 714.927 512.702L710.244 514.922ZM746.162 535.466C744.262 536.366 742.369 536.825 740.482 536.843C738.589 536.848 736.863 536.383 735.305 535.449C733.741 534.501 732.497 533.052 731.572 531.1C730.758 529.383 730.437 527.831 730.608 526.443C730.773 525.043 731.276 523.769 732.119 522.621C732.961 521.474 733.994 520.427 735.218 519.48C736.449 518.515 737.717 517.611 739.023 516.769C740.733 515.672 742.127 514.797 743.203 514.143C744.286 513.471 745.017 512.862 745.396 512.316C745.787 511.764 745.807 511.117 745.456 510.376L745.382 510.22C744.47 508.294 743.234 507.048 741.675 506.48C740.129 505.907 738.295 506.122 736.175 507.127C733.976 508.169 732.481 509.467 731.688 511.021C730.895 512.576 730.504 514.02 730.514 515.353L725.404 515.863C725.321 513.672 725.69 511.761 726.51 510.129C727.337 508.479 728.429 507.086 729.786 505.949C731.15 504.793 732.586 503.857 734.095 503.142C735.058 502.686 736.219 502.279 737.579 501.921C738.946 501.545 740.381 501.43 741.885 501.578C743.402 501.719 744.886 502.314 746.339 503.362C747.791 504.411 749.081 506.125 750.209 508.506L759.567 528.254L754.961 530.436L753.038 526.377L752.804 526.488C752.8 527.286 752.609 528.229 752.232 529.316C751.855 530.402 751.185 531.493 750.221 532.586C749.258 533.68 747.905 534.64 746.162 535.466ZM744.904 530.996C746.725 530.133 748.091 529.048 749.001 527.741C749.924 526.427 750.436 525.053 750.537 523.62C750.651 522.18 750.412 520.835 749.82 519.586L747.823 515.371C747.739 515.698 747.411 516.116 746.84 516.625C746.276 517.116 745.599 517.636 744.808 518.186C744.024 518.717 743.253 519.225 742.496 519.711C741.746 520.178 741.139 520.562 740.675 520.861C739.552 521.584 738.554 522.368 737.679 523.212C736.812 524.038 736.223 524.946 735.912 525.937C735.608 526.91 735.734 527.981 736.288 529.152C737.047 530.752 738.212 531.682 739.784 531.94C741.363 532.18 743.07 531.865 744.904 530.996ZM767.972 524.271L753.77 494.298L758.219 492.189L760.364 496.717L760.676 496.569C760.52 494.827 760.939 493.155 761.932 491.553C762.925 489.952 764.32 488.725 766.115 487.875C766.453 487.714 766.879 487.521 767.393 487.293C767.906 487.066 768.299 486.903 768.572 486.806L770.791 491.49C770.616 491.524 770.231 491.635 769.634 491.822C769.045 491.99 768.444 492.219 767.833 492.509C766.376 493.199 765.22 494.121 764.365 495.275C763.516 496.41 763.013 497.668 762.855 499.049C762.704 500.411 762.949 501.768 763.59 503.121L772.577 522.089L767.972 524.271ZM797.571 511.106C795.672 512.006 793.778 512.465 791.891 512.483C789.998 512.488 788.272 512.024 786.714 511.089C785.15 510.142 783.906 508.692 782.981 506.741C782.168 505.024 781.846 503.471 782.017 502.084C782.182 500.684 782.686 499.41 783.528 498.262C784.37 497.114 785.403 496.067 786.627 495.121C787.858 494.155 789.127 493.251 790.432 492.41C792.143 491.313 793.536 490.437 794.612 489.784C795.696 489.111 796.426 488.502 796.805 487.957C797.197 487.405 797.217 486.758 796.865 486.016L796.791 485.86C795.879 483.935 794.643 482.688 793.084 482.121C791.538 481.547 789.705 481.763 787.584 482.768C785.386 483.809 783.89 485.108 783.097 486.662C782.304 488.216 781.913 489.66 781.924 490.993L776.813 491.503C776.73 489.312 777.099 487.401 777.919 485.77C778.746 484.12 779.838 482.726 781.195 481.589C782.559 480.433 783.996 479.498 785.505 478.783C786.467 478.327 787.629 477.92 788.989 477.562C790.355 477.185 791.79 477.071 793.294 477.219C794.811 477.36 796.295 477.955 797.748 479.003C799.2 480.051 800.491 481.766 801.619 484.146L810.976 503.894L806.371 506.077L804.447 502.018L804.213 502.129C804.209 502.927 804.019 503.87 803.641 504.956C803.264 506.043 802.594 507.133 801.631 508.227C800.667 509.321 799.314 510.28 797.571 511.106ZM796.313 506.637C798.135 505.774 799.5 504.688 800.41 503.381C801.333 502.068 801.845 500.694 801.946 499.26C802.06 497.82 801.821 496.476 801.23 495.227L799.232 491.012C799.148 491.338 798.821 491.757 798.25 492.266C797.686 492.756 797.008 493.277 796.217 493.826C795.433 494.357 794.663 494.866 793.905 495.352C793.155 495.819 792.548 496.202 792.084 496.502C790.962 497.225 789.963 498.009 789.089 498.853C788.221 499.678 787.632 500.587 787.321 501.578C787.017 502.55 787.143 503.622 787.698 504.793C788.456 506.393 789.621 507.322 791.193 507.581C792.772 507.821 794.479 507.506 796.313 506.637ZM829.591 466.591L826.009 469.722C825.422 469.156 824.721 468.668 823.905 468.258C823.096 467.828 822.161 467.603 821.099 467.58C820.037 467.558 818.836 467.864 817.496 468.499C815.662 469.368 814.334 470.515 813.511 471.94C812.696 473.346 812.593 474.693 813.204 475.981C813.746 477.126 814.591 477.832 815.738 478.101C816.885 478.37 818.448 478.307 820.426 477.911L825.393 476.896C828.382 476.276 830.85 476.325 832.799 477.043C834.742 477.747 836.209 479.146 837.202 481.241C838.015 482.958 838.248 484.727 837.901 486.549C837.566 488.364 836.706 490.078 835.319 491.691C833.933 493.304 832.075 494.662 829.747 495.765C826.689 497.214 823.845 497.749 821.213 497.371C818.58 496.994 816.393 495.656 814.652 493.359L818.505 490.195C819.686 491.611 821.046 492.448 822.586 492.706C824.139 492.958 825.859 492.637 827.745 491.743C829.892 490.726 831.38 489.463 832.211 487.955C833.048 486.427 833.161 485.019 832.551 483.731C832.058 482.69 831.281 481.991 830.219 481.634C829.152 481.264 827.78 481.26 826.105 481.624L820.554 482.82C817.501 483.471 815.007 483.418 813.072 482.662C811.144 481.887 809.689 480.466 808.709 478.397C807.908 476.706 807.674 474.985 808.007 473.234C808.353 471.477 809.177 469.836 810.478 468.312C811.792 466.781 813.502 465.517 815.61 464.518C818.576 463.113 821.213 462.66 823.52 463.159C825.841 463.653 827.865 464.797 829.591 466.591ZM860.564 481.163C857.858 482.445 855.179 482.926 852.526 482.606C849.886 482.279 847.445 481.23 845.203 479.457C842.974 477.677 841.126 475.239 839.659 472.143C838.18 469.021 837.454 466.027 837.483 463.162C837.524 460.291 838.254 457.731 839.674 455.481C841.106 453.226 843.175 451.457 845.881 450.175C848.587 448.893 851.259 448.415 853.899 448.741C856.552 449.061 858.996 450.117 861.231 451.91C863.479 453.696 865.343 456.15 866.822 459.272C868.29 462.369 868.999 465.346 868.952 468.204C868.917 471.056 868.184 473.61 866.752 475.865C865.332 478.115 863.27 479.881 860.564 481.163ZM858.604 477.026C860.659 476.052 862.101 474.724 862.928 473.041C863.756 471.359 864.082 469.508 863.905 467.488C863.729 465.469 863.166 463.458 862.217 461.454C861.268 459.451 860.065 457.735 858.607 456.307C857.15 454.879 855.505 453.946 853.673 453.508C851.84 453.07 849.896 453.338 847.841 454.312C845.785 455.286 844.347 456.62 843.526 458.316C842.704 460.011 842.384 461.875 842.567 463.907C842.749 465.94 843.315 467.958 844.264 469.961C845.214 471.964 846.414 473.674 847.865 475.089C849.316 476.504 850.955 477.424 852.781 477.849C854.607 478.274 856.548 478 858.604 477.026ZM879.712 434.622L881.562 438.525L866.029 445.885L864.179 441.982L879.712 434.622ZM865.304 432.656L869.909 430.474L883.446 459.042C884.062 460.343 884.713 461.229 885.399 461.701C886.091 462.154 886.789 462.349 887.492 462.286C888.202 462.205 888.895 462.004 889.572 461.683C890.079 461.443 890.483 461.219 890.784 461.013C891.078 460.794 891.314 460.619 891.49 460.487L894.387 464.18C894.13 464.445 893.75 464.769 893.246 465.151C892.748 465.546 892.07 465.947 891.212 466.354C889.911 466.971 888.503 467.295 886.989 467.327C885.488 467.353 884.057 466.988 882.695 466.232C881.346 465.469 880.258 464.216 879.432 462.473L865.304 432.656ZM909.995 457.836C908.096 458.736 906.203 459.195 904.316 459.213C902.422 459.218 900.697 458.753 899.139 457.819C897.575 456.871 896.33 455.422 895.406 453.471C894.592 451.753 894.271 450.201 894.442 448.814C894.607 447.414 895.11 446.14 895.952 444.992C896.794 443.844 897.827 442.797 899.052 441.851C900.283 440.885 901.551 439.981 902.857 439.14C904.567 438.042 905.96 437.167 907.037 436.514C908.12 435.841 908.851 435.232 909.229 434.686C909.621 434.134 909.641 433.488 909.29 432.746L909.216 432.59C908.304 430.665 907.068 429.418 905.509 428.851C903.962 428.277 902.129 428.493 900.008 429.497C897.81 430.539 896.314 431.837 895.522 433.392C894.729 434.946 894.338 436.39 894.348 437.723L889.237 438.233C889.155 436.042 889.524 434.131 890.344 432.5C891.171 430.849 892.263 429.456 893.62 428.319C894.984 427.163 896.42 426.228 897.929 425.513C898.892 425.056 900.053 424.649 901.413 424.292C902.78 423.915 904.215 423.801 905.719 423.948C907.235 424.09 908.72 424.685 910.172 425.733C911.625 426.781 912.915 428.495 914.043 430.876L923.4 450.624L918.795 452.806L916.872 448.747L916.638 448.858C916.634 449.657 916.443 450.599 916.066 451.686C915.689 452.773 915.018 453.863 914.055 454.957C913.092 456.05 911.739 457.01 909.995 457.836ZM908.738 453.366C910.559 452.503 911.925 451.418 912.834 450.111C913.757 448.797 914.269 447.424 914.37 445.99C914.485 444.55 914.246 443.206 913.654 441.957L911.657 437.742C911.573 438.068 911.245 438.486 910.674 438.996C910.11 439.486 909.432 440.006 908.642 440.556C907.858 441.087 907.087 441.596 906.33 442.082C905.579 442.549 904.972 442.932 904.509 443.231C903.386 443.955 902.387 444.738 901.513 445.583C900.646 446.408 900.056 447.316 899.746 448.308C899.442 449.28 899.567 450.352 900.122 451.523C900.88 453.123 902.045 454.052 903.618 454.311C905.197 454.55 906.903 454.235 908.738 453.366ZM677.673 634.99C676.099 635.736 674.48 636.033 672.815 635.882C671.144 635.718 669.61 635.17 668.213 634.239C666.829 633.302 665.764 632.046 665.019 630.472C664.267 628.885 663.969 627.265 664.127 625.614C664.291 623.943 664.841 622.416 665.779 621.032C666.71 619.635 667.962 618.563 669.536 617.817C671.123 617.065 672.746 616.775 674.404 616.945C676.068 617.096 677.593 617.64 678.977 618.577C680.367 619.495 681.439 620.748 682.191 622.335C682.937 623.909 683.228 625.532 683.063 627.203C682.912 628.867 682.371 630.398 681.44 631.795C680.516 633.173 679.26 634.238 677.673 634.99ZM734.277 622.123L715.341 582.159L720.18 579.866L737.083 615.537L755.66 606.735L757.694 611.028L734.277 622.123ZM777.035 602.628C774.33 603.91 771.65 604.391 768.997 604.071C766.358 603.745 763.917 602.695 761.675 600.922C759.446 599.142 757.598 596.705 756.131 593.608C754.651 590.486 753.926 587.493 753.954 584.628C753.996 581.757 754.726 579.196 756.145 576.947C757.577 574.691 759.646 572.922 762.352 571.64C765.058 570.358 767.731 569.88 770.371 570.206C773.023 570.526 775.467 571.583 777.703 573.375C779.951 575.161 781.815 577.615 783.294 580.738C784.761 583.834 785.471 586.811 785.423 589.669C785.389 592.521 784.655 595.075 783.223 597.33C781.804 599.58 779.741 601.346 777.035 602.628ZM775.075 598.491C777.131 597.517 778.572 596.189 779.4 594.506C780.228 592.824 780.553 590.973 780.377 588.954C780.201 586.934 779.638 584.923 778.689 582.92C777.739 580.916 776.536 579.2 775.079 577.772C773.622 576.344 771.977 575.411 770.144 574.973C768.312 574.535 766.368 574.803 764.313 575.777C762.257 576.751 760.819 578.086 759.997 579.781C759.176 581.477 758.856 583.34 759.038 585.373C759.221 587.405 759.787 589.423 760.736 591.426C761.685 593.43 762.885 595.139 764.337 596.554C765.788 597.969 767.426 598.889 769.253 599.314C771.079 599.739 773.02 599.465 775.075 598.491ZM793.413 572.024L801.956 590.055L797.351 592.237L783.149 562.264L787.598 560.156L789.817 564.839L790.207 564.654C790.189 562.799 790.676 561.071 791.669 559.469C792.657 557.854 794.282 556.511 796.546 555.438C798.575 554.476 800.548 554.051 802.465 554.163C804.375 554.261 806.151 554.949 807.791 556.227C809.426 557.491 810.847 559.398 812.056 561.948L821.08 580.994L816.475 583.176L807.598 564.442C806.483 562.088 805.002 560.543 803.156 559.809C801.305 559.061 799.312 559.193 797.179 560.204C795.709 560.9 794.546 561.842 793.69 563.028C792.847 564.208 792.384 565.566 792.3 567.103C792.216 568.641 792.587 570.281 793.413 572.024ZM847.216 583.138C844.991 584.192 842.943 584.812 841.072 584.998C839.207 585.196 837.522 585.087 836.017 584.669C834.532 584.257 833.231 583.679 832.113 582.934L834.561 578.62C835.236 578.969 836.059 579.344 837.029 579.745C838.006 580.158 839.17 580.363 840.523 580.359C841.894 580.363 843.484 579.936 845.292 579.079C847.712 577.932 849.432 576.401 850.451 574.484C851.47 572.567 851.388 570.36 850.205 567.862L847.32 561.774L846.93 561.959C846.85 562.666 846.69 563.57 846.447 564.673C846.212 565.756 845.663 566.884 844.801 568.057C843.946 569.211 842.543 570.25 840.591 571.175C838.172 572.322 835.728 572.779 833.26 572.546C830.805 572.307 828.501 571.36 826.346 569.705C824.205 568.043 822.395 565.651 820.915 562.529C819.46 559.459 818.734 556.53 818.735 553.741C818.73 550.94 819.394 548.459 820.727 546.298C822.055 544.124 823.98 542.439 826.504 541.243C828.456 540.318 830.158 539.91 831.611 540.018C833.071 540.107 834.301 540.416 835.3 540.946C836.307 541.457 837.103 541.892 837.687 542.252L838.156 542.03L835.9 537.269L840.349 535.161L854.958 565.993C856.179 568.568 856.586 570.94 856.179 573.108C855.792 575.283 854.795 577.213 853.188 578.898C851.6 580.59 849.609 582.004 847.216 583.138ZM839.256 566.742C841.103 565.867 842.464 564.704 843.338 563.255C844.212 561.805 844.605 560.129 844.517 558.228C844.428 556.326 843.86 554.27 842.812 552.058C841.789 549.899 840.56 548.147 839.127 546.803C837.694 545.459 836.118 544.621 834.399 544.288C832.68 543.956 830.884 544.233 829.011 545.121C827.059 546.045 825.668 547.31 824.835 548.915C824.016 550.514 823.675 552.301 823.814 554.274C823.965 556.241 824.522 558.239 825.484 560.269C826.47 562.35 827.667 564.037 829.076 565.329C830.491 566.602 832.059 567.388 833.778 567.689C835.505 567.97 837.33 567.654 839.256 566.742ZM863.606 560.844L844.669 520.879L849.274 518.697L856.265 533.45L856.655 533.265C856.747 532.584 856.901 531.699 857.117 530.609C857.34 529.499 857.866 528.358 858.696 527.184C859.533 525.991 860.927 524.932 862.878 524.008C865.402 522.812 867.925 522.389 870.449 522.738C872.972 523.088 875.322 524.165 877.499 525.969C879.676 527.773 881.511 530.249 883.002 533.397C884.506 536.571 885.27 539.579 885.294 542.419C885.311 545.246 884.666 547.75 883.358 549.931C882.043 552.099 880.137 553.775 877.639 554.959C875.714 555.871 874.021 556.283 872.561 556.194C871.095 556.092 869.856 555.779 868.843 555.256C867.824 554.719 867.016 554.257 866.419 553.871L865.873 554.13L868.055 558.735L863.606 560.844ZM861.032 543.712C862.104 545.975 863.382 547.815 864.865 549.231C866.343 550.634 867.95 551.521 869.687 551.893C871.418 552.251 873.207 551.993 875.055 551.118C876.98 550.205 878.346 548.937 879.153 547.312C879.967 545.668 880.29 543.826 880.12 541.788C879.958 539.73 879.371 537.635 878.36 535.501C877.361 533.394 876.136 531.648 874.684 530.265C873.239 528.863 871.632 527.976 869.863 527.604C868.1 527.212 866.243 527.479 864.292 528.403C862.419 529.291 861.069 530.512 860.245 532.066C859.413 533.606 859.073 535.376 859.224 537.376C859.369 539.362 859.971 541.474 861.032 543.712ZM909.583 539.822C906.878 541.105 904.198 541.586 901.546 541.266C898.906 540.939 896.465 539.889 894.223 538.116C891.994 536.337 890.146 533.899 888.679 530.803C887.199 527.681 886.474 524.687 886.502 521.822C886.544 518.951 887.274 516.391 888.693 514.141C890.125 511.886 892.194 510.117 894.9 508.834C897.606 507.552 900.279 507.074 902.919 507.401C905.572 507.721 908.015 508.777 910.251 510.569C912.499 512.356 914.363 514.81 915.842 517.932C917.309 521.028 918.019 524.005 917.971 526.864C917.937 529.715 917.203 532.269 915.771 534.525C914.352 536.775 912.289 538.54 909.583 539.822ZM907.623 535.686C909.679 534.712 911.12 533.383 911.948 531.701C912.776 530.018 913.101 528.168 912.925 526.148C912.749 524.129 912.186 522.118 911.237 520.114C910.288 518.111 909.084 516.395 907.627 514.967C906.17 513.539 904.525 512.606 902.692 512.167C900.86 511.729 898.916 511.997 896.861 512.971C894.805 513.945 893.367 515.28 892.545 516.976C891.724 518.671 891.404 520.535 891.587 522.567C891.769 524.6 892.335 526.617 893.284 528.621C894.233 530.624 895.434 532.334 896.885 533.749C898.336 535.164 899.974 536.084 901.801 536.509C903.627 536.934 905.568 536.659 907.623 535.686ZM939.052 525.955C937.153 526.855 935.26 527.314 933.373 527.332C931.479 527.337 929.754 526.872 928.196 525.938C926.632 524.99 925.387 523.541 924.463 521.589C923.649 519.872 923.328 518.32 923.499 516.933C923.664 515.532 924.167 514.258 925.009 513.111C925.851 511.963 926.884 510.916 928.109 509.969C929.34 509.004 930.608 508.1 931.914 507.258C933.624 506.161 935.017 505.286 936.094 504.632C937.177 503.96 937.908 503.351 938.286 502.805C938.678 502.253 938.698 501.606 938.347 500.865L938.273 500.709C937.36 498.783 936.125 497.537 934.565 496.969C933.019 496.396 931.186 496.611 929.065 497.616C926.867 498.658 925.371 499.956 924.578 501.51C923.786 503.065 923.395 504.509 923.405 505.842L918.294 506.352C918.212 504.161 918.581 502.25 919.401 500.619C920.228 498.968 921.32 497.575 922.677 496.438C924.041 495.282 925.477 494.346 926.986 493.631C927.949 493.175 929.11 492.768 930.47 492.411C931.837 492.034 933.272 491.919 934.775 492.067C936.292 492.209 937.777 492.803 939.229 493.852C940.682 494.9 941.972 496.614 943.1 498.995L952.457 518.743L947.852 520.925L945.929 516.866L945.695 516.977C945.691 517.776 945.5 518.718 945.123 519.805C944.746 520.892 944.075 521.982 943.112 523.075C942.149 524.169 940.796 525.129 939.052 525.955ZM937.795 521.485C939.616 520.622 940.981 519.537 941.891 518.23C942.814 516.916 943.326 515.543 943.427 514.109C943.542 512.669 943.303 511.324 942.711 510.075L940.714 505.86C940.63 506.187 940.302 506.605 939.731 507.115C939.167 507.605 938.489 508.125 937.699 508.675C936.915 509.206 936.144 509.714 935.387 510.201C934.636 510.668 934.029 511.051 933.566 511.35C932.443 512.073 931.444 512.857 930.57 513.701C929.703 514.527 929.113 515.435 928.803 516.427C928.499 517.399 928.624 518.471 929.179 519.641C929.937 521.242 931.102 522.171 932.675 522.43C934.254 522.669 935.96 522.354 937.795 521.485ZM959.696 478.61L961.545 482.513L946.012 489.873L944.163 485.97L959.696 478.61ZM945.287 476.644L949.893 474.462L963.429 503.03C964.046 504.331 964.697 505.217 965.382 505.689C966.074 506.142 966.772 506.337 967.475 506.274C968.185 506.193 968.879 505.992 969.555 505.671C970.062 505.431 970.466 505.208 970.767 505.001C971.061 504.782 971.297 504.607 971.474 504.475L974.37 508.169C974.114 508.434 973.733 508.757 973.229 509.139C972.732 509.534 972.054 509.935 971.195 510.342C969.894 510.959 968.487 511.283 966.973 511.315C965.472 511.342 964.04 510.977 962.678 510.22C961.329 509.457 960.242 508.204 959.416 506.461L945.287 476.644ZM996.905 497.682L977.969 457.718L982.808 455.425L992.202 475.251L992.671 475.029L1001.23 446.696L1007.55 443.7L999.313 469.683L1026.49 483.665L1020.63 486.439L997.937 474.445L995.605 482.432L1001.74 495.389L996.905 497.682ZM1042.79 476.705C1039.9 478.073 1037.11 478.616 1034.41 478.334C1031.72 478.032 1029.26 476.998 1027.04 475.232C1024.82 473.446 1022.99 471.019 1021.53 467.948C1020.08 464.878 1019.35 461.907 1019.36 459.035C1019.38 456.144 1020.08 453.564 1021.48 451.295C1022.88 449.006 1024.93 447.221 1027.64 445.939C1029.2 445.199 1030.86 444.729 1032.63 444.528C1034.4 444.327 1036.19 444.516 1037.99 445.095C1039.79 445.661 1041.51 446.725 1043.16 448.286C1044.81 449.847 1046.29 452.026 1047.62 454.823L1048.54 456.774L1025.44 467.722L1023.55 463.741L1041.97 455.013C1041.17 453.321 1040.12 451.973 1038.81 450.966C1037.52 449.954 1036.08 449.356 1034.48 449.174C1032.89 448.986 1031.26 449.287 1029.6 450.076C1027.76 450.945 1026.39 452.152 1025.48 453.698C1024.58 455.224 1024.12 456.879 1024.09 458.662C1024.05 460.445 1024.43 462.163 1025.21 463.815L1026.47 466.469C1027.54 468.732 1028.84 470.466 1030.37 471.671C1031.9 472.856 1033.57 473.525 1035.36 473.679C1037.15 473.82 1038.97 473.449 1040.83 472.568C1042.04 471.995 1043.05 471.308 1043.87 470.507C1044.69 469.688 1045.3 468.763 1045.68 467.735C1046.07 466.693 1046.21 465.56 1046.1 464.334L1051.15 463.475C1051.39 465.206 1051.23 466.906 1050.67 468.574C1050.1 470.23 1049.15 471.762 1047.83 473.17C1046.5 474.565 1044.82 475.743 1042.79 476.705ZM1069.29 477.147C1068.51 477.517 1067.78 477.782 1067.11 477.941C1066.44 478.114 1065.96 478.197 1065.67 478.191L1064.92 473.578C1066.18 473.334 1067.22 472.969 1068.04 472.484C1068.86 471.999 1069.44 471.255 1069.77 470.251C1070.13 469.254 1070.23 467.862 1070.07 466.075L1069.81 463.326L1044.45 438.449L1049.45 436.082L1069.04 456.046L1069.35 455.899L1066.31 428.093L1071.31 425.726L1074.86 466.099C1075.02 467.918 1074.92 469.536 1074.55 470.951C1074.19 472.38 1073.57 473.606 1072.69 474.63C1071.81 475.649 1070.68 476.488 1069.29 477.147ZM709.36 701.862C707.785 702.608 706.166 702.906 704.501 702.755C702.831 702.59 701.297 702.043 699.9 701.112C698.516 700.174 697.451 698.919 696.705 697.345C695.953 695.758 695.656 694.138 695.813 692.487C695.977 690.816 696.528 689.288 697.465 687.904C698.396 686.508 699.649 685.436 701.223 684.69C702.81 683.938 704.432 683.647 706.09 683.818C707.755 683.969 709.279 684.513 710.663 685.45C712.054 686.368 713.125 687.621 713.877 689.208C714.623 690.782 714.914 692.405 714.75 694.075C714.599 695.74 714.058 697.271 713.127 698.668C712.202 700.045 710.947 701.11 709.36 701.862ZM773.617 648.667C772.446 646.801 770.769 645.716 768.586 645.412C766.403 645.108 764.102 645.529 761.682 646.676C759.913 647.514 758.5 648.534 757.444 649.735C756.402 650.93 755.747 652.204 755.48 653.557C755.226 654.904 755.401 656.215 756.005 657.49C756.511 658.557 757.199 659.354 758.07 659.881C758.948 660.389 759.91 660.705 760.957 660.831C761.998 660.943 763.038 660.952 764.077 660.858C765.109 660.751 766.043 660.619 766.877 660.463L771.453 659.633C772.623 659.413 773.96 659.241 775.463 659.119C776.979 658.99 778.52 659.064 780.085 659.342C781.657 659.601 783.132 660.192 784.51 661.116C785.888 662.041 787.02 663.439 787.908 665.313C788.931 667.472 789.29 669.692 788.984 671.971C788.692 674.245 787.709 676.407 786.036 678.458C784.377 680.503 782.012 682.252 778.942 683.707C776.08 685.063 773.383 685.776 770.85 685.845C768.331 685.907 766.082 685.396 764.102 684.311C762.135 683.22 760.556 681.618 759.365 679.507L764.36 677.14C765.205 678.587 766.304 679.595 767.657 680.165C769.017 680.715 770.494 680.908 772.088 680.742C773.689 680.557 775.283 680.088 776.87 679.336C778.718 678.461 780.235 677.376 781.421 676.081C782.602 674.773 783.365 673.375 783.712 671.889C784.053 670.389 783.878 668.911 783.188 667.454C782.559 666.127 781.677 665.223 780.541 664.741C779.405 664.26 778.108 664.046 776.652 664.099C775.196 664.152 773.672 664.316 772.082 664.591L766.499 665.517C762.952 666.098 759.873 665.988 757.262 665.186C754.652 664.384 752.709 662.636 751.433 659.943C750.373 657.706 750.053 655.468 750.474 653.229C750.902 650.972 751.924 648.894 753.542 646.996C755.167 645.08 757.254 643.517 759.804 642.309C762.38 641.088 764.888 640.465 767.329 640.44C769.764 640.401 771.943 640.898 773.866 641.93C775.802 642.956 777.28 644.462 778.3 646.448L773.617 648.667ZM800.381 672.688L786.179 642.715L790.784 640.533L804.987 670.506L800.381 672.688ZM786.154 636.61C785.256 637.035 784.337 637.096 783.397 636.793C782.47 636.483 781.803 635.899 781.396 635.041C780.989 634.182 780.96 633.296 781.307 632.383C781.668 631.463 782.297 630.791 783.195 630.365C784.093 629.94 785.005 629.882 785.932 630.191C786.872 630.495 787.546 631.075 787.953 631.934C788.359 632.793 788.383 633.682 788.022 634.601C787.674 635.515 787.051 636.184 786.154 636.61ZM826.284 661.179C823.396 662.548 820.603 663.091 817.904 662.808C815.213 662.506 812.755 661.472 810.533 659.706C808.317 657.921 806.481 655.493 805.026 652.422C803.572 649.352 802.849 646.381 802.858 643.51C802.874 640.619 803.579 638.038 804.973 635.769C806.374 633.48 808.427 631.695 811.133 630.413C812.694 629.673 814.359 629.203 816.128 629.002C817.896 628.801 819.682 628.99 821.486 629.569C823.284 630.136 825.006 631.199 826.654 632.76C828.301 634.321 829.788 636.5 831.113 639.297L832.038 641.248L808.933 652.196L807.047 648.215L825.468 639.487C824.667 637.796 823.614 636.447 822.308 635.44C821.016 634.428 819.57 633.83 817.971 633.649C816.384 633.46 814.758 633.761 813.093 634.55C811.259 635.419 809.887 636.626 808.979 638.172C808.077 639.698 807.611 641.353 807.58 643.136C807.548 644.919 807.924 646.637 808.707 648.289L809.965 650.943C811.037 653.206 812.337 654.94 813.863 656.145C815.396 657.33 817.06 657.999 818.853 658.153C820.64 658.294 822.464 657.924 824.324 657.042C825.534 656.469 826.547 655.782 827.362 654.981C828.184 654.162 828.79 653.238 829.179 652.209C829.561 651.167 829.701 650.034 829.598 648.808L834.639 647.949C834.886 649.68 834.728 651.38 834.164 653.049C833.595 654.704 832.648 656.236 831.324 657.644C829.994 659.039 828.314 660.217 826.284 661.179ZM855.614 618.034L852.032 621.165C851.445 620.599 850.744 620.111 849.928 619.701C849.12 619.271 848.184 619.046 847.122 619.023C846.06 619.001 844.859 619.307 843.519 619.942C841.685 620.811 840.357 621.958 839.535 623.383C838.719 624.789 838.617 626.136 839.227 627.424C839.769 628.569 840.614 629.275 841.761 629.544C842.908 629.813 844.471 629.75 846.45 629.354L851.417 628.338C854.405 627.719 856.873 627.768 858.822 628.485C860.765 629.19 862.232 630.589 863.225 632.684C864.039 634.401 864.272 636.17 863.924 637.992C863.589 639.807 862.729 641.521 861.342 643.134C859.956 644.746 858.099 646.105 855.77 647.208C852.713 648.657 849.868 649.192 847.236 648.814C844.604 648.437 842.417 647.099 840.675 644.802L844.529 641.638C845.709 643.054 847.07 643.891 848.61 644.149C850.163 644.401 851.882 644.08 853.769 643.186C855.915 642.169 857.404 640.906 858.234 639.398C859.071 637.87 859.185 636.462 858.574 635.174C858.081 634.133 857.304 633.434 856.243 633.077C855.175 632.707 853.804 632.703 852.128 633.067L846.578 634.263C843.525 634.914 841.03 634.861 839.095 634.105C837.167 633.33 835.713 631.909 834.733 629.84C833.931 628.149 833.697 626.428 834.031 624.677C834.377 622.92 835.2 621.279 836.501 619.755C837.815 618.224 839.526 616.96 841.633 615.961C844.599 614.556 847.236 614.103 849.544 614.602C851.864 615.096 853.888 616.24 855.614 618.034ZM872.948 601.601L874.797 605.504L859.264 612.864L857.415 608.961L872.948 601.601ZM858.539 599.635L863.144 597.453L876.681 626.021C877.297 627.322 877.948 628.208 878.634 628.68C879.326 629.133 880.024 629.328 880.727 629.265C881.437 629.184 882.13 628.983 882.807 628.662C883.314 628.422 883.718 628.198 884.019 627.992C884.313 627.773 884.549 627.598 884.725 627.466L887.622 631.159C887.366 631.424 886.985 631.748 886.481 632.13C885.984 632.525 885.305 632.926 884.447 633.333C883.146 633.95 881.738 634.274 880.224 634.306C878.724 634.333 877.292 633.967 875.93 633.211C874.581 632.448 873.493 631.195 872.667 629.452L858.539 599.635ZM903.23 624.815C901.331 625.715 899.438 626.174 897.551 626.192C895.657 626.197 893.932 625.732 892.374 624.798C890.81 623.851 889.566 622.401 888.641 620.45C887.827 618.732 887.506 617.18 887.677 615.793C887.842 614.393 888.345 613.119 889.187 611.971C890.029 610.823 891.063 609.776 892.287 608.83C893.518 607.864 894.786 606.96 896.092 606.119C897.802 605.021 899.196 604.146 900.272 603.493C901.355 602.82 902.086 602.211 902.465 601.665C902.856 601.113 902.876 600.467 902.525 599.725L902.451 599.569C901.539 597.644 900.303 596.397 898.744 595.83C897.197 595.256 895.364 595.472 893.244 596.476C891.045 597.518 889.549 598.816 888.757 600.371C887.964 601.925 887.573 603.369 887.583 604.702L882.472 605.212C882.39 603.021 882.759 601.11 883.579 599.479C884.406 597.829 885.498 596.435 886.855 595.298C888.219 594.142 889.655 593.207 891.164 592.492C892.127 592.035 893.288 591.629 894.648 591.271C896.015 590.894 897.45 590.78 898.954 590.927C900.47 591.069 901.955 591.664 903.407 592.712C904.86 593.76 906.15 595.475 907.278 597.855L916.635 617.603L912.03 619.785L910.107 615.727L909.873 615.837C909.869 616.636 909.678 617.578 909.301 618.665C908.924 619.752 908.254 620.842 907.29 621.936C906.327 623.029 904.974 623.989 903.23 624.815ZM901.973 620.345C903.794 619.482 905.16 618.397 906.069 617.09C906.992 615.777 907.504 614.403 907.606 612.969C907.72 611.529 907.481 610.185 906.889 608.936L904.892 604.721C904.808 605.047 904.48 605.465 903.909 605.975C903.345 606.465 902.668 606.985 901.877 607.535C901.093 608.066 900.322 608.575 899.565 609.061C898.814 609.528 898.207 609.911 897.744 610.21C896.621 610.934 895.622 611.717 894.748 612.562C893.881 613.387 893.292 614.295 892.981 615.287C892.677 616.259 892.802 617.331 893.357 618.502C894.115 620.102 895.281 621.031 896.853 621.29C898.432 621.529 900.138 621.215 901.973 620.345ZM941.12 606.001L922.184 566.037L927.023 563.744L936.418 583.57L936.886 583.348L945.445 555.015L951.767 552.02L943.529 578.002L970.703 591.984L964.849 594.758L942.153 582.764L939.82 590.751L945.96 603.708L941.12 606.001ZM987.006 585.024C984.118 586.393 981.324 586.936 978.626 586.653C975.934 586.352 973.477 585.318 971.254 583.551C969.038 581.766 967.202 579.338 965.748 576.268C964.293 573.197 963.57 570.227 963.579 567.355C963.595 564.464 964.3 561.884 965.694 559.614C967.095 557.326 969.148 555.54 971.854 554.258C973.415 553.518 975.08 553.048 976.849 552.847C978.617 552.646 980.404 552.836 982.207 553.415C984.005 553.981 985.727 555.044 987.375 556.605C989.023 558.166 990.509 560.345 991.834 563.142L992.759 565.094L969.655 576.041L967.768 572.06L986.19 563.332C985.388 561.641 984.335 560.292 983.03 559.285C981.737 558.273 980.292 557.676 978.692 557.494C977.105 557.306 975.48 557.606 973.814 558.395C971.98 559.264 970.609 560.472 969.7 562.017C968.799 563.544 968.332 565.198 968.301 566.981C968.27 568.764 968.645 570.482 969.428 572.134L970.686 574.788C971.758 577.052 973.058 578.786 974.584 579.99C976.117 581.175 977.781 581.844 979.574 581.998C981.361 582.139 983.185 581.769 985.045 580.887C986.255 580.314 987.268 579.627 988.083 578.827C988.906 578.007 989.511 577.083 989.9 576.054C990.283 575.013 990.422 573.879 990.32 572.653L995.361 571.794C995.607 573.525 995.449 575.225 994.886 576.894C994.316 578.55 993.369 580.081 992.045 581.489C990.715 582.884 989.035 584.063 987.006 585.024ZM1013.51 585.467C1012.73 585.836 1012 586.101 1011.33 586.261C1010.66 586.433 1010.18 586.517 1009.89 586.511L1009.14 581.897C1010.39 581.653 1011.43 581.289 1012.25 580.804C1013.07 580.319 1013.65 579.574 1013.99 578.571C1014.35 577.574 1014.44 576.181 1014.28 574.394L1014.03 571.646L988.67 546.768L993.665 544.401L1013.26 564.366L1013.57 564.218L1010.53 536.412L1015.52 534.045L1019.07 574.418C1019.23 576.238 1019.13 577.855 1018.77 579.27C1018.41 580.699 1017.79 581.925 1016.9 582.95C1016.03 583.968 1014.9 584.807 1013.51 585.467ZM741.046 768.735C739.472 769.481 737.853 769.778 736.188 769.627C734.517 769.463 732.983 768.916 731.586 767.985C730.202 767.047 729.137 765.792 728.392 764.217C727.639 762.63 727.342 761.011 727.499 759.359C727.664 757.689 728.214 756.161 729.151 754.777C730.083 753.38 731.335 752.309 732.909 751.563C734.496 750.811 736.119 750.52 737.777 750.69C739.441 750.842 740.965 751.386 742.349 752.323C743.74 753.241 744.812 754.494 745.564 756.081C746.31 757.655 746.6 759.277 746.436 760.948C746.285 762.613 745.744 764.143 744.813 765.54C743.889 766.918 742.633 767.983 741.046 768.735ZM780.353 715.128L808.158 743.148L808.626 742.926L804.55 703.663L809.624 701.258L813.886 748.176L808.89 750.543L775.279 717.532L780.353 715.128ZM844.233 734.561C841.345 735.93 838.552 736.473 835.853 736.19C833.161 735.889 830.704 734.855 828.481 733.088C826.265 731.303 824.43 728.875 822.975 725.805C821.52 722.734 820.798 719.763 820.807 716.892C820.823 714.001 821.528 711.421 822.922 709.151C824.322 706.863 826.376 705.077 829.082 703.795C830.643 703.055 832.308 702.585 834.076 702.384C835.845 702.183 837.631 702.373 839.435 702.952C841.232 703.518 842.955 704.581 844.602 706.142C846.25 707.703 847.737 709.882 849.062 712.679L849.987 714.631L826.882 725.578L824.996 721.597L843.417 712.869C842.616 711.178 841.562 709.829 840.257 708.822C838.965 707.81 837.519 707.213 835.919 707.031C834.333 706.843 832.707 707.143 831.042 707.932C829.208 708.801 827.836 710.009 826.928 711.554C826.026 713.081 825.56 714.735 825.528 716.518C825.497 718.301 825.873 720.019 826.656 721.671L827.913 724.325C828.986 726.589 830.285 728.323 831.812 729.527C833.345 730.712 835.008 731.381 836.802 731.535C838.589 731.676 840.413 731.306 842.273 730.424C843.483 729.851 844.495 729.164 845.311 728.364C846.133 727.544 846.739 726.62 847.127 725.591C847.51 724.55 847.65 723.416 847.547 722.19L852.588 721.331C852.835 723.062 852.676 724.762 852.113 726.431C851.544 728.087 850.597 729.618 849.273 731.026C847.942 732.421 846.263 733.6 844.233 734.561ZM859.415 704.524L867.959 722.555L863.353 724.737L849.151 694.763L853.6 692.655L855.819 697.339L856.21 697.154C856.191 695.299 856.678 693.57 857.672 691.969C858.659 690.354 860.284 689.01 862.548 687.938C864.577 686.976 866.55 686.551 868.467 686.662C870.377 686.761 872.153 687.449 873.794 688.726C875.428 689.991 876.85 691.898 878.058 694.448L887.082 713.493L882.477 715.675L873.601 696.942C872.485 694.587 871.004 693.043 869.159 692.308C867.307 691.561 865.315 691.692 863.181 692.703C861.711 693.4 860.548 694.341 859.692 695.527C858.85 696.707 858.386 698.066 858.302 699.603C858.218 701.14 858.589 702.781 859.415 704.524ZM895.498 709.506L881.295 679.532L885.901 677.35L900.103 707.324L895.498 709.506ZM881.27 673.427C880.372 673.853 879.453 673.914 878.513 673.611C877.586 673.301 876.919 672.717 876.512 671.859C876.105 671 876.076 670.114 876.424 669.2C876.784 668.281 877.414 667.608 878.311 667.183C879.209 666.758 880.121 666.7 881.048 667.009C881.989 667.312 882.662 667.893 883.069 668.752C883.476 669.61 883.499 670.499 883.138 671.419C882.79 672.333 882.168 673.002 881.27 673.427ZM921.01 698.182C918.2 699.513 915.466 699.996 912.808 699.631C910.15 699.266 907.723 698.177 905.527 696.367C903.33 694.556 901.523 692.154 900.106 689.162C898.663 686.118 897.95 683.166 897.965 680.308C897.987 677.43 898.695 674.856 900.089 672.587C901.49 670.298 903.543 668.513 906.249 667.231C908.357 666.232 910.441 665.722 912.502 665.702C914.563 665.681 916.466 666.117 918.212 667.01C919.957 667.904 921.404 669.226 922.552 670.976L917.947 673.158C916.948 671.958 915.594 671.118 913.885 670.638C912.183 670.138 910.317 670.369 908.288 671.331C906.492 672.181 905.14 673.395 904.231 674.973C903.329 676.532 902.901 678.335 902.948 680.384C903.001 682.414 903.564 684.56 904.637 686.824C905.734 689.14 907.054 690.983 908.596 692.355C910.151 693.721 911.824 694.562 913.614 694.876C915.417 695.185 917.229 694.908 919.05 694.045C920.247 693.478 921.235 692.755 922.013 691.876C922.792 690.998 923.334 690.008 923.641 688.907C923.947 687.806 923.985 686.641 923.753 685.412L928.359 683.23C928.937 685.123 929.048 687.022 928.692 688.927C928.343 690.812 927.527 692.569 926.243 694.197C924.966 695.806 923.222 697.134 921.01 698.182ZM952.096 683.452C949.208 684.821 946.415 685.364 943.716 685.081C941.024 684.78 938.567 683.746 936.344 681.979C934.128 680.194 932.293 677.766 930.838 674.696C929.383 671.626 928.661 668.655 928.67 665.783C928.686 662.892 929.391 660.312 930.785 658.042C932.185 655.754 934.239 653.968 936.945 652.686C938.506 651.947 940.171 651.476 941.939 651.275C943.708 651.075 945.494 651.264 947.298 651.843C949.095 652.409 950.818 653.472 952.465 655.033C954.113 656.594 955.6 658.773 956.925 661.57L957.85 663.522L934.745 674.469L932.859 670.488L951.28 661.76C950.479 660.069 949.425 658.72 948.12 657.714C946.828 656.701 945.382 656.104 943.782 655.922C942.196 655.734 940.57 656.034 938.905 656.823C937.071 657.692 935.699 658.9 934.791 660.445C933.889 661.972 933.423 663.626 933.391 665.409C933.36 667.192 933.736 668.91 934.519 670.562L935.776 673.216C936.849 675.48 938.148 677.214 939.675 678.418C941.208 679.603 942.871 680.273 944.665 680.426C946.452 680.567 948.276 680.197 950.136 679.315C951.346 678.742 952.358 678.055 953.174 677.255C953.996 676.435 954.602 675.511 954.99 674.482C955.373 673.441 955.513 672.307 955.41 671.081L960.451 670.222C960.698 671.953 960.539 673.653 959.976 675.322C959.407 676.978 958.46 678.509 957.136 679.917C955.805 681.312 954.125 682.491 952.096 683.452ZM772.732 835.608C771.158 836.354 769.539 836.651 767.874 836.5C766.204 836.336 764.67 835.788 763.273 834.857C761.889 833.92 760.824 832.664 760.078 831.09C759.326 829.503 759.029 827.884 759.186 826.232C759.35 824.561 759.901 823.034 760.838 821.65C761.769 820.253 763.022 819.182 764.596 818.436C766.183 817.684 767.805 817.393 769.463 817.563C771.128 817.714 772.652 818.258 774.036 819.196C775.427 820.114 776.498 821.366 777.25 822.954C777.996 824.528 778.287 826.15 778.123 827.821C777.972 829.485 777.431 831.016 776.499 832.413C775.575 833.791 774.32 834.856 772.732 835.608ZM853.588 786.782C855.586 790.997 856.551 795 856.483 798.792C856.416 802.583 855.45 805.94 853.585 808.863C851.72 811.785 849.083 814.054 845.675 815.669C842.267 817.284 838.841 817.888 835.398 817.48C831.955 817.073 828.745 815.694 825.768 813.345C822.792 810.996 820.305 807.714 818.307 803.499C816.31 799.284 815.345 795.281 815.413 791.49C815.48 787.698 816.446 784.341 818.311 781.419C820.176 778.496 822.812 776.227 826.221 774.612C829.629 772.997 833.055 772.393 836.498 772.801C839.941 773.209 843.151 774.587 846.127 776.936C849.104 779.285 851.591 782.567 853.588 786.782ZM848.905 789.001C847.265 785.541 845.303 782.894 843.017 781.062C840.744 779.224 838.336 778.159 835.792 777.867C833.261 777.569 830.786 777.993 828.366 779.139C825.946 780.286 824.044 781.936 822.659 784.09C821.287 786.237 820.586 788.775 820.556 791.705C820.54 794.628 821.351 797.82 822.991 801.28C824.63 804.741 826.587 807.39 828.86 809.228C831.145 811.06 833.554 812.125 836.085 812.424C838.628 812.716 841.11 812.289 843.53 811.142C845.95 809.995 847.845 808.348 849.217 806.201C850.602 804.047 851.303 801.509 851.32 798.586C851.35 795.656 850.545 792.462 848.905 789.001ZM880.779 769.884L877.197 773.015C876.61 772.449 875.909 771.961 875.093 771.551C874.284 771.121 873.349 770.895 872.287 770.873C871.225 770.85 870.024 771.157 868.684 771.792C866.85 772.661 865.522 773.808 864.699 775.233C863.884 776.639 863.781 777.986 864.392 779.274C864.934 780.418 865.779 781.125 866.926 781.394C868.073 781.663 869.636 781.6 871.615 781.204L876.581 780.188C879.57 779.569 882.038 779.618 883.987 780.335C885.93 781.04 887.397 782.439 888.39 784.534C889.203 786.251 889.436 788.02 889.089 789.842C888.754 791.657 887.894 793.371 886.507 794.984C885.121 796.596 883.263 797.954 880.935 799.058C877.877 800.506 875.033 801.042 872.401 800.664C869.768 800.286 867.582 798.949 865.84 796.652L869.693 793.488C870.874 794.904 872.234 795.741 873.774 795.999C875.327 796.251 877.047 795.93 878.933 795.036C881.08 794.019 882.568 792.756 883.399 791.247C884.236 789.72 884.349 788.312 883.739 787.024C883.246 785.983 882.469 785.284 881.407 784.927C880.34 784.556 878.968 784.553 877.293 784.917L871.742 786.113C868.689 786.763 866.195 786.711 864.26 785.955C862.332 785.18 860.877 783.758 859.897 781.69C859.096 779.999 858.862 778.278 859.195 776.527C859.542 774.77 860.365 773.129 861.666 771.605C862.98 770.074 864.69 768.809 866.798 767.811C869.764 766.405 872.401 765.952 874.708 766.452C877.029 766.945 879.053 768.089 880.779 769.884ZM904.605 800.841L885.077 759.627L889.526 757.519L891.782 762.281L892.329 762.022C892.42 761.341 892.574 760.456 892.791 759.366C893.014 758.256 893.54 757.115 894.37 755.941C895.206 754.748 896.6 753.689 898.552 752.765C901.076 751.569 903.599 751.146 906.122 751.495C908.646 751.845 910.996 752.922 913.173 754.726C915.35 756.53 917.184 759.006 918.676 762.154C920.18 765.328 920.944 768.336 920.968 771.176C920.985 774.003 920.34 776.507 919.031 778.688C917.717 780.857 915.811 782.532 913.313 783.716C911.388 784.628 909.695 785.04 908.235 784.951C906.769 784.849 905.53 784.536 904.517 784.013C903.498 783.476 902.69 783.015 902.093 782.628L901.702 782.813L909.21 798.659L904.605 800.841ZM896.705 772.469C897.778 774.733 899.056 776.572 900.539 777.988C902.016 779.391 903.624 780.278 905.361 780.65C907.092 781.008 908.881 780.75 910.728 779.875C912.654 778.962 914.02 777.694 914.827 776.069C915.641 774.425 915.963 772.583 915.794 770.545C915.631 768.487 915.045 766.392 914.034 764.258C913.035 762.151 911.81 760.406 910.358 759.023C908.913 757.62 907.306 756.733 905.537 756.361C903.774 755.969 901.917 756.236 899.966 757.161C898.092 758.048 896.743 759.269 895.918 760.823C895.087 762.363 894.747 764.134 894.898 766.133C895.043 768.119 895.645 770.231 896.705 772.469ZM932.765 773.734L918.563 743.761L923.012 741.653L925.157 746.18L925.469 746.032C925.313 744.29 925.732 742.618 926.725 741.016C927.718 739.415 929.113 738.189 930.908 737.338C931.246 737.178 931.672 736.984 932.186 736.756C932.699 736.529 933.092 736.367 933.365 736.269L935.584 740.953C935.409 740.988 935.024 741.099 934.427 741.286C933.838 741.453 933.237 741.682 932.626 741.972C931.169 742.662 930.013 743.584 929.158 744.738C928.309 745.873 927.806 747.131 927.648 748.512C927.497 749.874 927.742 751.232 928.383 752.585L937.37 771.552L932.765 773.734ZM965.161 759.148C962.273 760.517 959.48 761.06 956.781 760.777C954.09 760.476 951.632 759.442 949.41 757.675C947.193 755.89 945.358 753.462 943.903 750.392C942.449 747.322 941.726 744.351 941.735 741.479C941.751 738.588 942.456 736.008 943.85 733.738C945.251 731.45 947.304 729.664 950.01 728.382C951.571 727.643 953.236 727.172 955.005 726.971C956.773 726.771 958.559 726.96 960.363 727.539C962.161 728.105 963.883 729.168 965.531 730.729C967.178 732.29 968.665 734.469 969.99 737.266L970.915 739.218L947.81 750.165L945.924 746.185L964.345 737.456C963.544 735.765 962.491 734.416 961.185 733.41C959.893 732.397 958.447 731.8 956.848 731.618C955.261 731.43 953.635 731.73 951.97 732.519C950.136 733.388 948.764 734.596 947.856 736.141C946.954 737.668 946.488 739.322 946.457 741.105C946.425 742.889 946.801 744.606 947.584 746.258L948.841 748.912C949.914 751.176 951.214 752.91 952.74 754.114C954.273 755.299 955.937 755.969 957.73 756.122C959.517 756.263 961.341 755.893 963.201 755.011C964.411 754.438 965.424 753.751 966.239 752.951C967.061 752.131 967.667 751.207 968.056 750.178C968.438 749.137 968.578 748.003 968.475 746.778L973.516 745.918C973.763 747.649 973.605 749.349 973.041 751.018C972.472 752.674 971.525 754.206 970.201 755.614C968.871 757.009 967.191 758.187 965.161 759.148ZM991.662 759.591C990.881 759.961 990.154 760.225 989.481 760.385C988.814 760.558 988.336 760.641 988.046 760.635L987.294 756.021C988.548 755.777 989.586 755.413 990.408 754.928C991.23 754.443 991.809 753.699 992.145 752.695C992.501 751.698 992.598 750.306 992.437 748.518L992.186 745.77L966.826 720.892L971.821 718.525L991.412 738.49L991.725 738.342L988.681 710.537L993.677 708.169L997.227 748.543C997.388 750.362 997.286 751.979 996.922 753.395C996.563 754.823 995.941 756.049 995.057 757.074C994.185 758.092 993.053 758.931 991.662 759.591ZM804.419 902.481C802.845 903.227 801.225 903.524 799.561 903.373C797.89 903.209 796.356 902.661 794.959 901.73C793.575 900.793 792.51 899.537 791.764 897.963C791.012 896.376 790.715 894.757 790.872 893.105C791.036 891.434 791.587 889.907 792.524 888.523C793.455 887.126 794.708 886.054 796.282 885.309C797.869 884.557 799.492 884.266 801.149 884.436C802.814 884.587 804.338 885.131 805.722 886.069C807.113 886.987 808.185 888.239 808.937 889.826C809.682 891.4 809.973 893.023 809.809 894.694C809.658 896.358 809.117 897.889 808.186 899.286C807.262 900.664 806.006 901.729 804.419 902.481ZM873.777 834.634L892.714 874.599L888.03 876.818L851.385 855.758L850.995 855.943L865.863 887.322L861.023 889.615L842.087 849.65L846.77 847.431L883.531 868.532L883.921 868.347L869.016 836.89L873.777 834.634ZM914.246 865.161C911.54 866.443 908.86 866.924 906.208 866.604C903.568 866.277 901.127 865.228 898.885 863.455C896.656 861.675 894.808 859.237 893.341 856.141C891.861 853.019 891.136 850.025 891.164 847.16C891.206 844.289 891.936 841.729 893.355 839.479C894.787 837.224 896.857 835.455 899.562 834.173C902.268 832.891 904.941 832.413 907.581 832.739C910.234 833.059 912.678 834.115 914.913 835.908C917.161 837.694 919.025 840.148 920.504 843.27C921.971 846.367 922.681 849.344 922.633 852.202C922.599 855.054 921.865 857.608 920.433 859.863C919.014 862.113 916.951 863.879 914.246 865.161ZM912.285 861.024C914.341 860.05 915.782 858.722 916.61 857.039C917.438 855.357 917.763 853.506 917.587 851.487C917.411 849.467 916.848 847.456 915.899 845.452C914.95 843.449 913.746 841.733 912.289 840.305C910.832 838.877 909.187 837.944 907.354 837.506C905.522 837.068 903.578 837.336 901.523 838.31C899.467 839.284 898.029 840.618 897.207 842.314C896.386 844.009 896.066 845.873 896.249 847.906C896.431 849.938 896.997 851.956 897.946 853.959C898.895 855.962 900.096 857.672 901.547 859.087C902.998 860.502 904.637 861.422 906.463 861.847C908.289 862.272 910.23 861.998 912.285 861.024ZM933.676 841.808L930.898 836.147L931.835 835.703L938.624 816.142L944.322 813.442L937.044 834.191L936.654 834.375L933.676 841.808ZM934.561 854.77L915.625 814.805L920.23 812.623L939.166 852.588L934.561 854.77ZM953.607 845.746L934.871 836.463L936.633 831.709L959.461 842.972L953.607 845.746ZM975.69 836.046C972.984 837.329 970.305 837.81 967.652 837.49C965.012 837.163 962.571 836.113 960.329 834.34C958.1 832.561 956.252 830.123 954.785 827.027C953.306 823.905 952.58 820.911 952.609 818.046C952.65 815.175 953.38 812.615 954.8 810.365C956.232 808.11 958.301 806.341 961.007 805.058C963.713 803.776 966.386 803.298 969.025 803.625C971.678 803.945 974.122 805.001 976.357 806.793C978.605 808.58 980.469 811.034 981.948 814.156C983.416 817.252 984.125 820.229 984.078 823.088C984.043 825.939 983.31 828.493 981.878 830.749C980.458 832.998 978.396 834.764 975.69 836.046ZM973.73 831.91C975.785 830.936 977.227 829.607 978.054 827.925C978.882 826.242 979.208 824.392 979.031 822.372C978.855 820.353 978.292 818.342 977.343 816.338C976.394 814.335 975.191 812.619 973.733 811.191C972.276 809.763 970.631 808.829 968.799 808.391C966.966 807.953 965.022 808.221 962.967 809.195C960.912 810.169 959.473 811.504 958.652 813.2C957.83 814.895 957.511 816.759 957.693 818.791C957.875 820.824 958.441 822.841 959.39 824.845C960.34 826.848 961.54 828.558 962.991 829.973C964.442 831.388 966.081 832.308 967.907 832.733C969.733 833.158 971.674 832.883 973.73 831.91ZM996.006 825.656L981.803 795.682L986.252 793.574L988.472 798.257L988.862 798.073C988.728 796.177 989.148 794.456 990.12 792.912C991.087 791.355 992.546 790.114 994.497 789.189C996.475 788.253 998.333 787.922 1000.07 788.197C1001.82 788.453 1003.44 789.205 1004.94 790.454L1005.25 790.306C1005.29 788.394 1005.86 786.619 1006.96 784.981C1008.06 783.33 1009.68 781.996 1011.83 780.979C1014.51 779.709 1017.1 779.509 1019.59 780.38C1022.09 781.238 1024.17 783.429 1025.84 786.955L1035.35 807.015L1030.74 809.197L1021.24 789.137C1020.19 786.925 1018.83 785.631 1017.17 785.255C1015.51 784.879 1013.86 785.079 1012.22 785.855C1010.12 786.854 1008.79 788.265 1008.23 790.089C1007.67 791.899 1007.85 793.774 1008.77 795.712L1018.02 815.226L1013.33 817.445L1003.61 796.916C1002.8 795.212 1001.6 794.102 999.997 793.585C998.392 793.055 996.718 793.203 994.975 794.029C993.778 794.596 992.81 795.445 992.071 796.576C991.346 797.7 990.932 798.979 990.831 800.413C990.737 801.828 991.038 803.27 991.734 804.74L1000.61 823.474L996.006 825.656ZM1043.77 803.025L1029.56 773.052L1034.17 770.87L1048.37 800.843L1043.77 803.025ZM1029.54 766.947C1028.64 767.372 1027.72 767.433 1026.78 767.13C1025.85 766.821 1025.19 766.237 1024.78 765.378C1024.37 764.519 1024.34 763.633 1024.69 762.72C1025.05 761.8 1025.68 761.128 1026.58 760.702C1027.48 760.277 1028.39 760.219 1029.32 760.529C1030.26 760.832 1030.93 761.413 1031.34 762.271C1031.74 763.13 1031.77 764.019 1031.41 764.939C1031.06 765.852 1030.44 766.522 1029.54 766.947ZM1067.02 763.526L1063.43 766.657C1062.85 766.091 1062.15 765.603 1061.33 765.193C1060.52 764.763 1059.59 764.538 1058.52 764.515C1057.46 764.493 1056.26 764.799 1054.92 765.434C1053.09 766.303 1051.76 767.45 1050.94 768.875C1050.12 770.281 1050.02 771.628 1050.63 772.916C1051.17 774.061 1052.02 774.767 1053.16 775.036C1054.31 775.305 1055.87 775.242 1057.85 774.846L1062.82 773.83C1065.81 773.211 1068.27 773.26 1070.22 773.977C1072.17 774.682 1073.63 776.081 1074.63 778.176C1075.44 779.893 1075.67 781.662 1075.33 783.484C1074.99 785.299 1074.13 787.013 1072.74 788.626C1071.36 790.238 1069.5 791.596 1067.17 792.7C1064.11 794.148 1061.27 794.684 1058.64 794.306C1056 793.929 1053.82 792.591 1052.08 790.294L1055.93 787.13C1057.11 788.546 1058.47 789.383 1060.01 789.641C1061.56 789.893 1063.28 789.572 1065.17 788.678C1067.32 787.661 1068.8 786.398 1069.64 784.889C1070.47 783.362 1070.59 781.954 1069.98 780.666C1069.48 779.625 1068.71 778.926 1067.64 778.569C1066.58 778.199 1065.2 778.195 1063.53 778.559L1057.98 779.755C1054.93 780.406 1052.43 780.353 1050.5 779.597C1048.57 778.822 1047.11 777.4 1046.13 775.332C1045.33 773.641 1045.1 771.92 1045.43 770.169C1045.78 768.412 1046.6 766.771 1047.9 765.247C1049.22 763.716 1050.93 762.452 1053.03 761.453C1056 760.047 1058.64 759.595 1060.94 760.094C1063.27 760.588 1065.29 761.731 1067.02 763.526ZM836.105 969.354C834.531 970.099 832.912 970.397 831.247 970.246C829.576 970.082 828.043 969.534 826.646 968.603C825.262 967.666 824.197 966.41 823.451 964.836C822.699 963.249 822.401 961.629 822.559 959.978C822.723 958.307 823.274 956.78 824.211 955.396C825.142 953.999 826.394 952.927 827.969 952.181C829.556 951.429 831.178 951.138 832.836 951.309C834.501 951.46 836.025 952.004 837.409 952.941C838.8 953.859 839.871 955.112 840.623 956.699C841.369 958.273 841.66 959.896 841.496 961.566C841.345 963.231 840.803 964.762 839.872 966.159C838.948 967.537 837.692 968.602 836.105 969.354ZM905.464 901.507L924.4 941.471L919.717 943.69L883.071 922.631L882.681 922.816L897.549 954.194L892.71 956.487L873.773 916.523L878.457 914.304L915.217 935.404L915.607 935.219L900.702 903.763L905.464 901.507ZM945.932 932.034C943.226 933.316 940.547 933.797 937.894 933.477C935.254 933.15 932.813 932.101 930.571 930.327C928.342 928.548 926.494 926.11 925.027 923.014C923.548 919.892 922.822 916.898 922.851 914.033C922.892 911.162 923.623 908.602 925.042 906.352C926.474 904.097 928.543 902.328 931.249 901.046C933.955 899.763 936.628 899.285 939.267 899.612C941.92 899.932 944.364 900.988 946.599 902.78C948.847 904.567 950.711 907.021 952.191 910.143C953.658 913.239 954.367 916.216 954.32 919.075C954.285 921.927 953.552 924.48 952.12 926.736C950.7 928.986 948.638 930.751 945.932 932.034ZM943.972 927.897C946.027 926.923 947.469 925.594 948.296 923.912C949.124 922.229 949.45 920.379 949.274 918.359C949.097 916.34 948.535 914.329 947.585 912.325C946.636 910.322 945.433 908.606 943.975 907.178C942.518 905.75 940.873 904.817 939.041 904.379C937.208 903.941 935.265 904.209 933.209 905.182C931.154 906.156 929.715 907.491 928.894 909.187C928.072 910.882 927.753 912.746 927.935 914.778C928.117 916.811 928.683 918.828 929.633 920.832C930.582 922.835 931.782 924.545 933.233 925.96C934.684 927.375 936.323 928.295 938.149 928.72C939.975 929.145 941.916 928.871 943.972 927.897ZM966.248 921.643L952.045 891.669L956.495 889.561L958.64 894.088L958.952 893.941C958.796 892.199 959.214 890.527 960.207 888.925C961.201 887.323 962.595 886.097 964.39 885.246C964.729 885.086 965.155 884.892 965.668 884.665C966.182 884.438 966.575 884.275 966.847 884.178L969.066 888.861C968.892 888.896 968.506 889.007 967.91 889.194C967.32 889.362 966.72 889.591 966.108 889.881C964.651 890.571 963.495 891.493 962.64 892.647C961.792 893.782 961.289 895.04 961.131 896.421C960.98 897.783 961.224 899.14 961.866 900.493L970.853 919.461L966.248 921.643ZM987.405 874.915L989.254 878.818L973.721 886.178L971.871 882.275L987.405 874.915ZM972.996 872.949L977.601 870.767L991.138 899.335C991.754 900.636 992.405 901.522 993.091 901.994C993.783 902.447 994.481 902.642 995.184 902.579C995.894 902.498 996.587 902.297 997.264 901.976C997.771 901.736 998.175 901.512 998.476 901.306C998.77 901.087 999.006 900.912 999.182 900.78L1002.08 904.473C1001.82 904.738 1001.44 905.062 1000.94 905.444C1000.44 905.839 999.762 906.24 998.904 906.647C997.603 907.264 996.195 907.588 994.681 907.62C993.18 907.647 991.749 907.281 990.387 906.525C989.038 905.762 987.95 904.509 987.124 902.766L972.996 872.949ZM1005.24 881.088L1013.78 899.119L1009.18 901.301L990.242 861.336L994.847 859.154L1001.8 873.829L1002.19 873.644C1002.16 871.763 1002.63 870.034 1003.6 868.458C1004.58 866.862 1006.25 865.507 1008.61 864.391C1010.65 863.423 1012.63 862.985 1014.56 863.078C1016.47 863.157 1018.25 863.835 1019.89 865.113C1021.54 866.371 1022.97 868.288 1024.19 870.864L1033.22 889.909L1028.61 892.092L1019.74 873.358C1018.61 870.978 1017.12 869.43 1015.27 868.714C1013.42 867.98 1011.41 868.127 1009.24 869.157C1007.73 869.872 1006.53 870.831 1005.63 872.036C1004.75 873.234 1004.26 874.608 1004.15 876.158C1004.05 877.701 1004.41 879.345 1005.24 881.088ZM1057.72 878.298L1038.79 838.334L1052.29 831.936C1055.43 830.45 1058.26 829.801 1060.78 829.99C1063.32 830.16 1065.52 830.973 1067.39 832.429C1069.26 833.885 1070.75 835.79 1071.86 838.145C1072.98 840.5 1073.51 842.868 1073.46 845.249C1073.42 847.625 1072.68 849.856 1071.23 851.944C1069.78 854.019 1067.5 855.793 1064.39 857.267L1054.71 861.853L1052.68 857.56L1062.2 853.047C1064.35 852.03 1065.89 850.843 1066.84 849.485C1067.79 848.127 1068.26 846.678 1068.25 845.139C1068.24 843.581 1067.86 842.001 1067.1 840.401C1066.34 838.801 1065.37 837.512 1064.17 836.533C1062.99 835.549 1061.57 835.01 1059.92 834.917C1058.26 834.811 1056.34 835.273 1054.17 836.303L1045.66 840.334L1062.56 876.005L1057.72 878.298ZM1104.13 857.074C1101.43 858.356 1098.75 858.837 1096.09 858.517C1093.45 858.191 1091.01 857.141 1088.77 855.368C1086.54 853.588 1084.69 851.15 1083.23 848.054C1081.75 844.932 1081.02 841.938 1081.05 839.073C1081.09 836.202 1081.82 833.642 1083.24 831.393C1084.67 829.137 1086.74 827.368 1089.45 826.086C1092.15 824.804 1094.83 824.326 1097.47 824.652C1100.12 824.972 1102.56 826.028 1104.8 827.821C1107.05 829.607 1108.91 832.061 1110.39 835.183C1111.86 838.28 1112.57 841.257 1112.52 844.115C1112.48 846.967 1111.75 849.521 1110.32 851.776C1108.9 854.026 1106.84 855.792 1104.13 857.074ZM1102.17 852.937C1104.23 851.963 1105.67 850.635 1106.5 848.952C1107.32 847.27 1107.65 845.419 1107.47 843.4C1107.3 841.38 1106.73 839.369 1105.78 837.366C1104.84 835.362 1103.63 833.646 1102.17 832.218C1100.72 830.79 1099.07 829.857 1097.24 829.419C1095.41 828.981 1093.46 829.249 1091.41 830.223C1089.35 831.197 1087.91 832.531 1087.09 834.227C1086.27 835.922 1085.95 837.786 1086.13 839.819C1086.32 841.851 1086.88 843.869 1087.83 845.872C1088.78 847.876 1089.98 849.585 1091.43 851C1092.88 852.415 1094.52 853.335 1096.35 853.76C1098.17 854.185 1100.12 853.911 1102.17 852.937ZM1124.45 846.683L1110.24 816.71L1114.69 814.601L1116.84 819.129L1117.15 818.981C1116.99 817.239 1117.41 815.567 1118.41 813.965C1119.4 812.364 1120.79 811.137 1122.59 810.287C1122.93 810.126 1123.35 809.933 1123.87 809.705C1124.38 809.478 1124.77 809.315 1125.05 809.218L1127.27 813.902C1127.09 813.936 1126.71 814.047 1126.11 814.234C1125.52 814.402 1124.92 814.631 1124.31 814.921C1122.85 815.611 1121.69 816.533 1120.84 817.687C1119.99 818.822 1119.49 820.08 1119.33 821.461C1119.18 822.823 1119.42 824.18 1120.06 825.533L1129.05 844.501L1124.45 846.683ZM1145.6 799.955L1147.45 803.858L1131.92 811.218L1130.07 807.315L1145.6 799.955ZM1131.2 797.989L1135.8 795.807L1149.34 824.375C1149.95 825.676 1150.6 826.563 1151.29 827.034C1151.98 827.487 1152.68 827.682 1153.38 827.62C1154.09 827.538 1154.79 827.337 1155.46 827.016C1155.97 826.776 1156.37 826.553 1156.67 826.347C1156.97 826.127 1157.2 825.952 1157.38 825.821L1160.28 829.514C1160.02 829.779 1159.64 830.102 1159.14 830.484C1158.64 830.88 1157.96 831.281 1157.1 831.687C1155.8 832.304 1154.39 832.628 1152.88 832.661C1151.38 832.687 1149.95 832.322 1148.59 831.565C1147.24 830.803 1146.15 829.55 1145.32 827.806L1131.2 797.989Z" fill="white"/>
<path d="M396.666 459.083H456.333" stroke="white" stroke-width="14.9167" stroke-linecap="round" stroke-linejoin="round"/>
<path d="M389.209 369.583H463.792" stroke="white" stroke-width="14.9167" stroke-linecap="round" stroke-linejoin="round"/>
<path d="M426.5 406.875V459.083" stroke="white" stroke-width="14.9167" stroke-linecap="round" stroke-linejoin="round"/>
<path d="M426.501 406.875C436.391 406.875 445.876 402.946 452.87 395.953C459.863 388.959 463.792 379.474 463.792 369.584C463.792 354.667 460.063 339.75 448.876 309.917H404.126C392.938 339.75 389.209 354.667 389.209 369.584C389.209 379.474 393.138 388.959 400.131 395.953C407.125 402.946 416.61 406.875 426.501 406.875Z" stroke="white" stroke-width="14.9167" stroke-linecap="round" stroke-linejoin="round"/>
<path d="M1650.79 875.417L1673.17 900.029C1674.19 901.072 1674.88 902.391 1675.16 903.824C1675.44 905.257 1675.29 906.741 1674.74 908.09C1674.18 909.44 1673.24 910.598 1672.03 911.418C1670.83 912.239 1669.4 912.688 1667.94 912.708H1559.05C1557.59 912.688 1556.17 912.239 1554.96 911.418C1553.76 910.598 1552.82 909.44 1552.26 908.09C1551.71 906.741 1551.56 905.257 1551.84 903.824C1552.12 902.391 1552.81 901.072 1553.83 900.029L1576.21 875.417H1573.97C1572.51 875.396 1571.09 874.948 1569.88 874.127C1568.67 873.306 1567.73 872.149 1567.18 870.799C1566.62 869.449 1566.47 867.965 1566.75 866.532C1567.03 865.099 1567.73 863.78 1568.75 862.738L1591.12 838.125H1589.63C1588.11 838.262 1586.58 837.928 1585.25 837.167C1583.93 836.407 1582.86 835.257 1582.21 833.873C1581.56 832.489 1581.35 830.938 1581.61 829.43C1581.87 827.923 1582.59 826.532 1583.67 825.446L1613.5 793.375L1643.33 825.446C1644.41 826.532 1645.13 827.923 1645.39 829.43C1645.65 830.938 1645.44 832.489 1644.78 833.873C1644.13 835.257 1643.07 836.407 1641.74 837.167C1640.42 837.928 1638.89 838.262 1637.37 838.125H1635.87L1658.25 862.738C1659.27 863.78 1659.96 865.099 1660.24 866.532C1660.52 867.965 1660.38 869.449 1659.82 870.799C1659.26 872.149 1658.32 873.306 1657.12 874.127C1655.91 874.948 1654.49 875.396 1653.03 875.417H1650.79Z" stroke="white" stroke-width="14.9167" stroke-linecap="round" stroke-linejoin="round"/>
<path d="M1613.5 935.083V912.708" stroke="white" stroke-width="14.9167" stroke-linecap="round" stroke-linejoin="round"/>
</svg>
