<svg width="64" height="64" viewBox="0 0 64 64" fill="none" xmlns="http://www.w3.org/2000/svg">
<path d="M15.9991 15.9987C7.15892 15.9987 -0.000244141 23.165 -0.000244141 31.9969C-0.000244141 40.8287 7.16656 47.995 15.9991 47.995V15.9911V15.9987Z" fill="black"/>
<path d="M47.998 16.0061C56.8382 16.0061 63.9974 23.1724 63.9974 32.0043C63.9974 40.8361 56.8305 48.0024 47.998 48.0024V15.9985V16.0061Z" fill="black"/>
<path d="M48.0079 15.9982C48.0079 7.15868 40.8411 0 32.0086 0C23.1761 0 16.0092 7.16632 16.0092 15.9982H48.0155H48.0079Z" fill="black"/>
<path d="M16.001 0V15.9982H0.00939321C0.00939321 7.15868 7.16855 0 16.001 0Z" fill="black"/>
<path d="M48.008 0L48.0079 15.9982H63.9998C63.9998 7.15868 56.8405 0 48.008 0Z" fill="black"/>
<path d="M16.0014 64V48.0018H0.00975735C0.00975735 56.8413 7.16891 64 16.0014 64Z" fill="black"/>
<path d="M48.008 64V48.0018H63.9998C63.9998 56.8413 56.8405 64 48.008 64Z" fill="black"/>
<path d="M15.9968 48.0018C15.9968 56.8413 23.1637 64 31.9962 64C40.8287 64 47.9955 56.8336 47.9955 48.0018H15.9892H15.9968Z" fill="black"/>
<path d="M31.9986 48.0091C40.8348 48.0091 47.9979 40.8465 47.9979 32.011C47.9979 23.1754 40.8348 16.0128 31.9986 16.0128C23.1624 16.0128 15.9992 23.1754 15.9992 32.011C15.9992 40.8465 23.1624 48.0091 31.9986 48.0091Z" fill="black"/>
</svg>
