<svg width="60" height="88" viewBox="0 0 60 88" fill="none" xmlns="http://www.w3.org/2000/svg">
<path d="M55.1999 47.9923H55.2213C55.2213 47.9923 47.1426 59.8615 40.3496 68.683C34.4781 76.3025 32.7637 82.8273 32.2709 85.9824C32.078 87.1415 31.1351 88 29.9994 88C28.8637 88 27.9208 87.1415 27.7279 85.9824C27.2351 82.8273 25.5207 76.3025 19.6492 68.683C18.7492 67.5025 17.8277 66.2791 16.9063 65.0342L39.0853 38.6343L56.9357 17.4285C58.9071 21.5709 60 26.207 60 31.1221C60 37.3465 58.2214 43.1201 55.1999 47.9923Z" fill="black"/>
<path d="M39.0853 38.6343L16.9063 65.0342C10.8633 56.921 4.77775 47.9921 4.77775 47.9921H4.79918C4.15631 46.9618 3.57773 45.9101 3.08486 44.8155L20.9138 23.6097C19.2209 25.6487 18.2137 28.2672 18.2137 31.1219C18.2137 37.6467 23.4853 42.9267 29.9997 42.9267C33.664 42.9267 36.9424 41.2528 39.0853 38.6343Z" fill="black"/>
<path d="M39.4303 1.58829L21.0656 23.438L7.00821 11.1609C12.494 4.3356 20.7656 0 30.0015 0C33.3016 0 36.4731 0.558047 39.4303 1.58829Z" fill="black"/>
<path d="M21.0647 23.4384L20.9147 23.6101L3.08577 44.8159C1.11431 40.6735 0 36.0374 0 31.1223C0 23.5243 2.63577 16.5487 7.00728 11.1614L21.0647 23.4384Z" fill="black"/>
<path d="M39.0872 38.6346C40.7801 36.5955 41.7873 33.977 41.7873 31.1224C41.7873 24.5975 36.5157 19.3175 30.0013 19.3175C26.337 19.3175 23.0576 20.9916 20.9147 23.6101L39.4303 1.58829C47.1233 4.20682 53.4232 9.98098 56.9376 17.4288L39.0872 38.6346Z" fill="black"/>
</svg>
